<svg width="122" height="83" viewBox="0 0 122 83" fill="none" xmlns="http://www.w3.org/2000/svg">
<g clip-path="url(#clip0_170_203)">
<path fill-rule="evenodd" clip-rule="evenodd" d="M54.1421 13.1279C54.1421 14.5266 53.7285 15.894 52.9535 17.057C52.1785 18.22 51.077 19.1264 49.7883 19.6615C48.4995 20.1967 47.0815 20.3366 45.7135 20.0636C44.3455 19.7905 43.0889 19.1168 42.1028 18.1275C41.1166 17.1383 40.4452 15.878 40.1733 14.5061C39.9015 13.1342 40.0415 11.7122 40.5756 10.42C41.1097 9.1279 42.0139 8.0236 43.1739 7.24683C44.3339 6.47005 45.6976 6.05569 47.0924 6.05615C48.0184 6.05615 48.9353 6.23909 49.7908 6.5945C50.6462 6.94992 51.4235 7.47086 52.0781 8.12756C52.7328 8.78426 53.252 9.56386 53.6062 10.4218C53.9603 11.2798 54.1424 12.1993 54.1421 13.1279Z" fill="#9ACD32"/>
<path fill-rule="evenodd" clip-rule="evenodd" d="M31.3884 -6.05155e-05C31.4601 0.319907 39.5017 51.2156 39.6959 50.9907C39.7422 50.9373 70.1537 1.50703 70.1537 1.50703L44.5514 29.5227C44.5514 29.5227 31.2427 -0.633039 31.3884 -6.05155e-05Z" fill="#9ACD32"/>
<path fill-rule="evenodd" clip-rule="evenodd" d="M67.992 10.1532C66.4567 12.6318 48.8613 41.2711 48.8613 41.2711H65.0463C80.2486 41.2711 81.2313 41.248 81.3376 40.8654C83.0186 35.1871 83.7931 32.472 83.7931 32.2587C83.7931 32.0454 75.2382 31.9225 75.2382 31.7278C75.2382 31.5794 76.0128 28.9941 76.0128 28.9941L84.8174 28.8666C84.8174 28.8666 87.2035 20.5011 87.1573 20.4547C87.111 20.4083 78.9191 20.2136 78.7642 20.202C78.57 20.1881 79.3076 17.2829 79.3076 17.2829L88.2509 17.051C88.2509 17.051 90.9423 8.22177 90.9423 8.18931C90.9423 8.15685 69.2498 8.11511 69.2498 8.11511L67.992 10.1439" fill="#FF6F61"/>
<path fill-rule="evenodd" clip-rule="evenodd" d="M92.0265 12.2886C91.3028 14.5747 90.7109 16.6082 90.7109 16.8099C90.7109 17.1322 97.6982 17.1785 97.6982 17.1785C97.6982 17.1785 92.4682 40.6521 92.408 40.8747C92.3063 41.2549 104.103 41.2804 104.103 41.2804L109.573 17.2829C109.573 17.2829 118.903 17.1183 119.009 16.7565C119.24 15.9334 121 8.52783 121 8.33075C121 8.2125 93.3445 8.12439 93.3445 8.12439L92.0265 12.2886Z" fill="#008080"/>
<path fill-rule="evenodd" clip-rule="evenodd" d="M1 8.57881C1 8.76198 4.06821 23.186 4.06821 23.186C4.06821 23.186 13.0231 23.244 13.0231 23.3135C13.0231 23.5361 16.0289 41.2711 16.0289 41.2711C16.0289 41.2711 31.0578 41.2155 31.0578 41.1436C31.0578 41.0717 28.4983 25.4722 28.3341 24.241C28.3017 23.9929 28.2832 23.8329 28.2832 23.7773V23.186C28.2832 23.186 32.9075 23.1489 32.9075 22.7501C32.9075 22.5183 30.8266 8.82458 30.8266 8.65532C30.8266 8.41187 1 8.44433 1 8.57881Z" fill="#008080"/>
</g>
<path d="M13.2203 59C12.3989 59 11.7643 58.84 11.3163 58.52C10.8789 58.1893 10.6069 57.6827 10.5003 57L11.5563 56.44C11.5776 56.9413 11.7056 57.288 11.9403 57.48C12.1749 57.6613 12.6016 57.752 13.2203 57.752H13.7163V59H13.2203ZM6.67625 63.16C5.88692 63.16 5.18825 63.0213 4.58025 62.744C3.98292 62.4667 3.47625 62.0827 3.06025 61.592C2.64425 61.112 2.32958 60.5467 2.11625 59.896C1.90292 59.256 1.79625 58.5627 1.79625 57.816C1.79625 57.3787 1.82825 56.9413 1.89225 56.504C1.96692 56.056 2.06292 55.624 2.18025 55.208L3.23625 55.416C3.12958 55.832 3.04425 56.2373 2.98025 56.632C2.92692 57.0267 2.90025 57.4213 2.90025 57.816C2.90025 58.6587 3.05492 59.384 3.36425 59.992C3.67358 60.6107 4.11092 61.0853 4.67625 61.416C5.24158 61.7467 5.90825 61.912 6.67625 61.912C7.46558 61.912 8.13758 61.7467 8.69225 61.416C9.25758 61.0853 9.68958 60.6107 9.98825 59.992C10.2976 59.384 10.4523 58.6587 10.4523 57.816V51.544H11.5723V57.816C11.5723 58.5627 11.4656 59.256 11.2523 59.896C11.0389 60.5467 10.7243 61.112 10.3083 61.592C9.89225 62.0827 9.38025 62.4667 8.77225 62.744C8.17492 63.0213 7.47625 63.16 6.67625 63.16ZM13.7163 59V57.752C13.8443 57.752 13.9296 57.8107 13.9723 57.928C14.0149 58.0347 14.0363 58.184 14.0363 58.376C14.0363 58.5573 14.0149 58.7067 13.9723 58.824C13.9296 58.9413 13.8443 59 13.7163 59ZM6.67625 51.656C6.45225 51.656 6.26025 51.576 6.10025 51.416C5.94025 51.256 5.86025 51.064 5.86025 50.84C5.86025 50.6053 5.94025 50.4133 6.10025 50.264C6.26025 50.104 6.45225 50.024 6.67625 50.024C6.91092 50.024 7.10292 50.104 7.25225 50.264C7.41225 50.4133 7.49225 50.6053 7.49225 50.84C7.49225 51.064 7.41225 51.256 7.25225 51.416C7.10292 51.576 6.91092 51.656 6.67625 51.656ZM13.7188 59V57.752H16.1508V59H13.7188ZM16.1508 59V57.752C16.2894 57.752 16.3748 57.8107 16.4068 57.928C16.4494 58.0347 16.4708 58.184 16.4708 58.376C16.4708 58.5573 16.4494 58.7067 16.4068 58.824C16.3748 58.9413 16.2894 59 16.1508 59ZM13.7188 59C13.5907 59 13.5054 58.9413 13.4627 58.824C13.4201 58.7067 13.3987 58.552 13.3987 58.36C13.3987 58.168 13.4201 58.0187 13.4627 57.912C13.5054 57.8053 13.5907 57.752 13.7188 57.752V59ZM16.1562 59V57.752H18.5883V59H16.1562ZM18.5883 59V57.752C18.7269 57.752 18.8123 57.8107 18.8443 57.928C18.8869 58.0347 18.9083 58.184 18.9083 58.376C18.9083 58.5573 18.8869 58.7067 18.8443 58.824C18.8123 58.9413 18.7269 59 18.5883 59ZM16.1562 59C16.0282 59 15.9429 58.9413 15.9002 58.824C15.8576 58.7067 15.8362 58.552 15.8362 58.36C15.8362 58.168 15.8576 58.0187 15.9002 57.912C15.9429 57.8053 16.0282 57.752 16.1562 57.752V59ZM18.5938 59V57.752H21.0258V59H18.5938ZM21.0258 59V57.752C21.1644 57.752 21.2498 57.8107 21.2818 57.928C21.3244 58.0347 21.3458 58.184 21.3458 58.376C21.3458 58.5573 21.3244 58.7067 21.2818 58.824C21.2498 58.9413 21.1644 59 21.0258 59ZM18.5938 59C18.4657 59 18.3804 58.9413 18.3377 58.824C18.2951 58.7067 18.2737 58.552 18.2737 58.36C18.2737 58.168 18.2951 58.0187 18.3377 57.912C18.3804 57.8053 18.4657 57.752 18.5938 57.752V59ZM21.0312 59V57.752H23.4633V59H21.0312ZM23.4633 59V57.752C23.6019 57.752 23.6873 57.8107 23.7193 57.928C23.7619 58.0347 23.7833 58.184 23.7833 58.376C23.7833 58.5573 23.7619 58.7067 23.7193 58.824C23.6873 58.9413 23.6019 59 23.4633 59ZM21.0312 59C20.9032 59 20.8179 58.9413 20.7752 58.824C20.7326 58.7067 20.7112 58.552 20.7112 58.36C20.7112 58.168 20.7326 58.0187 20.7752 57.912C20.8179 57.8053 20.9032 57.752 21.0312 57.752V59ZM23.4688 59V57.752H25.9008V59H23.4688ZM25.9008 59V57.752C26.0394 57.752 26.1248 57.8107 26.1568 57.928C26.1994 58.0347 26.2208 58.184 26.2208 58.376C26.2208 58.5573 26.1994 58.7067 26.1568 58.824C26.1248 58.9413 26.0394 59 25.9008 59ZM23.4688 59C23.3407 59 23.2554 58.9413 23.2127 58.824C23.1701 58.7067 23.1487 58.552 23.1487 58.36C23.1487 58.168 23.1701 58.0187 23.2127 57.912C23.2554 57.8053 23.3407 57.752 23.4688 57.752V59ZM25.9062 59V57.752H28.3383V59H25.9062ZM28.3383 59V57.752C28.4769 57.752 28.5623 57.8107 28.5943 57.928C28.6369 58.0347 28.6583 58.184 28.6583 58.376C28.6583 58.5573 28.6369 58.7067 28.5943 58.824C28.5623 58.9413 28.4769 59 28.3383 59ZM25.9062 59C25.7782 59 25.6929 58.9413 25.6502 58.824C25.6076 58.7067 25.5862 58.552 25.5862 58.36C25.5862 58.168 25.6076 58.0187 25.6502 57.912C25.6929 57.8053 25.7782 57.752 25.9062 57.752V59ZM28.3438 59V57.752H30.7758V59H28.3438ZM30.7758 59V57.752C30.9144 57.752 30.9998 57.8107 31.0318 57.928C31.0744 58.0347 31.0958 58.184 31.0958 58.376C31.0958 58.5573 31.0744 58.7067 31.0318 58.824C30.9998 58.9413 30.9144 59 30.7758 59ZM28.3438 59C28.2157 59 28.1304 58.9413 28.0877 58.824C28.0451 58.7067 28.0237 58.552 28.0237 58.36C28.0237 58.168 28.0451 58.0187 28.0877 57.912C28.1304 57.8053 28.2157 57.752 28.3438 57.752V59ZM30.7812 59V57.752H33.2133V59H30.7812ZM33.2133 59V57.752C33.3519 57.752 33.4373 57.8107 33.4693 57.928C33.5119 58.0347 33.5333 58.184 33.5333 58.376C33.5333 58.5573 33.5119 58.7067 33.4693 58.824C33.4373 58.9413 33.3519 59 33.2133 59ZM30.7812 59C30.6532 59 30.5679 58.9413 30.5252 58.824C30.4826 58.7067 30.4612 58.552 30.4612 58.36C30.4612 58.168 30.4826 58.0187 30.5252 57.912C30.5679 57.8053 30.6532 57.752 30.7812 57.752V59ZM33.2188 59V57.752H33.8108C34.3121 57.752 34.6961 57.7093 34.9628 57.624C35.2401 57.528 35.4321 57.368 35.5388 57.144C35.6454 56.9093 35.6988 56.5893 35.6988 56.184V51.544H36.8188V56.184C36.8188 56.824 36.7121 57.352 36.4988 57.768C36.2854 58.184 35.9601 58.4933 35.5228 58.696C35.0854 58.8987 34.5148 59 33.8108 59H33.2188ZM38.4828 59C37.8321 59 37.3041 58.8987 36.8988 58.696C36.4934 58.4933 36.1894 58.184 35.9868 57.768C35.7948 57.352 35.6988 56.824 35.6988 56.184H36.8188C36.8188 56.5893 36.8614 56.9093 36.9468 57.144C37.0428 57.368 37.2081 57.528 37.4427 57.624C37.6881 57.7093 38.0348 57.752 38.4828 57.752H38.9788V59H38.4828ZM38.9788 59V57.752C39.1068 57.752 39.1921 57.8107 39.2348 57.928C39.2774 58.0347 39.2988 58.184 39.2988 58.376C39.2988 58.5573 39.2774 58.7067 39.2348 58.824C39.1921 58.9413 39.1068 59 38.9788 59ZM33.2188 59C33.0907 59 33.0054 58.9413 32.9627 58.824C32.9201 58.7067 32.8987 58.552 32.8987 58.36C32.8987 58.168 32.9201 58.0187 32.9627 57.912C33.0054 57.8053 33.0907 57.752 33.2188 57.752V59ZM37.1708 62.28C36.9574 62.28 36.7761 62.2 36.6268 62.04C36.4774 61.8907 36.4028 61.7147 36.4028 61.512C36.4028 61.288 36.4774 61.1067 36.6268 60.968C36.7761 60.8293 36.9574 60.76 37.1708 60.76C37.3841 60.76 37.5601 60.8293 37.6988 60.968C37.8481 61.1067 37.9227 61.288 37.9227 61.512C37.9227 61.7147 37.8481 61.8907 37.6988 62.04C37.5601 62.2 37.3841 62.28 37.1708 62.28ZM35.3468 62.28C35.1441 62.28 34.9681 62.2 34.8188 62.04C34.6694 61.8907 34.5948 61.7147 34.5948 61.512C34.5948 61.288 34.6694 61.1067 34.8188 60.968C34.9681 60.8293 35.1494 60.76 35.3628 60.76C35.5761 60.76 35.7521 60.8293 35.8908 60.968C36.0401 61.1067 36.1148 61.288 36.1148 61.512C36.1148 61.7147 36.0401 61.8907 35.8908 62.04C35.7521 62.2 35.5708 62.28 35.3468 62.28ZM38.9844 59V57.752H41.4164V59H38.9844ZM41.4164 59V57.752C41.555 57.752 41.6404 57.8107 41.6724 57.928C41.715 58.0347 41.7364 58.184 41.7364 58.376C41.7364 58.5573 41.715 58.7067 41.6724 58.824C41.6404 58.9413 41.555 59 41.4164 59ZM38.9844 59C38.8564 59 38.771 58.9413 38.7284 58.824C38.6857 58.7067 38.6644 58.552 38.6644 58.36C38.6644 58.168 38.6857 58.0187 38.7284 57.912C38.771 57.8053 38.8564 57.752 38.9844 57.752V59ZM41.4219 59V57.752H43.8539V59H41.4219ZM43.8539 59V57.752C43.9925 57.752 44.0779 57.8107 44.1099 57.928C44.1525 58.0347 44.1739 58.184 44.1739 58.376C44.1739 58.5573 44.1525 58.7067 44.1099 58.824C44.0779 58.9413 43.9925 59 43.8539 59ZM41.4219 59C41.2939 59 41.2085 58.9413 41.1659 58.824C41.1232 58.7067 41.1019 58.552 41.1019 58.36C41.1019 58.168 41.1232 58.0187 41.1659 57.912C41.2085 57.8053 41.2939 57.752 41.4219 57.752V59ZM43.8594 59V57.752H46.2914V59H43.8594ZM46.2914 59V57.752C46.43 57.752 46.5154 57.8107 46.5474 57.928C46.59 58.0347 46.6114 58.184 46.6114 58.376C46.6114 58.5573 46.59 58.7067 46.5474 58.824C46.5154 58.9413 46.43 59 46.2914 59ZM43.8594 59C43.7314 59 43.646 58.9413 43.6034 58.824C43.5607 58.7067 43.5394 58.552 43.5394 58.36C43.5394 58.168 43.5607 58.0187 43.6034 57.912C43.646 57.8053 43.7314 57.752 43.8594 57.752V59ZM58.7129 59V57.752H60.6329V59H58.7129ZM60.6329 59V57.752C60.7609 57.752 60.8462 57.8107 60.8889 57.928C60.9315 58.0347 60.9529 58.184 60.9529 58.376C60.9529 58.5573 60.9315 58.7067 60.8889 58.824C60.8462 58.9413 60.7609 59 60.6329 59ZM57.9609 59V55.624C57.9609 54.8347 57.8275 54.1573 57.5609 53.592C57.3049 53.0267 56.9315 52.5947 56.4409 52.296C55.9502 51.9973 55.3582 51.848 54.6649 51.848C54.0569 51.848 53.4969 51.9653 52.9849 52.2C52.4835 52.4347 52.0355 52.76 51.6409 53.176C51.2462 53.5813 50.9102 54.056 50.6329 54.6C50.3662 55.1333 50.1582 55.704 50.0089 56.312C49.8595 56.9093 49.7849 57.512 49.7849 58.12H49.0809C49.0809 57.6827 49.1235 57.1973 49.2089 56.664C49.3049 56.12 49.4435 55.5653 49.6249 55C49.8169 54.4347 50.0569 53.8907 50.3449 53.368C50.6435 52.8453 51.0009 52.376 51.4169 51.96C51.8329 51.544 52.3129 51.2133 52.8569 50.968C53.4009 50.7227 54.0035 50.6 54.6649 50.6C55.4115 50.6 56.0622 50.7333 56.6169 51C57.1715 51.2667 57.6302 51.6347 57.9929 52.104C58.3555 52.5733 58.6222 53.112 58.7929 53.72C58.9742 54.3173 59.0649 54.952 59.0649 55.624V59H57.9609ZM47.3369 59V57.752H58.9689V59H47.3369ZM48.7769 58.36V46.008H49.8969V56.904L48.7769 58.36ZM46.2969 59C46.1689 59 46.0835 58.9413 46.0409 58.824C45.9982 58.7067 45.9769 58.552 45.9769 58.36C45.9769 58.168 45.9982 58.0187 46.0409 57.912C46.0835 57.8053 46.1689 57.752 46.2969 57.752V59ZM46.2969 59V57.752H47.3369V59H46.2969ZM60.6406 59V57.752H63.0726V59H60.6406ZM63.0726 59V57.752C63.2113 57.752 63.2966 57.8107 63.3286 57.928C63.3713 58.0347 63.3926 58.184 63.3926 58.376C63.3926 58.5573 63.3713 58.7067 63.3286 58.824C63.2966 58.9413 63.2113 59 63.0726 59ZM60.6406 59C60.5126 59 60.4273 58.9413 60.3846 58.824C60.342 58.7067 60.3206 58.552 60.3206 58.36C60.3206 58.168 60.342 58.0187 60.3846 57.912C60.4273 57.8053 60.5126 57.752 60.6406 57.752V59ZM63.0781 59V57.752H65.5101V59H63.0781ZM65.5101 59V57.752C65.6488 57.752 65.7341 57.8107 65.7661 57.928C65.8088 58.0347 65.8301 58.184 65.8301 58.376C65.8301 58.5573 65.8088 58.7067 65.7661 58.824C65.7341 58.9413 65.6488 59 65.5101 59ZM63.0781 59C62.9501 59 62.8648 58.9413 62.8221 58.824C62.7795 58.7067 62.7581 58.552 62.7581 58.36C62.7581 58.168 62.7795 58.0187 62.8221 57.912C62.8648 57.8053 62.9501 57.752 63.0781 57.752V59ZM65.5156 59V57.752H67.9476V59H65.5156ZM67.9476 59V57.752C68.0863 57.752 68.1716 57.8107 68.2036 57.928C68.2463 58.0347 68.2676 58.184 68.2676 58.376C68.2676 58.5573 68.2463 58.7067 68.2036 58.824C68.1716 58.9413 68.0863 59 67.9476 59ZM65.5156 59C65.3876 59 65.3023 58.9413 65.2596 58.824C65.217 58.7067 65.1956 58.552 65.1956 58.36C65.1956 58.168 65.217 58.0187 65.2596 57.912C65.3023 57.8053 65.3876 57.752 65.5156 57.752V59ZM67.9531 59V57.752H70.3851V59H67.9531ZM70.3851 59V57.752C70.5238 57.752 70.6091 57.8107 70.6411 57.928C70.6838 58.0347 70.7051 58.184 70.7051 58.376C70.7051 58.5573 70.6838 58.7067 70.6411 58.824C70.6091 58.9413 70.5238 59 70.3851 59ZM67.9531 59C67.8251 59 67.7398 58.9413 67.6971 58.824C67.6545 58.7067 67.6331 58.552 67.6331 58.36C67.6331 58.168 67.6545 58.0187 67.6971 57.912C67.7398 57.8053 67.8251 57.752 67.9531 57.752V59ZM70.3906 59V57.752H72.8226V59H70.3906ZM72.8226 59V57.752C72.9613 57.752 73.0466 57.8107 73.0786 57.928C73.1213 58.0347 73.1426 58.184 73.1426 58.376C73.1426 58.5573 73.1213 58.7067 73.0786 58.824C73.0466 58.9413 72.9613 59 72.8226 59ZM70.3906 59C70.2626 59 70.1773 58.9413 70.1346 58.824C70.092 58.7067 70.0706 58.552 70.0706 58.36C70.0706 58.168 70.092 58.0187 70.1346 57.912C70.1773 57.8053 70.2626 57.752 70.3906 57.752V59ZM72.8281 59V57.752H75.2601V59H72.8281ZM75.2601 59V57.752C75.3988 57.752 75.4841 57.8107 75.5161 57.928C75.5588 58.0347 75.5801 58.184 75.5801 58.376C75.5801 58.5573 75.5588 58.7067 75.5161 58.824C75.4841 58.9413 75.3988 59 75.2601 59ZM72.8281 59C72.7001 59 72.6148 58.9413 72.5721 58.824C72.5295 58.7067 72.5081 58.552 72.5081 58.36C72.5081 58.168 72.5295 58.0187 72.5721 57.912C72.6148 57.8053 72.7001 57.752 72.8281 57.752V59ZM88.8336 59C88.183 59 87.6496 58.8987 87.2336 58.696C86.8283 58.4933 86.5296 58.184 86.3376 57.768C86.1456 57.352 86.0496 56.824 86.0496 56.184H87.1536C87.1536 56.5893 87.1963 56.9093 87.2816 57.144C87.3776 57.368 87.5483 57.528 87.7936 57.624C88.039 57.7093 88.3856 57.752 88.8336 57.752H89.3296V59H88.8336ZM75.2656 59C75.1376 59 75.0523 58.9413 75.0096 58.824C74.967 58.7067 74.9456 58.552 74.9456 58.36C74.9456 58.168 74.967 58.0187 75.0096 57.912C75.0523 57.8053 75.1376 57.752 75.2656 57.752V59ZM84.4976 59C84.1456 59 83.8096 58.952 83.4896 58.856C83.1803 58.7493 82.8976 58.5893 82.6416 58.376C82.3963 58.152 82.1883 57.8693 82.0176 57.528L82.7696 56.984C82.919 57.2507 83.1323 57.4533 83.4096 57.592C83.687 57.7307 84.007 57.8 84.3696 57.8C84.871 57.8 85.2763 57.672 85.5856 57.416C85.895 57.16 86.0496 56.7493 86.0496 56.184V51.544H87.1536V56.184C87.1536 56.824 87.0363 57.352 86.8016 57.768C86.567 58.184 86.2523 58.4933 85.8576 58.696C85.463 58.8987 85.0096 59 84.4976 59ZM75.2656 59V57.752H75.8576C76.359 57.752 76.743 57.7093 77.0096 57.624C77.2763 57.528 77.463 57.368 77.5696 57.144C77.6763 56.9093 77.7296 56.5893 77.7296 56.184V53.192H78.8496V56.184C78.8496 56.824 78.743 57.352 78.5296 57.768C78.327 58.184 78.0016 58.4933 77.5536 58.696C77.1163 58.8987 76.551 59 75.8576 59H75.2656ZM80.3536 59C80.0016 59 79.6656 58.952 79.3456 58.856C79.0363 58.7493 78.7536 58.5893 78.4976 58.376C78.2416 58.152 78.0336 57.8693 77.8736 57.528L78.6096 56.984C78.7696 57.2507 78.983 57.4533 79.2496 57.592C79.527 57.7307 79.8523 57.8 80.2256 57.8C80.727 57.8 81.127 57.672 81.4256 57.416C81.735 57.16 81.8896 56.7493 81.8896 56.184V52.392H82.9936V56.184C82.9936 56.824 82.8763 57.352 82.6416 57.768C82.4176 58.184 82.103 58.4933 81.6976 58.696C81.303 58.8987 80.855 59 80.3536 59ZM89.3296 59V57.752C89.4576 57.752 89.543 57.8107 89.5856 57.928C89.6283 58.0347 89.6496 58.184 89.6496 58.376C89.6496 58.5573 89.6283 58.7067 89.5856 58.824C89.543 58.9413 89.4576 59 89.3296 59ZM89.3281 59V57.752H91.7601V59H89.3281ZM91.7601 59V57.752C91.8988 57.752 91.9841 57.8107 92.0161 57.928C92.0588 58.0347 92.0801 58.184 92.0801 58.376C92.0801 58.5573 92.0588 58.7067 92.0161 58.824C91.9841 58.9413 91.8988 59 91.7601 59ZM89.3281 59C89.2001 59 89.1148 58.9413 89.0721 58.824C89.0295 58.7067 89.0081 58.552 89.0081 58.36C89.0081 58.168 89.0295 58.0187 89.0721 57.912C89.1148 57.8053 89.2001 57.752 89.3281 57.752V59ZM91.7656 59V57.752H94.1976V59H91.7656ZM94.1976 59V57.752C94.3363 57.752 94.4216 57.8107 94.4536 57.928C94.4963 58.0347 94.5176 58.184 94.5176 58.376C94.5176 58.5573 94.4963 58.7067 94.4536 58.824C94.4216 58.9413 94.3363 59 94.1976 59ZM91.7656 59C91.6376 59 91.5523 58.9413 91.5096 58.824C91.467 58.7067 91.4456 58.552 91.4456 58.36C91.4456 58.168 91.467 58.0187 91.5096 57.912C91.5523 57.8053 91.6376 57.752 91.7656 57.752V59ZM94.2031 59V57.752H96.6351V59H94.2031ZM96.6351 59V57.752C96.7738 57.752 96.8591 57.8107 96.8911 57.928C96.9338 58.0347 96.9551 58.184 96.9551 58.376C96.9551 58.5573 96.9338 58.7067 96.8911 58.824C96.8591 58.9413 96.7738 59 96.6351 59ZM94.2031 59C94.0751 59 93.9898 58.9413 93.9471 58.824C93.9045 58.7067 93.8831 58.552 93.8831 58.36C93.8831 58.168 93.9045 58.0187 93.9471 57.912C93.9898 57.8053 94.0751 57.752 94.2031 57.752V59ZM96.6406 59V57.752H99.0726V59H96.6406ZM99.0726 59V57.752C99.2113 57.752 99.2966 57.8107 99.3286 57.928C99.3713 58.0347 99.3926 58.184 99.3926 58.376C99.3926 58.5573 99.3713 58.7067 99.3286 58.824C99.2966 58.9413 99.2113 59 99.0726 59ZM96.6406 59C96.5126 59 96.4273 58.9413 96.3846 58.824C96.342 58.7067 96.3206 58.552 96.3206 58.36C96.3206 58.168 96.342 58.0187 96.3846 57.912C96.4273 57.8053 96.5126 57.752 96.6406 57.752V59ZM99.0781 59V57.752H101.51V59H99.0781ZM101.51 59V57.752C101.649 57.752 101.734 57.8107 101.766 57.928C101.809 58.0347 101.83 58.184 101.83 58.376C101.83 58.5573 101.809 58.7067 101.766 58.824C101.734 58.9413 101.649 59 101.51 59ZM99.0781 59C98.9501 59 98.8648 58.9413 98.8221 58.824C98.7795 58.7067 98.7581 58.552 98.7581 58.36C98.7581 58.168 98.7795 58.0187 98.8221 57.912C98.8648 57.8053 98.9501 57.752 99.0781 57.752V59ZM101.516 59V57.752H101.852C102.353 57.752 102.737 57.7093 103.004 57.624C103.281 57.528 103.473 57.368 103.58 57.144C103.686 56.9093 103.74 56.5893 103.74 56.184V46.008H104.844V56.184C104.844 56.824 104.737 57.352 104.524 57.768C104.321 58.184 104.001 58.4933 103.564 58.696C103.126 58.8987 102.556 59 101.852 59H101.516ZM106.524 59C105.873 59 105.345 58.8987 104.94 58.696C104.534 58.4933 104.23 58.184 104.028 57.768C103.836 57.352 103.74 56.824 103.74 56.184H104.844C104.844 56.5893 104.892 56.9093 104.988 57.144C105.084 57.368 105.249 57.528 105.484 57.624C105.729 57.7093 106.076 57.752 106.524 57.752H106.748V59H106.524ZM106.748 59V57.752C106.886 57.752 106.972 57.8107 107.004 57.928C107.046 58.0347 107.068 58.184 107.068 58.376C107.068 58.5573 107.046 58.7067 107.004 58.824C106.972 58.9413 106.886 59 106.748 59ZM101.516 59C101.388 59 101.302 58.9413 101.26 58.824C101.217 58.7067 101.196 58.552 101.196 58.36C101.196 58.168 101.217 58.0187 101.26 57.912C101.302 57.8053 101.388 57.752 101.516 57.752V59ZM106.75 59V57.752H109.182V59H106.75ZM109.182 59V57.752C109.321 57.752 109.406 57.8107 109.438 57.928C109.481 58.0347 109.502 58.184 109.502 58.376C109.502 58.5573 109.481 58.7067 109.438 58.824C109.406 58.9413 109.321 59 109.182 59ZM106.75 59C106.622 59 106.537 58.9413 106.494 58.824C106.451 58.7067 106.43 58.552 106.43 58.36C106.43 58.168 106.451 58.0187 106.494 57.912C106.537 57.8053 106.622 57.752 106.75 57.752V59ZM109.188 59V57.752H111.62V59H109.188ZM111.62 59V57.752C111.758 57.752 111.844 57.8107 111.876 57.928C111.918 58.0347 111.94 58.184 111.94 58.376C111.94 58.5573 111.918 58.7067 111.876 58.824C111.844 58.9413 111.758 59 111.62 59ZM109.188 59C109.059 59 108.974 58.9413 108.931 58.824C108.889 58.7067 108.867 58.552 108.867 58.36C108.867 58.168 108.889 58.0187 108.931 57.912C108.974 57.8053 109.059 57.752 109.188 57.752V59ZM111.625 59V57.752H119.849V51.64H120.969V59H111.625ZM116.441 58.936C115.908 58.7333 115.433 58.4507 115.017 58.088C114.601 57.7147 114.276 57.272 114.041 56.76C113.817 56.248 113.705 55.688 113.705 55.08C113.705 54.2693 113.897 53.5493 114.281 52.92C114.665 52.28 115.177 51.7787 115.817 51.416C116.468 51.0427 117.188 50.856 117.977 50.856C118.521 50.856 119.049 50.936 119.561 51.096C120.084 51.256 120.553 51.4373 120.969 51.64L120.473 52.76C120.057 52.5573 119.636 52.3973 119.209 52.28C118.782 52.1627 118.372 52.104 117.977 52.104C117.358 52.104 116.809 52.2373 116.329 52.504C115.86 52.7707 115.486 53.128 115.209 53.576C114.942 54.024 114.809 54.5307 114.809 55.096C114.809 55.8213 115.001 56.4507 115.385 56.984C115.769 57.5173 116.292 57.9227 116.953 58.2L116.441 58.936ZM111.625 59C111.497 59 111.412 58.9413 111.369 58.824C111.326 58.7067 111.305 58.552 111.305 58.36C111.305 58.168 111.326 58.0187 111.369 57.912C111.412 57.8053 111.497 57.752 111.625 57.752V59ZM117.977 48.984C117.753 48.984 117.561 48.904 117.401 48.744C117.241 48.584 117.161 48.392 117.161 48.168C117.161 47.9333 117.241 47.7413 117.401 47.592C117.561 47.432 117.753 47.352 117.977 47.352C118.212 47.352 118.404 47.432 118.553 47.592C118.713 47.7413 118.793 47.9333 118.793 48.168C118.793 48.392 118.713 48.584 118.553 48.744C118.404 48.904 118.212 48.984 117.977 48.984Z" fill="#515151"/>
<path d="M6.56213 67.8C7.94879 67.8 9.02079 68.1307 9.77813 68.792C10.5461 69.4427 10.9301 70.36 10.9301 71.544C10.9301 72.7707 10.5461 73.7253 9.77813 74.408C9.02079 75.08 7.94879 75.416 6.56213 75.416H3.07413L3.63413 74.856V79H2.35413V67.8H6.56213ZM6.51413 74.312C7.52746 74.312 8.31146 74.0827 8.86613 73.624C9.42079 73.1547 9.69813 72.472 9.69813 71.576C9.69813 70.7013 9.42079 70.04 8.86613 69.592C8.31146 69.144 7.52746 68.92 6.51413 68.92H3.07413L3.63413 68.36V74.872L3.07413 74.312H6.51413ZM21.7133 75.048C21.0093 75.048 20.4759 75.1653 20.1133 75.4C19.7506 75.6347 19.5693 75.992 19.5693 76.472C19.5693 76.952 19.7399 77.3413 20.0813 77.64C20.4333 77.928 20.9079 78.072 21.5053 78.072C21.9959 78.072 22.4386 77.992 22.8333 77.832C23.2279 77.672 23.5533 77.4427 23.8093 77.144C24.0759 76.8453 24.2573 76.4827 24.3533 76.056L24.6733 77.064C24.3746 77.736 23.9319 78.2373 23.3453 78.568C22.7586 78.888 22.0653 79.048 21.2653 79.048C20.6893 79.048 20.1826 78.936 19.7453 78.712C19.3186 78.488 18.9879 78.184 18.7533 77.8C18.5186 77.416 18.4013 76.984 18.4013 76.504C18.4013 75.7787 18.6786 75.2027 19.2333 74.776C19.7879 74.3493 20.5613 74.1307 21.5533 74.12H24.5453V75.048H21.7133ZM24.3213 73.56C24.3213 72.92 24.1293 72.424 23.7453 72.072C23.3719 71.72 22.8119 71.544 22.0653 71.544C21.5959 71.544 21.1426 71.6293 20.7053 71.8C20.2679 71.9707 19.8306 72.2107 19.3933 72.52L18.8653 71.704C19.2279 71.4587 19.5799 71.2507 19.9213 71.08C20.2626 70.9093 20.6253 70.7813 21.0093 70.696C21.3933 70.6 21.8253 70.552 22.3053 70.552C23.3506 70.552 24.1506 70.8133 24.7053 71.336C25.2599 71.848 25.5426 72.552 25.5533 73.448L25.5693 79H24.3533L24.3213 73.56ZM34.6756 67.128H35.9236V79H34.6756V67.128ZM51.4171 74.296C51.3958 73.7307 51.2625 73.2453 51.0171 72.84C50.7825 72.424 50.4571 72.104 50.0411 71.88C49.6358 71.656 49.1558 71.544 48.6011 71.544C48.0145 71.544 47.4971 71.6773 47.0491 71.944C46.6118 72.2107 46.2651 72.584 46.0091 73.064C45.7531 73.544 45.6251 74.104 45.6251 74.744C45.6251 75.4053 45.7531 75.9867 46.0091 76.488C46.2758 76.9787 46.6438 77.3627 47.1131 77.64C47.5825 77.9173 48.1158 78.056 48.7131 78.056C49.7798 78.056 50.6491 77.6933 51.3211 76.968L52.0091 77.656C51.6038 78.0933 51.1131 78.4347 50.5371 78.68C49.9611 78.9147 49.3265 79.032 48.6331 79.032C47.8011 79.032 47.0651 78.856 46.4251 78.504C45.7958 78.1413 45.3051 77.64 44.9531 77C44.6011 76.36 44.4251 75.624 44.4251 74.792C44.4251 73.96 44.6011 73.2293 44.9531 72.6C45.3051 71.96 45.7958 71.464 46.4251 71.112C47.0651 70.7493 47.7905 70.5627 48.6011 70.552C49.5078 70.552 50.2598 70.7493 50.8571 71.144C51.4545 71.528 51.8918 72.072 52.1691 72.776C52.4571 73.4693 52.5745 74.2853 52.5211 75.224H45.4011V74.296H51.4171ZM65.3674 72.184C65.0367 71.9813 64.6687 71.8213 64.2634 71.704C63.858 71.5867 63.4634 71.528 63.0794 71.528C62.61 71.528 62.2154 71.624 61.8954 71.816C61.5754 71.9973 61.4154 72.296 61.4154 72.712C61.4154 73.032 61.5274 73.288 61.7514 73.48C61.986 73.6613 62.2794 73.816 62.6314 73.944C62.994 74.0613 63.3727 74.1787 63.7674 74.296C64.162 74.4133 64.5407 74.5627 64.9034 74.744C65.266 74.9147 65.5594 75.1547 65.7834 75.464C66.0074 75.7733 66.1194 76.1787 66.1194 76.68C66.1194 77.224 65.97 77.672 65.6714 78.024C65.3834 78.3653 65.0047 78.6213 64.5354 78.792C64.0767 78.952 63.5754 79.032 63.0314 79.032C62.434 79.032 61.8474 78.9307 61.2714 78.728C60.6954 78.5253 60.2047 78.2373 59.7994 77.864L60.2794 77.016C60.642 77.3467 61.074 77.608 61.5754 77.8C62.0874 77.9813 62.5887 78.072 63.0794 78.072C63.41 78.072 63.7087 78.0293 63.9754 77.944C64.2527 77.848 64.4714 77.7093 64.6314 77.528C64.802 77.336 64.8874 77.096 64.8874 76.808C64.898 76.456 64.7914 76.184 64.5674 75.992C64.354 75.7893 64.066 75.624 63.7034 75.496C63.3514 75.368 62.9727 75.2453 62.5674 75.128C62.1727 75.0107 61.794 74.8667 61.4314 74.696C61.0794 74.5147 60.7914 74.28 60.5674 73.992C60.3434 73.6933 60.2314 73.2933 60.2314 72.792C60.2314 72.2693 60.37 71.8427 60.6474 71.512C60.9247 71.1813 61.282 70.936 61.7194 70.776C62.1674 70.616 62.6474 70.536 63.1594 70.536C63.6607 70.536 64.146 70.6053 64.6154 70.744C65.0847 70.872 65.4954 71.0533 65.8474 71.288L65.3674 72.184ZM75.9454 76.472C75.9454 77.0053 76.0414 77.3893 76.2334 77.624C76.4254 77.848 76.7027 77.96 77.0654 77.96C77.2787 77.9493 77.4974 77.912 77.7214 77.848C77.9454 77.7733 78.1747 77.6613 78.4094 77.512L78.7614 78.424C78.4734 78.616 78.164 78.7707 77.8334 78.888C77.5134 78.9947 77.188 79.048 76.8574 79.048C76.4414 79.048 76.0734 78.968 75.7534 78.808C75.4334 78.6373 75.1774 78.376 74.9854 78.024C74.804 77.672 74.7134 77.2187 74.7134 76.664V68.664H75.9454V76.472ZM73.4974 70.84H78.6174V71.768H73.4974V70.84ZM86.8681 70.584H88.1001V79H86.8681V70.584ZM87.4761 67.368C87.7108 67.368 87.9028 67.448 88.0521 67.608C88.2121 67.7573 88.2921 67.9493 88.2921 68.184C88.2921 68.408 88.2121 68.6 88.0521 68.76C87.9028 68.92 87.7108 69 87.4761 69C87.2521 69 87.0601 68.92 86.9001 68.76C86.7401 68.6 86.6601 68.408 86.6601 68.184C86.6601 67.9493 86.7401 67.7573 86.9001 67.608C87.0601 67.448 87.2521 67.368 87.4761 67.368ZM103.838 74.12C103.838 73.352 103.624 72.7547 103.198 72.328C102.782 71.8907 102.2 71.672 101.454 71.672C100.558 71.6827 99.8591 71.9867 99.3578 72.584C98.8564 73.1707 98.6058 73.9333 98.6058 74.872H98.1738C98.1738 73.8907 98.3231 73.0853 98.6218 72.456C98.9204 71.816 99.3471 71.3413 99.9018 71.032C100.467 70.712 101.128 70.552 101.886 70.552C102.558 70.552 103.134 70.6853 103.614 70.952C104.094 71.2187 104.456 71.5973 104.702 72.088C104.958 72.568 105.086 73.1493 105.086 73.832V79H103.838V74.12ZM97.3738 70.584H98.6218V79H97.3738V70.584ZM120.258 74.296C120.236 73.7307 120.103 73.2453 119.858 72.84C119.623 72.424 119.298 72.104 118.882 71.88C118.476 71.656 117.996 71.544 117.442 71.544C116.855 71.544 116.338 71.6773 115.89 71.944C115.452 72.2107 115.106 72.584 114.85 73.064C114.594 73.544 114.466 74.104 114.466 74.744C114.466 75.4053 114.594 75.9867 114.85 76.488C115.116 76.9787 115.484 77.3627 115.954 77.64C116.423 77.9173 116.956 78.056 117.554 78.056C118.62 78.056 119.49 77.6933 120.162 76.968L120.85 77.656C120.444 78.0933 119.954 78.4347 119.378 78.68C118.802 78.9147 118.167 79.032 117.474 79.032C116.642 79.032 115.906 78.856 115.266 78.504C114.636 78.1413 114.146 77.64 113.794 77C113.442 76.36 113.266 75.624 113.266 74.792C113.266 73.96 113.442 73.2293 113.794 72.6C114.146 71.96 114.636 71.464 115.266 71.112C115.906 70.7493 116.631 70.5627 117.442 70.552C118.348 70.552 119.1 70.7493 119.698 71.144C120.295 71.528 120.732 72.072 121.01 72.776C121.298 73.4693 121.415 74.2853 121.362 75.224H114.242V74.296H120.258Z" fill="#616161"/>
<defs>
<clipPath id="clip0_170_203">
<rect width="120" height="51" fill="white" transform="translate(1)"/>
</clipPath>
</defs>
</svg>
