<svg width="64" height="64" viewBox="0 0 64 64" fill="none" xmlns="http://www.w3.org/2000/svg">
<path fill-rule="evenodd" clip-rule="evenodd" d="M52 46.6665H42.6666C41.8666 46.6665 41.0666 47.1998 40.5333 47.7332L39.4666 49.3332C38.9333 50.1332 38.1333 50.6665 37.3333 50.6665H24C23.2 50.6665 22.4 50.1332 21.8666 49.5998L20.8 47.9998C20.2666 47.1998 19.4666 46.9332 18.6666 46.9332H9.33329C7.73329 46.9332 6.66663 47.9998 6.66663 49.5998V52.2665C6.66663 55.1998 9.06663 57.5998 12 57.5998H49.3333C52.2666 57.5998 54.6666 55.1998 54.6666 52.2665V49.5998C54.6666 47.7332 53.6 46.6665 52 46.6665V46.6665Z" stroke="white" stroke-width="2.5" stroke-linecap="round" stroke-linejoin="round"/>
<path d="M29.5999 14.6665H14.1333C11.4666 14.6665 9.33325 16.5332 9.33325 18.9332V46.6665" stroke="white" stroke-width="2.5" stroke-linecap="round" stroke-linejoin="round"/>
<path d="M52 46.6665V32.5332" stroke="white" stroke-width="2.5" stroke-linecap="round" stroke-linejoin="round"/>
<path d="M36 21.3333C35.7333 21.3333 35.7333 21.5999 35.7333 21.5999C35.7333 21.8666 36 21.8666 36 21.8666L36.2666 21.5999C36.2666 21.5999 36.2666 21.3333 36 21.3333" stroke="white" stroke-width="2.5" stroke-linecap="round" stroke-linejoin="round"/>
<path d="M42.6666 21.3333C42.3999 21.3333 42.3999 21.5999 42.3999 21.5999C42.3999 21.8666 42.6666 21.8666 42.6666 21.8666C42.9333 21.8666 42.9333 21.5999 42.9333 21.5999C42.9333 21.5999 42.9333 21.3333 42.6666 21.3333" stroke="white" stroke-width="2.5" stroke-linecap="round" stroke-linejoin="round"/>
<path d="M49.3333 21.3333C49.0667 21.3333 49.0667 21.5999 49.0667 21.5999L49.3333 21.8666L49.6 21.5999C49.6 21.5999 49.6 21.3333 49.3333 21.3333" stroke="white" stroke-width="2.5" stroke-linecap="round" stroke-linejoin="round"/>
<path fill-rule="evenodd" clip-rule="evenodd" d="M42.6666 35.9998C40.2666 35.9998 37.8666 35.4665 35.9999 34.3998L28.2666 35.9998L29.8666 28.2665C28.7999 26.1332 28.2666 23.9998 28.2666 21.3332C28.2666 13.3332 34.9333 6.6665 42.9333 6.6665C50.9333 6.6665 57.3333 13.3332 57.3333 21.3332C57.3333 29.3332 50.6666 35.9998 42.6666 35.9998Z" stroke="white" stroke-width="2.5" stroke-linecap="round" stroke-linejoin="round"/>
</svg>
