<svg width="71" height="71" viewBox="0 0 71 71" fill="none" xmlns="http://www.w3.org/2000/svg">
<path d="M10.3955 26.6252H60.6056" stroke="white" stroke-width="2.5" stroke-linecap="round" stroke-linejoin="round"/>
<path d="M35.5001 62.125C28.9647 62.125 23.6667 50.2046 23.6667 35.5C23.6667 20.7954 28.9647 8.875 35.5001 8.875" stroke="white" stroke-width="2.5" stroke-linecap="round" stroke-linejoin="round"/>
<path d="M35.5 44.3752H10.3958" stroke="white" stroke-width="2.5" stroke-linecap="round" stroke-linejoin="round"/>
<path d="M35.5 62.125C20.7954 62.125 8.875 50.2046 8.875 35.5C8.875 20.7954 20.7954 8.875 35.5 8.875" stroke="white" stroke-width="2.5" stroke-linecap="round" stroke-linejoin="round"/>
<path d="M54.7292 46.8138C57.4216 45.2704 60.4602 44.432 63.5631 44.3766C63.9632 44.3651 64.3509 44.5164 64.6374 44.7959C64.9239 45.0754 65.0849 45.4591 65.0834 45.8594V57.8384C65.0943 58.8084 64.3396 59.6151 63.371 59.6688C60.3224 59.6991 57.3379 60.5474 54.7292 62.1252" stroke="white" stroke-width="2.5" stroke-linecap="round" stroke-linejoin="round"/>
<path d="M54.7292 46.8138C52.0368 45.2704 48.9982 44.432 45.8953 44.3766C45.4952 44.3651 45.1076 44.5164 44.821 44.7959C44.5345 45.0754 44.3735 45.4591 44.375 45.8594V58.1876C44.3848 58.9985 45.0405 59.653 45.8514 59.6615C48.9801 59.6563 52.0505 60.5084 54.7292 62.1252" stroke="white" stroke-width="2.5" stroke-linecap="round" stroke-linejoin="round"/>
<path d="M54.7292 46.8135V62.1249" stroke="white" stroke-width="2.5" stroke-linecap="round" stroke-linejoin="round"/>
<path d="M47.3333 35.5C47.3333 20.7954 42.0354 8.875 35.5 8.875" stroke="white" stroke-width="2.5" stroke-linecap="round" stroke-linejoin="round"/>
<path d="M62.125 35.5C62.125 20.7954 50.2046 8.875 35.5 8.875" stroke="white" stroke-width="2.5" stroke-linecap="round" stroke-linejoin="round"/>
</svg>
