<svg width="65" height="65" viewBox="0 0 65 65" fill="none" xmlns="http://www.w3.org/2000/svg">
<path d="M38.5964 47.4019V59.5944L32.5001 56.5463L26.4038 59.5944V47.4019" stroke="#FEFEFE" stroke-width="2.5" stroke-linecap="round" stroke-linejoin="round"/>
<path fill-rule="evenodd" clip-rule="evenodd" d="M22.2583 40.1868L23.6998 42.0834L24.0114 44.4271C24.1846 45.7268 25.2071 46.7493 26.5068 46.9225L28.8559 47.2368L30.7362 48.6755C31.777 49.4668 33.2178 49.4668 34.2585 48.6755L36.1552 47.2368V47.2368L38.5016 46.9225C39.8019 46.7495 40.8253 45.7272 40.9997 44.4271L41.314 42.078C41.314 42.078 42.0401 41.127 42.7527 40.1976C43.544 39.1568 43.544 37.7161 42.7527 36.6753L41.314 34.7787L40.9997 32.435C40.8279 31.1351 39.8065 30.1115 38.507 29.9369L36.1552 29.6253L34.2585 28.1893C33.2187 27.3952 31.7761 27.3952 30.7362 28.1893L28.8396 29.6253V29.6253L26.4932 29.9369C25.1931 30.1092 24.1701 31.1322 23.9978 32.4323L23.6835 34.7814L22.2448 36.6618C21.458 37.7068 21.4635 39.1479 22.2583 40.1868V40.1868Z" stroke="#FEFEFE" stroke-width="2.5" stroke-linecap="round" stroke-linejoin="round"/>
<path d="M46.0475 51.4659H51.4664C54.4592 51.4659 56.8853 49.0397 56.8853 46.0469V15.1401C56.8853 12.1473 54.4592 9.72119 51.4664 9.72119H13.5339C10.5411 9.72119 8.11499 12.1473 8.11499 15.1401V46.0469C8.11499 49.0397 10.5411 51.4659 13.5339 51.4659H18.9528" stroke="#FEFEFE" stroke-width="2.5" stroke-linecap="round" stroke-linejoin="round"/>
<path d="M20.3076 18.9524H44.6928" stroke="#FEFEFE" stroke-width="2.5" stroke-linecap="round" stroke-linejoin="round"/>
</svg>
