<svg width="61" height="61" viewBox="0 0 61 61" fill="none" xmlns="http://www.w3.org/2000/svg">
<path d="M25.4167 45.7498H35.5834" stroke="white" stroke-width="2.5" stroke-linecap="round" stroke-linejoin="round"/>
<path d="M48.0277 35.5833H13.9792C11.8737 35.5833 10.1667 33.8764 10.1667 31.7708V12.7083C10.1667 9.90089 12.4426 7.625 15.2501 7.625H25.4167" stroke="white" stroke-width="2.5" stroke-linecap="round" stroke-linejoin="round"/>
<path fill-rule="evenodd" clip-rule="evenodd" d="M48.2885 53.3752H12.7113C11.1163 53.3752 9.61368 52.6265 8.65311 51.3531C7.69253 50.0797 7.38537 48.4293 7.8235 46.8955L10.5283 37.427C10.8401 36.3358 11.8374 35.5835 12.9723 35.5835H48.0275C49.1624 35.5835 50.1597 36.3358 50.4714 37.427L53.1763 46.8955C53.6144 48.4293 53.3073 50.0797 52.3467 51.3531C51.3861 52.6265 49.8835 53.3752 48.2885 53.3752Z" stroke="white" stroke-width="2.5" stroke-linecap="round" stroke-linejoin="round"/>
<path d="M38.125 17.7676V23.5607C38.125 24.8604 38.8593 26.0485 40.0218 26.6298L41.0692 27.1535C43.2159 28.2268 45.7425 28.2268 47.8891 27.1535L48.9366 26.6298C50.099 26.0485 50.8333 24.8604 50.8333 23.5607V17.7676" stroke="white" stroke-width="2.5" stroke-linecap="round" stroke-linejoin="round"/>
<path fill-rule="evenodd" clip-rule="evenodd" d="M34.0726 15.6726L41.8531 19.6946C43.5003 20.5461 45.4581 20.5461 47.1053 19.6946L54.8858 15.6726C55.5191 15.3453 55.9168 14.692 55.9168 13.9791C55.9168 13.2663 55.5191 12.613 54.8858 12.2857L47.1053 8.26363C45.4581 7.41212 43.5003 7.41212 41.8531 8.26363L34.0726 12.2857C33.4393 12.613 33.0415 13.2663 33.0415 13.9791C33.0415 14.692 33.4393 15.3453 34.0726 15.6726Z" stroke="white" stroke-width="2.5" stroke-linecap="round" stroke-linejoin="round"/>
<path d="M55.9166 14.0054V18.4202" stroke="white" stroke-width="2.5" stroke-linecap="round" stroke-linejoin="round"/>
</svg>
