<svg width="64" height="64" viewBox="0 0 64 64" fill="none" xmlns="http://www.w3.org/2000/svg">
<path d="M47.2397 27.4528L54.1193 20.5732" stroke="white" stroke-width="2.5" stroke-linecap="round" stroke-linejoin="round"/>
<path fill-rule="evenodd" clip-rule="evenodd" d="M41.2659 7.71959L57.2419 23.6956C59.1416 25.5953 59.1416 28.6754 57.2419 30.5752V30.5752C55.3422 32.4749 52.2621 32.4749 50.3623 30.5752L34.3863 14.5992C33.3939 13.6068 32.7502 12.3194 32.5517 10.93L32.0166 7.18449C31.9444 6.67919 32.1143 6.16938 32.4752 5.80845C32.8361 5.44752 33.3459 5.2776 33.8512 5.34983L37.5968 5.88492C38.9861 6.08342 40.2736 6.72719 41.2659 7.71959Z" stroke="white" stroke-width="2.5" stroke-linecap="round" stroke-linejoin="round"/>
<path fill-rule="evenodd" clip-rule="evenodd" d="M49.0939 46.8953L17.1045 14.906C15.5792 13.3807 13.2853 12.9244 11.2924 13.7499C9.29945 14.5754 8.00003 16.5201 8 18.6772V50.6665C8 53.612 10.3878 55.9998 13.3333 55.9998H45.3227C47.4798 55.9998 49.4245 54.7004 50.25 52.7075C51.0755 50.7145 50.6192 48.4206 49.0939 46.8953Z" stroke="white" stroke-width="2.5" stroke-linecap="round" stroke-linejoin="round"/>
<path fill-rule="evenodd" clip-rule="evenodd" d="M31.1591 43.5046L20.4952 32.8407C20.1139 32.4594 19.5404 32.3454 19.0422 32.5517C18.544 32.7581 18.2191 33.2443 18.2191 33.7835V44.4474C18.2191 45.1837 18.8161 45.7807 19.5524 45.7807H30.2163C30.7555 45.7807 31.2417 45.4558 31.4481 44.9576C31.6545 44.4594 31.5404 43.8859 31.1591 43.5046V43.5046Z" stroke="white" stroke-width="2.5" stroke-linecap="round" stroke-linejoin="round"/>
</svg>
