<svg width="23" height="23" viewBox="0 0 23 23" fill="none" xmlns="http://www.w3.org/2000/svg">
<path fill-rule="evenodd" clip-rule="evenodd" d="M18.1748 15.9178L17.0507 14.7937C16.4891 14.2321 15.5787 14.2321 15.018 14.7937L14.1345 15.6773C13.937 15.8747 13.638 15.9408 13.3831 15.8287C12.1028 15.2681 10.8378 14.4181 9.70984 13.2901C8.58667 12.1669 7.73951 10.9077 7.17792 9.63214C7.06101 9.3686 7.12905 9.05905 7.33317 8.85493L8.12476 8.06335C8.7678 7.4203 8.7678 6.51085 8.20621 5.94926L7.08209 4.82514C6.33363 4.07668 5.12038 4.07668 4.37192 4.82514L3.74709 5.44901C3.03696 6.15914 2.74084 7.1836 2.93251 8.19943C3.40592 10.7036 4.86067 13.4453 7.20763 15.7923C9.55459 18.1393 12.2964 19.594 14.8005 20.0674C15.8163 20.2591 16.8408 19.963 17.5509 19.2528L18.1748 18.629C18.9233 17.8805 18.9233 16.6673 18.1748 15.9178V15.9178Z" stroke="#323232" stroke-width="1.4" stroke-linecap="round" stroke-linejoin="round"/>
<path d="M12.4583 6.6997C13.4464 6.68628 14.4392 7.05236 15.1934 7.80657" stroke="#323232" stroke-width="1.4" stroke-linecap="round" stroke-linejoin="round"/>
<path d="M17.9036 5.09637C16.4 3.59275 14.4287 2.84045 12.4583 2.84045" stroke="#323232" stroke-width="1.4" stroke-linecap="round" stroke-linejoin="round"/>
<path d="M16.3003 10.5417C16.3137 9.55368 15.9476 8.56085 15.1934 7.80664" stroke="#323232" stroke-width="1.4" stroke-linecap="round" stroke-linejoin="round"/>
<path d="M17.9036 5.09631C19.4072 6.59994 20.1595 8.57123 20.1595 10.5416" stroke="#323232" stroke-width="1.4" stroke-linecap="round" stroke-linejoin="round"/>
</svg>
