<svg id="Group_89201" data-name="Group 89201" xmlns="http://www.w3.org/2000/svg" width="38.945" height="38.945" viewBox="0 0 38.945 38.945">
  <g id="Group_89200" data-name="Group 89200" transform="translate(0)">
    <g id="XMLID_1095_">
      <path id="XMLID_1112_" d="M117.205,94.943a2.288,2.288,0,1,0-2.288-2.288A2.291,2.291,0,0,0,117.205,94.943Zm0-3.055a.767.767,0,1,1-.767.767A.768.768,0,0,1,117.205,91.888Z" transform="translate(-106.176 -83.493)" fill="#045173"/>
      <path id="XMLID_1109_" d="M339.761,55.606a.761.761,0,0,0,.373-.1l5.4-3.043a.761.761,0,0,0,0-1.325l-5.4-3.043A.761.761,0,0,0,339,48.76v6.085A.761.761,0,0,0,339.761,55.606Zm.761-5.544,3.09,1.741-3.09,1.741Z" transform="translate(-313.214 -44.349)" fill="#045173"/>
      <path id="XMLID_1102_" d="M35.435,3.819h-.569a7.631,7.631,0,0,0-13.221,0H3.51A3.514,3.514,0,0,0,0,7.329v19.7a3.514,3.514,0,0,0,3.51,3.51H16.252l-2.186,3.825h-.322a3.82,3.82,0,0,0-3.816,3.816.761.761,0,0,0,.761.761H28.257a.761.761,0,0,0,.759-.815A3.82,3.82,0,0,0,25.2,34.369h-.322l-2.186-3.825H35.435a3.514,3.514,0,0,0,3.51-3.51V7.329a3.514,3.514,0,0,0-3.51-3.51Zm-7.179-2.3a6.113,6.113,0,1,1-6.113,6.113,6.12,6.12,0,0,1,6.113-6.113ZM3.51,5.34H20.974a7.634,7.634,0,1,0,14.565,0,1.991,1.991,0,0,1,1.885,1.986V22.912H1.521V7.329A1.991,1.991,0,0,1,3.51,5.34ZM27.365,37.423H11.58a2.3,2.3,0,0,1,2.165-1.534H25.2A2.3,2.3,0,0,1,27.365,37.423Zm-4.239-3.055H15.819L18,30.544H20.94Zm12.309-5.346H3.51a1.991,1.991,0,0,1-1.989-1.989v-2.6h35.9v2.6A1.991,1.991,0,0,1,35.435,29.022Z" transform="translate(0)" fill="#045173"/>
      <path id="XMLID_1101_" d="M208.451,341.388h-6.874a.761.761,0,0,0,0,1.521h6.874a.761.761,0,0,0,0-1.521Z" transform="translate(-185.542 -315.421)" fill="#045173"/>
      <circle id="XMLID_1100_" cx="0.761" cy="0.761" r="0.761" transform="translate(34.369 25.967)" fill="#045173"/>
      <circle id="XMLID_1099_" cx="0.761" cy="0.761" r="0.761" transform="translate(31.313 25.967)" fill="#045173"/>
      <path id="XMLID_1096_" d="M42.451,133.926H70.71a2.288,2.288,0,1,0,0-4.576H49.2a10.884,10.884,0,0,1,5.879-6.077.761.761,0,0,0-.6-1.4,12.4,12.4,0,0,0-6.338,6.088,12.4,12.4,0,0,0-6.339-6.088.761.761,0,0,0-.6,1.4,10.884,10.884,0,0,1,5.879,6.077H42.451a2.288,2.288,0,1,0,0,4.576Zm0-3.055H70.71a.767.767,0,1,1,0,1.534H42.451a.767.767,0,1,1,0-1.534Z" transform="translate(-37.108 -112.547)" fill="#045173"/>
    </g>
  </g>
</svg>
