<svg xmlns="http://www.w3.org/2000/svg" width="41.969" height="42.668" viewBox="0 0 41.969 42.668">
  <g id="Group_89199" data-name="Group 89199" transform="translate(-2 -1)">
    <path id="Path_6288" data-name="Path 6288" d="M26.482,47.389h-1.4V40.534a.7.7,0,1,0-1.4,0v6.855H5.5V33.4h5.82a.7.7,0,0,0,0-1.4H4.8a.7.7,0,0,0-.7.7V47.389H2.7a.7.7,0,0,0-.7.7v1.4a3.5,3.5,0,0,0,3.5,3.5H23.684a3.5,3.5,0,0,0,3.5-3.5v-1.4A.7.7,0,0,0,26.482,47.389Zm-.7,2.1a2.1,2.1,0,0,1-2.1,2.1h-1.4v-.7a.7.7,0,0,0-1.4,0v.7H8.3v-.7a.7.7,0,0,0-1.4,0v.7H5.5a2.1,2.1,0,0,1-2.1-2.1v-.7H25.782Z" transform="translate(0 -9.316)" fill="#045173"/>
    <path id="Path_6289" data-name="Path 6289" d="M52.5,7.4h1.4a.7.7,0,0,0,0-1.4H52.5a2.1,2.1,0,0,0-2.1,2.1v.7h-.7a.7.7,0,0,0,0,1.4h.7v2.1a.7.7,0,1,0,1.4,0V10.2h.7a.7.7,0,0,0,0-1.4h-.7V8.1A.7.7,0,0,1,52.5,7.4Z" transform="translate(-14.124 -1.503)" fill="#045173"/>
    <path id="Path_6290" data-name="Path 6290" d="M54.492,2H46.1A2.1,2.1,0,0,0,44,4.1V5.5a.7.7,0,0,0,1.4,0V4.1a.7.7,0,0,1,.7-.7h8.394a.7.7,0,0,1,.7.7v8.394a.7.7,0,0,1-.7.7H46.1a.7.7,0,0,1-.7-.7V8.3a.7.7,0,0,0-1.4,0v4.2a2.1,2.1,0,0,0,2.1,2.1h8.394a2.1,2.1,0,0,0,2.1-2.1V4.1a2.1,2.1,0,0,0-2.1-2.1Z" transform="translate(-12.622 -0.301)" fill="#045173"/>
    <path id="Path_6291" data-name="Path 6291" d="M49,40.8A2.8,2.8,0,1,0,51.8,38,2.8,2.8,0,0,0,49,40.8Zm4.2,0a1.4,1.4,0,1,1-1.4-1.4A1.4,1.4,0,0,1,53.2,40.8Z" transform="translate(-14.124 -11.119)" fill="#045173"/>
    <path id="Path_6292" data-name="Path 6292" d="M54.492,33H46.1A2.1,2.1,0,0,0,44,35.1v8.394a2.1,2.1,0,0,0,2.1,2.1h8.394a2.1,2.1,0,0,0,2.1-2.1v-1.4a.7.7,0,0,0-1.4,0v1.4a.7.7,0,0,1-.7.7H46.1a.7.7,0,0,1-.7-.7V35.1a.7.7,0,0,1,.7-.7h8.394a.7.7,0,0,1,.7.7v4.2a.7.7,0,1,0,1.4,0V35.1a2.1,2.1,0,0,0-2.1-2.1Z" transform="translate(-12.622 -9.617)" fill="#045173"/>
    <path id="Path_6293" data-name="Path 6293" d="M24.329,11.492a.7.7,0,0,0,.685.028l4.2-2.1a.7.7,0,0,0,0-1.245l-4.2-2.1A.7.7,0,0,0,24,6.7v4.2A.7.7,0,0,0,24.329,11.492ZM25.4,7.834,27.33,8.8,25.4,9.764Z" transform="translate(-6.611 -1.503)" fill="#045173"/>
    <path id="Path_6294" data-name="Path 6294" d="M24.3,13.591A6.3,6.3,0,1,0,18,7.3,6.3,6.3,0,0,0,24.3,13.591ZM24.3,2.4a4.9,4.9,0,1,1-4.9,4.9A4.9,4.9,0,0,1,24.3,2.4Z" transform="translate(-4.808)" fill="#045173"/>
    <path id="Path_6295" data-name="Path 6295" d="M36.7,21.2a.7.7,0,0,0,.56-.28l2.1-2.8a.7.7,0,0,0-1.119-.839l-2.1,2.8A.7.7,0,0,0,36.7,21.2Z" transform="translate(-10.218 -4.808)" fill="#045173"/>
    <path id="Path_6296" data-name="Path 6296" d="M39.14,25.218a.7.7,0,0,0,.979.14l2.8-2.1a.7.7,0,1,0-.839-1.119l-2.8,2.1a.7.7,0,0,0-.14.979Z" transform="translate(-11.119 -6.311)" fill="#045173"/>
    <path id="Path_6297" data-name="Path 6297" d="M46.865,28.553a.7.7,0,0,0-.839-.56l-3.5.7a.7.7,0,0,0,.14,1.4h.14l3.5-.7a.7.7,0,0,0,.56-.839Z" transform="translate(-11.989 -8.107)" fill="#045173"/>
    <path id="Path_6298" data-name="Path 6298" d="M2.7,23.591h8.394a.7.7,0,0,0,.7-.7V11.7a.7.7,0,0,0-.7-.7H2.7a.7.7,0,0,0-.7.7V22.891A.7.7,0,0,0,2.7,23.591ZM3.4,12.4h6.995v9.793H3.4Z" transform="translate(0 -3.005)" fill="#045173"/>
    <path id="Path_6299" data-name="Path 6299" d="M10.1,15H8.7a.7.7,0,1,0,0,1.4h1.4a.7.7,0,1,0,0-1.4Z" transform="translate(-1.803 -4.207)" fill="#045173"/>
    <path id="Path_6300" data-name="Path 6300" d="M9.5,19H6.7a.7.7,0,1,0,0,1.4H9.5a.7.7,0,1,0,0-1.4Z" transform="translate(-1.202 -5.409)" fill="#045173"/>
    <path id="Path_6301" data-name="Path 6301" d="M9.5,23H6.7a.7.7,0,1,0,0,1.4H9.5a.7.7,0,1,0,0-1.4Z" transform="translate(-1.202 -6.611)" fill="#045173"/>
    <path id="Path_6302" data-name="Path 6302" d="M27.98,26.988a.7.7,0,1,0-1.217.7l3.085,5.337-11.192,4.2h-.1l-1.819,1.049-1.21.7a1.4,1.4,0,0,1-1.91-.511l-1.4-2.42a1.4,1.4,0,0,1,.525-1.847l2.42-1.4,1.749,3.029a.7.7,0,1,0,1.217-.7L16.32,32l8.779-7.24.287.5a.7.7,0,0,0,1.217-.7l-.7-1.21a.709.709,0,0,0-1.056-.189l-9.793,8.072-2.98,1.721a2.8,2.8,0,0,0-1.287,3.169l-.7.4a2.1,2.1,0,0,0,1.049,3.917,2.141,2.141,0,0,0,1.049-.28l.7-.4a2.714,2.714,0,0,0,1.224.727,2.651,2.651,0,0,0,.734.1,2.756,2.756,0,0,0,1.4-.378l.609-.35,1.4,2.427a2.1,2.1,0,1,0,3.63-2.1L20.608,37.97,31.1,34.032a.7.7,0,0,0,.364-1ZM11.458,38.942a.7.7,0,1,1-.7-1.21l.609-.35.7,1.21ZM20.664,40.9a.7.7,0,0,1-1.21.7l-1.4-2.427,1.161-.665h.056Z" transform="translate(-2.114 -6.612)" fill="#045173"/>
  </g>
</svg>
