<svg xmlns="http://www.w3.org/2000/svg" xmlns:xlink="http://www.w3.org/1999/xlink" width="43.003" height="43.003" viewBox="0 0 43.003 43.003">
  <defs>
    <clipPath id="clip-path">
      <path id="path4146" d="M0-682.665H43v43H0Z" transform="translate(0 682.665)" fill="#045173"/>
    </clipPath>
  </defs>
  <g id="Group_89198" data-name="Group 89198" transform="translate(0 -0.002)">
    <g id="g4140" transform="translate(0 0.002)">
      <g id="g4142">
        <g id="g4144" clip-path="url(#clip-path)">
          <g id="g4150" transform="translate(0.84 13.046)">
            <path id="path4152" d="M0,0H38.259" fill="none" stroke="#045173" stroke-linecap="round" stroke-linejoin="round" stroke-miterlimit="10" stroke-width="1.6"/>
          </g>
          <g id="g4154" transform="translate(5.859 5.484)">
            <path id="path4156" d="M-29.677-59.321a2,2,0,0,0,2-1.994,2,2,0,0,0-2-1.994,2,2,0,0,0-2,1.994A2,2,0,0,0-29.677-59.321Z" transform="translate(31.672 63.309)" fill="none" stroke="#045173" stroke-linecap="round" stroke-linejoin="round" stroke-miterlimit="10" stroke-width="1.6"/>
          </g>
          <g id="g4158" transform="translate(23.198 5.484)">
            <path id="path4160" d="M-29.677,0h7.514a2,2,0,0,1,2,1.994,2,2,0,0,1-2,1.994h-7.514a2,2,0,0,1-2-1.994A2,2,0,0,1-29.677,0Z" transform="translate(31.672)" fill="none" stroke="#045173" stroke-linecap="round" stroke-linejoin="round" stroke-miterlimit="10" stroke-width="1.6"/>
          </g>
          <g id="g4162" transform="translate(13.225 5.484)">
            <path id="path4164" d="M-29.677-59.321a2,2,0,0,0,2-1.994,2,2,0,0,0-2-1.994,2,2,0,0,0-2,1.994A2,2,0,0,0-29.677-59.321Z" transform="translate(31.672 63.309)" fill="none" stroke="#045173" stroke-linecap="round" stroke-linejoin="round" stroke-miterlimit="10" stroke-width="1.6"/>
          </g>
          <g id="g4166" transform="translate(11.96 19.506)">
            <path id="path4168" d="M-25,0l-1.681,7.034" transform="translate(26.684)" fill="none" stroke="#045173" stroke-linecap="round" stroke-linejoin="round" stroke-miterlimit="10" stroke-width="1.6"/>
          </g>
          <g id="g4170" transform="translate(17.513 20.142)">
            <path id="path4172" d="M0-85.727,2.378-88.4a.325.325,0,0,0,0-.423L0-91.49" transform="translate(0 91.49)" fill="none" stroke="#045173" stroke-linecap="round" stroke-linejoin="round" stroke-miterlimit="10" stroke-width="1.6"/>
          </g>
          <g id="g4174" transform="translate(5.632 20.142)">
            <path id="path4176" d="M-36.547-85.727l-2.378-2.67a.324.324,0,0,1,0-.423l2.378-2.67" transform="translate(39.004 91.49)" fill="none" stroke="#045173" stroke-linecap="round" stroke-linejoin="round" stroke-miterlimit="10" stroke-width="1.6"/>
          </g>
          <g id="g4178" transform="translate(22.212 21.212)">
            <path id="path4180" d="M-174.98-29.838a8.127,8.127,0,0,1,2.552,1.052l.688-.685a1.052,1.052,0,0,1,1.486,0l1.083,1.083a1.051,1.051,0,0,1,0,1.485l-.686.688a8.111,8.111,0,0,1,1.048,2.527h.964a1.055,1.055,0,0,1,1.052,1.049v1.535a1.055,1.055,0,0,1-1.052,1.049h-.969a8.137,8.137,0,0,1-1.043,2.513l.686.685a1.051,1.051,0,0,1,0,1.485l-1.083,1.085a1.052,1.052,0,0,1-1.486,0l-.688-.685a8.122,8.122,0,0,1-2.524,1.045v.976A1.055,1.055,0,0,1-176-11.9h-1.536a1.055,1.055,0,0,1-1.05-1.052v-.978a8.138,8.138,0,0,1-2.519-1.042l-.686.685a1.052,1.052,0,0,1-1.486,0l-1.086-1.085a1.055,1.055,0,0,1,0-1.485l.688-.685a8.084,8.084,0,0,1-1.045-2.513h-.974a1.053,1.053,0,0,1-1.05-1.049V-22.64a1.053,1.053,0,0,1,1.05-1.049h.971a8.128,8.128,0,0,1,1.031-2.5l-.69-.692a1.051,1.051,0,0,1,0-1.485l1.083-1.083a1.052,1.052,0,0,1,1.486,0l.683.681a8.169,8.169,0,0,1,2.514-1.054v-.968a1.053,1.053,0,0,1,1.05-1.052h1.533a1.055,1.055,0,0,1,1.052,1.052Z" transform="translate(186.744 31.844)" fill="none" stroke="#045173" stroke-linecap="round" stroke-linejoin="round" stroke-miterlimit="10" stroke-width="1.6"/>
          </g>
          <g id="g4182" transform="translate(27.857 26.857)">
            <path id="path4184" d="M-64.418,0A4.328,4.328,0,0,1-60.09,4.328a4.327,4.327,0,0,1-4.328,4.326,4.328,4.328,0,0,1-4.331-4.326A4.328,4.328,0,0,1-64.418,0Z" transform="translate(68.749)" fill="none" stroke="#045173" stroke-linecap="round" stroke-linejoin="round" stroke-miterlimit="10" stroke-width="1.6"/>
          </g>
          <g id="g4186" transform="translate(0.84 1.848)">
            <path id="path4188" d="M-120.478-463.391h-4.971c-1.719,0-3.128-1.682-3.128-3.736v-23.681c0-2.056,1.407-3.736,3.128-3.736h32c1.721,0,3.128,1.682,3.128,3.736v18.4m-15.837,9.018h-6.816" transform="translate(128.577 494.544)" fill="none" stroke="#045173" stroke-linecap="round" stroke-linejoin="round" stroke-miterlimit="10" stroke-width="1.6"/>
          </g>
          <g id="g4190" transform="translate(12.701 33)">
            <path id="path4192" d="M0,0H.017" fill="none" stroke="#045173" stroke-linecap="round" stroke-linejoin="round" stroke-miterlimit="10" stroke-width="1.6"/>
          </g>
        </g>
      </g>
    </g>
  </g>
</svg>
