<svg xmlns="http://www.w3.org/2000/svg" width="41.92" height="42.521" viewBox="0 0 41.92 42.521">
  <g id="Group_89210" data-name="Group 89210" transform="translate(-1.73 -1.28)">
    <g id="Group_89209" data-name="Group 89209" transform="translate(1.93 1.48)">
      <path id="Path_6321" data-name="Path 6321" d="M41.2,1.48H8.652A2.25,2.25,0,0,0,6.407,3.725V7.153H4.175A2.25,2.25,0,0,0,1.93,9.4v28.15a2.25,2.25,0,0,0,2.245,2.245H19.1V43.04a.565.565,0,0,0,.561.561H30.2a.565.565,0,0,0,.561-.561V39.793h5.967a2.25,2.25,0,0,0,2.245-2.245V34.12H41.2a2.25,2.25,0,0,0,2.245-2.245V3.725A2.25,2.25,0,0,0,41.2,1.48ZM7.529,3.725A1.125,1.125,0,0,1,8.652,2.6H41.2a1.125,1.125,0,0,1,1.123,1.123V8.649h-21.3l-2.506-2.6a1.027,1.027,0,0,0-.735-.314H12.267a1.027,1.027,0,0,0-1.022,1.022V8.649H7.529ZM4.175,38.677a1.125,1.125,0,0,1-1.123-1.123V9.4A1.125,1.125,0,0,1,4.175,8.275H6.407V31.881a2.25,2.25,0,0,0,2.245,2.245H20.839a2.591,2.591,0,0,1,.281,1.4h-.869A1.156,1.156,0,0,0,19.1,36.686v1.991Zm20.2-11.753a.635.635,0,0,1,.555-.327.627.627,0,0,1,.628.628.634.634,0,0,1-.314.548.7.7,0,0,1-.728-.033.186.186,0,0,1-.08-.08A.706.706,0,0,1,24.374,26.924Zm-.007-1.343a1.738,1.738,0,0,0-.969.8,1.83,1.83,0,0,0,.094,1.878,1.4,1.4,0,0,0,.474.454,1.98,1.98,0,0,0,.969.267,1.746,1.746,0,0,0,.555-3.4V22.694l4.964,8.96a.072.072,0,0,1-.033.027,3.776,3.776,0,0,0-2.813,3.849H22.256a3.853,3.853,0,0,0-2.846-3.9l4.958-8.933Zm5.272,16.9H20.218l.033-5.833h9.354a.032.032,0,0,1,.033.033Zm8.212-4.931a1.125,1.125,0,0,1-1.123,1.123H30.761V36.679a1.156,1.156,0,0,0-1.156-1.156h-.869a2.653,2.653,0,0,1,.281-1.4h8.833ZM41.2,33h-11.1a2.415,2.415,0,0,1,.588-.241,1.191,1.191,0,0,0,.788-.675,1.142,1.142,0,0,0-.053-1.009L25.683,20.73a.85.85,0,0,0-.748-.448.879.879,0,0,0-.762.441L18.42,31.08a1.164,1.164,0,0,0,.735,1.684,2.529,2.529,0,0,1,.588.241H8.652a1.125,1.125,0,0,1-1.123-1.123V9.772h3.809A1.027,1.027,0,0,0,12.36,8.75V6.859h5.379l2.506,2.6a1.027,1.027,0,0,0,.735.314H42.327v22.1A1.126,1.126,0,0,1,41.2,33Z" transform="translate(-1.93 -1.48)" fill="#045173" stroke="#045173" stroke-width="0.4"/>
      <path id="Path_6324" data-name="Path 6324" d="M39.92,20.818A2.23,2.23,0,0,0,39.306,22H31.455v-.882a1.089,1.089,0,0,0-1.089-1.089H27.833a1.089,1.089,0,0,0-1.089,1.089V22H18.9a2.228,2.228,0,0,0-.615-1.189,2.271,2.271,0,0,0-3.127.007,2.21,2.21,0,0,0,0,3.127,2.157,2.157,0,0,0,1.564.655,2.409,2.409,0,0,0,1.1-.267,1.971,1.971,0,0,0,.882-.909,2.82,2.82,0,0,0,.12-.3h5.446a11.155,11.155,0,0,0-5.967,7.43H17.43a1.089,1.089,0,0,0-1.089,1.089v2.532a1.089,1.089,0,0,0,1.089,1.089h2.532a1.089,1.089,0,0,0,1.089-1.089V31.643a1.089,1.089,0,0,0-1.089-1.089h-.508a10.025,10.025,0,0,1,7.31-7.149v.241a1.089,1.089,0,0,0,1.089,1.089h2.532a1.089,1.089,0,0,0,1.089-1.089V23.4a10.047,10.047,0,0,1,7.31,7.149h-.461a1.089,1.089,0,0,0-1.089,1.089v2.532a1.089,1.089,0,0,0,1.089,1.089h2.532a1.089,1.089,0,0,0,1.089-1.089V31.643a1.089,1.089,0,0,0-1.089-1.089H39.94a11.177,11.177,0,0,0-5.967-7.43h5.459A2.21,2.21,0,0,0,41.511,24.6a2.409,2.409,0,0,0,1.1-.267,1.971,1.971,0,0,0,.882-.909,2.255,2.255,0,0,0-.408-2.613A2.32,2.32,0,0,0,39.92,20.818ZM17.677,22.95a.859.859,0,0,1-.374.381,1.115,1.115,0,0,1-1.356-.18,1.06,1.06,0,0,1-.321-.768,1.11,1.11,0,0,1,.321-.775A1.1,1.1,0,0,1,17.49,21.6,1.164,1.164,0,0,1,17.677,22.95Zm2.272,11.192-2.5.033-.033-2.5h2.5Zm20.887,0-2.5.033-.033-2.5h2.5ZM27.873,23.651l-.013-.842a.58.58,0,0,0,.007-.187v-.007c0-.02.013-.033.013-.053a.332.332,0,0,0-.02-.087l-.02-1.316h2.5l.02,1.316a.468.468,0,0,0-.02.094.157.157,0,0,0,.013.053v.007a.573.573,0,0,0,.013.241l.013.755Zm14.573-.7a.859.859,0,0,1-.374.381,1.115,1.115,0,0,1-1.356-.18,1.06,1.06,0,0,1-.321-.768,1.11,1.11,0,0,1,.321-.775,1.1,1.1,0,0,1,1.543-.007A1.164,1.164,0,0,1,42.446,22.95Z" transform="translate(-6.104 -7.636)" fill="#045173" stroke="#045173" stroke-width="0.4"/>
    </g>
  </g>
</svg>
