<svg xmlns="http://www.w3.org/2000/svg" width="41.733" height="41.729" viewBox="0 0 41.733 41.729">
  <g id="Group_89208" data-name="Group 89208" transform="translate(0.03 0.031)">
    <path id="Path_6318" data-name="Path 6318" d="M70.245,59.242,65.969,57.1l-2.721-7.079a.652.652,0,0,0-.365-.372L46,42.9a.652.652,0,0,0-.7.143L43.044,45.3a.652.652,0,0,0-.14.7l6.75,16.885a.652.652,0,0,0,.372.365L57.1,65.969l2.138,4.276a.652.652,0,0,0,.479.362.563.563,0,0,0,.1,0,.652.652,0,0,0,.46-.192L70.414,60.285a.638.638,0,0,0-.169-1.043ZM44.27,45.912l.362-.359,8.405,8.405a3.836,3.836,0,1,0,.922-.922l-8.405-8.405.359-.362,16.22,6.489,2.558,6.655-7.278,7.278-6.655-2.558Zm11.9,7.724a2.532,2.532,0,1,1-1.793.74,2.532,2.532,0,0,1,1.793-.74ZM60,68.853l-1.63-3.259,7.212-7.212,3.259,1.63Z" transform="translate(-28.91 -28.911)" fill="#045173"/>
    <path id="Path_6319" data-name="Path 6319" d="M12.446,34.851a.671.671,0,0,0-.922,0l-.828.828a17.9,17.9,0,0,1-.326-20.773,3.344,3.344,0,0,0,4.55-4.527,17.9,17.9,0,0,1,20.773.326l-.841.818a.657.657,0,0,0,0,.922L37.727,15.3a.652.652,0,0,0,.919,0L41.5,12.439a.652.652,0,0,0,0-.922L38.646,8.658a.652.652,0,0,0-.919,0l-1.1,1.1A19.2,19.2,0,0,0,17.361,7.517l3.758-3.748a2,2,0,1,0-.932-.922L13.844,9.2A3.347,3.347,0,0,0,9.2,13.843L2.848,20.185a2,2,0,1,0,.922.922L7.528,17.36A19.2,19.2,0,0,0,9.757,36.621l-1.1,1.1a.652.652,0,0,0,0,.919L11.514,41.5a.649.649,0,0,0,.922,0L15.3,38.645a.652.652,0,0,0,0-.919ZM38.193,10.033l1.936,1.936-1.936,1.936-1.936-1.936ZM21.49,1.488a.691.691,0,1,1-.2.489.694.694,0,0,1,.2-.489Zm-10.951,9.05a2.043,2.043,0,1,1,0,2.891A2.037,2.037,0,0,1,10.539,10.538ZM2.47,22.467a.694.694,0,0,1-.978-.978.691.691,0,1,1,.978.978Zm9.513,17.641-1.936-1.936,1.936-1.936,1.936,1.936Z" transform="translate(0 0)" fill="#045173"/>
  </g>
</svg>
