<svg xmlns="http://www.w3.org/2000/svg" xmlns:xlink="http://www.w3.org/1999/xlink" width="41.847" height="41.847" viewBox="0 0 41.847 41.847">
  <defs>
    <clipPath id="clip-path">
      <path id="path4603" d="M0-682.665H41.847v41.847H0Z" transform="translate(0 682.665)" fill="#045173"/>
    </clipPath>
  </defs>
  <g id="Group_89211" data-name="Group 89211" transform="translate(0 -0.002)">
    <g id="g4593" transform="translate(0 0.002)">
      <g id="g4595" transform="translate(16.638 6.634)">
        <path id="path4597" d="M0,0H17.363" fill="none" stroke="#045173" stroke-linecap="round" stroke-linejoin="round" stroke-miterlimit="10" stroke-width="1.3"/>
      </g>
      <g id="g4599">
        <g id="g4601" clip-path="url(#clip-path)">
          <g id="g4607" transform="translate(1.63 6.634)">
            <path id="path4609" d="M-80.072-363.558h-2.893a2.336,2.336,0,0,1-2.336-2.336v-19.069a2.336,2.336,0,0,1,2.336-2.336h.629" transform="translate(85.301 387.299)" fill="none" stroke="#045173" stroke-linecap="round" stroke-linejoin="round" stroke-miterlimit="10" stroke-width="1.3"/>
          </g>
          <g id="g4611" transform="translate(14.374 14.794)">
            <path id="path4613" d="M-383.635,0V13.245a2.337,2.337,0,0,1-2.336,2.336h-22.716" transform="translate(408.687)" fill="none" stroke="#045173" stroke-linecap="round" stroke-linejoin="round" stroke-miterlimit="10" stroke-width="1.3"/>
          </g>
          <g id="g4615" transform="translate(15.216 9.621)">
            <path id="path4617" d="M0,0H19.4" fill="none" stroke="#045173" stroke-linecap="round" stroke-linejoin="round" stroke-miterlimit="10" stroke-width="1.3"/>
          </g>
          <g id="g4619" transform="translate(1.63 9.621)">
            <path id="path4621" d="M0,0H4.387" fill="none" stroke="#045173" stroke-linecap="round" stroke-linejoin="round" stroke-miterlimit="10" stroke-width="1.3"/>
          </g>
          <g id="g4623" transform="translate(8.638 4.655)">
            <path id="path4625" d="M-60.6-30.3a1.979,1.979,0,0,1-1.979,1.979A1.979,1.979,0,0,1-64.561-30.3a1.979,1.979,0,0,1,1.979-1.979A1.979,1.979,0,0,1-60.6-30.3Z" transform="translate(64.561 32.28)" fill="none" stroke="#045173" stroke-linecap="round" stroke-linejoin="round" stroke-miterlimit="10" stroke-width="1.3"/>
          </g>
          <g id="g4627" transform="translate(4.596 0.613)">
            <path id="path4629" d="M-184.4-107.538v-2l-1.824-.384a4.386,4.386,0,0,0-.25-.6l1.019-1.562-1.417-1.417-1.562,1.019a4.394,4.394,0,0,0-.6-.249l-.384-1.824h-2l-.384,1.824a4.4,4.4,0,0,0-.6.249l-1.562-1.019-1.417,1.417,1.019,1.562a4.389,4.389,0,0,0-.249.6l-1.824.384v2l1.824.384a4.4,4.4,0,0,0,.249.6l-1.019,1.562,1.417,1.417,1.562-1.019a4.385,4.385,0,0,0,.6.25l.384,1.824h2l.384-1.824a4.383,4.383,0,0,0,.6-.25l1.562,1.019,1.417-1.417-1.019-1.562a4.392,4.392,0,0,0,.25-.6Z" transform="translate(196.44 114.561)" fill="none" stroke="#045173" stroke-linecap="round" stroke-linejoin="round" stroke-miterlimit="10" stroke-width="1.3"/>
          </g>
          <path id="path4631" d="M109.856-421.344h-6.244v-2.37h6.244Z" transform="translate(-97.26 439.587)" fill="none" stroke="#045173" stroke-linecap="round" stroke-linejoin="round" stroke-miterlimit="10" stroke-width="1.3"/>
          <g id="g4633" transform="translate(16.198 5.702)">
            <path id="path4635" d="M-78.822-147.791l1.906-1.905a.568.568,0,0,1,.806,0l2.967,2.966a.569.569,0,0,0,.806,0L-64-155.073H-65.01a1.181,1.181,0,0,1-.837-.347,1.183,1.183,0,0,1-.347-.838,1.184,1.184,0,0,1,1.184-1.184h3.891a1.168,1.168,0,0,1,1.168,1.168v3.891a1.182,1.182,0,0,1-.347.838,1.182,1.182,0,0,1-.838.347,1.185,1.185,0,0,1-1.185-1.185V-153.4L-72.338-143.38a.568.568,0,0,1-.8,0l-2.967-2.967a.57.57,0,0,0-.806,0l-5.03,5.031a1.184,1.184,0,0,1-1.675,0,1.18,1.18,0,0,1-.347-.837,1.181,1.181,0,0,1,.347-.838l2.757-2.757" transform="translate(83.969 157.442)" fill="none" stroke="#045173" stroke-linecap="round" stroke-linejoin="round" stroke-miterlimit="10" stroke-width="1.3"/>
          </g>
          <g id="g4637" transform="translate(24.077 26.279)">
            <path id="path4639" d="M0,0H11.618" fill="none" stroke="#045173" stroke-linecap="round" stroke-linejoin="round" stroke-miterlimit="10" stroke-width="1.3"/>
          </g>
          <g id="g4641" transform="translate(28.807 23.589)">
            <path id="path4643" d="M0,0H6.888" fill="none" stroke="#045173" stroke-linecap="round" stroke-linejoin="round" stroke-miterlimit="10" stroke-width="1.3"/>
          </g>
          <g id="g4645" transform="translate(6.351 20.571)">
            <path id="path4647" d="M0,0H4.265" fill="none" stroke="#045173" stroke-linecap="round" stroke-linejoin="round" stroke-miterlimit="10" stroke-width="1.3"/>
          </g>
          <g id="g4649" transform="translate(19.491 30.375)">
            <path id="path4651" d="M-15.884-166.291h0a1.037,1.037,0,0,1-1.037-1.037v-9.822h2.075v9.822A1.037,1.037,0,0,1-15.884-166.291Z" transform="translate(16.921 177.15)" fill="none" stroke="#045173" stroke-linecap="round" stroke-linejoin="round" stroke-miterlimit="10" stroke-width="1.3"/>
          </g>
          <g id="g4653" transform="translate(11.576 30.375)">
            <path id="path4655" d="M-73.976,0l-2.576,10.079a1.037,1.037,0,0,1-1,.78h-.212a1.037,1.037,0,0,1-1-1.294l1.8-7.054" transform="translate(78.806)" fill="none" stroke="#045173" stroke-linecap="round" stroke-linejoin="round" stroke-miterlimit="10" stroke-width="1.3"/>
          </g>
          <g id="g4657" transform="translate(24.65 30.375)">
            <path id="path4659" d="M-54.836-166.291h.212a1.037,1.037,0,0,0,1-1.294l-2.445-9.565h-2.353l2.576,10.079A1.037,1.037,0,0,0-54.836-166.291Z" transform="translate(58.417 177.15)" fill="none" stroke="#045173" stroke-linecap="round" stroke-linejoin="round" stroke-miterlimit="10" stroke-width="1.3"/>
          </g>
          <g id="g4661" transform="translate(6.859 26.618)">
            <path id="path4663" d="M-115.087-57.54a3.758,3.758,0,0,1-3.758,3.758,3.785,3.785,0,0,1-.847-.1A3.759,3.759,0,0,1-122.6-57.54a3.759,3.759,0,0,1,2.911-3.662,3.789,3.789,0,0,1,.847-.1A3.758,3.758,0,0,1-115.087-57.54Z" transform="translate(122.602 61.297)" fill="none" stroke="#045173" stroke-linecap="round" stroke-linejoin="round" stroke-miterlimit="10" stroke-width="1.3"/>
          </g>
          <g id="g4665" transform="translate(10.617 29.549)">
            <path id="path4667" d="M0,0V1.653" fill="none" stroke="#045173" stroke-linecap="round" stroke-linejoin="round" stroke-miterlimit="10" stroke-width="1.3"/>
          </g>
        </g>
      </g>
    </g>
  </g>
</svg>
