<svg width="35" height="33" viewBox="0 0 35 33" fill="none" xmlns="http://www.w3.org/2000/svg">
<path d="M34.1133 7.69951V-0.000488281H26.1799V2.74951H8.04661V-0.000488281H0.113281V7.69951H2.94661V25.2995H0.113281V32.9995H8.04661V30.2495H26.1799V32.9995H34.1133V25.2995H31.2799V7.69951H34.1133ZM28.4466 2.19951H31.8466V5.49951H28.4466V2.19951ZM2.37995 5.49951V2.19951H5.77995V5.49951H2.37995ZM5.77995 30.7995H2.37995V27.4995H5.77995V30.7995ZM31.8466 27.4995V30.7995H28.4466V27.4995H31.8466ZM29.0133 23.0995V25.2995H26.1799V28.0495H8.04661V25.2995H5.21328V7.69951H8.04661V4.94951H26.1799V7.69951H29.0133V23.0995Z" fill="#FF1E10"/>
</svg>
