<svg width="67" height="67" viewBox="0 0 67 67" fill="none" xmlns="http://www.w3.org/2000/svg">
<path d="M22.3329 11.167C34.6671 17.3341 49.6655 32.3325 55.8326 44.6668C61.9997 57.001 57.0003 62.0005 44.6661 55.8333C32.3318 49.6662 17.3335 34.6678 11.1663 22.3336C4.99922 9.99934 9.99866 4.9999 22.3329 11.167" stroke="white" stroke-width="3.5" stroke-linecap="round" stroke-linejoin="round"/>
<path d="M44.6661 11.1669C57.0003 4.99979 61.9998 9.99923 55.8326 22.3335C49.6655 34.6677 34.6671 49.6661 22.3329 55.8332C9.99864 62.0003 4.9992 57.0009 11.1663 44.6667C17.3334 32.3324 32.3318 17.334 44.6661 11.1669" stroke="white" stroke-width="3.5" stroke-linecap="round" stroke-linejoin="round"/>
<path d="M34.5105 33.5001C34.5105 34.078 34.0583 34.547 33.5 34.547C32.9416 34.547 32.4894 34.078 32.4894 33.5001C32.4894 32.9222 32.9416 32.4532 33.5 32.4532C34.0583 32.4532 34.5105 32.9222 34.5105 33.5001" stroke="white" stroke-width="3.5" stroke-linecap="round" stroke-linejoin="round"/>
</svg>
