<svg width="55" height="55" viewBox="0 0 55 55" fill="none" xmlns="http://www.w3.org/2000/svg">
<path fill-rule="evenodd" clip-rule="evenodd" d="M14.9375 19.6945V36.0545C14.9306 36.5281 15.167 36.9721 15.5637 37.2307C15.9604 37.4894 16.462 37.5265 16.8925 37.3291C20.3725 35.5812 24.5637 36.1104 27.5 38.6683C30.4363 36.1103 34.6276 35.5811 38.1076 37.329C38.5381 37.5264 39.0397 37.4893 39.4364 37.2306C39.8331 36.972 40.0695 36.528 40.0626 36.0544V19.6945C40.0452 19.3053 39.8897 18.935 39.624 18.65C37.9632 17.0907 35.7484 16.2593 33.4718 16.3407C31.1952 16.422 29.0453 17.4093 27.5 19.0831C25.9548 17.4093 23.8049 16.422 21.5283 16.3407C19.2517 16.2593 17.0369 17.0907 15.3761 18.65C15.1104 18.935 14.9549 19.3053 14.9375 19.6945Z" stroke="white" stroke-width="3.5" stroke-linecap="round" stroke-linejoin="round"/>
<path d="M27.5 38.6683V19.083" stroke="white" stroke-width="3.5" stroke-linecap="round" stroke-linejoin="round"/>
<path fill-rule="evenodd" clip-rule="evenodd" d="M13.9259 48.6218L6.79316 49.8138C6.34835 49.8881 5.89503 49.743 5.57614 49.4241C5.25725 49.1052 5.11207 48.6519 5.18639 48.207L6.3781 41.0738C-0.581966 30.2565 1.7334 15.932 11.7469 7.85823C21.7605 -0.21553 36.2502 0.55931 45.3456 9.65493C54.4411 18.7505 55.2156 33.2403 47.1416 43.2537C39.0676 53.267 24.743 55.5821 13.9259 48.6218Z" stroke="white" stroke-width="3.5" stroke-linecap="round" stroke-linejoin="round"/>
</svg>
