<svg width="67" height="67" viewBox="0 0 67 67" fill="none" xmlns="http://www.w3.org/2000/svg">
<path fill-rule="evenodd" clip-rule="evenodd" d="M9.19292 17.1437L17.1436 9.19303C18.2323 8.10428 19.9995 8.10428 21.091 9.19303L57.807 45.909C58.8958 46.9978 58.8958 48.7649 57.807 49.8564L49.8563 57.8071C48.7676 58.8959 47.0005 58.8959 45.9089 57.8071L9.19292 21.0911C8.10138 19.9996 8.10138 18.2324 9.19292 17.1437Z" stroke="white" stroke-width="3.5" stroke-linecap="round" stroke-linejoin="round"/>
<path d="M39.4463 27.5537L35.2588 31.7412" stroke="white" stroke-width="3.5" stroke-linecap="round" stroke-linejoin="round"/>
<path d="M46.6767 34.7842L43.885 37.5758" stroke="white" stroke-width="3.5" stroke-linecap="round" stroke-linejoin="round"/>
<path d="M53.3208 41.4282L49.1333 45.6157" stroke="white" stroke-width="3.5" stroke-linecap="round" stroke-linejoin="round"/>
<path d="M32.8022 20.9095L30.0105 23.6732" stroke="white" stroke-width="3.5" stroke-linecap="round" stroke-linejoin="round"/>
<path d="M25.5718 13.6792L21.3843 17.8667" stroke="white" stroke-width="3.5" stroke-linecap="round" stroke-linejoin="round"/>
<path d="M34.4883 22.5902L46.9447 10.1338C49.111 7.96747 52.6341 7.97864 54.8144 10.1589L56.8132 12.1578C58.9935 14.3381 59.0047 17.8611 56.8384 20.0275L44.3819 32.4839" stroke="white" stroke-width="3.5" stroke-linecap="round" stroke-linejoin="round"/>
<path d="M22.5902 34.4883L11.3398 45.7387C10.988 46.0904 10.7368 46.5315 10.6111 47.0145L8.53972 55.0294C8.00372 57.1008 9.89089 58.9852 11.9623 58.4436L19.9604 56.3582C20.4406 56.2326 20.8789 55.9813 21.2306 55.6296L32.4838 44.3764" stroke="white" stroke-width="3.5" stroke-linecap="round" stroke-linejoin="round"/>
<path d="M42.21 14.8796L52.0925 24.7621" stroke="white" stroke-width="3.5" stroke-linecap="round" stroke-linejoin="round"/>
</svg>
