<svg width="47" height="48" viewBox="0 0 47 48" fill="none" xmlns="http://www.w3.org/2000/svg">
<g clip-path="url(#clip0_280_315)">
<path d="M40.9669 14.5926L15.6321 5.25739C15.2588 5.11984 14.8462 5.13622 14.485 5.30291C14.1237 5.46961 13.8435 5.77297 13.706 6.14626L4.37082 31.4811C4.23327 31.8544 4.24965 32.267 4.41634 32.6283C4.58304 32.9895 4.8864 33.2697 5.25969 33.4072L30.5945 42.7424C30.9678 42.8799 31.3805 42.8636 31.7417 42.6969C32.1029 42.5302 32.3831 42.2268 32.5206 41.8535L41.8558 16.5187C41.9934 16.1454 41.977 15.7327 41.8103 15.3715C41.6436 15.0103 41.3402 14.7301 40.9669 14.5926ZM30.2243 39.4088L7.70442 31.1109L16.0024 8.59099L38.5222 16.8889L30.2243 39.4088Z" fill="#18F4CD"/>
</g>
<defs>
<clipPath id="clip0_280_315">
<rect width="36" height="36" fill="white" transform="translate(12.4469 0.886475) rotate(20.2274)"/>
</clipPath>
</defs>
</svg>
