<svg width="67" height="67" viewBox="0 0 67 67" fill="none" xmlns="http://www.w3.org/2000/svg">
<path d="M22.3333 8.375H16.75C12.1246 8.375 8.375 12.1246 8.375 16.75V22.3333" stroke="white" stroke-width="3.5" stroke-linecap="round" stroke-linejoin="round"/>
<path d="M44.6667 58.625H50.2501C54.8755 58.625 58.6251 54.8754 58.6251 50.25V33.5" stroke="white" stroke-width="3.5" stroke-linecap="round" stroke-linejoin="round"/>
<path d="M33.4999 58.6249C33.4999 56.7739 32.7646 54.9988 31.4558 53.6899C30.1469 52.3811 28.3717 51.6458 26.5208 51.6458H12.5624C8.70793 51.6458 5.58325 54.7704 5.58325 58.6249" stroke="white" stroke-width="3.5" stroke-linecap="round" stroke-linejoin="round"/>
<circle cx="19.5417" cy="37.6874" r="6.97917" stroke="white" stroke-width="3.5" stroke-linecap="round" stroke-linejoin="round"/>
<path d="M36.9895 18.0193V25.2701C36.9895 26.8562 37.8857 28.3062 39.3044 29.0156L40.9213 29.824C43.2791 31.0029 46.0543 31.0029 48.4121 29.824L50.029 29.0156C51.4476 28.3062 52.3437 26.8562 52.3437 25.2701V18.0193" stroke="white" stroke-width="3.5" stroke-linecap="round" stroke-linejoin="round"/>
<path fill-rule="evenodd" clip-rule="evenodd" d="M32.2956 15.7788L41.6558 20.2546C43.5598 21.1651 45.7735 21.1651 47.6775 20.2546L57.0377 15.7788C58.0075 15.3149 58.6248 14.3354 58.6248 13.2604C58.6248 12.1853 58.0075 11.2058 57.0377 10.7419L47.6775 6.26609C45.7735 5.35564 43.5598 5.35564 41.6558 6.26609L32.2956 10.7419C31.3258 11.2058 30.7085 12.1853 30.7085 13.2604C30.7085 14.3354 31.3258 15.3149 32.2956 15.7788Z" stroke="white" stroke-width="3.5" stroke-linecap="round" stroke-linejoin="round"/>
<path d="M58.6251 13.2422V19.5417" stroke="white" stroke-width="3.5" stroke-linecap="round" stroke-linejoin="round"/>
</svg>
