<svg width="53" height="53" viewBox="0 0 53 53" fill="none" xmlns="http://www.w3.org/2000/svg">
<path d="M52.1526 28.3637L44.6211 15.3214C44.4632 15.0483 44.2033 14.8491 43.8986 14.7674C43.5939 14.6858 43.2692 14.7284 42.9958 14.8859L40.3591 16.4099V6.29016C40.3591 6.27855 40.3591 6.2659 40.3538 6.25324L40.3475 6.21106C40.3475 6.19629 40.3401 6.18152 40.337 6.16676L40.3285 6.13301L40.3127 6.08871C40.3127 6.07817 40.3053 6.06762 40.3022 6.05813L40.2832 6.01488C40.2779 6.00539 40.2737 5.99484 40.2684 5.98535L40.2463 5.94633C40.2399 5.93578 40.2347 5.92523 40.2273 5.91469L40.2041 5.88094L40.1809 5.8493L40.1545 5.81871L40.1397 5.80078L35.0329 0.264727L35.0213 0.253125L34.9876 0.219375L34.9602 0.195117C34.9475 0.18457 34.9349 0.174023 34.9211 0.164531C34.9124 0.157265 34.9033 0.150571 34.8937 0.144492L34.8473 0.113906L34.8241 0.098086L34.7672 0.0696094L34.7482 0.0601173C34.726 0.0506251 34.7028 0.0421876 34.6786 0.0337501H34.6691C34.6438 0.0253126 34.6174 0.0189844 34.59 0.0126562C34.5625 0.00703124 34.5351 0.0028125 34.5077 0H13.5131C13.1001 0.000558076 12.7042 0.164859 12.4122 0.456878C12.1202 0.748896 11.9559 1.1448 11.9553 1.55777V18.1427L9.31861 16.6187C9.0451 16.4612 8.72026 16.4185 8.41537 16.5002C8.11047 16.5819 7.85042 16.7811 7.69228 17.0543L0.158645 30.0987C0.0014209 30.3721 -0.041017 30.6967 0.0406293 31.0013C0.122276 31.306 0.321348 31.5658 0.594231 31.7239L6.74939 35.2804C7.71692 36.1314 8.5554 37.1187 9.23845 38.2113L7.17126 41.8015C6.82952 42.3928 6.68547 43.0778 6.7601 43.7567C6.83472 44.4357 7.12413 45.073 7.58617 45.576C8.04821 46.079 8.65875 46.4214 9.3289 46.5532C9.99904 46.6851 10.6938 46.5996 11.312 46.3092C11.46 46.7331 11.6953 47.1212 12.0027 47.4486C12.31 47.7759 12.6825 48.0352 13.0962 48.2098C13.5099 48.3843 13.9556 48.4701 14.4046 48.4618C14.8535 48.4534 15.2957 48.351 15.7026 48.1613C15.9678 48.9273 16.5136 49.5644 17.23 49.9439C17.9464 50.3234 18.78 50.4172 19.5628 50.2063C19.8972 50.1168 20.2152 49.9743 20.5046 49.7844C20.7592 50.3423 21.1687 50.8153 21.6844 51.1472C22.2001 51.4791 22.8002 51.6559 23.4134 51.6565C23.9561 51.6569 24.4901 51.5198 24.9654 51.2579C25.4407 50.996 25.8418 50.6178 26.1314 50.1588L29.0149 51.8231C29.6333 52.181 30.3441 52.3472 31.0571 52.3007C31.7701 52.2542 32.4533 51.9972 33.0201 51.5621C33.5868 51.127 34.0117 50.5335 34.2409 49.8567C34.47 49.18 34.4932 48.4504 34.3073 47.7605C34.2799 47.655 34.2472 47.5495 34.2113 47.4546C34.3161 47.4356 34.4216 47.4124 34.5277 47.385C34.986 47.2631 35.4157 47.052 35.7921 46.7636C36.1685 46.4753 36.4843 46.1154 36.7214 45.7048C36.9584 45.2941 37.112 44.8406 37.1734 44.3704C37.2348 43.9003 37.2027 43.4226 37.079 42.9648C37.0516 42.8593 37.02 42.7591 36.9841 42.66C37.5046 42.5697 37.9988 42.3661 38.432 42.0637C38.8651 41.7613 39.2265 41.3675 39.4907 40.91C39.7549 40.4526 39.9154 39.9427 39.9608 39.4164C40.0063 38.8901 39.9356 38.3603 39.7537 37.8643C40.2741 37.7738 40.7683 37.5701 41.2013 37.2675C41.6343 36.965 41.9956 36.5711 42.2597 36.1136C42.3519 35.9535 42.432 35.7868 42.4991 35.6147C43.0201 35.3616 43.501 34.9334 43.9704 34.5147C44.2973 34.2214 44.8458 33.7321 45.0588 33.6973C45.2129 33.7015 45.3652 33.6628 45.4986 33.5855L51.7213 29.9911C51.9938 29.832 52.1922 29.5715 52.273 29.2665C52.3539 28.9615 52.3106 28.6369 52.1526 28.3637ZM35.2565 2.99742L37.5874 5.52867H35.2565V2.99742ZM13.6428 1.68012H33.569V6.37242C33.569 6.5962 33.6579 6.81081 33.8162 6.96904C33.9744 7.12728 34.189 7.21617 34.4128 7.21617H38.6684V17.3844L36.9809 18.3568C33.6977 18.2218 28.8166 18.7471 25.5661 20.2437C25.3766 20.3324 25.1792 20.4031 24.9765 20.4546C24.8795 20.482 24.7719 20.5137 24.6369 20.5601C24.2368 20.6868 23.8612 20.8808 23.5263 21.1338C23.4921 21.1174 23.4569 21.1033 23.4208 21.0916C21.3484 20.3808 18.2813 19.6404 15.2765 20.0644L13.6354 19.1152L13.6428 1.68012ZM6.9329 33.4357L1.8704 30.5111L8.902 18.3284L13.9645 21.253L6.9329 33.4357ZM11.5556 43.6567L11.2613 44.165C11.1615 44.3382 11.0285 44.4899 10.87 44.6117C10.7115 44.7334 10.5305 44.8227 10.3375 44.8745C10.1445 44.9263 9.94312 44.9396 9.74495 44.9136C9.54678 44.8876 9.35568 44.8228 9.18255 44.723C9.00942 44.6231 8.85766 44.4901 8.73592 44.3316C8.61419 44.1731 8.52486 43.9922 8.47305 43.7991C8.42125 43.6061 8.40796 43.4047 8.43397 43.2066C8.45998 43.0084 8.52476 42.8173 8.62462 42.6442L11.6716 37.3707C11.7715 37.1976 11.9045 37.0458 12.063 36.9241C12.2215 36.8024 12.4024 36.7131 12.5955 36.6612C12.7885 36.6094 12.9898 36.5962 13.188 36.6222C13.3862 36.6482 13.5773 36.713 13.7504 36.8128C13.9235 36.9127 14.0753 37.0457 14.197 37.2042C14.3188 37.3627 14.4081 37.5436 14.4599 37.7367C14.5117 37.9297 14.525 38.131 14.499 38.3292C14.473 38.5274 14.4082 38.7185 14.3083 38.8916L11.5577 43.6567H11.5556ZM15.9473 45.5066L15.6531 46.0171C15.45 46.365 15.1178 46.6187 14.7288 46.723C14.3397 46.8272 13.9251 46.7737 13.5753 46.5739C13.2266 46.3717 12.9721 46.0395 12.8678 45.6501C12.7634 45.2607 12.8176 44.8458 13.0184 44.4962L15.7701 39.7322C15.9718 39.3825 16.3041 39.1273 16.694 39.0227C17.0838 38.9181 17.4993 38.9726 17.8489 39.1743C18.1986 39.3759 18.4538 39.7083 18.5584 40.0981C18.663 40.488 18.6085 40.9034 18.4068 41.253L15.9526 45.5045L15.9473 45.5066ZM20.0448 47.8754C19.8431 48.2251 19.5108 48.4803 19.1209 48.5849C18.7311 48.6896 18.3156 48.635 17.966 48.4334C17.6163 48.2317 17.3611 47.8994 17.2565 47.5095C17.1519 47.1197 17.2064 46.7042 17.4081 46.3546L19.8634 42.1031C20.0645 41.7535 20.3963 41.498 20.7857 41.393C21.1752 41.288 21.5904 41.342 21.9401 41.5431C22.2897 41.7442 22.5451 42.076 22.6502 42.4654C22.7552 42.8549 22.7012 43.2701 22.5001 43.6198L20.6375 46.8461L20.0448 47.8754ZM22.6541 49.7739C22.3065 49.571 22.053 49.2392 21.9488 48.8506C21.8445 48.4619 21.8978 48.0478 22.0972 47.6982L23.9598 44.472C24.0596 44.2988 24.1926 44.1471 24.3511 44.0253C24.5096 43.9036 24.6906 43.8143 24.8836 43.7625C25.0767 43.7107 25.278 43.6974 25.4762 43.7234C25.6743 43.7494 25.8654 43.8142 26.0386 43.914C26.2117 44.0139 26.3635 44.1469 26.4852 44.3054C26.6069 44.4639 26.6963 44.6448 26.7481 44.8379C26.7999 45.0309 26.8132 45.2323 26.7871 45.4304C26.7611 45.6286 26.6964 45.8197 26.5965 45.9928L25.0946 48.5947L24.736 49.217C24.5326 49.5657 24.199 49.8193 23.8086 49.9222C23.4182 50.025 23.0029 49.9686 22.6541 49.7654V49.7739ZM32.4838 49.6684C32.2283 50.1103 31.808 50.4327 31.315 50.565C30.8221 50.6973 30.2968 50.6286 29.8544 50.374L26.9751 48.7107L28.0541 46.8271C28.3524 46.3102 28.5003 45.7202 28.4812 45.1238L31.7771 47.0222C32.2197 47.2783 32.5427 47.6995 32.6752 48.1934C32.8076 48.6873 32.7388 49.2136 32.4838 49.6568V49.6684ZM40.7905 35.2814C40.5348 35.7231 40.1144 36.0453 39.6215 36.1774C39.1286 36.3095 38.6034 36.2406 38.1611 35.9859L31.1654 31.9475C31.0694 31.8886 30.9625 31.8496 30.8511 31.8326C30.7397 31.8157 30.626 31.8213 30.5168 31.849C30.4076 31.8767 30.3051 31.926 30.2152 31.9939C30.1253 32.0619 30.05 32.1472 29.9937 32.2448C29.9373 32.3423 29.9011 32.4502 29.8871 32.562C29.8731 32.6738 29.8816 32.7873 29.9122 32.8957C29.9428 33.0042 29.9947 33.1054 30.0651 33.1934C30.1354 33.2815 30.2226 33.3545 30.3217 33.4083L37.3174 37.434C37.7487 37.6946 38.0607 38.114 38.1864 38.602C38.3121 39.09 38.2416 39.6079 37.9898 40.0444C37.738 40.481 37.3252 40.8015 36.8398 40.9372C36.3545 41.0728 35.8353 41.0128 35.3936 40.77L30.0211 37.6682C29.9251 37.6128 29.8191 37.5768 29.7092 37.5624C29.5994 37.5479 29.4877 37.5552 29.3807 37.5839C29.2736 37.6126 29.1733 37.6621 29.0854 37.7296C28.9975 37.7971 28.9237 37.8812 28.8683 37.9772C28.8129 38.0732 28.7769 38.1791 28.7625 38.289C28.748 38.3989 28.7554 38.5105 28.7841 38.6176C28.8128 38.7246 28.8623 38.825 28.9297 38.9129C28.9972 39.0008 29.0813 39.0746 29.1773 39.13L34.5425 42.2276C34.9846 42.483 35.3071 42.9035 35.4392 43.3967C35.5712 43.8899 35.5019 44.4153 35.2465 44.8574C34.9911 45.2995 34.5706 45.6221 34.0774 45.7541C33.5842 45.8861 33.0588 45.8168 32.6167 45.5614L29.0107 43.4795C28.8567 43.3917 28.6789 43.3546 28.5027 43.3736C28.3264 43.3925 28.1606 43.4665 28.0288 43.585C27.6728 42.9831 27.1294 42.5146 26.4817 42.2511C25.834 41.9877 25.1178 41.9438 24.4428 42.1263L24.3068 42.1654C24.2962 42.12 24.2857 42.0736 24.273 42.0282C24.1649 41.6219 23.9777 41.241 23.7222 40.9071C23.4667 40.5732 23.1479 40.293 22.784 40.0825C22.42 39.8719 22.0182 39.7353 21.6013 39.6802C21.1845 39.6252 20.761 39.6529 20.3549 39.7617C20.3084 39.7744 20.2642 39.787 20.2188 39.8018C20.2083 39.7554 20.1977 39.71 20.185 39.6636C20.0767 39.2567 19.8892 38.8751 19.6331 38.5408C19.377 38.2065 19.0575 37.926 18.6928 37.7155C18.3281 37.5049 17.9254 37.3684 17.5079 37.3138C17.0903 37.2591 16.6661 37.2875 16.2595 37.3971L16.1245 37.4361C15.9843 36.8058 15.6572 36.2325 15.1858 35.7911C14.7145 35.3498 14.1209 35.061 13.4827 34.9625C12.8446 34.8641 12.1915 34.9605 11.6091 35.2393C11.0266 35.518 10.5419 35.9661 10.2183 36.5249L10.1824 36.5861C9.63161 35.8062 9.00795 35.0805 8.31982 34.4187L15.6467 21.7192C18.0725 21.4028 20.5816 21.9491 22.421 22.5366C22.3443 22.7093 22.2812 22.8877 22.2322 23.0702L21.072 27.4177C21.0436 27.5231 21.0161 27.6191 20.9908 27.713C20.8158 28.3363 20.6639 28.8731 20.802 29.7591C20.9265 30.5749 21.2211 31.3554 21.6669 32.0498C21.9432 32.458 22.3893 32.9991 23.0696 33.0064H23.0823C23.8016 33.0064 24.2129 32.4253 24.543 31.957C24.5799 31.9043 24.6179 31.8516 24.6569 31.7978C25.3569 30.8094 26.0067 29.7865 26.6039 28.7329C27.1998 27.713 27.8168 26.6572 28.207 26.5634L29.1678 26.3345L40.0902 32.6405C40.5311 32.8968 40.8525 33.3175 40.9837 33.8104C41.115 34.3033 41.0455 34.8281 40.7905 35.2698V35.2814ZM42.6288 33.4536C42.513 32.9812 42.3028 32.5371 42.0108 32.1481C41.7188 31.7591 41.351 31.4333 40.9297 31.1903L29.7163 24.7039C29.5293 24.5961 29.3081 24.564 29.0982 24.6143L27.8104 24.9212C26.7188 25.1817 26.0575 26.3145 25.1421 27.8807C24.573 28.8875 23.9531 29.8647 23.2848 30.8085C23.2426 30.8665 23.2015 30.9245 23.1614 30.9814L23.0675 31.1143L23.0591 31.1017C22.754 30.6133 22.5519 30.0678 22.4653 29.4986C22.3841 28.9765 22.4653 28.7065 22.6108 28.1675C22.6383 28.0684 22.6678 27.965 22.6973 27.8511L23.8575 23.5048C23.9306 23.2298 24.0643 22.9747 24.2488 22.758C24.2656 22.7412 24.2804 22.7232 24.2962 22.7053C24.5254 22.455 24.8164 22.2695 25.14 22.1674C25.257 22.1305 25.3509 22.1031 25.4363 22.0788C25.7212 22.0025 25.9986 21.9008 26.2653 21.7751C29.3745 20.3481 34.0194 19.96 36.693 20.0317L43.8512 32.4295C43.4948 32.6797 43.1565 32.9546 42.8387 33.2522C42.7712 33.3207 42.7005 33.3787 42.6288 33.442V33.4536ZM45.3805 31.7029L38.3447 19.5202L43.4072 16.5955L50.4409 28.7782L45.3805 31.7029ZM21.244 15.6716C21.4677 15.6716 21.6823 15.5827 21.8406 15.4245C21.9988 15.2662 22.0877 15.0516 22.0877 14.8279V9.17473C22.0877 8.95095 21.9988 8.73634 21.8406 8.57811C21.6823 8.41987 21.4677 8.33098 21.244 8.33098H15.5866C15.3628 8.33098 15.1482 8.41987 14.99 8.57811C14.8318 8.73634 14.7429 8.95095 14.7429 9.17473V14.83C14.7429 15.0537 14.8318 15.2683 14.99 15.4266C15.1482 15.5848 15.3628 15.6737 15.5866 15.6737L21.244 15.6716ZM16.4325 10.0164H20.4002V13.9841H16.4304L16.4325 10.0164ZM20.0279 11.8188L18.7433 13.2922C18.6672 13.3793 18.574 13.4498 18.4695 13.4993C18.365 13.5488 18.2514 13.5764 18.1358 13.5802H18.1073C17.996 13.5808 17.8857 13.5594 17.7827 13.5172C17.6797 13.4751 17.5861 13.4129 17.5072 13.3344L16.8396 12.6668C16.7612 12.5883 16.699 12.4952 16.6566 12.3927C16.6142 12.2902 16.5924 12.1804 16.5925 12.0695C16.5925 11.9586 16.6144 11.8487 16.6569 11.7463C16.6994 11.6438 16.7616 11.5508 16.8401 11.4724C16.9186 11.394 17.0117 11.3318 17.1142 11.2894C17.2167 11.247 17.3265 11.2252 17.4374 11.2253C17.5483 11.2253 17.6582 11.2472 17.7606 11.2897C17.8631 11.3322 17.9561 11.3944 18.0345 11.4729L18.0641 11.5024L18.7528 10.7125C18.8248 10.6265 18.9133 10.5557 19.013 10.5043C19.1127 10.453 19.2217 10.422 19.3335 10.4132C19.4454 10.4044 19.5578 10.418 19.6644 10.4533C19.7709 10.4885 19.8693 10.5446 19.9539 10.6183C20.0384 10.692 20.1075 10.7818 20.1569 10.8825C20.2063 10.9832 20.2352 11.0927 20.2418 11.2047C20.2484 11.3167 20.2326 11.4289 20.1953 11.5347C20.1581 11.6405 20.1001 11.7378 20.0247 11.8209L20.0279 11.8188ZM24.5451 15.1601C24.5451 14.9363 24.634 14.7217 24.7923 14.5635C24.9505 14.4052 25.1651 14.3163 25.3889 14.3163H36.7268C36.9505 14.3163 37.1652 14.4052 37.3234 14.5635C37.4816 14.7217 37.5705 14.9363 37.5705 15.1601C37.5705 15.3839 37.4816 15.5985 37.3234 15.7567C37.1652 15.9149 36.9505 16.0038 36.7268 16.0038H25.3868C25.1634 16.0038 24.9491 15.9152 24.7909 15.7574C24.6327 15.5997 24.5436 15.3856 24.543 15.1622L24.5451 15.1601ZM24.5451 9.17262C24.5451 8.94884 24.634 8.73423 24.7923 8.576C24.9505 8.41776 25.1651 8.32887 25.3889 8.32887H30.6539C30.8777 8.32887 31.0923 8.41776 31.2505 8.576C31.4087 8.73423 31.4976 8.94884 31.4976 9.17262C31.4976 9.39639 31.4087 9.61101 31.2505 9.76924C31.0923 9.92747 30.8777 10.0164 30.6539 10.0164H25.3868C25.1634 10.0164 24.9491 9.92776 24.7909 9.76999C24.6327 9.61221 24.5436 9.39814 24.543 9.17473L24.5451 9.17262ZM24.5451 12.1658C24.5451 11.942 24.634 11.7274 24.7923 11.5692C24.9505 11.411 25.1651 11.3221 25.3889 11.3221H32.8772C33.1009 11.3221 33.3155 11.411 33.4738 11.5692C33.632 11.7274 33.7209 11.942 33.7209 12.1658C33.7209 12.3896 33.632 12.6042 33.4738 12.7624C33.3155 12.9207 33.1009 13.0096 32.8772 13.0096H25.3889C25.2781 13.0098 25.1683 12.9883 25.0658 12.9462C24.9634 12.904 24.8702 12.8421 24.7916 12.7639C24.7131 12.6858 24.6507 12.5929 24.6081 12.4907C24.5654 12.3884 24.5433 12.2787 24.543 12.1679L24.5451 12.1658Z" fill="white"/>
</svg>
