<svg width="56" height="51" viewBox="0 0 56 51" fill="none" xmlns="http://www.w3.org/2000/svg">
<path d="M35.4359 17.2524H39.2668V24.3587C39.2668 24.6127 39.3677 24.8563 39.5473 25.0359C39.7269 25.2155 39.9705 25.3164 40.2245 25.3164C40.4786 25.3164 40.7222 25.2155 40.9018 25.0359C41.0814 24.8563 41.1823 24.6127 41.1823 24.3587V16.2946C41.1823 16.0406 41.0814 15.797 40.9018 15.6174C40.7222 15.4378 40.4786 15.3369 40.2245 15.3369H35.4359C35.1819 15.3369 34.9383 15.4378 34.7587 15.6174C34.5791 15.797 34.4782 16.0406 34.4782 16.2946C34.4782 16.5486 34.5791 16.7922 34.7587 16.9719C34.9383 17.1515 35.1819 17.2524 35.4359 17.2524ZM41.1823 45.0265V37.1252C41.1823 36.8712 41.0814 36.6276 40.9018 36.448C40.7222 36.2684 40.4786 36.1675 40.2245 36.1675C39.9705 36.1675 39.7269 36.2684 39.5473 36.448C39.3677 36.6276 39.2668 36.8712 39.2668 37.1252V45.0265H4.78864V17.2524H20.1123C20.3663 17.2524 20.6099 17.1515 20.7895 16.9719C20.9691 16.7922 21.07 16.5486 21.07 16.2946C21.07 16.0406 20.9691 15.797 20.7895 15.6174C20.6099 15.4378 20.3663 15.3369 20.1123 15.3369H3.83091C3.5769 15.3369 3.3333 15.4378 3.15369 15.6174C2.97409 15.797 2.87318 16.0406 2.87318 16.2946V45.0265C2.11117 45.0265 1.38036 45.3292 0.841536 45.868C0.302709 46.4068 0 47.1376 0 47.8996C0 48.6617 0.302709 49.3925 0.841536 49.9313C1.38036 50.4701 2.11117 50.7728 2.87318 50.7728H41.1823C41.9443 50.7728 42.6751 50.4701 43.2139 49.9313C43.7527 49.3925 44.0555 48.6617 44.0555 47.8996C44.0555 47.1376 43.7527 46.4068 43.2139 45.868C42.6751 45.3292 41.9443 45.0265 41.1823 45.0265ZM41.1823 48.8574H2.87318C2.61918 48.8574 2.37558 48.7565 2.19597 48.5769C2.01636 48.3973 1.91545 48.1536 1.91545 47.8996C1.91545 47.6456 2.01636 47.402 2.19597 47.2224C2.37558 47.0428 2.61918 46.9419 2.87318 46.9419H41.1823C41.4363 46.9419 41.6799 47.0428 41.8595 47.2224C42.0391 47.402 42.14 47.6456 42.14 47.8996C42.14 48.1536 42.0391 48.3973 41.8595 48.5769C41.6799 48.7565 41.4363 48.8574 41.1823 48.8574Z" fill="white"/>
<path d="M34.6697 19.1678C34.4157 19.1678 34.1721 19.2688 33.9925 19.4484C33.8129 19.628 33.712 19.8716 33.712 20.1256C33.712 20.3796 33.8129 20.6232 33.9925 20.8028C34.1721 20.9824 34.4157 21.0833 34.6697 21.0833H36.3936C36.6476 21.0833 36.8913 20.9824 37.0709 20.8028C37.2505 20.6232 37.3514 20.3796 37.3514 20.1256C37.3514 19.8716 37.2505 19.628 37.0709 19.4484C36.8913 19.2688 36.6476 19.1678 36.3936 19.1678H34.6697ZM7.66182 19.1678C7.40782 19.1678 7.16421 19.2688 6.98461 19.4484C6.805 19.628 6.70409 19.8716 6.70409 20.1256V42.1533C6.70409 42.4073 6.805 42.6509 6.98461 42.8305C7.16421 43.0101 7.40782 43.111 7.66182 43.111H36.3936C36.6476 43.111 36.8913 43.0101 37.0709 42.8305C37.2505 42.6509 37.3514 42.4073 37.3514 42.1533C37.3514 41.8993 37.2505 41.6557 37.0709 41.4761C36.8913 41.2965 36.6476 41.1956 36.3936 41.1956H8.61955V21.0833H20.8785C21.1325 21.0833 21.3761 20.9824 21.5557 20.8028C21.7353 20.6232 21.8362 20.3796 21.8362 20.1256C21.8362 19.8716 21.7353 19.628 21.5557 19.4484C21.3761 19.2688 21.1325 19.1678 20.8785 19.1678H7.66182ZM27.0941 21.0833H28.4541C29.5438 21.0833 30.5888 20.6504 31.3593 19.8799C32.1299 19.1094 32.5627 18.0643 32.5627 16.9747V13.8429C33.1417 13.5086 33.6232 13.0286 33.9592 12.4507C34.2952 11.8727 34.4742 11.2168 34.4782 10.5483C34.4782 10.2943 34.3773 10.0507 34.1977 9.87109C34.0181 9.69148 33.7745 9.59058 33.5205 9.59058H25.6096C24.9137 9.59058 24.2462 9.86705 23.7541 10.3592C23.2619 10.8513 22.9855 11.5188 22.9855 12.2147V17.0034C22.993 18.0881 23.4293 19.1258 24.199 19.8901C24.9687 20.6544 26.0094 21.0833 27.0941 21.0833ZM32.3041 11.506C32.1362 11.7969 31.8947 12.0385 31.6039 12.2066C31.3131 12.3747 30.9832 12.4634 30.6473 12.4638H29.6896C29.3537 12.4634 29.0237 12.3747 28.7329 12.2066C28.4421 12.0385 28.2006 11.7969 28.0327 11.506H32.3041ZM24.9009 12.2147C24.9009 12.0268 24.9756 11.8465 25.1085 11.7136C25.2414 11.5807 25.4217 11.506 25.6096 11.506H25.9927C26.2045 12.3263 26.6822 13.0532 27.3511 13.5731C28.02 14.093 28.8424 14.3765 29.6896 14.3792H30.6473V16.9747C30.6448 17.5555 30.4129 18.1119 30.0021 18.5227C29.5914 18.9335 29.035 19.1653 28.4541 19.1678H27.0941C26.5132 19.1653 25.9568 18.9335 25.5461 18.5227C25.1353 18.1119 24.9034 17.5555 24.9009 16.9747V12.2147Z" fill="white"/>
<path d="M49.2751 30.7659L47.3596 29.8082C47.2273 29.7369 47.0789 29.7006 46.9286 29.7028C41.8431 29.5783 38.8837 27.931 35.6466 23.401C35.5585 23.2772 35.4422 23.1762 35.3073 23.1062C35.1724 23.0363 35.0228 22.9995 34.8708 22.9987H20.9359C17.8425 22.9987 15.3236 26.3508 15.3236 30.3828C15.2533 31.9092 15.6828 33.4168 16.547 34.6768C17.4113 35.9369 18.663 36.8806 20.1123 37.3647H15.3236C15.0696 37.3647 14.826 37.4656 14.6464 37.6452C14.4668 37.8248 14.3659 38.0684 14.3659 38.3224C14.3659 38.5764 14.4668 38.82 14.6464 38.9996C14.826 39.1792 15.0696 39.2801 15.3236 39.2801H36.3936C36.6476 39.2801 36.8912 39.1792 37.0709 38.9996C37.2505 38.82 37.3514 38.5764 37.3514 38.3224C37.3514 38.0684 37.2505 37.8248 37.0709 37.6452C36.8912 37.4656 36.6476 37.3647 36.3936 37.3647H35.4359V32.3941C40.2245 35.0948 44.9557 35.1236 49.3421 32.3941C49.4864 32.3047 49.6043 32.1787 49.6838 32.0289C49.7634 31.8791 49.8017 31.7108 49.7949 31.5413C49.7881 31.3718 49.7364 31.2071 49.645 31.0641C49.5537 30.9212 49.426 30.805 49.2751 30.7276V30.7659ZM28.7318 24.9142L27.7741 26.188L26.8164 24.9142H28.7318ZM35.0241 29.8752C34.8845 29.7808 34.7224 29.7248 34.5542 29.713C34.3861 29.7013 34.2178 29.7341 34.0664 29.8082C33.9102 29.8891 33.7793 30.0114 33.6881 30.1618C33.5969 30.3121 33.5488 30.4847 33.5492 30.6606V37.3647H22.0277V30.6606C22.0277 30.4066 21.9268 30.163 21.7472 29.9834C21.5676 29.8037 21.324 29.7028 21.07 29.7028C20.816 29.7028 20.5724 29.8037 20.3928 29.9834C20.2132 30.163 20.1123 30.4066 20.1123 30.6606V35.296C18.4458 34.7501 17.2391 32.7867 17.2391 30.3828C17.2391 27.4234 18.9343 24.9142 20.9359 24.9142H24.422L27.0079 28.362C27.0971 28.481 27.2128 28.5775 27.3458 28.644C27.4788 28.7105 27.6254 28.7451 27.7741 28.7451C27.9228 28.7451 28.0694 28.7105 28.2024 28.644C28.3354 28.5775 28.4511 28.481 28.5403 28.362L31.1261 24.9142H34.4016C37.8494 29.5975 41.2397 31.4363 46.6892 31.6183C43.002 33.256 39.0657 32.6622 35.0241 29.8752ZM46.9286 0.013292C45.7967 -0.0495933 44.6635 0.111088 43.5936 0.486163C42.5238 0.861237 41.5383 1.44336 40.6934 2.19929C38.9872 3.72596 37.9572 5.86793 37.8302 8.15397C37.7032 10.44 38.4896 12.6829 40.0162 14.3892C41.5429 16.0955 43.6849 17.1254 45.9709 17.2524C46.0289 17.4513 46.1499 17.6261 46.3157 17.7504C46.4815 17.8747 46.6831 17.9419 46.8903 17.9419C47.0975 17.9419 47.2992 17.8747 47.465 17.7504C47.6307 17.6261 47.7517 17.4513 47.8097 17.2524C50.0958 17.1355 52.2418 16.1154 53.7757 14.4163C55.3095 12.7172 56.1056 10.4783 55.9887 8.19228C55.8719 5.90624 54.8517 3.76024 53.1526 2.22638C51.4535 0.692521 49.2147 -0.10355 46.9286 0.013292ZM46.9286 15.3369C45.6027 15.3369 44.3065 14.9437 43.204 14.2071C42.1016 13.4704 41.2423 12.4234 40.7349 11.1984C40.2274 9.97337 40.0947 8.6254 40.3534 7.32494C40.612 6.02447 41.2505 4.82991 42.1881 3.89233C43.1257 2.95475 44.3203 2.31624 45.6207 2.05756C46.9212 1.79888 48.2692 1.93165 49.4942 2.43907C50.7192 2.94648 51.7662 3.80576 52.5029 4.90825C53.2395 6.01073 53.6327 7.30689 53.6327 8.63284C53.6327 9.51323 53.4593 10.385 53.1224 11.1984C52.7855 12.0118 52.2917 12.7508 51.6691 13.3733C51.0466 13.9959 50.3076 14.4897 49.4942 14.8266C48.6808 15.1635 47.809 15.3369 46.9286 15.3369Z" fill="white"/>
<path d="M46.4498 6.71742H48.8441C49.0981 6.71742 49.3417 6.61652 49.5213 6.43691C49.7009 6.2573 49.8018 6.0137 49.8018 5.75969C49.8018 5.50569 49.7009 5.26209 49.5213 5.08248C49.3417 4.90287 49.0981 4.80197 48.8441 4.80197H47.8864C47.8864 4.54796 47.7855 4.30436 47.6059 4.12475C47.4262 3.94514 47.1826 3.84424 46.9286 3.84424C46.6746 3.84424 46.431 3.94514 46.2514 4.12475C46.0718 4.30436 45.9709 4.54796 45.9709 4.80197V4.84985C45.389 4.96801 44.8718 5.29816 44.5196 5.77623C44.1675 6.25429 44.0055 6.84615 44.0652 7.43691C44.1248 8.02767 44.4019 8.57519 44.8425 8.97317C45.2832 9.37115 45.856 9.5912 46.4498 9.5906H47.4075C47.5345 9.5906 47.6563 9.64105 47.7461 9.73086C47.8359 9.82066 47.8864 9.94246 47.8864 10.0695C47.8864 10.1965 47.8359 10.3183 47.7461 10.4081C47.6563 10.4979 47.5345 10.5483 47.4075 10.5483H45.0132C44.7592 10.5483 44.5156 10.6492 44.336 10.8288C44.1564 11.0084 44.0555 11.2521 44.0555 11.5061C44.0555 11.7601 44.1564 12.0037 44.336 12.1833C44.5156 12.3629 44.7592 12.4638 45.0132 12.4638H45.9709C45.9709 12.7178 46.0718 12.9614 46.2514 13.141C46.431 13.3206 46.6746 13.4215 46.9286 13.4215C47.1826 13.4215 47.4262 13.3206 47.6059 13.141C47.7855 12.9614 47.8864 12.7178 47.8864 12.4638V12.4159C48.4683 12.2977 48.9855 11.9676 49.3376 11.4895C49.6898 11.0115 49.8518 10.4196 49.7921 9.82884C49.7324 9.23808 49.4554 8.69056 49.0147 8.29258C48.5741 7.8946 48.0013 7.67455 47.4075 7.67515H46.4498C46.3228 7.67515 46.201 7.6247 46.1112 7.53489C46.0214 7.44509 45.9709 7.32329 45.9709 7.19628C45.9709 7.06928 46.0214 6.94748 46.1112 6.85768C46.201 6.76787 46.3228 6.71742 46.4498 6.71742ZM47.8864 22.0411V21.0833C47.8864 20.8293 47.7855 20.5857 47.6059 20.4061C47.4262 20.2265 47.1826 20.1256 46.9286 20.1256C46.6746 20.1256 46.431 20.2265 46.2514 20.4061C46.0718 20.5857 45.9709 20.8293 45.9709 21.0833V22.0411C45.9709 22.2951 46.0718 22.5387 46.2514 22.7183C46.431 22.8979 46.6746 22.9988 46.9286 22.9988C47.1826 22.9988 47.4262 22.8979 47.6059 22.7183C47.7855 22.5387 47.8864 22.2951 47.8864 22.0411Z" fill="white"/>
</svg>
