<svg width="44" height="42" viewBox="0 0 44 42" fill="none" xmlns="http://www.w3.org/2000/svg">
<path d="M43.3554 34.8626C43.1844 34.8626 43.0205 34.9306 42.8996 35.0514C42.7788 35.1723 42.7109 35.3362 42.7109 35.5072V39.8137C42.7109 39.8736 42.6622 39.9223 42.6023 39.9223H40.1533V30.5055C40.1533 30.1496 39.8648 29.861 39.5088 29.861C39.1527 29.861 38.8642 30.1496 38.8642 30.5055V39.9224H34.1317L35.4126 38.5133C35.6104 38.2956 35.7036 37.9865 35.6621 37.6863C35.6612 37.6799 35.6602 37.6734 35.6591 37.667L34.2192 29.1596L34.4842 28.7608L34.5532 28.8097C34.6719 28.8941 34.8075 28.9518 34.9506 28.9788C35.0937 29.0058 35.241 29.0014 35.3822 28.966C35.5235 28.9307 35.6555 28.8652 35.7691 28.774C35.8827 28.6829 35.9752 28.5682 36.0402 28.4378V28.4377L37.5053 25.5012L40.8521 26.7974C40.9842 26.8548 42.7105 27.6463 42.7105 29.7059V32.4992C42.7125 32.6689 42.7812 32.8309 42.9019 32.9502C43.0225 33.0695 43.1854 33.1364 43.355 33.1364C43.5247 33.1364 43.6875 33.0695 43.8082 32.9503C43.9289 32.831 43.9977 32.6689 43.9997 32.4993V29.706C43.9997 26.7317 41.4486 25.6488 41.3401 25.6041C41.336 25.6024 41.3319 25.6008 41.3278 25.5992L35.6287 23.392V22.2181C36.5183 21.5024 37.1431 20.4709 37.3307 19.295C37.7744 19.2394 38.186 19.0617 38.5276 18.7679C38.7697 18.5597 38.9639 18.3017 39.097 18.0114C39.2301 17.7212 39.2988 17.4056 39.2985 17.0863C39.2988 16.5746 39.122 16.0785 38.7981 15.6823V13.9431C38.7981 10.5395 36.029 7.77052 32.6255 7.77052C31.0975 7.77052 29.6984 8.3298 28.6193 9.25294C28.606 8.76301 28.4306 8.29132 28.1205 7.91172V6.17261C28.1205 2.76898 25.3515 0 21.948 0C18.5444 0 15.7754 2.76907 15.7754 6.17261V7.95709C15.4656 8.32731 15.2923 8.77367 15.277 9.24744C14.573 8.6452 13.7419 8.20993 12.846 7.9742C12.5012 7.88345 12.1491 8.08909 12.0584 8.43336C11.9678 8.77762 12.1733 9.13022 12.5176 9.22089C14.6586 9.78463 16.1539 11.7266 16.1539 13.943V14.907C16.1137 14.8994 16.0735 14.8921 16.0332 14.8853C16.0244 14.7034 15.9784 14.5923 15.8792 14.4496C15.7142 14.2125 15.4179 13.9172 14.4649 12.8928C14.3011 12.7162 14.0801 12.6034 13.841 12.5742C13.602 12.5451 13.3603 12.6016 13.159 12.7337C11.5266 13.8 9.54341 14.3434 7.70298 14.2354C7.10348 14.2003 6.72905 14.4637 6.56947 14.8953C6.5552 14.8976 6.39579 14.9298 6.38694 14.9319V13.943C6.38694 11.8059 7.81504 9.8832 9.85974 9.26729C9.94183 9.24377 10.0184 9.20418 10.0851 9.15081C10.1517 9.09744 10.2071 9.03136 10.248 8.95641C10.2889 8.88146 10.3145 8.79913 10.3233 8.7142C10.3322 8.62927 10.324 8.54343 10.2994 8.46167C10.2748 8.37992 10.2341 8.30387 10.1799 8.23794C10.1256 8.17202 10.0588 8.11753 9.98328 8.07765C9.90778 8.03776 9.82511 8.01327 9.74007 8.0056C9.65503 7.99794 9.56931 8.00724 9.48789 8.03298C8.24438 8.40749 7.1266 9.18728 6.3407 10.2285C5.52748 11.3056 5.09771 12.5901 5.09771 13.9431V15.7277C4.77304 16.1156 4.59747 16.5871 4.59747 17.0863C4.59747 18.1897 5.41043 19.152 6.56869 19.2956C6.75844 20.4439 7.38149 21.5452 8.36478 22.294V23.3924L2.67204 25.5994C2.66799 25.601 2.66395 25.6026 2.65993 25.6042C2.55113 25.6488 0 26.7316 0 29.7059V39.8137C0 40.5845 0.626998 41.2114 1.39777 41.2114H21.2468C21.514 41.2114 21.7755 41.1343 22 40.9893C22.2245 41.1343 22.486 41.2114 22.7532 41.2114H42.6023C43.373 41.2114 44 40.5845 44 39.8137V35.5072C44 35.3362 43.9321 35.1723 43.8112 35.0514C43.6903 34.9305 43.5263 34.8626 43.3554 34.8626ZM6.50562 17.9638C6.12775 17.8266 5.88635 17.4771 5.88635 17.0861C5.88635 16.7069 6.16135 16.3953 6.50562 16.2474V17.9638ZM36.2981 25.0336L35.0329 27.5692L33.6076 26.5569L35.1896 24.6043L36.2981 25.0336ZM32.6759 25.659L31.009 23.6014V22.9831C31.5508 23.1705 32.1345 23.2569 32.6839 23.2571H32.6843C33.2524 23.257 33.8274 23.1492 34.3396 22.9564V23.6054L32.6759 25.659ZM33.4327 28.014L33.1955 28.3709H32.1565L31.9194 28.014L32.6761 27.4766L33.4327 28.014ZM21.9983 17.8884L20.3314 15.8308V15.2125C20.871 15.3991 21.4541 15.4863 22.0063 15.4865H22.0067C22.5737 15.4865 23.1487 15.379 23.662 15.1859V15.8348L21.9983 17.8884ZM22.755 20.2435L22.5179 20.6004H21.4788L21.2417 20.2435L21.9984 19.7062L22.755 20.2435ZM16.9226 11.4632C17.0279 11.4919 17.1362 11.5114 17.2461 11.5249C17.4359 12.6733 18.0589 13.7746 19.0422 14.5234V15.6217L17.7273 16.1314C17.6508 15.9708 17.5553 15.82 17.4427 15.6822V13.9431C17.4431 13.0894 17.266 12.2448 16.9226 11.4632ZM25.4233 10.7806C25.4233 12.6672 23.8843 14.1972 22.0067 14.1972C19.8883 14.1972 18.4725 12.5553 18.4725 10.7806V7.7615C20.5078 7.84297 22.6221 7.23978 24.3507 6.16384C24.9319 6.78706 25.2777 7.14911 25.4234 7.31721L25.4233 10.7806ZM26.6532 11.5245C26.7618 11.5115 26.8693 11.4908 26.975 11.4626C26.6302 12.2441 26.4523 13.0889 26.4528 13.9431V15.7276C26.3551 15.844 26.2697 15.9703 26.1979 16.1043L24.9512 15.6215V14.4476C25.8407 13.7318 26.4656 12.7003 26.6532 11.5245ZM19.4824 16.8347L21.0647 18.7878L19.9856 19.5541L19.984 19.5554L19.6415 19.7987L18.3763 17.2631L19.4824 16.8347ZM23.4817 18.1052L24.5119 16.8337L25.6204 17.263L24.3553 19.7987L24.012 19.555L24.011 19.5541L22.93 18.7863L23.4817 18.1052ZM23.8066 20.9902L23.8756 21.0392C23.9943 21.1236 24.1298 21.1813 24.273 21.2083C24.4161 21.2353 24.5633 21.2309 24.7046 21.1955C24.8459 21.1602 24.9779 21.0947 25.0915 21.0035C25.2051 20.9123 25.2976 20.7976 25.3625 20.6673V20.6672L26.4503 18.4871C26.8241 18.9477 27.3646 19.2278 27.9213 19.2974C28.118 20.5297 28.7841 21.5814 29.7199 22.294V23.3923L24.2402 25.5167L23.5415 21.3892L23.8066 20.9902ZM30.16 24.6053L31.7423 26.5583L30.3191 27.5692L29.0539 25.0337L30.16 24.6053ZM36.1008 18.5513C36.101 20.3918 34.6063 21.9678 32.6843 21.9678C30.4936 21.9678 29.1501 20.252 29.1501 18.5513V15.5321C31.1709 15.6128 33.2879 15.0176 35.0282 13.9345C35.6094 14.5577 35.9552 14.9197 36.1009 15.0878L36.1008 18.5513ZM38.0095 17.0862C38.0095 17.4779 37.7673 17.8267 37.3902 17.9638V16.2104C37.78 16.3524 38.0095 16.7086 38.0095 17.0862ZM27.742 13.943C27.742 11.2503 29.9328 9.05958 32.6254 9.05958C35.3182 9.05958 37.5088 11.2504 37.5088 13.943V14.907C37.4687 14.8992 37.4285 14.892 37.3882 14.8853C37.3794 14.7032 37.3331 14.5919 37.2342 14.4496C37.0648 14.2064 36.7717 13.9161 35.8198 12.8928C35.4874 12.536 34.9393 12.4556 34.5139 12.7337C32.9258 13.7711 30.9193 14.3571 29.0101 14.2331C28.4737 14.1979 28.0852 14.4606 27.9244 14.8954C27.9101 14.8977 27.7509 14.9299 27.7419 14.932L27.742 13.943ZM27.861 16.2475V17.9629C27.482 17.8263 27.2417 17.4758 27.2417 17.0861C27.2417 16.7069 27.5165 16.3954 27.861 16.2475ZM27.3317 9.31567C27.3317 9.58706 27.2142 9.84376 27.0094 10.0198C26.9218 10.0951 26.8211 10.1539 26.7125 10.1932V8.4398C27.0979 8.57971 27.3317 8.93403 27.3317 9.31567ZM21.9478 1.28906C24.6405 1.28906 26.8312 3.47977 26.8312 6.17252V7.13648C26.7911 7.12873 26.7509 7.12151 26.7106 7.11482C26.701 6.91743 26.6441 6.79608 26.528 6.63908C26.3555 6.4055 26.0373 6.08435 25.1422 5.1222C24.9784 4.94567 24.7574 4.83284 24.5184 4.80371C24.2793 4.77458 24.0377 4.83103 23.8363 4.96304C22.1592 6.05874 20.1246 6.59198 18.2805 6.4599C17.8293 6.42578 17.4045 6.69837 17.2469 7.12471C17.2325 7.12703 17.0733 7.15917 17.0644 7.16132V6.17261C17.0644 3.47977 19.2551 1.28906 21.9478 1.28906ZM17.1832 8.47684V10.1933C16.8054 10.0561 16.564 9.7066 16.564 9.31559C16.564 8.9385 16.8368 8.62577 17.1832 8.47684ZM16.0348 16.2104C16.3954 16.3416 16.627 16.6563 16.6499 17.0302C16.6788 17.4459 16.4233 17.8219 16.0348 17.963V16.2104ZM15.975 19.2972C16.583 19.2211 17.1409 18.9008 17.5069 18.4079L18.6342 20.6672L18.6343 20.6673C18.6992 20.7976 18.7917 20.9124 18.9052 21.0036C19.0188 21.0947 19.1508 21.1602 19.2921 21.1955C19.5751 21.2662 19.8779 21.212 20.1212 21.0392L20.1902 20.9902L20.4551 21.3891L19.7567 25.5155L14.2736 23.3919V22.2185H14.2735C15.1864 21.4825 15.7918 20.4425 15.975 19.2972ZM11.3205 25.659L9.65358 23.6014V22.9831C10.1933 23.1697 10.7764 23.2569 11.3286 23.257H11.3289C11.8942 23.2558 12.4547 23.154 12.9842 22.9564V23.6054L11.3205 25.659ZM12.0773 28.014L11.8402 28.3709H10.8011L10.564 28.014L11.3207 27.4766L12.0773 28.014ZM13.8341 24.6043L14.9427 25.0337L13.6775 27.5692L13.3343 27.3255L13.3332 27.3247L12.2522 26.5569L13.8341 24.6043ZM7.79476 18.5513V15.5321C9.84084 15.6138 11.9565 15.0027 13.6729 13.9345C14.2486 14.5518 14.5997 14.9196 14.7455 15.0878V18.5513C14.7455 20.4258 13.2171 21.9678 11.3289 21.9678C9.22664 21.9678 7.79476 20.3447 7.79476 18.5513ZM8.80469 24.6053L10.387 26.5583L9.30794 27.3247L9.30631 27.326L8.96385 27.5692L7.6986 25.0337L8.80469 24.6053ZM5.13586 39.9225V30.5055C5.13586 30.1496 4.84737 29.861 4.49133 29.861C4.1353 29.861 3.84681 30.1496 3.84681 30.5055V39.9224H1.39777C1.36898 39.9223 1.34138 39.9109 1.32101 39.8906C1.30065 39.8702 1.28919 39.8426 1.28914 39.8138V29.7059C1.28914 27.6358 3.03341 26.8467 3.14633 26.7979L6.49109 25.5012L7.95641 28.4377L7.95649 28.4378C8.02145 28.5682 8.11391 28.6829 8.2275 28.7741C8.34109 28.8653 8.4731 28.9307 8.61443 28.966C8.89742 29.0367 9.20018 28.9826 9.44346 28.8097L9.51247 28.7608L9.77742 29.1596L8.33754 37.667C8.33644 37.6734 8.33544 37.6799 8.33453 37.6863C8.29311 37.9863 8.38635 38.2954 8.58426 38.5134L9.86498 39.9224H5.13586V39.9225ZM9.63124 37.7485L11.0001 29.66H11.6411L13.0101 37.7485L11.3207 39.6071L9.63124 37.7485ZM21.3553 39.8137C21.3553 39.8736 21.3067 39.9224 21.2468 39.9224H18.7979V30.5055C18.7979 30.3346 18.73 30.1707 18.6091 30.0498C18.4882 29.9289 18.3243 29.861 18.1534 29.861C17.9824 29.861 17.8185 29.9289 17.6976 30.0498C17.5767 30.1707 17.5088 30.3346 17.5088 30.5055V39.9224H12.7763L14.0572 38.5133C14.255 38.2956 14.3482 37.9865 14.3067 37.6863C14.3058 37.6799 14.3048 37.6734 14.3037 37.667L12.8638 29.1596L13.1288 28.7608L13.1978 28.8097C13.3165 28.8941 13.4521 28.9517 13.5952 28.9787C13.7384 29.0056 13.8856 29.0013 14.0269 28.966C14.1682 28.9306 14.3002 28.8651 14.4137 28.7739C14.5273 28.6828 14.6198 28.5681 14.6849 28.4378V28.4377L16.15 25.5013L19.4968 26.7974C20.4724 27.2218 21.3552 28.3162 21.3552 29.7059L21.3553 39.8137ZM21.9999 27.3638C21.7329 26.9336 21.3775 26.5355 20.949 26.1958L21.6778 21.8896H22.3188L23.048 26.198C22.6081 26.5474 22.2573 26.949 21.9999 27.3638ZM26.4912 39.9225V30.5055C26.4912 30.1496 26.2027 29.861 25.8466 29.861C25.4906 29.861 25.2021 30.1496 25.2021 30.5055V39.9224H22.7532C22.7244 39.9223 22.6968 39.9109 22.6764 39.8906C22.656 39.8702 22.6446 39.8426 22.6445 39.8138V29.7059C22.6445 28.9397 22.8848 28.234 23.3967 27.6411C23.7379 27.2496 24.1905 26.9327 24.5018 26.7979L27.8466 25.5011L29.3119 28.4377L29.312 28.4378C29.3769 28.5682 29.4694 28.6829 29.5829 28.7741C29.6965 28.8653 29.8285 28.9307 29.9698 28.966C30.2528 29.0367 30.5556 28.9826 30.7988 28.8097L30.8679 28.7608L31.1328 29.1596L29.6929 37.667C29.6918 37.6734 29.6908 37.6799 29.6899 37.6863C29.6485 37.9863 29.7417 38.2954 29.9396 38.5134L31.2204 39.9224H26.4912V39.9225ZM30.9865 37.7486L32.3555 29.6601H32.9965L34.3655 37.7486L32.676 39.6072L30.9865 37.7486Z" fill="white"/>
</svg>
