<svg width="50" height="49" viewBox="0 0 50 49" fill="none" xmlns="http://www.w3.org/2000/svg">
<path d="M44.3234 0L33.3859 6.25H32.1406L27.3367 4.87734C26.9581 4.77549 26.5686 4.71962 26.1766 4.71094L22.6422 3.58047C21.0227 3.06459 19.2955 2.98616 17.6359 3.35312L12.4609 4.50391L5.70547 0H0.78125V11.4844L9.81875 14.7711L12.5078 16.3844C12.5265 17.0016 12.7792 17.5886 13.2147 18.0263C13.6503 18.464 14.236 18.7197 14.8531 18.7414C14.8751 19.356 15.129 19.9395 15.5639 20.3744C15.9988 20.8093 16.5823 21.0632 17.1969 21.0852C17.2157 21.5975 17.3961 22.0907 17.7122 22.4943C18.0284 22.8979 18.4641 23.1911 18.957 23.332C16.7732 24.4385 14.9399 26.1301 13.6618 28.2181C12.3836 30.306 11.7109 32.7081 11.7188 35.1562C11.7188 42.4797 17.6766 48.4375 25 48.4375C32.3234 48.4375 38.2812 42.4797 38.2812 35.1562C38.2812 29.7406 35.0805 24.9961 30.1898 22.9344C30.3578 22.6141 30.4609 22.2563 30.4656 21.8719C31.085 21.8634 31.6766 21.6134 32.1143 21.1752C32.5521 20.737 32.8015 20.1451 32.8094 19.5258C33.4359 19.5109 34.0319 19.252 34.4703 18.8041C34.9086 18.3562 35.1548 17.7548 35.1562 17.1281C35.1562 17.0391 35.1383 16.9531 35.1281 16.8648L38.6023 14.7805L49.2188 11.5148V0H44.3234ZM2.34375 10.3906V1.5625H5.23203L11.5977 5.80625L9.625 13.0383L2.34375 10.3906ZM14.0625 16.3117C14.0625 16.0773 14.1539 15.8578 14.3187 15.6922L16.4734 13.5375C16.6394 13.3814 16.8596 13.2961 17.0874 13.2996C17.3152 13.3031 17.5327 13.3951 17.6938 13.5562C17.8549 13.7173 17.9469 13.9348 17.9504 14.1626C17.9539 14.3904 17.8686 14.6106 17.7125 14.7766L15.5578 16.9313C15.4352 17.0535 15.2791 17.1366 15.1093 17.1702C14.9395 17.2039 14.7635 17.1864 14.6035 17.1202C14.4436 17.0539 14.3069 16.9418 14.2106 16.7979C14.1143 16.654 14.0628 16.4848 14.0625 16.3117ZM16.4062 18.6555C16.4062 18.4211 16.4977 18.2016 16.6625 18.0359L18.8172 15.8812C18.9832 15.7252 19.2034 15.6398 19.4311 15.6433C19.6589 15.6468 19.8764 15.7389 20.0375 15.9C20.1986 16.0611 20.2907 16.2786 20.2942 16.5064C20.2977 16.7341 20.2123 16.9543 20.0563 17.1203L17.9016 19.275C17.7789 19.3972 17.6229 19.4804 17.453 19.514C17.2832 19.5476 17.1072 19.5302 16.9473 19.4639C16.7874 19.3976 16.6506 19.2855 16.5543 19.1416C16.458 18.9978 16.4065 18.8286 16.4062 18.6555ZM19.0062 20.3797L21.1609 18.225C21.3269 18.0689 21.5471 17.9836 21.7749 17.9871C22.0027 17.9906 22.2202 18.0826 22.3813 18.2437C22.5424 18.4048 22.6344 18.6223 22.6379 18.8501C22.6414 19.0779 22.5561 19.2981 22.4 19.4641L20.2453 21.6188C20.0793 21.7748 19.8591 21.8602 19.6314 21.8567C19.4036 21.8532 19.1861 21.7611 19.025 21.6C18.8639 21.4389 18.7718 21.2214 18.7683 20.9936C18.7648 20.7659 18.8502 20.5457 19.0062 20.3797ZM24.1242 20.3125C24.2973 20.3128 24.4665 20.3643 24.6104 20.4606C24.7543 20.5569 24.8664 20.6936 24.9327 20.8535C24.9989 21.0135 25.0164 21.1895 24.9827 21.3593C24.9491 21.5291 24.866 21.6852 24.7438 21.8078L22.5891 23.9625C22.4231 24.1186 22.2029 24.2039 21.9751 24.2004C21.7473 24.1969 21.5298 24.1049 21.3687 23.9438C21.2076 23.7827 21.1156 23.5652 21.1121 23.3374C21.1086 23.1096 21.1939 22.8894 21.35 22.7234L23.5047 20.5687C23.6703 20.4039 23.8898 20.3125 24.1242 20.3125ZM25.6875 23.0742L26.2695 23.5594C26.3977 23.6668 26.4897 23.811 26.5331 23.9725C26.5766 24.134 26.5693 24.305 26.5124 24.4622C26.4554 24.6194 26.3515 24.7553 26.2147 24.8515C26.0779 24.9477 25.9149 24.9996 25.7477 25H25.6031C25.4047 25 25.2133 24.9273 25.0641 24.7961L24.4797 24.2805L25.6875 23.0742ZM25 26.5625C29.7383 26.5625 33.5938 30.418 33.5938 35.1562C33.5938 39.8945 29.7383 43.75 25 43.75C20.2617 43.75 16.4062 39.8945 16.4062 35.1562C16.4062 30.418 20.2617 26.5625 25 26.5625ZM36.7188 35.1562C36.7188 41.618 31.4617 46.875 25 46.875C18.5383 46.875 13.2812 41.618 13.2812 35.1562C13.2812 30.6109 15.8516 26.557 19.8945 24.6062C20.2211 25.1411 20.7413 25.5295 21.3469 25.6906C17.5484 27.1617 14.8438 30.8445 14.8438 35.1562C14.8438 40.7562 19.4 45.3125 25 45.3125C30.6 45.3125 35.1562 40.7562 35.1562 35.1562C35.1562 30.5211 32.032 26.6102 27.782 25.3969C27.9898 25.0492 28.1164 24.6484 28.1219 24.2156C28.3711 24.2125 28.6078 24.1633 28.8336 24.0883C33.5656 25.7203 36.7188 30.107 36.7188 35.1562ZM32.7531 17.9688H32.618C32.4219 17.9688 32.2305 17.9 32.0805 17.7742L31.957 17.6711L27.8438 14.2438L26.8438 15.4437L30.957 18.8711C31.0855 18.9785 31.1778 19.1228 31.2214 19.2844C31.265 19.446 31.2578 19.6171 31.2008 19.7745C31.1438 19.9319 31.0398 20.068 30.9028 20.1642C30.7658 20.2605 30.6026 20.3122 30.4352 20.3125H30.2656C30.075 20.3125 29.8898 20.2453 29.7437 20.1234L29.6133 20.0148L25.5 16.5875L24.5 17.7875L28.6133 21.2148C28.7422 21.322 28.8349 21.4663 28.8788 21.6281C28.9226 21.7898 28.9156 21.9612 28.8585 22.1188C28.8014 22.2764 28.6972 22.4126 28.5599 22.5088C28.4226 22.6049 28.259 22.6564 28.0914 22.6562C27.7914 22.6562 27.5 22.5508 27.2695 22.3586L26.5008 21.718C26.5383 21.5453 26.5625 21.3695 26.5625 21.1883C26.5613 20.5575 26.3154 19.9519 25.8767 19.4987C25.4379 19.0456 24.8405 18.7802 24.2102 18.7586C24.1882 18.144 23.9343 17.5605 23.4994 17.1256C23.0645 16.6907 22.481 16.4368 21.8664 16.4148C21.8445 15.8002 21.5905 15.2167 21.1556 14.7819C20.7208 14.347 20.1373 14.093 19.5227 14.0711C19.5008 13.4408 19.2354 12.8435 18.7823 12.4048C18.3292 11.9661 17.7237 11.7202 17.093 11.7188C16.4414 11.7188 15.8289 11.9727 15.3688 12.4328L13.2141 14.5875C13.1312 14.6703 13.0633 14.7625 12.9945 14.8547L11.0656 13.6977L13.1797 5.94453L17.9742 4.87891C19.3638 4.57217 20.8097 4.63793 22.1656 5.06953L23.3156 5.4375L19.4148 7.3875C18.9791 7.60349 18.6127 7.93728 18.3571 8.35101C18.1015 8.76473 17.9669 9.24181 17.9688 9.72812V9.88359C17.9695 10.3464 18.0929 10.8007 18.3263 11.2003C18.5598 11.5999 18.8949 11.9305 19.2977 12.1584C19.7004 12.3863 20.1564 12.5035 20.6192 12.4979C21.0819 12.4923 21.5349 12.3642 21.932 12.1266L24.8406 10.3813C25.1326 10.2117 25.4703 10.138 25.8064 10.1703C26.1424 10.2027 26.4598 10.3396 26.7141 10.5617L33.3156 16.5031C33.4421 16.6169 33.5311 16.7663 33.5708 16.9316C33.6106 17.097 33.5992 17.2705 33.5383 17.4293C33.4773 17.5881 33.3697 17.7247 33.2295 17.821C33.0893 17.9173 32.9232 17.9688 32.7531 17.9688ZM34.3609 15.343L27.7594 9.40156C26.757 8.49922 25.1922 8.34844 24.0359 9.04219L21.1273 10.7875C20.9674 10.8832 20.7849 10.9348 20.5985 10.937C20.4121 10.9392 20.2284 10.892 20.0662 10.8001C19.904 10.7083 19.769 10.575 19.6751 10.414C19.5811 10.253 19.5315 10.07 19.5312 9.88359V9.72812C19.5312 9.32578 19.7547 8.96484 20.1141 8.78516L24.4727 6.60625C25.2284 6.23224 26.096 6.15153 26.9078 6.37969L31.8172 7.78203L33.1719 7.80469L37.1773 13.8133L34.4555 15.4461C34.4219 15.4141 34.3961 15.3742 34.3609 15.343ZM47.6562 10.3602L38.6078 13.1445L34.7078 7.29453L44.7391 1.5625H47.6562V10.3602Z" fill="white"/>
</svg>
