<svg width="131" height="49" viewBox="0 0 131 49" fill="none" xmlns="http://www.w3.org/2000/svg">
<g clip-path="url(#clip0_28_3)">
<path d="M15.5224 46.9786V40.9672H17.1797C19.2955 40.9672 20.3534 41.9448 20.3534 43.8979C20.3534 44.8247 20.0603 45.5706 19.4718 46.1356C18.8834 46.7005 18.0988 46.9808 17.1114 46.9808H15.5201L15.5224 46.9786ZM16.2254 41.6028V46.3408H17.1224C17.9092 46.3408 18.5219 46.1289 18.9605 45.7074C19.3991 45.2859 19.6173 44.6879 19.6173 43.9133C19.6173 42.3729 18.7996 41.6028 17.1643 41.6028H16.2254Z" fill="#161616"/>
<path d="M24.3205 41.5962C24.1971 41.5962 24.0935 41.5542 24.0075 41.4704C23.9216 41.3865 23.8775 41.2806 23.8775 41.1526C23.8775 41.0246 23.9216 40.9165 24.0075 40.8326C24.0935 40.7465 24.1993 40.7046 24.3205 40.7046C24.4417 40.7046 24.5519 40.7465 24.6401 40.8326C24.7282 40.9187 24.7723 41.0246 24.7723 41.1526C24.7723 41.2806 24.7282 41.3799 24.6401 41.466C24.5519 41.552 24.4461 41.5962 24.3205 41.5962ZM24.6555 45.7803C24.6555 46.1753 24.8076 46.3717 25.1117 46.3717C25.2351 46.3717 25.3453 46.3562 25.4423 46.3253V46.9455C25.3894 46.9587 25.3189 46.9719 25.2307 46.9852C25.1426 46.9984 25.05 47.005 24.953 47.005C24.8164 47.005 24.6885 46.983 24.5673 46.9388C24.4461 46.8947 24.3425 46.8263 24.2544 46.7336C24.1662 46.6409 24.0957 46.5262 24.045 46.3871C23.9943 46.2481 23.9678 46.087 23.9678 45.9038V42.6885H24.6555V45.7825V45.7803Z" fill="#161616"/>
<path d="M32.42 46.6365C32.42 48.2122 31.6662 49.0022 30.1587 49.0022C29.6276 49.0022 29.1647 48.9007 28.768 48.6999V48.0114C29.2507 48.2806 29.7113 48.413 30.1499 48.413C31.2056 48.413 31.7323 47.8503 31.7323 46.727V46.2569H31.7147C31.3885 46.8042 30.897 47.0779 30.2403 47.0779C29.7069 47.0779 29.2771 46.8881 28.9532 46.5063C28.627 46.1245 28.4661 45.6126 28.4661 44.9704C28.4661 44.2421 28.6402 43.6617 28.9906 43.2314C29.3411 42.8011 29.8215 42.5848 30.4298 42.5848C31.0381 42.5848 31.437 42.8165 31.7147 43.28H31.7323V42.6841H32.42V46.6343V46.6365ZM31.7323 45.0388V44.4054C31.7323 44.0634 31.6177 43.7721 31.3863 43.5293C31.1571 43.2866 30.8684 43.1652 30.5268 43.1652C30.1014 43.1652 29.7708 43.3197 29.5306 43.6286C29.2904 43.9376 29.1714 44.3701 29.1714 44.9262C29.1714 45.4051 29.286 45.7869 29.5174 46.0738C29.7466 46.3607 30.0529 46.5041 30.432 46.5041C30.8111 46.5041 31.1307 46.3673 31.3709 46.0936C31.6111 45.82 31.7323 45.4691 31.7323 45.041V45.0388Z" fill="#161616"/>
<path d="M36.689 41.5962C36.5656 41.5962 36.462 41.5542 36.376 41.4704C36.2901 41.3865 36.246 41.2806 36.246 41.1526C36.246 41.0246 36.2901 40.9165 36.376 40.8326C36.462 40.7465 36.5678 40.7046 36.689 40.7046C36.8102 40.7046 36.9204 40.7465 37.0086 40.8326C37.0967 40.9187 37.1408 41.0246 37.1408 41.1526C37.1408 41.2806 37.0967 41.3799 37.0086 41.466C36.9204 41.552 36.8146 41.5962 36.689 41.5962ZM37.024 45.7803C37.024 46.1753 37.1761 46.3717 37.4802 46.3717C37.6036 46.3717 37.7138 46.3562 37.8108 46.3253V46.9455C37.7579 46.9587 37.6874 46.9719 37.5992 46.9852C37.5111 46.9984 37.4185 47.005 37.3215 47.005C37.1849 47.005 37.057 46.983 36.9358 46.9388C36.8146 46.8947 36.711 46.8263 36.6229 46.7336C36.5347 46.6409 36.4642 46.5262 36.4135 46.3871C36.3628 46.2481 36.3364 46.087 36.3364 45.9038V42.6885H37.024V45.7825V45.7803Z" fill="#161616"/>
<path d="M43.1179 46.9366C42.957 47.0271 42.7432 47.0712 42.4765 47.0712C41.725 47.0712 41.3503 46.652 41.3503 45.8134V43.2733H40.6142V42.6863H41.3503V41.6381L42.038 41.4152V42.6863H43.1179V43.2733H42.038V45.692C42.038 45.9811 42.0864 46.1863 42.1834 46.3077C42.2804 46.4291 42.4435 46.4931 42.6683 46.4931C42.8424 46.4931 42.9901 46.4445 43.1157 46.3496V46.9366H43.1179Z" fill="#161616"/>
<path d="M49.6768 46.9786H48.9892V46.3077H48.9716C48.6718 46.8219 48.2332 47.0801 47.6536 47.0801C47.226 47.0801 46.8932 46.9675 46.6508 46.7402C46.4084 46.5129 46.2894 46.2128 46.2894 45.8376C46.2894 45.0344 46.761 44.5687 47.7043 44.4363L48.9892 44.2554C48.9892 43.5249 48.6939 43.1608 48.1054 43.1608C47.5897 43.1608 47.1224 43.3373 46.7059 43.6882V42.9842C47.1269 42.715 47.6139 42.5826 48.1627 42.5826C49.1699 42.5826 49.6746 43.1166 49.6746 44.1847V46.9764L49.6768 46.9786ZM48.9892 44.8071L47.9555 44.9505C47.6382 44.9946 47.3979 45.0741 47.2349 45.1866C47.074 45.2992 46.9924 45.5 46.9924 45.7891C46.9924 45.9987 47.0674 46.1709 47.2172 46.3033C47.3671 46.4357 47.5654 46.5019 47.8145 46.5019C48.1561 46.5019 48.436 46.3827 48.6586 46.1444C48.8812 45.9061 48.9914 45.6037 48.9914 45.2374V44.8093L48.9892 44.8071Z" fill="#161616"/>
<path d="M54.1839 45.7803C54.1839 46.1753 54.3359 46.3717 54.6401 46.3717C54.7635 46.3717 54.8737 46.3562 54.9707 46.3253V46.9455C54.9178 46.9587 54.8473 46.9719 54.7591 46.9852C54.6709 46.9984 54.5784 47.005 54.4814 47.005C54.3448 47.005 54.2169 46.983 54.0957 46.9388C53.9745 46.8947 53.8709 46.8263 53.7828 46.7336C53.6946 46.6409 53.6241 46.5262 53.5734 46.3871C53.5227 46.2481 53.4962 46.087 53.4962 45.9038V40.6252H54.1839V45.7825V45.7803Z" fill="#161616"/>
<path d="M68.7541 46.9786H68.0555V42.9445C68.0555 42.7856 68.0599 42.6047 68.0709 42.4016C68.0797 42.1986 68.0951 41.9823 68.115 41.7506H68.0973C68.0797 41.8168 68.0555 41.8919 68.0224 41.9757C67.9894 42.0596 67.9541 42.1368 67.9166 42.2141C67.8792 42.2913 67.8439 42.3597 67.813 42.4215C67.78 42.4833 67.7579 42.5296 67.7447 42.5605L66.2042 45.4117H65.8603L64.3198 42.5694C64.3066 42.5362 64.2823 42.4877 64.2493 42.4237C64.2162 42.3619 64.1809 42.2913 64.1435 42.2141C64.1082 42.1368 64.073 42.0574 64.0399 41.9779C64.0068 41.8963 63.9826 41.8212 63.9672 41.7506H63.9495C63.9605 41.872 63.9694 42.0331 63.9738 42.2361C63.9804 42.4414 63.9826 42.6797 63.9826 42.9533V46.9786H63.3038V40.9672H64.1831L65.7413 43.8272C65.8075 43.953 65.8648 44.07 65.9132 44.1803C65.9617 44.2907 65.9948 44.3834 66.019 44.465H66.0433C66.0719 44.3811 66.1072 44.284 66.1535 44.1715C66.1998 44.059 66.2593 43.9398 66.332 43.8118L67.8858 40.9694H68.7563V46.9808L68.7541 46.9786Z" fill="#161616"/>
<path d="M75.8772 46.9786H75.1896V46.3077H75.172C74.8722 46.8219 74.4337 47.0801 73.854 47.0801C73.4265 47.0801 73.0937 46.9675 72.8512 46.7402C72.6088 46.5129 72.4898 46.2128 72.4898 45.8376C72.4898 45.0344 72.9614 44.5687 73.9047 44.4363L75.1896 44.2554C75.1896 43.5249 74.8943 43.1608 74.3058 43.1608C73.7901 43.1608 73.3229 43.3373 72.9063 43.6882V42.9842C73.3273 42.715 73.8144 42.5826 74.3631 42.5826C75.3703 42.5826 75.875 43.1166 75.875 44.1847V46.9764L75.8772 46.9786ZM75.1896 44.8071L74.156 44.9505C73.8386 44.9946 73.5984 45.0741 73.4353 45.1866C73.2744 45.2992 73.1928 45.5 73.1928 45.7891C73.1928 45.9987 73.2678 46.1709 73.4176 46.3033C73.5675 46.4357 73.7659 46.5019 74.0149 46.5019C74.3565 46.5019 74.6364 46.3827 74.859 46.1444C75.0816 45.9061 75.1918 45.6037 75.1918 45.2374V44.8093L75.1896 44.8071Z" fill="#161616"/>
<path d="M81.98 43.3815C81.861 43.2888 81.6868 43.2424 81.4598 43.2424C81.1667 43.2424 80.9221 43.3815 80.7259 43.6573C80.5298 43.9332 80.4306 44.3105 80.4306 44.7894V46.9786H79.743V42.6863H80.4306V43.5712H80.4482C80.5452 43.2689 80.6951 43.0328 80.8956 42.8651C81.0962 42.6973 81.321 42.6113 81.57 42.6113C81.7486 42.6113 81.8852 42.6311 81.98 42.6709V43.3837V43.3815Z" fill="#161616"/>
<path d="M88.8563 46.9786H87.8931L85.9999 44.9152H85.9823V46.9786H85.2947V40.623H85.9823V44.6526H85.9999L87.8006 42.6863H88.6998L86.7118 44.7585L88.8563 46.9808V46.9786Z" fill="#161616"/>
<path d="M95.4064 45.0035H92.3781C92.3892 45.4823 92.517 45.8509 92.7638 46.1113C93.0085 46.3717 93.3479 46.5019 93.7776 46.5019C94.2603 46.5019 94.7033 46.343 95.1088 46.023V46.6696C94.732 46.9433 94.2339 47.0801 93.6146 47.0801C92.9953 47.0801 92.5324 46.8859 92.1864 46.4953C91.8404 46.1047 91.6663 45.5574 91.6663 44.849C91.6663 44.1803 91.8558 43.6375 92.2327 43.216C92.6118 42.7945 93.0812 42.5848 93.641 42.5848C94.2008 42.5848 94.635 42.7658 94.9435 43.1299C95.2521 43.494 95.4042 43.9972 95.4042 44.6438V45.0035H95.4064ZM94.7033 44.4209C94.7011 44.0236 94.6041 43.7147 94.4168 43.494C94.2272 43.2733 93.9672 43.163 93.6322 43.163C93.2972 43.163 93.0327 43.28 92.8079 43.5117C92.5809 43.7434 92.4421 44.0479 92.3892 44.4209H94.7055H94.7033Z" fill="#161616"/>
<path d="M101.007 46.9366C100.846 47.0271 100.632 47.0712 100.365 47.0712C99.6137 47.0712 99.239 46.652 99.239 45.8134V43.2733H98.5029V42.6863H99.239V41.6381L99.9267 41.4152V42.6863H101.007V43.2733H99.9267V45.692C99.9267 45.9811 99.9751 46.1863 100.074 46.3077C100.171 46.4313 100.334 46.4931 100.559 46.4931C100.733 46.4931 100.881 46.4445 101.007 46.3496V46.9366Z" fill="#161616"/>
<path d="M104.802 41.5962C104.678 41.5962 104.575 41.5542 104.489 41.4704C104.403 41.3865 104.359 41.2806 104.359 41.1526C104.359 41.0246 104.403 40.9165 104.489 40.8326C104.575 40.7465 104.681 40.7046 104.802 40.7046C104.923 40.7046 105.035 40.7465 105.121 40.8326C105.209 40.9187 105.254 41.0246 105.254 41.1526C105.254 41.2806 105.209 41.3799 105.121 41.466C105.033 41.552 104.927 41.5962 104.802 41.5962ZM105.137 45.7803C105.137 46.1753 105.289 46.3717 105.593 46.3717C105.716 46.3717 105.827 46.3562 105.924 46.3253V46.9455C105.871 46.9587 105.8 46.9719 105.712 46.9852C105.624 46.9984 105.531 47.005 105.434 47.005C105.298 47.005 105.17 46.983 105.049 46.9388C104.927 46.8947 104.824 46.8263 104.736 46.7336C104.647 46.6409 104.577 46.5262 104.526 46.3871C104.476 46.2481 104.449 46.087 104.449 45.9038V42.6885H105.137V45.7825V45.7803Z" fill="#161616"/>
<path d="M112.802 46.9786H112.114V44.529C112.114 43.6176 111.782 43.163 111.118 43.163C110.774 43.163 110.49 43.2932 110.265 43.5514C110.041 43.8096 109.928 44.1362 109.928 44.5312V46.9808H109.241V42.6885H109.928V43.4013H109.946C110.27 42.8584 110.739 42.587 111.352 42.587C111.821 42.587 112.178 42.7393 112.427 43.0416C112.676 43.3439 112.8 43.7831 112.8 44.3569V46.9808L112.802 46.9786Z" fill="#161616"/>
<path d="M120.326 46.6365C120.326 48.2122 119.573 49.0022 118.065 49.0022C117.534 49.0022 117.071 48.9007 116.674 48.6999V48.0114C117.157 48.2806 117.618 48.413 118.056 48.413C119.112 48.413 119.639 47.8503 119.639 46.727V46.2569H119.621C119.295 46.8042 118.803 47.0779 118.147 47.0779C117.613 47.0779 117.184 46.8881 116.86 46.5063C116.533 46.1245 116.372 45.6126 116.372 44.9704C116.372 44.2421 116.549 43.6617 116.897 43.2314C117.247 42.8011 117.726 42.5848 118.336 42.5848C118.914 42.5848 119.343 42.8165 119.621 43.28H119.639V42.6841H120.326V46.6343V46.6365ZM119.639 45.0388V44.4054C119.639 44.0634 119.524 43.7721 119.293 43.5293C119.063 43.2866 118.775 43.1652 118.433 43.1652C118.008 43.1652 117.677 43.3197 117.437 43.6286C117.197 43.9376 117.078 44.3701 117.078 44.9262C117.078 45.4051 117.192 45.7869 117.424 46.0738C117.653 46.3607 117.959 46.5041 118.338 46.5041C118.717 46.5041 119.037 46.3673 119.277 46.0936C119.52 45.82 119.639 45.4691 119.639 45.041V45.0388Z" fill="#161616"/>
<path d="M42.4854 28.3818C42.4854 27.861 42.3377 27.4328 42.0446 27.0974C41.7514 26.762 41.3613 26.4795 40.8743 26.2544C40.3872 26.0271 39.8296 25.8307 39.2015 25.663C38.5734 25.4953 37.9144 25.3276 37.2268 25.1598C36.354 24.9259 35.5165 24.6523 34.7121 24.3411C33.9076 24.03 33.1979 23.6239 32.5875 23.1185C31.9748 22.6154 31.4899 21.982 31.1285 21.2163C30.767 20.4527 30.5885 19.517 30.5885 18.407C30.5885 17.0476 30.8309 15.867 31.318 14.8673C31.8051 13.8676 32.4618 13.0422 33.2927 12.3868C34.1236 11.7314 35.0867 11.2459 36.1843 10.9259C37.2818 10.6081 38.4433 10.447 39.6687 10.447C41.1608 10.447 42.5603 10.5684 43.8694 10.8112C45.1764 11.0539 46.3599 11.3695 47.4156 11.7557V16.6173C46.8624 16.4319 46.2783 16.2598 45.6678 16.1009C45.0551 15.942 44.4358 15.803 43.8055 15.686C43.1774 15.569 42.5515 15.4719 41.9322 15.3969C41.3107 15.3219 40.7244 15.2844 40.1712 15.2844C39.466 15.2844 38.8709 15.3528 38.386 15.4852C37.899 15.6198 37.5067 15.8008 37.2047 16.0259C36.9028 16.2532 36.6846 16.5136 36.5501 16.8071C36.4157 17.1006 36.3496 17.4073 36.3496 17.7273C36.3496 18.2812 36.4972 18.7336 36.7904 19.0867C37.0835 19.4398 37.4912 19.7245 38.0114 19.9429C38.5315 20.1614 39.0759 20.3424 39.6467 20.4836C40.2175 20.627 40.7707 20.7639 41.3062 20.8985C42.1437 21.0993 42.9834 21.3443 43.8209 21.6289C44.6584 21.9136 45.4144 22.3131 46.0844 22.825C46.7544 23.337 47.3054 24.0013 47.7329 24.8156C48.1605 25.6299 48.3743 26.6671 48.3743 27.9272C48.3743 29.3042 48.1142 30.5047 47.5941 31.5287C47.074 32.5526 46.3489 33.4045 45.4188 34.0842C44.4887 34.7639 43.3735 35.267 42.0732 35.5958C40.7729 35.9224 39.3447 36.088 37.7843 36.088C36.224 36.088 34.8531 35.9666 33.6211 35.7238C32.3891 35.4811 31.3709 35.1743 30.5642 34.8036V29.9928C31.8712 30.4805 33.0789 30.8115 34.1853 30.988C35.2917 31.1646 36.3231 31.2528 37.2796 31.2528C38.018 31.2528 38.7056 31.1977 39.3425 31.0895C39.9795 30.9814 40.5283 30.8093 40.9911 30.5731C41.4517 30.3392 41.8176 30.0413 42.0842 29.6794C42.3531 29.3175 42.4876 28.8849 42.4876 28.3818H42.4854Z" fill="#161616"/>
<path d="M59.74 9.9483C59.74 11.2084 59.718 12.2456 59.6761 13.0577C59.6342 13.872 59.5637 14.6069 59.4623 15.2623H59.5637C59.9163 14.7922 60.3483 14.3222 60.8596 13.8521C61.3709 13.3821 61.9329 12.9738 62.5456 12.6296C63.1583 12.2853 63.8526 12.005 64.6327 11.7866C65.4129 11.5681 66.2725 11.46 67.2114 11.46C68.0158 11.46 68.8004 11.5394 69.563 11.6983C70.3255 11.8572 71.0374 12.1066 71.7008 12.442C72.362 12.7774 72.9658 13.2144 73.5124 13.7506C74.0568 14.2891 74.5152 14.9269 74.8833 15.6639C75.2006 16.3017 75.4365 17.0233 75.5885 17.8288C75.7406 18.6343 75.8155 19.6163 75.8155 20.7749V36.4653H69.8539V21.5848C69.8539 20.8301 69.8208 20.2122 69.7525 19.7333C69.6842 19.2544 69.5674 18.8395 69.3999 18.4864C69.0472 17.7472 68.5447 17.2264 67.8902 16.924C67.2356 16.6217 66.4907 16.4716 65.651 16.4716C64.4939 16.4893 63.425 16.7651 62.4442 17.3036C61.4635 17.8421 60.5621 18.6299 59.74 19.6715V36.4697H53.7783V0H59.74V9.9483Z" fill="#161616"/>
<path d="M98.6439 27.6977C99.4903 26.8502 100.288 25.8815 101.035 24.7869C101.785 23.6945 102.47 22.5161 103.096 21.2494L106.574 24.7317C106.254 25.5416 105.624 26.6406 104.678 28.0287C103.733 29.4168 102.635 30.7364 101.386 31.9899C100.123 33.2544 98.7608 34.2916 97.3017 35.1037C95.8427 35.9136 94.3286 36.3815 92.7572 36.5028C91.188 36.6264 89.5769 36.3594 87.9284 35.7018C86.2798 35.0441 84.6335 33.8944 82.9894 32.2481C81.3452 30.6018 80.1859 28.9754 79.4388 27.2938C78.6917 25.6122 78.3104 23.9792 78.2994 22.3947C78.2862 20.8102 78.5881 19.3118 79.2008 17.8994C79.8135 16.4871 80.6598 15.2402 81.7397 14.1611C82.8197 13.082 84.0803 12.1617 85.374 11.5548C86.6677 10.948 88.0298 10.6655 89.4579 10.7074C90.8861 10.7516 92.3737 11.1576 93.9187 11.9322C95.4637 12.7068 97.0285 13.8852 98.6087 15.4697C99.2104 16.0965 99.7129 16.6371 100.116 17.0917L88.4353 28.7878C89.3191 29.5492 90.2051 30.0678 91.0932 30.3436C91.9814 30.6195 92.8564 30.6901 93.7137 30.5555C94.5733 30.4209 95.4152 30.1053 96.2439 29.6066C97.0725 29.11 97.8726 28.4745 98.6439 27.6999V27.6977ZM85.0853 17.6214C84.5343 18.1731 84.1442 18.7667 83.9172 19.3979C83.6902 20.0312 83.5954 20.6778 83.6329 21.342C83.6704 22.0041 83.8291 22.6617 84.1112 23.3127C84.3933 23.9637 84.7679 24.5839 85.233 25.1731L92.2415 18.1554C91.7148 17.628 91.1461 17.2021 90.5401 16.8755C89.934 16.5511 89.3169 16.3502 88.691 16.2774C88.065 16.2046 87.4457 16.2708 86.833 16.4804C86.2203 16.6901 85.6363 17.0697 85.0853 17.6214Z" fill="#161616"/>
<path d="M113.781 14.6157H113.886C114.252 14.0927 114.715 13.5763 115.273 13.0687C115.83 12.5612 116.467 12.1176 117.183 11.7314C117.9 11.3474 118.689 11.0363 119.553 10.8001C120.417 10.564 121.336 10.447 122.314 10.447C123.238 10.447 124.133 10.5508 124.996 10.7604C125.86 10.9701 126.649 11.2967 127.366 11.7424C128.08 12.1882 128.712 12.7642 129.263 13.4726C129.812 14.181 130.244 15.024 130.559 16.0016C130.733 16.5422 130.85 17.1337 130.912 17.7714C130.974 18.4092 131.004 19.1463 131.004 19.9849V36.4675H124.803V20.9559C124.803 20.274 124.776 19.6892 124.723 19.1992C124.67 18.7093 124.576 18.2812 124.434 17.9149C124.121 17.1116 123.645 16.5356 123.009 16.1847C122.372 15.8361 121.6 15.6617 120.692 15.6617C119.489 15.6617 118.332 15.9464 117.225 16.5136C116.117 17.0807 115.136 17.9061 114.281 18.9896V36.4675H108.079V11.0782H113.208L113.783 14.6157H113.781Z" fill="#161616"/>
<path d="M27.1349 36.5315H13.5675C6.08728 36.5315 0 30.4385 0 22.9464C0 15.4543 6.08728 9.36128 13.5675 9.36128C21.0476 9.36128 27.1349 15.4565 27.1349 22.9464V36.5315ZM13.5675 13.5542C8.39481 13.5542 4.18749 17.767 4.18749 22.9464C4.18749 28.1258 8.39481 32.3386 13.5675 32.3386H22.9474V22.9464C22.9474 17.767 18.7401 13.5542 13.5675 13.5542Z" fill="#F94514"/>
</g>
<defs>
<clipPath id="clip0_28_3">
<rect width="131" height="49" fill="white"/>
</clipPath>
</defs>
</svg>
