<svg xmlns="http://www.w3.org/2000/svg" width="501.279" height="473.081" viewBox="0 0 501.279 473.081">
  <g id="Startup_life-pana" data-name="Startup life-pana" transform="translate(-19.85 -23.263)">
    <g id="freepik--background-complete--inject-2" transform="translate(67.604 23.263)">
      <path id="Path_4231" data-name="Path 4231" d="M425.134,132.193a5.227,5.227,0,0,1,1.634.512,6.994,6.994,0,0,1,2.821,10.03,6.632,6.632,0,0,1-1.329,1.546,6.533,6.533,0,0,1-1.8,1.089,7.155,7.155,0,0,1-4.356.436,7.068,7.068,0,0,1-3.79-2.276,6.437,6.437,0,0,1-1.089-1.8,6.328,6.328,0,0,1-.534-1.96,7.035,7.035,0,0,1,.534-3.692,6.915,6.915,0,0,1,6.295-4.171,5.118,5.118,0,0,1,1.7.229c0,.054-.61-.12-1.688-.076a6.871,6.871,0,0,0-4.171,1.644,6.675,6.675,0,0,0-1.84,2.5,6.851,6.851,0,0,0-.468,3.518,6.373,6.373,0,0,0,.523,1.851,6.272,6.272,0,0,0,1.089,1.7,6.633,6.633,0,0,0,3.583,2.178,6.73,6.73,0,0,0,4.149-.4,6.066,6.066,0,0,0,1.7-1.089,5.945,5.945,0,0,0,1.263-1.459,6.709,6.709,0,0,0,1.089-3.376,6.828,6.828,0,0,0-3.659-6.316C425.744,132.346,425.124,132.248,425.134,132.193Z" transform="translate(-32.279 -13.59)" fill="#e0e0e0"/>
      <path id="Path_4232" data-name="Path 4232" d="M431.714,125.825a1.914,1.914,0,0,1,0-.24v-3.648l.054.065-6.284-1.372.109-.054-1.655,3.518v.065h-.076a15.693,15.693,0,0,0-4.095.73h-.131l-2.864-2.755h.218l-5.445,3.463v-.2l1.307,3.659v.087l-.065.076a15.976,15.976,0,0,0-2.385,3.4v.087h-3.986l.163-.142c-.436,1.971-.915,4.095-1.394,6.284l-.1-.207,3.507,1.655h.1v.109a15.853,15.853,0,0,0,.708,4.084v.109l-.087.087-2.744,2.755v-.24l3.441,5.445-.229-.087,3.659-1.307h.109l.1.076a15.387,15.387,0,0,0,3.376,2.385h0c.054.076-.1-.174.109.174h0v3.877l-.152-.2,6.273,1.416-.218.109c.555-1.187,1.089-2.352,1.666-3.518l.054-.1h.12a15.507,15.507,0,0,0,4.073-.708h.109l.087.087L431.9,157.6h-.24l5.445-3.43-.076.207-1.307-3.659v-.1l.076-.087a15.682,15.682,0,0,0,2.4-3.387v-.087h3.986l-.152.131c.5-2.178.969-4.291,1.416-6.284l.087.174-3.507-1.677h-.076v-.087a15.472,15.472,0,0,0-.7-4.095v-.131c1-1,1.895-1.906,2.755-2.755v.152l-3.42-5.445h.109l-3.67,1.274h0a17.1,17.1,0,0,0-2.494-1.917l-.675-.4-.218-.142.24.109.686.37a15.746,15.746,0,0,1,2.548,1.895h-.065l3.648-1.329h.065v.065l3.463,5.445.054.087-.065.065L439.6,135.2v-.131a15.6,15.6,0,0,1,.73,4.171l-.076-.12,3.518,1.655.109.054v.12c-.436,1.982-.9,4.062-1.394,6.273v.131h-4.04l.152-.087a16.336,16.336,0,0,1-2.439,3.474v-.185c.425,1.2.871,2.418,1.307,3.659l.054.142-.131.076-5.445,3.452-.131.076-.109-.109-2.734-2.712h.2a15.812,15.812,0,0,1-4.182.73l.163-.109c-.545,1.154-1.089,2.331-1.666,3.507l-.065.142h-.152l-6.273-1.339h-.153v-4.04h0c.207.348.054.1.109.174h0a15.791,15.791,0,0,1-3.463-2.439h.2l-3.659,1.3-.152.054-.076-.131-3.441-5.445-.087-.131.109-.109,2.744-2.755v.2a16.161,16.161,0,0,1-.73-4.182l.109.163L405.011,139l-.131-.065V138.8l1.416-6.273v-.142h4.018l-.152.087a16.184,16.184,0,0,1,2.45-3.452v.163l-1.3-3.67V125.4l.109-.076,5.445-3.43h.1l.076.076,2.755,2.755h-.131a15.715,15.715,0,0,1,4.16-.708l-.1.065c.61-1.263,1.176-2.45,1.677-3.507V120.5h.076l6.262,1.448h.054v3.626A2.358,2.358,0,0,1,431.714,125.825Z" transform="translate(-33.326 -14.606)" fill="#e0e0e0"/>
      <path id="Path_4233" data-name="Path 4233" d="M473.741,418.832V414.2c0-3.017,0-7.449-.054-13.134,0-11.359-.054-27.748-.087-47.852l.174.174-113.4.054h0l.24-.229v65.614l-.218-.218,81.568.1,23.425.065h.087l-23.381.065-81.677.1h-.207V353H474.035v.185c0,20.158-.065,36.57-.087,47.917v16.466A3.532,3.532,0,0,1,473.741,418.832Z" transform="translate(-37.302 6.093)" fill="#e0e0e0"/>
      <path id="Path_4234" data-name="Path 4234" d="M473.759,360.509c0,.131-25.363.229-56.629.229s-56.629-.1-56.629-.229,25.353-.229,56.629-.229S473.759,360.378,473.759,360.509Z" transform="translate(-37.277 6.741)" fill="#e0e0e0"/>
      <rect id="Rectangle_17545" data-name="Rectangle 17545" width="35.034" height="35.034" transform="translate(332.85 378.075)" fill="#f5f5f5"/>
      <path id="Path_4235" data-name="Path 4235" d="M461.057,375.742a1.9,1.9,0,0,1-.512,0h-1.481l-5.445.065-17.925.076-17.925-.076-5.445-.065h-1.481a1.9,1.9,0,0,1-.512,0,2.339,2.339,0,0,1,.512,0h1.481l5.445-.076,17.925-.065,17.925.065,5.445.076h1.481a2.339,2.339,0,0,1,.512,0Z" transform="translate(-32.84 8.105)" fill="#e0e0e0"/>
      <path id="Path_4236" data-name="Path 4236" d="M462.177,382.936a2.4,2.4,0,0,1-.523,0H460.14l-5.554.076-18.317.065-18.328-.065-5.554-.076h-1.514a2.4,2.4,0,0,1-.523,0,1.937,1.937,0,0,1,.523-.054h1.514l5.554-.065,18.328-.076,18.317.076,5.554.065h1.514a1.937,1.937,0,0,1,.523.054Z" transform="translate(-32.839 8.741)" fill="#e0e0e0"/>
      <path id="Path_4237" data-name="Path 4237" d="M462.177,390.112a1.938,1.938,0,0,1-.523,0H460.14l-5.554.065-18.317.076-18.328-.076-5.554-.065h-1.514a1.938,1.938,0,0,1-.523,0,2.4,2.4,0,0,1,.523,0h1.514l5.554-.076,18.328-.065,18.35.033,5.554.076h1.514A2.394,2.394,0,0,1,462.177,390.112Z" transform="translate(-32.839 9.384)" fill="#e0e0e0"/>
      <path id="Path_4238" data-name="Path 4238" d="M462.177,397.306a2.4,2.4,0,0,1-.523,0H460.14l-5.554.076-18.317.065-18.328-.065-5.554-.076h-1.514a2.4,2.4,0,0,1-.523,0,1.935,1.935,0,0,1,.523-.055h1.514l5.554-.065,18.328-.076,18.317.076,5.554.065h1.514a1.94,1.94,0,0,1,.523.054Z" transform="translate(-32.839 10.02)" fill="#e0e0e0"/>
      <circle id="Ellipse_292" data-name="Ellipse 292" cx="47.133" cy="47.133" r="47.133" transform="translate(41.853 66.657) rotate(-45)" fill="#f5f5f5"/>
      <path id="Path_4239" data-name="Path 4239" d="M184.8,88.066a10.151,10.151,0,0,1-1.666.109l-4.585.087c-3.888,0-9.3.1-15.41.1h-.3V85.016c0-6.828,0-13,.087-17.424,0-2.178.076-3.942.1-5.3a11.117,11.117,0,0,1,.12-1.938,12.687,12.687,0,0,1,.12,1.938c0,1.361,0,3.147.1,5.3,0,4.476.087,10.651.087,17.424v3.06l-.294-.3c6.109,0,11.522,0,15.41.1l4.585.1a8.8,8.8,0,0,1,1.655.1Z" transform="translate(-54.875 -19.961)" fill="#e0e0e0"/>
      <path id="Path_4240" data-name="Path 4240" d="M163.258,48.3a13.243,13.243,0,0,1,.3,3.953,13.351,13.351,0,0,1-.3,3.964,13.351,13.351,0,0,1-.3-3.964,13.242,13.242,0,0,1,.3-3.953Z" transform="translate(-54.867 -21.034)" fill="#e0e0e0"/>
      <path id="Path_4241" data-name="Path 4241" d="M183.451,54.13a12.741,12.741,0,0,1-2.548,2.984,12.6,12.6,0,0,1-2.973,2.537,12.818,12.818,0,0,1,2.548-2.973,13.155,13.155,0,0,1,2.973-2.548Z" transform="translate(-53.53 -20.515)" fill="#e0e0e0"/>
      <path id="Path_4242" data-name="Path 4242" d="M195.027,66.73a16.269,16.269,0,0,1-3.267,2.178,16.588,16.588,0,0,1-3.42,1.884,10.52,10.52,0,0,1,3.1-2.407,10.193,10.193,0,0,1,3.583-1.655Z" transform="translate(-52.604 -19.393)" fill="#e0e0e0"/>
      <path id="Path_4243" data-name="Path 4243" d="M202.13,85.448a23.774,23.774,0,0,1-5.445.3,23.774,23.774,0,0,1-5.445-.3,24.547,24.547,0,0,1,5.445-.3,24.546,24.546,0,0,1,5.445.3Z" transform="translate(-52.345 -17.757)" fill="#e0e0e0"/>
      <path id="Path_4244" data-name="Path 4244" d="M133.323,84.788a21.846,21.846,0,0,1-5.1.3,21.923,21.923,0,0,1-5.1-.3,21.922,21.922,0,0,1,5.1-.3A21.846,21.846,0,0,1,133.323,84.788Z" transform="translate(-58.409 -17.816)" fill="#e0e0e0"/>
      <path id="Path_4245" data-name="Path 4245" d="M138.021,98.68a23.305,23.305,0,0,1-3.855,3.5,23.033,23.033,0,0,1-4.236,3.017,22.247,22.247,0,0,1,3.855-3.5A21.5,21.5,0,0,1,138.021,98.68Z" transform="translate(-57.804 -16.549)" fill="#e0e0e0"/>
      <path id="Path_4246" data-name="Path 4246" d="M149.792,109.44a35.22,35.22,0,0,1-2.625,4.541,36.16,36.16,0,0,1-2.777,4.454,16.891,16.891,0,0,1,2.254-4.77,17,17,0,0,1,3.147-4.225Z" transform="translate(-56.516 -15.591)" fill="#e0e0e0"/>
      <path id="Path_4247" data-name="Path 4247" d="M163.258,124.21a24.546,24.546,0,0,1-.3-5.445,24.546,24.546,0,0,1,.3-5.445,24.547,24.547,0,0,1,.3,5.445,24.547,24.547,0,0,1-.3,5.445Z" transform="translate(-54.867 -15.245)" fill="#e0e0e0"/>
      <path id="Path_4248" data-name="Path 4248" d="M185.261,117.285a15.638,15.638,0,0,1-4.454-3.049,16.084,16.084,0,0,1-3.626-3.986,48.944,48.944,0,0,1,4.029,3.528A49.938,49.938,0,0,1,185.261,117.285Z" transform="translate(-53.597 -15.519)" fill="#e0e0e0"/>
      <path id="Path_4249" data-name="Path 4249" d="M195.179,106.459a18.807,18.807,0,0,1-3.583-3.136,18.807,18.807,0,0,1-3.136-3.583,18.894,18.894,0,0,1,3.572,3.147,18.9,18.9,0,0,1,3.147,3.572Z" transform="translate(-52.593 -16.454)" fill="#e0e0e0"/>
      <path id="Path_4250" data-name="Path 4250" d="M137.381,71.911a14.342,14.342,0,0,1-3.158-2.723A14.343,14.343,0,0,1,131.5,66.03a14.343,14.343,0,0,1,3.158,2.723,14.342,14.342,0,0,1,2.723,3.158Z" transform="translate(-57.664 -19.455)" fill="#e0e0e0"/>
      <path id="Path_4251" data-name="Path 4251" d="M149.75,58.859a13.613,13.613,0,0,1-3.1-2.6A13.754,13.754,0,0,1,144,53.12a13.7,13.7,0,0,1,3.093,2.657,13.645,13.645,0,0,1,2.657,3.082Z" transform="translate(-56.551 -20.605)" fill="#e0e0e0"/>
      <g id="Group_89076" data-name="Group 89076" transform="translate(312.094 32.156)" opacity="0.8">
        <path id="Path_4252" data-name="Path 4252" d="M403.054,63.136a31.865,31.865,0,0,1,6.817,4.781l7.242-2.581,6.806,10.749-5.445,5.445a31.016,31.016,0,0,1,1.416,8.168l6.948,3.267-2.81,12.458h-7.623a31.166,31.166,0,0,1-4.77,6.785l2.581,7.242-10.749,6.806-5.445-5.445a31.026,31.026,0,0,1-8.168,1.427l-3.267,6.937L374.173,126.4v-7.689a30.84,30.84,0,0,1-6.785-4.781l-7.242,2.581-6.9-10.716,5.445-5.445a31.191,31.191,0,0,1-1.459-8.124l-6.948-3.267,2.788-12.415h7.689a30.84,30.84,0,0,1,4.781-6.785l-2.581-7.242L373.7,55.709l5.445,5.445a31.19,31.19,0,0,1,8.179-1.427L390.6,52.79l12.415,2.788V63.2ZM392.11,77.751a13.635,13.635,0,1,0,8.556,6.023,13.645,13.645,0,0,0-8.556-6.023Z" transform="translate(-350.28 -52.79)" fill="#ebebeb" fill-rule="evenodd"/>
      </g>
      <path id="Path_4253" data-name="Path 4253" d="M63.7,164.1h80.588s-7.122-12.959-27.857-11.075c-19.8,1.808-20.811-6.371-30.885-7.384S67.054,152.357,63.7,164.1Z" transform="translate(-63.7 -12.376)" fill="#f5f5f5"/>
      <path id="Path_4254" data-name="Path 4254" d="M223.8,298.3H289s-5.761-10.487-22.543-8.963c-16.03,1.459-16.847-5.162-25.048-5.979S226.512,288.79,223.8,298.3Z" transform="translate(-49.447 -0.114)" fill="#f5f5f5"/>
    </g>
    <g id="freepik--Floor--inject-2" transform="translate(19.85 482.067)">
      <path id="Path_4255" data-name="Path 4255" d="M521.129,444.843c0,.152-112.17.283-250.629.283s-250.651-.087-250.651-.283,112.17-.283,250.651-.283S521.129,444.691,521.129,444.843Z" transform="translate(-19.85 -444.56)" fill="#263238"/>
    </g>
    <g id="freepik--Screens--inject-2" transform="translate(46.15 155.555)">
      <rect id="Rectangle_17546" data-name="Rectangle 17546" width="158.214" height="105.941" transform="translate(309.619 0.425)" fill="#fff"/>
      <path id="Path_4256" data-name="Path 4256" d="M468.139,251.094V243.58c0-4.9,0-12.1-.065-21.3,0-18.415-.065-44.868-.12-77.114l.229.218-158.2.065h0l.283-.283v105.93l-.261-.261,113.988.131,32.562.065h.109l-32.507.065L310,251.225h-.261V144.74h.294l158.2.065h.229v.229c0,32.311-.087,58.807-.12,77.245,0,9.191,0,16.335-.054,21.258v5.554A10.968,10.968,0,0,1,468.139,251.094Z" transform="translate(-0.307 -144.74)" fill="#045173"/>
      <path id="Path_4257" data-name="Path 4257" d="M309.91,153.833c0-.163,35.393-.283,79.042-.283s79.042.12,79.042.283-35.383.283-79.042.283S309.91,154.04,309.91,153.833Z" transform="translate(-0.291 -143.956)" fill="#045173"/>
      <g id="Group_89077" data-name="Group 89077" transform="translate(306.462 3.833)" opacity="0.3">
        <path id="Path_4258" data-name="Path 4258" d="M315.848,149.534a1.263,1.263,0,1,1-.366-.9A1.274,1.274,0,0,1,315.848,149.534Z" transform="translate(-313.3 -148.26)" fill="#045173"/>
      </g>
      <g id="Group_89078" data-name="Group 89078" transform="translate(311.003 3.833)" opacity="0.3">
        <path id="Path_4259" data-name="Path 4259" d="M319.838,149.534a1.263,1.263,0,1,1-.366-.9,1.274,1.274,0,0,1,.366.9Z" transform="translate(-317.29 -148.26)" fill="#045173"/>
      </g>
      <g id="Group_89079" data-name="Group 89079" transform="translate(315.475 3.833)" opacity="0.3">
        <path id="Path_4260" data-name="Path 4260" d="M323.768,149.534a1.263,1.263,0,1,1-.366-.9A1.274,1.274,0,0,1,323.768,149.534Z" transform="translate(-321.22 -148.26)" fill="#045173"/>
      </g>
      <rect id="Rectangle_17547" data-name="Rectangle 17547" width="42.2" height="42.2" transform="translate(318.15 20.92)" fill="#045173"/>
      <path id="Path_4261" data-name="Path 4261" d="M441.281,174.923c0,.163-16.466.283-36.766.283s-36.766-.12-36.766-.283,16.466-.283,36.766-.283S441.281,174.771,441.281,174.923Z" transform="translate(4.858 -142.078)" fill="#045173"/>
      <path id="Path_4262" data-name="Path 4262" d="M441.281,182.133c0,.152-16.466.283-36.766.283s-36.766-.131-36.766-.283,16.466-.283,36.766-.283S441.281,182.013,441.281,182.133Z" transform="translate(4.858 -141.436)" fill="#045173"/>
      <path id="Path_4263" data-name="Path 4263" d="M441.281,189.333c0,.152-16.466.283-36.766.283s-36.766-.131-36.766-.283,16.466-.283,36.766-.283S441.281,189.17,441.281,189.333Z" transform="translate(4.858 -140.795)" fill="#045173"/>
      <path id="Path_4264" data-name="Path 4264" d="M411.213,196.533a9.344,9.344,0,0,1-1.71.109l-4.661.087c-3.931.054-9.366.087-15.355.087s-11.435,0-15.366-.087l-4.661-.087a9.344,9.344,0,0,1-1.71-.109,9.342,9.342,0,0,1,1.71-.109l4.661-.087c3.931-.054,9.366-.087,15.366-.087s11.424,0,15.355.087l4.661.087A9.342,9.342,0,0,1,411.213,196.533Z" transform="translate(4.858 -140.154)" fill="#045173"/>
      <g id="Group_89080" data-name="Group 89080" transform="translate(320.127 77.354)" opacity="0.3">
        <rect id="Rectangle_17548" data-name="Rectangle 17548" width="19.831" height="19.831" fill="#045173"/>
      </g>
      <rect id="Rectangle_17549" data-name="Rectangle 17549" width="19.831" height="19.831" transform="translate(357.78 77.354)" fill="#045173"/>
      <rect id="Rectangle_17550" data-name="Rectangle 17550" width="19.831" height="19.831" transform="translate(397.797 77.354)" fill="#045173"/>
      <rect id="Rectangle_17551" data-name="Rectangle 17551" width="19.831" height="19.831" transform="translate(433.768 77.354)" fill="#045173"/>
      <g id="Group_89081" data-name="Group 89081" transform="translate(318.15 20.92)" opacity="0.3">
        <rect id="Rectangle_17552" data-name="Rectangle 17552" width="42.2" height="42.2" fill="#fff"/>
      </g>
      <g id="Group_89082" data-name="Group 89082" transform="translate(357.78 77.354)" opacity="0.3">
        <rect id="Rectangle_17553" data-name="Rectangle 17553" width="19.831" height="19.831" fill="#fff"/>
      </g>
      <g id="Group_89083" data-name="Group 89083" transform="translate(397.797 77.354)" opacity="0.3">
        <rect id="Rectangle_17554" data-name="Rectangle 17554" width="19.831" height="19.831" fill="#fff"/>
      </g>
      <g id="Group_89084" data-name="Group 89084" transform="translate(433.768 77.354)" opacity="0.3">
        <rect id="Rectangle_17555" data-name="Rectangle 17555" width="19.831" height="19.831" fill="#fff"/>
      </g>
      <rect id="Rectangle_17556" data-name="Rectangle 17556" width="140.942" height="57.25" transform="translate(0.229 38.584)" fill="#fff"/>
      <path id="Path_4265" data-name="Path 4265" d="M185.171,237.435V222.047c0-9.877,0-24.176-.087-41.862l.152.152L44.3,180.4h0l.229-.218v57.25l-.218-.218,101.051.1,29.317.065h.1l-29.262.054-101.2.1H44V180h.229l140.931.076h.163v.152c0,17.729-.065,32.05-.087,41.96v14.3A4.657,4.657,0,0,1,185.171,237.435Z" transform="translate(-44 -141.601)" fill="#045173"/>
      <path id="Path_4266" data-name="Path 4266" d="M44.34,187.279c0-.12,31.506-.229,70.351-.229s70.373.109,70.373.229-31.506.218-70.373.218S44.34,187.4,44.34,187.279Z" transform="translate(-43.97 -140.973)" fill="#045173"/>
      <g id="Group_89085" data-name="Group 89085" transform="translate(4.225 41.83)" opacity="0.3">
        <path id="Path_4267" data-name="Path 4267" d="M49.927,184.174A1.024,1.024,0,1,1,48.9,183.15,1.024,1.024,0,0,1,49.927,184.174Z" transform="translate(-47.88 -183.15)" fill="#045173"/>
      </g>
      <g id="Group_89086" data-name="Group 89086" transform="translate(7.754 41.83)" opacity="0.3">
        <path id="Path_4268" data-name="Path 4268" d="M53.167,184.174a1.024,1.024,0,1,1-1.024-1.024A1.024,1.024,0,0,1,53.167,184.174Z" transform="translate(-51.12 -183.15)" fill="#045173"/>
      </g>
      <g id="Group_89087" data-name="Group 89087" transform="translate(11.184 41.83)" opacity="0.3">
        <path id="Path_4269" data-name="Path 4269" d="M56.317,184.174a1.024,1.024,0,1,1-1.024-1.024A1.024,1.024,0,0,1,56.317,184.174Z" transform="translate(-54.27 -183.15)" fill="#045173"/>
      </g>
      <rect id="Rectangle_17557" data-name="Rectangle 17557" width="34.043" height="34.043" transform="translate(12.208 55.606)" fill="#045173"/>
      <path id="Path_4270" data-name="Path 4270" d="M171.078,204.2c0,.12-17.522.229-39.129.229s-39.129-.109-39.129-.229,17.522-.218,39.129-.218S171.078,204.078,171.078,204.2Z" transform="translate(-39.654 -139.466)" fill="#045173"/>
      <path id="Path_4271" data-name="Path 4271" d="M171.078,210.569c0,.12-17.522.218-39.129.218s-39.129-.1-39.129-.218,17.522-.229,39.129-.229S171.078,210.449,171.078,210.569Z" transform="translate(-39.654 -138.9)" fill="#045173"/>
      <path id="Path_4272" data-name="Path 4272" d="M143.2,216.932a3.755,3.755,0,0,1-.512,0h-1.47l-5.391.065-17.816.065L100.207,217l-5.445-.065h-1.47a4.043,4.043,0,0,1-.512,0,1.775,1.775,0,0,1,.512,0h1.47l5.445-.076,17.806-.065,17.816.065,5.391.076h1.47A1.71,1.71,0,0,1,143.2,216.932Z" transform="translate(-39.657 -138.326)" fill="#045173"/>
      <g id="Group_89088" data-name="Group 89088" transform="translate(12.208 55.606)" opacity="0.3">
        <rect id="Rectangle_17558" data-name="Rectangle 17558" width="34.043" height="34.043" fill="#f5f5f5"/>
      </g>
    </g>
    <g id="freepik--Rocket--inject-2" transform="translate(209.285 83.448)">
      <path id="Path_4273" data-name="Path 4273" d="M272.518,114.176c-2.363-1.579-5.608-.621-7.972.958s-4.356,3.735-7.024,4.759c-4.966,1.928-11.489-.359-15.344,3.267-2.45,2.331-2.7,6.164-4.574,8.984-3.158,4.748-10.738,6.534-11.38,12.2-.381,3.267,2.233,6.469,5.445,7.394a11.642,11.642,0,0,0,9.475-1.895c3.267-2.178,5.783-5.445,9.464-6.687s8.418-.207,11.391-2.831,2.527-7.471,4.661-10.825a21.78,21.78,0,0,1,4.519-4.421c1.6-1.383,3.126-3.093,3.4-5.195s-.588-5.685-2.036-5.761" transform="translate(-190.915 -75.426)" fill="#f5f5f5"/>
      <path id="Path_4274" data-name="Path 4274" d="M212.383,326.561c.142-.076.577.359.991.98s.643,1.209.512,1.3-.566-.348-.991-.98S212.252,326.648,212.383,326.561Z" transform="translate(-192.147 -56.447)" fill="#263238"/>
      <path id="Path_4275" data-name="Path 4275" d="M208.1,317.54a6.981,6.981,0,0,1,1.3,2.418,6.9,6.9,0,0,1,.773,2.625,13.352,13.352,0,0,1-2.069-5.042Z" transform="translate(-192.525 -57.249)" fill="#263238"/>
      <path id="Path_4276" data-name="Path 4276" d="M205.784,307.82a13.254,13.254,0,0,1,.991,5.358,6.73,6.73,0,0,1-.773-2.625,6.883,6.883,0,0,1-.218-2.733Z" transform="translate(-192.736 -58.114)" fill="#263238"/>
      <path id="Path_4277" data-name="Path 4277" d="M205.461,297.83a13.493,13.493,0,0,1-.076,5.445,6.469,6.469,0,0,1-.251-2.723,6.534,6.534,0,0,1,.327-2.723Z" transform="translate(-192.793 -59.004)" fill="#263238"/>
      <path id="Path_4278" data-name="Path 4278" d="M207.1,288a6.8,6.8,0,0,1-.294,2.723,6.98,6.98,0,0,1-.849,2.6,6.806,6.806,0,0,1,.294-2.723,7.056,7.056,0,0,1,.849-2.6Z" transform="translate(-192.719 -59.879)" fill="#263238"/>
      <path id="Path_4279" data-name="Path 4279" d="M210.818,278.65a12.818,12.818,0,0,1-2.178,4.966,6.872,6.872,0,0,1,.86-2.6C210.121,279.63,210.676,278.574,210.818,278.65Z" transform="translate(-192.477 -60.712)" fill="#263238"/>
      <path id="Path_4280" data-name="Path 4280" d="M216.416,270.311a6.9,6.9,0,0,1-1.394,2.363,7.851,7.851,0,0,1-1.84,2.026c-.152-.1.479-1.154,1.383-2.363S216.253,270.213,216.416,270.311Z" transform="translate(-192.075 -61.455)" fill="#263238"/>
      <path id="Path_4281" data-name="Path 4281" d="M223.178,262.911c.12.109-.632,1.089-1.666,2.178s-1.971,1.873-2.091,1.775.632-1.089,1.677-2.178S223.069,262.791,223.178,262.911Z" transform="translate(-191.518 -62.114)" fill="#263238"/>
      <path id="Path_4282" data-name="Path 4282" d="M230.223,255.791c.12.109-.653,1.089-1.71,2.178s-2,1.851-2.113,1.742.653-1.089,1.71-2.178S230.114,255.682,230.223,255.791Z" transform="translate(-190.897 -62.747)" fill="#263238"/>
      <path id="Path_4283" data-name="Path 4283" d="M236.773,248.25a6.839,6.839,0,0,1-1.514,2.287c-.958,1.176-1.83,2.036-1.949,1.928a7.274,7.274,0,0,1,1.514-2.287C235.771,249.067,236.642,248.163,236.773,248.25Z" transform="translate(-190.281 -63.418)" fill="#263238"/>
      <path id="Path_4284" data-name="Path 4284" d="M241.794,239.67a5.924,5.924,0,0,1-.915,2.592,6.033,6.033,0,0,1-1.579,2.254A7.775,7.775,0,0,1,240.389,242a8.082,8.082,0,0,1,1.4-2.331Z" transform="translate(-189.747 -64.182)" fill="#263238"/>
      <path id="Path_4285" data-name="Path 4285" d="M244.074,230a5.543,5.543,0,0,1-.054,2.744,5.75,5.75,0,0,1-.839,2.625,8.287,8.287,0,0,1,.283-2.712,8.5,8.5,0,0,1,.61-2.657Z" transform="translate(-189.403 -65.043)" fill="#263238"/>
      <path id="Path_4286" data-name="Path 4286" d="M243.282,220.07a5.587,5.587,0,0,1,.806,2.625,5.739,5.739,0,0,1,0,2.755,8.254,8.254,0,0,1-.588-2.668,8.428,8.428,0,0,1-.218-2.712Z" transform="translate(-189.395 -65.927)" fill="#263238"/>
      <path id="Path_4287" data-name="Path 4287" d="M239.35,210.92c.131-.087.926.86,1.644,2.178a5.718,5.718,0,0,1,.937,2.592,8.593,8.593,0,0,1-1.438-2.32,8.886,8.886,0,0,1-1.143-2.45Z" transform="translate(-189.743 -66.742)" fill="#263238"/>
      <path id="Path_4288" data-name="Path 4288" d="M232.381,203.82a5.761,5.761,0,0,1,2.352,1.427c1.165.98,1.928,1.96,1.819,2.069s-1.089-.675-2.178-1.634S232.283,203.951,232.381,203.82Z" transform="translate(-190.364 -67.373)" fill="#263238"/>
      <path id="Path_4289" data-name="Path 4289" d="M223.29,199.761a5.674,5.674,0,0,1,2.7.5,5.6,5.6,0,0,1,2.45,1.263,8.712,8.712,0,0,1-2.635-.73,8.048,8.048,0,0,1-2.516-1.035Z" transform="translate(-191.173 -67.736)" fill="#263238"/>
      <path id="Path_4290" data-name="Path 4290" d="M213.35,199.361a5.445,5.445,0,0,1,2.69-.566,5.587,5.587,0,0,1,2.744.283,9.093,9.093,0,0,1-2.712.283A8.712,8.712,0,0,1,213.35,199.361Z" transform="translate(-192.058 -67.826)" fill="#263238"/>
      <path id="Path_4291" data-name="Path 4291" d="M204.131,203.21c-.1-.131.839-.947,2.178-1.666a5.228,5.228,0,0,1,2.6-.9,9.541,9.541,0,0,1-2.341,1.394A9.092,9.092,0,0,1,204.131,203.21Z" transform="translate(-192.879 -67.656)" fill="#263238"/>
      <path id="Path_4292" data-name="Path 4292" d="M197.26,210.532a5.543,5.543,0,0,1,1.339-2.407c.926-1.209,1.884-2,1.993-1.895a8.744,8.744,0,0,1-1.546,2.243C198.142,209.629,197.391,210.609,197.26,210.532Z" transform="translate(-193.49 -67.16)" fill="#263238"/>
      <path id="Path_4293" data-name="Path 4293" d="M193.9,219.953a5.358,5.358,0,0,1,.207-2.744,5.445,5.445,0,0,1,1.089-2.548,9.028,9.028,0,0,1-.512,2.679,8.908,8.908,0,0,1-.784,2.614Z" transform="translate(-193.798 -66.408)" fill="#263238"/>
      <path id="Path_4294" data-name="Path 4294" d="M195.194,229.8a5.445,5.445,0,0,1-1.089-2.548,5.3,5.3,0,0,1-.218-2.744,9.855,9.855,0,0,1,.773,2.614A9.464,9.464,0,0,1,195.194,229.8Z" transform="translate(-193.798 -65.531)" fill="#263238"/>
      <path id="Path_4295" data-name="Path 4295" d="M200.41,238.292c-.12.109-1.024-.741-1.906-1.982a5.739,5.739,0,0,1-1.274-2.439c.142-.076.86.9,1.732,2.113A8.385,8.385,0,0,1,200.41,238.292Z" transform="translate(-193.493 -64.698)" fill="#263238"/>
      <path id="Path_4296" data-name="Path 4296" d="M207.857,244.96a6.11,6.11,0,0,1-2.341-1.438c-1.187-.947-2-1.873-1.895-1.993a8.026,8.026,0,0,1,2.243,1.557C207.029,244.024,207.955,244.83,207.857,244.96Z" transform="translate(-192.925 -64.016)" fill="#263238"/>
      <path id="Path_4297" data-name="Path 4297" d="M216.577,249.852a13.068,13.068,0,0,1-4.857-2.472,7.057,7.057,0,0,1,2.559.98,6.829,6.829,0,0,1,2.3,1.492Z" transform="translate(-192.203 -63.495)" fill="#263238"/>
      <path id="Path_4298" data-name="Path 4298" d="M226.132,252.791a5.968,5.968,0,0,1-2.733-.327,5.827,5.827,0,0,1-2.548-1.035,8.309,8.309,0,0,1,2.69.49,7.753,7.753,0,0,1,2.592.871Z" transform="translate(-191.39 -63.135)" fill="#263238"/>
      <path id="Path_4299" data-name="Path 4299" d="M236.105,253.205a9.921,9.921,0,0,1-5.445.109,8.005,8.005,0,0,1,2.712-.24A8.287,8.287,0,0,1,236.105,253.205Z" transform="translate(-190.517 -62.993)" fill="#263238"/>
      <path id="Path_4300" data-name="Path 4300" d="M245.7,250.62a9.736,9.736,0,0,1-5.118,1.84,8.145,8.145,0,0,1,2.5-1.089,8,8,0,0,1,2.614-.751Z" transform="translate(-189.633 -63.207)" fill="#263238"/>
      <path id="Path_4301" data-name="Path 4301" d="M253.973,245.15c.109.12-.719,1.089-1.928,1.96a5.892,5.892,0,0,1-2.385,1.361c-.087-.142.86-.893,2.047-1.808A8.6,8.6,0,0,1,253.973,245.15Z" transform="translate(-188.826 -63.694)" fill="#263238"/>
      <path id="Path_4302" data-name="Path 4302" d="M260.4,237.59a5.9,5.9,0,0,1-1.339,2.4c-.9,1.22-1.808,2.058-1.928,1.96a8.4,8.4,0,0,1,1.481-2.3C259.505,238.44,260.257,237.5,260.4,237.59Z" transform="translate(-188.161 -64.367)" fill="#263238"/>
      <path id="Path_4303" data-name="Path 4303" d="M264.626,228.59a5.772,5.772,0,0,1-.664,2.668c-.566,1.416-1.231,2.461-1.372,2.385a8.1,8.1,0,0,1,.839-2.592A8.375,8.375,0,0,1,264.626,228.59Z" transform="translate(-187.674 -65.168)" fill="#263238"/>
      <path id="Path_4304" data-name="Path 4304" d="M266.461,218.8a10.389,10.389,0,0,1-.741,5.391,17.84,17.84,0,0,1,.741-5.391Z" transform="translate(-187.396 -66.04)" fill="#263238"/>
      <path id="Path_4305" data-name="Path 4305" d="M266.149,208.811a6.534,6.534,0,0,1,.5,2.69,6.992,6.992,0,0,1-.076,2.744,13.493,13.493,0,0,1-.425-5.445Z" transform="translate(-187.367 -66.93)" fill="#263238"/>
      <path id="Path_4306" data-name="Path 4306" d="M264,199.05a6.653,6.653,0,0,1,.991,2.559,6.764,6.764,0,0,1,.436,2.7,6.85,6.85,0,0,1-.991-2.559A6.731,6.731,0,0,1,264,199.05Z" transform="translate(-187.549 -67.798)" fill="#263238"/>
      <path id="Path_4307" data-name="Path 4307" d="M260.14,189.81c.142-.076.8.969,1.448,2.331a6.7,6.7,0,0,1,.849,2.614A16.01,16.01,0,0,1,260.14,189.81Z" transform="translate(-187.892 -68.621)" fill="#263238"/>
      <path id="Path_4308" data-name="Path 4308" d="M255.22,181.1c.142-.087.86.9,1.623,2.178a6.708,6.708,0,0,1,1.089,2.494,7,7,0,0,1-1.623-2.178,7.079,7.079,0,0,1-1.089-2.494Z" transform="translate(-188.33 -69.397)" fill="#263238"/>
      <path id="Path_4309" data-name="Path 4309" d="M250.26,172.41c.142-.076.839.937,1.568,2.243a7.012,7.012,0,0,1,1.089,2.527,6.981,6.981,0,0,1-1.568-2.254A6.7,6.7,0,0,1,250.26,172.41Z" transform="translate(-188.772 -70.17)" fill="#263238"/>
      <path id="Path_4310" data-name="Path 4310" d="M246.35,163.21a13.123,13.123,0,0,1,1.906,5.108,6.534,6.534,0,0,1-1.22-2.461A6.773,6.773,0,0,1,246.35,163.21Z" transform="translate(-189.12 -70.989)" fill="#263238"/>
      <path id="Path_4311" data-name="Path 4311" d="M244.666,153.38a7.624,7.624,0,0,1,.479,2.69,7.938,7.938,0,0,1,.1,2.723,5.783,5.783,0,0,1-.654-2.668A5.957,5.957,0,0,1,244.666,153.38Z" transform="translate(-189.288 -71.864)" fill="#263238"/>
      <path id="Path_4312" data-name="Path 4312" d="M245.558,143.43a8.234,8.234,0,0,1-.2,2.723,7.7,7.7,0,0,1-.6,2.668,6.077,6.077,0,0,1,0-2.755,5.9,5.9,0,0,1,.795-2.635Z" transform="translate(-189.275 -72.75)" fill="#263238"/>
      <path id="Path_4313" data-name="Path 4313" d="M248.912,134a7.948,7.948,0,0,1-.871,2.592,8.158,8.158,0,0,1-1.231,2.439,10.2,10.2,0,0,1,2.1-5.031Z" transform="translate(-189.079 -73.589)" fill="#263238"/>
      <path id="Path_4314" data-name="Path 4314" d="M254.582,125.711c.12.109-.6,1.089-1.514,2.276s-1.688,2.178-1.819,2.036a5.772,5.772,0,0,1,1.372-2.385C253.548,126.44,254.474,125.613,254.582,125.711Z" transform="translate(-188.684 -74.328)" fill="#263238"/>
      <path id="Path_4315" data-name="Path 4315" d="M262.173,119.13c.087.131-.86.9-2.036,1.819a8.113,8.113,0,0,1-2.276,1.514c-.109-.12.73-1.089,1.928-1.96A5.924,5.924,0,0,1,262.173,119.13Z" transform="translate(-188.096 -74.913)" fill="#263238"/>
      <path id="Path_4316" data-name="Path 4316" d="M271.129,114.61a8.168,8.168,0,0,1-2.429,1.252,7.862,7.862,0,0,1-2.57.9c-.076-.142.958-.817,2.352-1.416a5.718,5.718,0,0,1,2.646-.741Z" transform="translate(-187.359 -75.316)" fill="#263238"/>
      <path id="Path_4317" data-name="Path 4317" d="M278.219,112.779c0,.152-.555.392-1.285.523s-1.361.131-1.394,0,.545-.392,1.285-.534S278.219,112.627,278.219,112.779Z" transform="translate(-186.521 -75.489)" fill="#263238"/>
      <path id="Path_4318" data-name="Path 4318" d="M298.38,83.758s12.785-9.126,30.493-3.267c0,0,1.448,14.658-12.742,26.311" transform="translate(-184.488 -78.528)" fill="#fdc72d"/>
      <path id="Path_4319" data-name="Path 4319" d="M261.35,110.606c.545.817,14.43,23.131,14.43,23.131l41.677-25.679a14.593,14.593,0,0,0,4.073-21.105h0a14.582,14.582,0,0,0-19.853-3.42Z" transform="translate(-187.784 -78.303)" fill="#fdc72d"/>
      <path id="Path_4320" data-name="Path 4320" d="M274.677,130.4l-.937,15.7s27.008-13.068,20.267-27.618Z" transform="translate(-186.681 -74.97)" fill="#263238"/>
      <path id="Path_4321" data-name="Path 4321" d="M281.81,96.51s-18.317-8.081-33.39,3.768l14.081,9.191Z" transform="translate(-188.936 -77.166)" fill="#263238"/>
      <path id="Path_4322" data-name="Path 4322" d="M281.13,108.224l-26.06,16.335s.893,2.81,1.59,2.57,20.18-11.762,26.529-15.519a1.96,1.96,0,0,0,.512-2.929h0a1.971,1.971,0,0,0-2.57-.457Z" transform="translate(-188.343 -75.91)" fill="#263238"/>
      <circle id="Ellipse_293" data-name="Ellipse 293" cx="8.342" cy="8.342" r="8.342" transform="translate(106.732 26.166) rotate(-76.76)" fill="#fafafa"/>
      <path id="Path_4323" data-name="Path 4323" d="M310.064,97.552a15.216,15.216,0,0,0-.37-2,8.255,8.255,0,0,0-3.049-4.465,8.081,8.081,0,0,0-3.43-1.492,8.19,8.19,0,0,0-4.247.37,8.058,8.058,0,0,0-3.79,12.36,8.092,8.092,0,0,0,3.746,2.831,8.2,8.2,0,0,0,4.247.37,8.081,8.081,0,0,0,3.43-1.492,8.3,8.3,0,0,0,3.049-4.465c.338-1.263.3-2.015.37-2.015a1.754,1.754,0,0,1,0,.545,6.721,6.721,0,0,1-.185,1.525,8.418,8.418,0,0,1-6.61,6.36,8.58,8.58,0,1,1,3.594-15.214,8.309,8.309,0,0,1,3.093,4.77,6.718,6.718,0,0,1,.185,1.525A1.644,1.644,0,0,1,310.064,97.552Z" transform="translate(-184.966 -77.599)" fill="#263238"/>
      <path id="Path_4324" data-name="Path 4324" d="M319.24,103.922c-.109,0-.229-1.623-.871-4.16a32.67,32.67,0,0,0-1.448-4.356,31.875,31.875,0,0,0-6.055-9.377,32.223,32.223,0,0,0-3.365-3.115c-2.058-1.623-3.485-2.407-3.43-2.5a4.824,4.824,0,0,1,1.035.49,12.616,12.616,0,0,1,1.165.686c.436.294.947.6,1.47,1.013a27,27,0,0,1,3.5,3.071,29.131,29.131,0,0,1,6.164,9.54,28.22,28.22,0,0,1,1.361,4.454c.163.643.229,1.241.316,1.764a11.983,11.983,0,0,1,.142,1.34,4.018,4.018,0,0,1,.022,1.154Z" transform="translate(-183.981 -78.36)" fill="#263238"/>
      <path id="Path_4325" data-name="Path 4325" d="M317.2,105.019c-.109,0-.24-1.644-.893-4.225a33.761,33.761,0,0,0-1.47-4.421,34.846,34.846,0,0,0-2.646-5.053,35.3,35.3,0,0,0-3.485-4.509,32.577,32.577,0,0,0-3.42-3.191c-2.08-1.666-3.528-2.472-3.474-2.57a4.9,4.9,0,0,1,1.089.512,11.163,11.163,0,0,1,1.165.708,11.836,11.836,0,0,1,1.492,1.089,29.9,29.9,0,0,1,3.528,3.082A32.44,32.44,0,0,1,312.668,91a33.18,33.18,0,0,1,2.646,5.162,29.172,29.172,0,0,1,1.383,4.53c.163.653.229,1.263.316,1.786a10.564,10.564,0,0,1,.153,1.361,5.27,5.27,0,0,1,.033,1.176Z" transform="translate(-184.182 -78.303)" fill="#263238"/>
    </g>
    <g id="freepik--Plant--inject-2" transform="translate(38.63 307.921)">
      <path id="Path_4326" data-name="Path 4326" d="M82.479,427.057c-.937-3.7,1.514-7.405,4.247-10.074s5.99-5.053,7.427-8.592c2.32-5.728-.719-13.188,3.267-17.958,2.309-2.81,6.447-3.724,8.494-6.73a15.312,15.312,0,0,0,1.873-5.369,54.658,54.658,0,0,1,13.744-25.374,47.318,47.318,0,0,1-5.445,24.492c-1.6,3.006-3.561,5.935-4.095,9.3-.893,5.445,2.178,11.1.762,16.455-1.579,6.12-8.484,10.193-8.854,16.5-.3,5.347,4.356,10.052,3.942,15.388a14.31,14.31,0,0,1-2.407,6.316c-4.269,6.806-10.335,11.5-19.515,11.293l-11.261.327Z" transform="translate(-33.751 -278.569)" fill="#045173"/>
      <g id="Group_89089" data-name="Group 89089" transform="translate(40.909 74.391)" opacity="0.3">
        <path id="Path_4327" data-name="Path 4327" d="M82.479,427.057c-.937-3.7,1.514-7.405,4.247-10.074s5.99-5.053,7.427-8.592c2.32-5.728-.719-13.188,3.267-17.958,2.309-2.81,6.447-3.724,8.494-6.73a15.312,15.312,0,0,0,1.873-5.369,54.658,54.658,0,0,1,13.744-25.374,47.318,47.318,0,0,1-5.445,24.492c-1.6,3.006-3.561,5.935-4.095,9.3-.893,5.445,2.178,11.1.762,16.455-1.579,6.12-8.484,10.193-8.854,16.5-.3,5.347,4.356,10.052,3.942,15.388a14.31,14.31,0,0,1-2.407,6.316c-4.269,6.806-10.335,11.5-19.515,11.293l-11.261.327Z" transform="translate(-74.66 -352.96)"/>
      </g>
      <path id="Path_4328" data-name="Path 4328" d="M75.717,456.518a8.777,8.777,0,0,1-3.1-.087,18.955,18.955,0,0,1-3.648-.937,15.737,15.737,0,0,1-4.509-2.5,6.219,6.219,0,0,1-1.84-2.483,11.7,11.7,0,0,1-.512-3.365,35.347,35.347,0,0,0-.24-3.648,9.975,9.975,0,0,0-1.361-3.626c-1.307-2.341-3.507-4.552-4.193-7.732s-.185-6.534.359-9.856,1.089-7.057-.207-10.585S52.826,404.974,51.617,401s-.61-8.32-.849-12.578a16.553,16.553,0,0,0-1.427-6.262c-.9-1.993-2.178-3.877-3.126-5.979-1.971-4.258-2.3-9.061-2.821-13.776-.25-2.374-.512-4.781-.762-7.2A35.142,35.142,0,0,0,41.413,348a62.665,62.665,0,0,0-2.646-6.981,22.869,22.869,0,0,1-1.285-3.648,36.338,36.338,0,0,1-.348-3.877,45.534,45.534,0,0,1,.348-7.787c.316-2.592.806-5.173,1.089-7.776v-.447l.054-.512.457.229a17.261,17.261,0,0,1,6.033,5.151,27.651,27.651,0,0,1,3.692,6.883c1.851,4.846,2.494,9.921,3.42,14.756s2.091,9.616,4.541,13.646c1.231,2.015,2.712,3.855,4.008,5.815a16.085,16.085,0,0,1,2.755,6.425c.632,4.77-2.015,8.941-1.492,13.155a14.691,14.691,0,0,0,2.091,5.848c1.013,1.808,2.178,3.474,3.332,5.162a32.334,32.334,0,0,1,2.995,5.206,16.336,16.336,0,0,1,1.383,5.663c.25,3.8-.3,7.395,0,10.8a24.754,24.754,0,0,0,2.723,9.268c1.34,2.777,2.842,5.293,4.095,7.721a38.114,38.114,0,0,1,1.688,3.6,17.2,17.2,0,0,1,.969,3.561,22.336,22.336,0,0,1,0,6.425,16.172,16.172,0,0,1-3.267,8.179,7.406,7.406,0,0,1-.915.98,4.293,4.293,0,0,1-.741.621l-.643.447a14.316,14.316,0,0,0,2.178-2.178,16.335,16.335,0,0,0,3.1-8.113,22.282,22.282,0,0,0-.109-6.338,17.1,17.1,0,0,0-.98-3.485c-.468-1.165-1.089-2.341-1.688-3.55-1.274-2.407-2.788-4.912-4.16-7.71a25.244,25.244,0,0,1-2.821-9.431c-.283-3.474.261-7.079,0-10.792a15.845,15.845,0,0,0-1.329-5.445,32.335,32.335,0,0,0-2.962-5.108c-1.089-1.677-2.331-3.354-3.376-5.195a15.421,15.421,0,0,1-2.113-6.1c-.512-4.5,2.113-8.712,1.459-13.123a15.246,15.246,0,0,0-2.679-6.12C59,361.9,57.509,360.063,56.246,358,53.719,353.855,52.5,349,51.6,344.13s-1.579-9.888-3.4-14.637a26.856,26.856,0,0,0-3.594-6.7,16.608,16.608,0,0,0-5.772-4.933l.523-.294-.054.457c-.3,2.635-.784,5.216-1.089,7.776a44.322,44.322,0,0,0-.348,7.678c.065,1.252.142,2.57.327,3.757a24.176,24.176,0,0,0,1.241,3.518,63.469,63.469,0,0,1,2.679,7.057,35.784,35.784,0,0,1,1.209,7.307c.261,2.418.512,4.824.762,7.2.512,4.737.839,9.464,2.733,13.569.947,2.047,2.178,3.931,3.115,6a17.425,17.425,0,0,1,1.481,6.534c.218,4.356-.37,8.592.784,12.448s3.583,7.035,4.8,10.683.73,7.471.174,10.836-1.089,6.687-.414,9.681,2.755,5.227,4.095,7.623a10.335,10.335,0,0,1,1.383,3.768,33.759,33.759,0,0,1,.218,3.692,11.119,11.119,0,0,0,.457,3.267,6.033,6.033,0,0,0,1.732,2.385,15.5,15.5,0,0,0,4.356,2.5,19.135,19.135,0,0,0,3.594,1,15.409,15.409,0,0,0,2.287.24A8.131,8.131,0,0,1,75.717,456.518Z" transform="translate(-37.095 -281.773)" fill="#263238"/>
      <path id="Path_4329" data-name="Path 4329" d="M40.59,323.15a1.415,1.415,0,0,1,.109.338c.054.272.142.6.24,1.013.218.893.468,2.232.882,3.91s1.448,3.561,2.309,5.892,1.8,4.988,2.625,7.993,1.59,6.349,2.363,9.921a41.71,41.71,0,0,0,3.539,11.065c.915,1.83,1.938,3.692,2.755,5.717A26.779,26.779,0,0,1,57,375.467,131.407,131.407,0,0,0,59.343,389.1c2.178,9.235,4.356,18.034,6.218,26.05s3.724,15.181,5.216,21.247,2.625,10.89,3.452,14.332l.9,3.91c.087.414.163.751.218,1.024a1.689,1.689,0,0,1,0,.349,1.3,1.3,0,0,1-.12-.338l-.294-1c-.25-.937-.6-2.232-1.089-3.877l-3.681-14.277c-1.525-6.055-3.343-13.243-5.358-21.2s-4.051-16.815-6.284-26.06a130.008,130.008,0,0,1-2.243-13.733,25.516,25.516,0,0,0-1.525-6.316c-.784-1.971-1.8-3.822-2.712-5.674a42.243,42.243,0,0,1-3.518-11.141c-.751-3.583-1.459-6.915-2.265-9.91s-1.655-5.685-2.516-7.993a55.251,55.251,0,0,1-2.178-5.968c-.392-1.732-.588-3.038-.751-3.942-.076-.414-.131-.762-.174-1.035A1.4,1.4,0,0,1,40.59,323.15Z" transform="translate(-36.784 -281.222)" fill="#263238"/>
      <path id="Path_4330" data-name="Path 4330" d="M71.356,459.417c-7.329-4.411-9.366-17.686-6.251-25.657s8.527-15.246,9.4-23.741c.675-6.534-1.427-13.264.131-19.6,2.113-8.625,10.574-15.246,10.531-24.133,0-4.977-2.831-9.681-2.581-14.658.316-6.1,5.02-10.89,7.95-16.27,4.487-8.2,4.835-17.925,6.4-27.139s5.14-19.08,13.341-23.567c1.165,7.841,3.2,13.221,2.494,23.828-.261,3.8-4.726,11.075-5.38,19.417-.381,4.988-.664,9.986-.991,14.985s-.675,9.8-2.439,14.342c-1.35,3.474-3.518,6.621-4.53,10.215-1.906,6.763.512,14.1-1.089,20.953-1.307,5.8-5.358,10.781-6.218,16.662-1.2,8.277,4.106,16.9,1.318,24.786-1.383,3.91-4.617,7.035-5.554,11.075-.73,3.136,0,6.458-.632,9.605-1.089,5.075-10.781,8.963-15.954,8.625" transform="translate(-34.727 -284.65)" fill="#045173"/>
      <path id="Path_4331" data-name="Path 4331" d="M107.581,291.73a2.3,2.3,0,0,1,0,.447,11.567,11.567,0,0,1-.174,1.285c-.174,1.089-.37,2.788-.762,4.933s-1.557,4.585-2.461,7.5-1.906,6.284-2.755,10.063-1.579,7.939-2.341,12.426-1.6,9.377-3.855,14.048c-1.089,2.341-2.178,4.694-3.093,7.188a32.67,32.67,0,0,0-1.6,7.939,159.226,159.226,0,0,1-2.254,17.12c-2.32,11.587-4.519,22.63-6.534,32.671L76.13,433.968c-1.623,7.536-2.94,13.646-3.855,17.925-.468,2.08-.828,3.714-1.089,4.868l-.294,1.263a2.406,2.406,0,0,1-.131.425,2.58,2.58,0,0,1,0-.436c.065-.327.142-.751.229-1.285.229-1.165.545-2.8.958-4.89.86-4.291,2.1-10.422,3.626-17.98s3.409-16.629,5.445-26.648l6.534-32.671a163.351,163.351,0,0,0,2.254-17.054,32.953,32.953,0,0,1,1.655-8.1c.9-2.548,2.091-4.912,3.136-7.231,2.243-4.6,3.049-9.409,3.866-13.885s1.546-8.712,2.45-12.437,1.873-7.144,2.864-10.063,2.113-5.347,2.559-7.449.686-3.779.9-4.89c.1-.534.185-.947.24-1.274A2.732,2.732,0,0,1,107.581,291.73Z" transform="translate(-34.099 -284.02)" fill="#263238"/>
    </g>
    <g id="freepik--Chart--inject-2" transform="translate(436.534 291.531)">
      <rect id="Rectangle_17559" data-name="Rectangle 17559" width="7.591" height="24.525" transform="translate(0 19.777)" fill="#fdc72d"/>
      <rect id="Rectangle_17560" data-name="Rectangle 17560" width="7.591" height="34.609" transform="translate(13.972 9.681)" fill="#fdc72d"/>
      <rect id="Rectangle_17561" data-name="Rectangle 17561" width="7.591" height="39.325" transform="translate(28.837 4.966)" fill="#fdc72d"/>
      <rect id="Rectangle_17562" data-name="Rectangle 17562" width="7.591" height="44.302" transform="translate(43.714)" fill="#fdc72d"/>
    </g>
    <g id="freepik--Gears--inject-2" transform="translate(132.183 281.076)">
      <path id="Path_4332" data-name="Path 4332" d="M168.217,317.019a5.227,5.227,0,0,1,1.634.512,6.993,6.993,0,0,1,2.821,10.03,7.111,7.111,0,0,1-3.126,2.69,7.024,7.024,0,0,1-8.179-1.84,6.7,6.7,0,0,1-1.089-1.8,6.327,6.327,0,0,1-.534-1.96,7.035,7.035,0,0,1,.534-3.692,6.915,6.915,0,0,1,6.295-4.171,5.043,5.043,0,0,1,1.7.229,8,8,0,0,0-1.688-.076,6.806,6.806,0,0,0-4.171,1.644,6.676,6.676,0,0,0-1.84,2.5,6.85,6.85,0,0,0-.468,3.518,6.371,6.371,0,0,0,.523,1.851,6.272,6.272,0,0,0,1.089,1.7,6.687,6.687,0,0,0,7.732,1.732,6.066,6.066,0,0,0,1.7-1.089,6.239,6.239,0,0,0,1.274-1.459,6.806,6.806,0,0,0-2.592-9.692A7.362,7.362,0,0,0,168.217,317.019Z" transform="translate(-119.734 -254.944)" fill="#263238"/>
      <path id="Path_4333" data-name="Path 4333" d="M174.8,310.63a1.913,1.913,0,0,1,0-.24v-3.648l.054.065-6.284-1.372.109-.054-1.655,3.518v.065h-.076a15.7,15.7,0,0,0-4.095.73h-.076l-.054-.054-2.766-2.733h.033l-5.445,3.463.065-.185,1.307,3.659v.087l-.065.076a15.976,15.976,0,0,0-2.385,3.4v.087h-3.888l.163-.142c-.436,1.971-.915,4.095-1.394,6.273l-.1-.207,3.507,1.666.1.054v.109a16.336,16.336,0,0,0,.708,4.084v.109l-.087.087-2.744,2.755v-.24l3.441,5.445-.229-.087,3.659-1.307h.12l.087.076a15.386,15.386,0,0,0,3.376,2.385h0c.054.076-.1-.174.109.174h0V342.6l-.152-.2,6.273,1.416-.218.109c.555-1.187,1.089-2.352,1.666-3.518l.054-.1h.12a15.431,15.431,0,0,0,4.073-.708h.12l.076.076,2.755,2.755h-.24l5.445-3.43-.076.207c-.447-1.242-.871-2.461-1.307-3.659v-.1l.076-.087a15.683,15.683,0,0,0,2.4-3.387V331.9h3.986l-.152.131c.5-2.178.969-4.291,1.416-6.284l.087.174-3.507-1.677h-.076v-.087a15.475,15.475,0,0,0-.7-4.095v-.131l2.755-2.755v.152l-3.42-5.445h.109l-3.67,1.274h0a17.1,17.1,0,0,0-2.494-1.917l-.675-.4-.218-.142.24.109.686.37a16.218,16.218,0,0,1,2.548,1.884h-.065l3.648-1.329h.065v.065l3.463,5.445v.076l-.065.076-2.733,2.755v-.131a15.594,15.594,0,0,1,.73,4.171l-.076-.12,3.518,1.655.109.054v.12c-.436,1.982-.9,4.062-1.394,6.273v.131h-4.019l.152-.087a15.966,15.966,0,0,1-2.439,3.463V335.5c.425,1.2.871,2.418,1.307,3.659l.054.142-.131.076-5.445,3.441-.131.087-.109-.109-2.755-2.744h.2a15.811,15.811,0,0,1-4.182.73l.163-.109c-.545,1.154-1.089,2.331-1.666,3.507l-.065.142h-.152l-6.273-1.4h-.152v-4.182h0c.207.349,0,.1.109.174h0a15.79,15.79,0,0,1-3.463-2.439h.2l-3.659,1.3-.152.054-.076-.131-3.441-5.445-.087-.131.109-.109,2.744-2.755v.2a16.161,16.161,0,0,1-.73-4.182l.109.152-3.474-1.612-.131-.065V323.6l1.416-6.273v-.142h4.16l-.142.087a15.779,15.779,0,0,1,2.439-3.452v.163l-1.3-3.67v-.12l.109-.065,5.445-3.43.1-.054.087.076,2.744,2.755h-.131a15.715,15.715,0,0,1,4.16-.708l-.1.065,1.688-3.507v-.076h.076L174.9,306.7h.054v3.626a2.363,2.363,0,0,1-.152.3Z" transform="translate(-120.785 -255.971)" fill="#263238"/>
      <path id="Path_4334" data-name="Path 4334" d="M164.13,265.8a17.6,17.6,0,0,1,3.79,2.668l4.051-1.437,3.8,6-3.027,3.049a17.74,17.74,0,0,1,.795,4.574l3.877,1.84-1.557,6.9h-4.291a17.641,17.641,0,0,1-2.679,3.79l1.448,4.051-6.011,3.8-3.049-2.929a17.741,17.741,0,0,1-4.563.795l-1.84,3.877-6.937-1.557V296.94a17.426,17.426,0,0,1-3.79-2.679l-4.051,1.448-3.812-6.011,3.038-3.038a17.9,17.9,0,0,1-.795-4.574l-3.877-1.84,1.546-6.937h4.28a17.338,17.338,0,0,1,2.668-3.79l-1.427-4.073,6-3.812,3.049,3.038a17.738,17.738,0,0,1,4.574-.8l1.84-3.877,6.937,1.557v4.291Zm-6.12,8.168a7.623,7.623,0,1,0,4.776,3.361,7.623,7.623,0,0,0-4.776-3.361Z" transform="translate(-121.963 -260)" fill="#045173" fill-rule="evenodd"/>
      <path id="Path_6325" data-name="Path 6325" d="M164.13,265.8a17.6,17.6,0,0,1,3.79,2.668l4.051-1.437,3.8,6-3.027,3.049a17.74,17.74,0,0,1,.795,4.574l3.877,1.84-1.557,6.9h-4.291a17.641,17.641,0,0,1-2.679,3.79l1.448,4.051-6.011,3.8-3.049-2.929a17.741,17.741,0,0,1-4.563.795l-1.84,3.877-6.937-1.557V296.94a17.426,17.426,0,0,1-3.79-2.679l-4.051,1.448-3.812-6.011,3.038-3.038a17.9,17.9,0,0,1-.795-4.574l-3.877-1.84,1.546-6.937h4.28a17.338,17.338,0,0,1,2.668-3.79l-1.427-4.073,6-3.812,3.049,3.038a17.738,17.738,0,0,1,4.574-.8l1.84-3.877,6.937,1.557v4.291Zm-6.12,8.168a7.623,7.623,0,1,0,4.776,3.361,7.623,7.623,0,0,0-4.776-3.361Z" transform="translate(53.037 -135)" fill="#045173" fill-rule="evenodd"/>
      <g id="Group_89090" data-name="Group 89090" transform="translate(12.687)" opacity="0.8">
        <path id="Path_4335" data-name="Path 4335" d="M164.13,265.8a17.6,17.6,0,0,1,3.79,2.668l4.051-1.437,3.8,6-3.027,3.049a17.74,17.74,0,0,1,.795,4.574l3.877,1.84-1.557,6.9h-4.291a17.641,17.641,0,0,1-2.679,3.79l1.448,4.051-6.011,3.8-3.049-2.929a17.741,17.741,0,0,1-4.563.795l-1.84,3.877-6.937-1.557V296.94a17.426,17.426,0,0,1-3.79-2.679l-4.051,1.448-3.812-6.011,3.038-3.038a17.9,17.9,0,0,1-.795-4.574l-3.877-1.84,1.546-6.937h4.28a17.338,17.338,0,0,1,2.668-3.79l-1.427-4.073,6-3.812,3.049,3.038a17.738,17.738,0,0,1,4.574-.8l1.84-3.877,6.937,1.557v4.291Zm-6.12,8.168a7.623,7.623,0,1,0,4.776,3.361,7.623,7.623,0,0,0-4.776-3.361Z" transform="translate(-134.65 -260)" fill="#fff" fill-rule="evenodd"/>
      </g>
      <g id="Group_89218" data-name="Group 89218" transform="translate(187.687 125)" opacity="0.8">
        <path id="Path_4335-2" data-name="Path 4335" d="M164.13,265.8a17.6,17.6,0,0,1,3.79,2.668l4.051-1.437,3.8,6-3.027,3.049a17.74,17.74,0,0,1,.795,4.574l3.877,1.84-1.557,6.9h-4.291a17.641,17.641,0,0,1-2.679,3.79l1.448,4.051-6.011,3.8-3.049-2.929a17.741,17.741,0,0,1-4.563.795l-1.84,3.877-6.937-1.557V296.94a17.426,17.426,0,0,1-3.79-2.679l-4.051,1.448-3.812-6.011,3.038-3.038a17.9,17.9,0,0,1-.795-4.574l-3.877-1.84,1.546-6.937h4.28a17.338,17.338,0,0,1,2.668-3.79l-1.427-4.073,6-3.812,3.049,3.038a17.738,17.738,0,0,1,4.574-.8l1.84-3.877,6.937,1.557v4.291Zm-6.12,8.168a7.623,7.623,0,1,0,4.776,3.361,7.623,7.623,0,0,0-4.776-3.361Z" transform="translate(-134.65 -260)" fill="#fff" fill-rule="evenodd"/>
      </g>
      <path id="Path_4336" data-name="Path 4336" d="M140.076,303.15a10.128,10.128,0,0,1,2.178,1.546l2.363-.839,2.178,3.5-1.764,1.775a10.3,10.3,0,0,1,.468,2.657l2.254,1.089-.795,4.029h-2.5a10.3,10.3,0,0,1-1.546,2.178l.839,2.352-3.507,2.178-1.764-1.764a10.456,10.456,0,0,1-2.668.457l-1.089,2.265-4.04-.915v-2.494A9.976,9.976,0,0,1,128.5,319.6l-2.363.839-2.178-3.5,1.764-1.775a10.292,10.292,0,0,1-.457-2.657L123,311.426l.9-4.04h2.363a10.508,10.508,0,0,1,1.557-2.178l-.839-2.352,3.5-2.178,1.775,1.775a9.856,9.856,0,0,1,2.657-.468L136,299.73l4.04.9v2.5Zm-3.561,4.748a4.443,4.443,0,1,0,3.354,5.3,4.443,4.443,0,0,0-3.354-5.3Z" transform="translate(-123 -256.463)" fill="#045173" fill-rule="evenodd"/>
      <g id="Group_89091" data-name="Group 89091" transform="translate(0 43.267)" opacity="0.4">
        <path id="Path_4337" data-name="Path 4337" d="M140.076,303.15a10.128,10.128,0,0,1,2.178,1.546l2.363-.839,2.178,3.5-1.764,1.775a10.3,10.3,0,0,1,.468,2.657l2.254,1.089-.795,4.029h-2.5a10.3,10.3,0,0,1-1.546,2.178l.839,2.352-3.507,2.178-1.764-1.764a10.456,10.456,0,0,1-2.668.457l-1.089,2.265-4.04-.915v-2.494A9.976,9.976,0,0,1,128.5,319.6l-2.363.839-2.178-3.5,1.764-1.775a10.292,10.292,0,0,1-.457-2.657L123,311.426l.9-4.04h2.363a10.508,10.508,0,0,1,1.557-2.178l-.839-2.352,3.5-2.178,1.775,1.775a9.856,9.856,0,0,1,2.657-.468L136,299.73l4.04.9v2.5Zm-3.561,4.748a4.443,4.443,0,1,0,3.354,5.3,4.443,4.443,0,0,0-3.354-5.3Z" transform="translate(-123 -299.73)" fill="#fff" fill-rule="evenodd"/>
      </g>
    </g>
    <g id="freepik--Character--inject-7" transform="translate(203.98 180.035)">
      <path id="Path_4785" data-name="Path 4785" d="M279.341,46a3.8,3.8,0,0,1,3.935-2.053,5.228,5.228,0,0,1,6.435,0,4.648,4.648,0,0,1,7.091,3.65,3.888,3.888,0,0,1,3.527,6.473,3.736,3.736,0,0,1-1.426,7.291L280.13,50.339A3.8,3.8,0,0,1,279.341,46Z" transform="translate(-229.836 -42.835)" fill="#263238"/>
      <path id="Path_4786" data-name="Path 4786" d="M299,62.138A15.836,15.836,0,0,0,282.914,47.88H282.1c-8.831.7-13.174,8.555-12.233,17.395l1.9,29.467,1.283,3.679,15.209,19.068,3.8-17.176.076-7.975s8.469-1.492,8.4-10C300.528,78.221,299.777,69.78,299,62.138Z" transform="translate(-229.379 -43.084)" fill="#ffbf9d"/>
      <path id="Path_4787" data-name="Path 4787" d="M292.741,94.491A20.541,20.541,0,0,1,281.62,91.44s2.728,6.074,11.112,5.161Z" transform="translate(-229.967 -45.239)" fill="#ff9a6c"/>
      <path id="Path_4788" data-name="Path 4788" d="M297.974,71.554a1.207,1.207,0,0,1-1.141,1.245,1.16,1.16,0,0,1-1.274-1.065A1.217,1.217,0,0,1,296.7,70.48a1.169,1.169,0,0,1,1.274,1.074Z" transform="translate(-230.656 -44.202)" fill="#263238"/>
      <path id="Path_4789" data-name="Path 4789" d="M298.549,67.686c-.143.162-1.084-.5-2.386-.475s-2.253.7-2.4.551.076-.361.485-.675a3.308,3.308,0,0,1,1.9-.627,3.118,3.118,0,0,1,1.9.57C298.482,67.325,298.625,67.61,298.549,67.686Z" transform="translate(-230.565 -44.003)" fill="#263238"/>
      <path id="Path_4790" data-name="Path 4790" d="M285.4,72.236c-.143.162-1.084-.5-2.386-.475s-2.253.7-2.4.551.076-.361.494-.675a3.251,3.251,0,0,1,1.9-.627,3.118,3.118,0,0,1,1.9.57C285.332,71.875,285.475,72.16,285.4,72.236Z" transform="translate(-229.915 -44.229)" fill="#263238"/>
      <path id="Path_4791" data-name="Path 4791" d="M290.347,77.356a8.138,8.138,0,0,1,2.11-.428c.333,0,.646-.114.7-.342a1.768,1.768,0,0,0-.247-.951c-.333-.8-.675-1.635-1.036-2.519a44.123,44.123,0,0,1-2.357-6.6,43.786,43.786,0,0,1,2.852,6.4c.352.884.684,1.72,1,2.528a1.9,1.9,0,0,1,.2,1.312.818.818,0,0,1-.542.494,2.767,2.767,0,0,1-.561.1,9.182,9.182,0,0,1-2.12.01Z" transform="translate(-230.357 -44.006)" fill="#263238"/>
      <path id="Path_4792" data-name="Path 4792" d="M285.384,69.066c-.152.342-1.283.057-2.642.114s-2.5.352-2.652,0c-.067-.162.162-.475.637-.77a4.078,4.078,0,0,1,2.015-.58,3.945,3.945,0,0,1,2.015.475C285.222,68.6,285.45,68.942,285.384,69.066Z" transform="translate(-229.89 -44.071)" fill="#263238"/>
      <path id="Path_4793" data-name="Path 4793" d="M298.178,63.941c-.2.323-1.122.1-2.205.209s-1.968.4-2.205.114c-.1-.143,0-.456.371-.77a3.175,3.175,0,0,1,3.555-.257C298.112,63.485,298.264,63.77,298.178,63.941Z" transform="translate(-230.566 -43.823)" fill="#263238"/>
      <path id="Path_4794" data-name="Path 4794" d="M298,58.206s-2.357-5.275-4.943-6.464c-3.137-1.445-4.41,2-7.386,1.226s-5.969-2.148-8.954.209c-3.26,2.566-1.673,4.3-1.8,8.07-.513,15.3-3.213,19.686-4.163,12.5-.1-.789-2.3-1.369-2.69-4.7-.513-4.315-.789-9.505.114-12.642.76-2.6,2.2-4.42,4.8-6.445,4.106-3.194,9.838-3.384,13.735-3.07S298.216,51.533,298,58.206Z" transform="translate(-229.273 -43.03)" fill="#263238"/>
      <path id="Path_4795" data-name="Path 4795" d="M271.193,74.786a2.319,2.319,0,0,0-2.538-2.177c-1.578.181-3.327,1.122-3.156,4.391.3,5.808,6.074,4.306,6.074,4.135S271.345,77.21,271.193,74.786Z" transform="translate(-229.169 -44.307)" fill="#ffbf9d"/>
      <path id="Path_4796" data-name="Path 4796" d="M270.3,79.114a2.088,2.088,0,0,1-.266.171.951.951,0,0,1-.751,0,2.471,2.471,0,0,1-1.3-2.129,3.327,3.327,0,0,1,.2-1.464,1.178,1.178,0,0,1,.722-.817.513.513,0,0,1,.608.247c.086.152.057.276.1.285s.114-.1.057-.342a.637.637,0,0,0-.247-.352.8.8,0,0,0-.57-.124,1.435,1.435,0,0,0-1.008.951,3.393,3.393,0,0,0-.266,1.635,2.624,2.624,0,0,0,1.606,2.433,1.074,1.074,0,0,0,.951-.209C270.3,79.257,270.316,79.124,270.3,79.114Z" transform="translate(-229.271 -44.405)" fill="#ff9a6c"/>
      <path id="Path_4797" data-name="Path 4797" d="M271.066,62.143a5.456,5.456,0,0,0,2.509,1.084,1.9,1.9,0,0,0,2.072-1.369c.057-.409-.047-.874.209-1.2s.9-.276,1.388-.228a3.717,3.717,0,0,0,3.8-2.738,1.559,1.559,0,0,0,2.091.152,8.174,8.174,0,0,0,1.549-1.73,2.414,2.414,0,0,1,1.977-1.036,5.427,5.427,0,0,0,1.264.257c.76-.086,1.122-.951,1.217-1.749s.171-1.644.808-2.072a3.051,3.051,0,0,1,2.082-.1c.7.086,1.606-.1,1.768-.789a1.359,1.359,0,0,0-.276-1.046,3.8,3.8,0,0,0-4.477-1.331,5.1,5.1,0,0,0-9.391-.8,5.171,5.171,0,0,0-8.232,2.053,3.8,3.8,0,0,0-4.116,5.551,3.536,3.536,0,0,0-1.9,2.852,2.034,2.034,0,0,0,2.348,2.044,2.082,2.082,0,0,0,3.641,2" transform="translate(-229.165 -42.927)" fill="#263238"/>
      <path id="Path_4798" data-name="Path 4798" d="M286.956,80.166a.5.5,0,0,0-.38-.067.475.475,0,0,0-.228.276,2.928,2.928,0,0,0,.333,2.852h0a1.9,1.9,0,0,0,3.279-.428l.456-.951Z" transform="translate(-230.189 -44.678)" fill="#ff9a6c"/>
      <path id="Path_4799" data-name="Path 4799" d="M289.688,83.254a1.855,1.855,0,0,1-1.445.722,1.644,1.644,0,0,1-.855-.143,1.835,1.835,0,0,1-.808-.58,3.488,3.488,0,0,1-.57-2.12,4.165,4.165,0,0,1,0-.589.865.865,0,0,1,.352-.589.694.694,0,0,1,.665,0l.447.228,1.54.8a7.784,7.784,0,0,1,1.369.817,6.246,6.246,0,0,1-1.492-.58l-1.568-.722c-.285-.124-.656-.361-.77-.257a1.52,1.52,0,0,0-.2.855,3.327,3.327,0,0,0,.475,1.9,1.691,1.691,0,0,0,.656.5,1.4,1.4,0,0,0,.713.162,3.564,3.564,0,0,0,1.492-.409Z" transform="translate(-230.183 -44.667)" fill="#263238"/>
      <path id="Path_4800" data-name="Path 4800" d="M267.4,60.76a1.407,1.407,0,0,0,.39,1.112,1.9,1.9,0,0,0,1.179.675,2.006,2.006,0,0,0,1.644-.523h-.247a6.12,6.12,0,0,0,1.188,1.426,3.346,3.346,0,0,0,1.074.637,2.585,2.585,0,0,0,2.852-.951,3.509,3.509,0,0,0,.447-1.217,1.226,1.226,0,0,0,0-.475,2.365,2.365,0,0,0-.162.437A3.726,3.726,0,0,1,275.251,63a2.367,2.367,0,0,1-3.488.152,5.859,5.859,0,0,1-1.131-1.331l-.1-.171-.143.133a1.777,1.777,0,0,1-1.4.475,1.73,1.73,0,0,1-1.055-.532,2.851,2.851,0,0,1-.532-.97Z" transform="translate(-229.263 -43.722)" fill="#455a64"/>
      <path id="Path_4801" data-name="Path 4801" d="M278.67,46.439a.949.949,0,0,1,.409.143,2.1,2.1,0,0,1,.951.751l.067.114.086-.114A7.166,7.166,0,0,1,282.938,45a5.7,5.7,0,0,1,2.281-.551,4.819,4.819,0,0,1,3.964,2.015,3.8,3.8,0,0,1,.675,1.73v.19l.171-.057a3.279,3.279,0,0,1,2.424.247,3.184,3.184,0,0,1,1.35,1.388,4.678,4.678,0,0,1,.4,1.711,1.206,1.206,0,0,0,.057-.475,3.2,3.2,0,0,0-.285-1.312,3.326,3.326,0,0,0-1.4-1.54,3.517,3.517,0,0,0-2.633-.314l.2.133a4.354,4.354,0,0,0-.713-1.9,5.143,5.143,0,0,0-1.6-1.464,4.981,4.981,0,0,0-2.652-.684,5.865,5.865,0,0,0-2.4.608A7.081,7.081,0,0,0,280,47.219h.152a2.034,2.034,0,0,0-1.036-.732A.951.951,0,0,0,278.67,46.439Z" transform="translate(-229.821 -42.898)" fill="#455a64"/>
      <path id="Path_4802" data-name="Path 4802" d="M297.966,332.7l.124,16.349s16.653,5.371,16.977,8.393l-31.691,1.369-1.236-25.465Z" transform="translate(-229.992 -57.173)" fill="#263238"/>
      <path id="Path_4803" data-name="Path 4803" d="M288.5,348.9a1.312,1.312,0,0,0-.836,1.521,1.264,1.264,0,0,0,1.5.837,1.359,1.359,0,0,0,.865-1.616,1.283,1.283,0,0,0-1.644-.694" transform="translate(-230.264 -57.972)" fill="#e0e0e0"/>
      <path id="Path_4804" data-name="Path 4804" d="M283.44,360.018v-2.576l30.417-.352s1.435.551,1.321,1.559Z" transform="translate(-230.057 -58.379)" fill="#455a64"/>
      <path id="Path_4805" data-name="Path 4805" d="M299.3,349.7c0,.152-.77.257-1.511.789s-1.112,1.2-1.255,1.141,0-.951.951-1.587S299.332,349.561,299.3,349.7Z" transform="translate(-230.702 -58.008)" fill="#fff"/>
      <path id="Path_4806" data-name="Path 4806" d="M302.9,351c.047.152-.618.447-1.112,1.122s-.618,1.378-.77,1.378-.295-.874.342-1.7S302.9,350.855,302.9,351Z" transform="translate(-230.92 -58.075)" fill="#fff"/>
      <path id="Path_4807" data-name="Path 4807" d="M305.169,354.959c-.143,0-.39-.722,0-1.587s1.074-1.236,1.141-1.1-.361.6-.646,1.312S305.321,354.94,305.169,354.959Z" transform="translate(-231.121 -58.139)" fill="#fff"/>
      <path id="Path_4808" data-name="Path 4808" d="M298.829,345.765c-.057.143-.779,0-1.654.057s-1.54.409-1.625.276.542-.713,1.578-.808S298.886,345.641,298.829,345.765Z" transform="translate(-230.655 -57.795)" fill="#fff"/>
      <path id="Path_4809" data-name="Path 4809" d="M259.348,336.36l-1.731,12.4,19.09,9.555c.107.552.33.37,0,.826s-5.5-.071-6.061,0h6.061c-.649.081-9.554,1-10,.522-2.852-3.08-22.589-.333-22.38-1.768.238-1.654.428-20.912.428-20.912Z" transform="translate(-228.122 -57.354)" fill="#263238"/>
      <path id="Path_4810" data-name="Path 4810" d="M19.922,23.245.087,0,.01,1.087A3.827,3.827,0,0,0,.822,3.72c1.573,2.014,6.036,7.5,16.65,18.7a2.843,2.843,0,0,0,2.45.828Z" transform="translate(17.453 301.349) rotate(-50)" fill="#455a64"/>
      <g id="Group_89095" data-name="Group 89095" transform="translate(18.92 292.882)" opacity="0.6">
        <path id="Path_4811" data-name="Path 4811" d="M249.015,351.188a1.226,1.226,0,0,1,.238,1.616,1.188,1.188,0,0,1-1.606.247,1.293,1.293,0,0,1-.238-1.721,1.226,1.226,0,0,1,1.692-.066" transform="translate(-247.183 -350.957)" fill="#fff"/>
      </g>
      <path id="Path_4812" data-name="Path 4812" d="M.016,2.075A6.254,6.254,0,0,1,1.841.649a6.073,6.073,0,0,1,2.3-.285c0-.047-.219-.219-.675-.314A3.147,3.147,0,0,0,1.68.25,3.117,3.117,0,0,0,.273,1.371C.016,1.77-.031,2.027.016,2.075Z" transform="translate(24.341 304.651) rotate(-50)" fill="#fff"/>
      <path id="Path_4813" data-name="Path 4813" d="M.011,1.284a14.77,14.77,0,0,1,1.8-.741A17.979,17.979,0,0,1,3.756.419,2.243,2.243,0,0,0,1.713.125C.534.4-.093,1.218.011,1.284Z" transform="translate(27.842 305.968) rotate(-50)" fill="#fff"/>
      <path id="Path_4814" data-name="Path 4814" d="M.028,2.008A19.791,19.791,0,0,1,2.738.687,18.616,18.616,0,0,1,5.7.192,5.523,5.523,0,0,0,0,2.008Z" transform="translate(20.116 304.26) rotate(-50)" fill="#fff"/>
      <path id="Path_4815" data-name="Path 4815" d="M253.13,356.966c.048.124,1.169-.266,2.595-.219s2.519.447,2.576.333a5.047,5.047,0,0,0-5.171-.114Z" transform="translate(-228.557 -58.341)" fill="#fff"/>
      <path id="Path_4816" data-name="Path 4816" d="M253.51,350.821a10.455,10.455,0,0,1,2.69-.3,10.027,10.027,0,0,1,2.576.827,1.938,1.938,0,0,0-.608-.589,4.391,4.391,0,0,0-3.945-.39C253.729,350.564,253.481,350.783,253.51,350.821Z" transform="translate(-228.576 -58.032)" fill="#fff"/>
      <path id="Path_4817" data-name="Path 4817" d="M256.241,349.172a1.768,1.768,0,0,0,.067-.741,5.114,5.114,0,0,0-.466-2,2.3,2.3,0,0,0-.951-1.16.817.817,0,0,0-.951.124,1.322,1.322,0,0,0-.371.865,2.852,2.852,0,0,0,2.338,2.8,3.308,3.308,0,0,0,3.365-1.521,1.178,1.178,0,0,0,.124-.951.789.789,0,0,0-.808-.475,2.851,2.851,0,0,0-1.35.589,5.844,5.844,0,0,0-1.445,1.445c-.266.4-.371.656-.342.665a9.19,9.19,0,0,1,1.958-1.854,2.737,2.737,0,0,1,1.188-.494.418.418,0,0,1,.437.257.789.789,0,0,1-.114.627,2.965,2.965,0,0,1-2.928,1.293,2.5,2.5,0,0,1-2.025-2.357.951.951,0,0,1,.238-.618.447.447,0,0,1,.513-.076,2.1,2.1,0,0,1,.789.951A7.9,7.9,0,0,1,256.241,349.172Z" transform="translate(-228.579 -57.79)" fill="#fff"/>
      <path id="Path_4818" data-name="Path 4818" d="M312.732,189.89a70.424,70.424,0,0,1,1.5,20.665c-.342,4.382-15.152,125.823-15.152,125.823H279.121l5.646-114.131-1.635.352s-10.922,48.677-11.815,56.557c-.8,7.091-10.6,62.735-10.6,62.735l-18.868-.209,7.015-71.88,6.8-65.311,2.557-19.011Z" transform="translate(-227.999 -49.891)" fill="#263238"/>
      <path id="Path_4819" data-name="Path 4819" d="M283.65,211.073a4.835,4.835,0,0,0,.837.466,9.152,9.152,0,0,0,2.481.865,5.142,5.142,0,0,0,1.835,0,3.8,3.8,0,0,0,1.9-.951,4.448,4.448,0,0,0,1.169-2.034A24.109,24.109,0,0,0,292.4,207c.646-3.289,1.074-6.3,1.321-8.479.133-1.093.219-1.977.257-2.595a4.036,4.036,0,0,0,0-.951,4.125,4.125,0,0,0-.19.951c-.1.694-.238,1.559-.39,2.576-.323,2.167-.8,5.152-1.435,8.441-.323,1.625-.542,3.279-1.559,4.249a4.144,4.144,0,0,1-3.45.894,10.656,10.656,0,0,1-2.462-.722A4.517,4.517,0,0,0,283.65,211.073Z" transform="translate(-230.067 -50.361)" fill="#263238"/>
      <path id="Path_4820" data-name="Path 4820" d="M289.876,195.614a.8.8,0,0,0-.418-.124,1.787,1.787,0,0,0-1.112.361,1.911,1.911,0,1,0,2.909,1.093,1.759,1.759,0,0,0-.608-1.008.656.656,0,0,0-.39-.181,2.215,2.215,0,0,1,.7,1.245,1.73,1.73,0,0,1-.38,1.407,1.616,1.616,0,0,1-2.69-1.017,1.758,1.758,0,0,1,.637-1.3,2.272,2.272,0,0,1,1.35-.475Z" transform="translate(-230.257 -50.386)" fill="#263238"/>
      <path id="Path_4821" data-name="Path 4821" d="M256.64,203.938a2.138,2.138,0,0,0,.684.1,11.4,11.4,0,0,0,1.9,0,18.183,18.183,0,0,0,11.235-4.753,12.893,12.893,0,0,0,1.293-1.359,2.347,2.347,0,0,0,.4-.561c-.057,0-.7.684-1.9,1.692A20.057,20.057,0,0,1,259.2,203.72C257.619,203.919,256.649,203.862,256.64,203.938Z" transform="translate(-228.731 -50.479)" fill="#263238"/>
      <path id="Path_4822" data-name="Path 4822" d="M307.79,196a9.3,9.3,0,0,0,.951,2.034,22.726,22.726,0,0,0,3.089,4.306,20.761,20.761,0,0,0,3.926,3.346,6.845,6.845,0,0,0,1.835.951c0-.057-.656-.466-1.7-1.236a26,26,0,0,1-3.8-3.393,27.649,27.649,0,0,1-3.146-4.106A20.112,20.112,0,0,0,307.79,196Z" transform="translate(-231.261 -50.411)" fill="#263238"/>
      <path id="Path_4823" data-name="Path 4823" d="M314.369,64.875c-1.7.485-5.247-1.711-6.73-2.671A7.908,7.908,0,0,0,304.7,60.75a26.615,26.615,0,0,0-3.669.228,2.205,2.205,0,0,1-2.063-.951v-1.3l7.072-1.435,4.838,2.376Z" transform="translate(-230.825 -43.55)" fill="#ff9a6c"/>
      <path id="Path_4824" data-name="Path 4824" d="M317.479,64.977a21.445,21.445,0,0,1-3.365,0c-2.852-.1-4.182-2.281-4.943-2.852s-4.753-2.985-4.753-2.985l-6.2.893a31.678,31.678,0,0,1-3.688.181A1.274,1.274,0,0,1,293.3,58.58s11.264-3.327,11.521-3.8c.846-1.483,2.928-.951,3.8-.76s14.733,5.675,14.733,5.675l-4.677,5.969Z" transform="translate(-230.542 -43.376)" fill="#ffbf9d"/>
      <path id="Path_4825" data-name="Path 4825" d="M317.466,64.963a1.34,1.34,0,0,1,.323.143l.951.485h-.076l4.582-6.026.076.257-10.456-3.964-3.08-1.15a12.526,12.526,0,0,0-1.6-.523,5.476,5.476,0,0,0-1.654-.171,1.9,1.9,0,0,0-1.4.656l-.114.162a.817.817,0,0,1-.209.209,3.1,3.1,0,0,1-.466.238l-.865.323c-1.15.409-2.329.789-3.526,1.169-2.272.713-4.5,1.388-6.654,2.015l.162-.171a1.027,1.027,0,0,0,.428,1.179,3.27,3.27,0,0,0,1.492.171,24.248,24.248,0,0,0,3.146-.238l5.789-.817h.143l2.728,1.73,1.264.808a6.332,6.332,0,0,1,1.169.827,10.645,10.645,0,0,0,1.9,1.673,5.332,5.332,0,0,0,1.9.779,29.675,29.675,0,0,0,2.985.181h.789a1.842,1.842,0,0,1,.266,0,3.612,3.612,0,0,1-1.055.1,23.452,23.452,0,0,1-3.023-.076,5.362,5.362,0,0,1-2.053-.77,11.2,11.2,0,0,1-1.949-1.635,6.064,6.064,0,0,0-1.131-.779l-1.264-.779-2.738-1.692h.133l-5.789.865c-1.036.143-2.091.209-3.194.257a3.631,3.631,0,0,1-1.73-.219,1.293,1.293,0,0,1-.637-.76,1.9,1.9,0,0,1,0-.951v-.124l.143-.048c2.139-.637,4.363-1.312,6.654-2.025,1.2-.38,2.376-.751,3.517-1.16.285-.1.561-.209.836-.314a2.4,2.4,0,0,0,.342-.162h.086c-.057,0,0-.076,0-.114l.143-.209a2.4,2.4,0,0,1,1.74-.817,8.127,8.127,0,0,1,3.45.722l3.08,1.179,10.389,4.125.219.076-.143.181-4.753,5.9v.057h0l-.875-.532a1.35,1.35,0,0,1-.4-.247Z" transform="translate(-230.528 -43.362)" fill="#ff9a6c"/>
      <path id="Path_4826" data-name="Path 4826" d="M313.673,63.641a2.109,2.109,0,0,1-.4,0,4.277,4.277,0,0,1-1.084-.371,7.7,7.7,0,0,1-2.985-2.937l.133.1-2.082-.295a3.546,3.546,0,0,1-2-1.445l.162.1-2.443-.238h.067c-1.264.266-2.624.542-4.04.779l-.9.133a2.613,2.613,0,0,1-.95,0,2.063,2.063,0,0,1-1.4-1.283l-.1-.238.247-.076a83.824,83.824,0,0,1,8.907-2.471l-.133.133a1.53,1.53,0,0,1,1.2-1.245,2.852,2.852,0,0,1,1.274.076,5.916,5.916,0,0,1,.732.276q.238.114.228.143s-.352-.114-1-.247a2.719,2.719,0,0,0-1.179,0,1.236,1.236,0,0,0-.951,1.036v.114h-.114c-2.224.513-5.3,1.483-8.811,2.623l.152-.314a1.616,1.616,0,0,0,1.055.951,5.883,5.883,0,0,0,1.682-.133c1.407-.238,2.766-.513,4.03-.77h.076l2.443.266h.1l.057.086a3.251,3.251,0,0,0,1.73,1.331l2.053.342h.1l.048.086a7.927,7.927,0,0,0,2.747,2.928,10.454,10.454,0,0,0,1.34.57Z" transform="translate(-230.661 -43.399)" fill="#ff9a6c"/>
      <path id="Path_4827" data-name="Path 4827" d="M309.07,95.986l24.714-12.433-1.093-1.9L318.167,67.584l7.671-10.3L345.124,74.9c8.631,10.047,5.228,14.448-.371,19.61l-15.788,12.614-15.275,11.14Z" transform="translate(-231.324 -43.549)" fill="#fdc72d"/>
      <path id="Path_4828" data-name="Path 4828" d="M319.438,102.15a16.766,16.766,0,0,1-.4,2.7c-.276,1.654-.637,3.945-.9,6.492s-.409,4.857-.485,6.54a18.589,18.589,0,0,1-.171,2.719,12.07,12.07,0,0,1-.171-2.728,57.416,57.416,0,0,1,.333-6.587,59.694,59.694,0,0,1,1.055-6.5A12.945,12.945,0,0,1,319.438,102.15Z" transform="translate(-231.731 -45.769)" fill="#263238"/>
      <path id="Path_4829" data-name="Path 4829" d="M343.566,86.888a19.3,19.3,0,0,1-4.239-.836,18.953,18.953,0,0,1-4.106-1.321,18.621,18.621,0,0,1,4.23.836,19.152,19.152,0,0,1,4.116,1.321Z" transform="translate(-232.618 -44.907)" fill="#263238"/>
      <path id="Path_4830" data-name="Path 4830" d="M271.464,94.68l10.133,7.908,6.416,8.146,2.348-8.45,1.682-6.654,2.757,2.738,7,14.895,7.87,72.022s-13.726,4.021-20.836,4.515-18.431-1.464-18.431-1.464v-37.85l-4.04-37.518L271.227,98.6Z" transform="translate(-229.212 -45.399)" fill="#f5f5f5"/>
      <path id="Path_4831" data-name="Path 4831" d="M293.064,190.21v-.8c0-.532-.047-1.3-.086-2.281-.067-2-.162-4.857-.276-8.384-.247-7.091-.637-16.872-1.2-27.67s-1.179-20.579-1.673-27.651c-.238-3.527-.437-6.378-.58-8.374-.067-.951-.114-1.739-.152-2.281V112a.675.675,0,0,1,0,.2l.057.6c.047.532.124,1.293.209,2.272.181,1.968.409,4.829.675,8.365.542,7.072,1.2,16.843,1.758,27.651s.951,20.589,1.112,27.68c.1,3.546.152,6.416.181,8.393v2.88A.634.634,0,0,1,293.064,190.21Z" transform="translate(-230.337 -46.256)" fill="#263238"/>
      <path id="Path_4832" data-name="Path 4832" d="M268.949,98.477,266.6,101.7,247.41,111.8l10.684,32.575,2.852,18.269-10.789,43.4s13.1,4.506,14.258,3.061a60.447,60.447,0,0,0,3.289-7.139,76.909,76.909,0,0,0,5.494-21.321c.8-7.386,1.53-16.805,1-23.184-1.008-11.939-2.6-31.643-2.738-36.824S270.4,95.93,270.4,95.93Z" transform="translate(-228.275 -45.461)" fill="#fdc72d"/>
      <path id="Path_4833" data-name="Path 4833" d="M293.64,95.92l5.865,2.852,10.456-1.407,6.407,17.927-.247,42.974,9.429,46.092s-6.91,2.443-9.638,1.435-6.473-7.186-6.654-10.931-5.437-39.932-5.437-39.932l-5.171-48.772Z" transform="translate(-230.561 -45.461)" fill="#fdc72d"/>
      <path id="Path_4834" data-name="Path 4834" d="M301.9,100.48a2.729,2.729,0,0,1,.257.285l.713.874,2.642,3.308.057.067-.076.057-2.234,1.692v-.181l2.623.827h.086v.086c-.048,4.677-.114,10.57-.181,16.958-.114,7.794-.219,14.847-.295,19.961-.048,2.538-.086,4.6-.114,6.055a13.193,13.193,0,0,1-.057,1.644v.428a.8.8,0,0,1,0,.143v-8.27c.057-5.133.133-12.2.209-19.961.086-6.388.171-12.281.238-16.958l.086.114-2.614-.855-.295-.076.162-.114,2.262-1.673v.124l-2.576-3.355-.675-.951a1.989,1.989,0,0,1-.219-.228Z" transform="translate(-230.97 -45.686)" fill="#263238"/>
      <path id="Path_4835" data-name="Path 4835" d="M274.523,151.4l-.048-.143-.143-.418c-.124-.39-.295-.951-.523-1.606-.456-1.4-1.141-3.422-2.015-5.9-.447-1.245-.951-2.595-1.445-4.049s-1.036-3.042-1.483-4.753a107.793,107.793,0,0,1-2.053-11.14c-.713-5.19-1.179-10.076-1.454-14.258v-.057h.048l2.262-2.177v.181l-2.148-1.635-.076-.067.057-.076c1.625-2.205,2.947-3.992,3.869-5.256l1.065-1.416c.124-.143.209-.266.285-.361l.1-.124a.246.246,0,0,1-.076.143l-.257.38-1.027,1.454-3.8,5.3v-.152l2.158,1.616.1.086-.1.1-2.243,2.2v-.1c.3,4.2.779,9.087,1.483,14.258a112.375,112.375,0,0,0,2.034,11.121c.437,1.682.951,3.26,1.445,4.753s.951,2.852,1.416,4.068c.846,2.49,1.5,4.525,1.9,5.931.209.7.371,1.255.466,1.625l.114.428C274.523,151.351,274.523,151.4,274.523,151.4Z" transform="translate(-229.162 -45.571)" fill="#263238"/>
      <path id="Path_4836" data-name="Path 4836" d="M288.036,110.766a5.175,5.175,0,0,1-.542-.485l-1.426-1.416c-1.236-1.264-2.9-2.975-4.819-4.924h.238a5.922,5.922,0,0,0-1.236,2.642,5.782,5.782,0,0,0-.124,1.549v.333l-.257-.209c-2.433-1.977-4.411-3.916-5.884-5.237l-1.739-1.559a5.337,5.337,0,0,1-.627-.57,4,4,0,0,1,.694.494c.437.333,1.046.836,1.8,1.492,1.521,1.283,3.517,3.194,5.941,5.152l-.238.124a6.317,6.317,0,0,1,.124-1.625,6.14,6.14,0,0,1,1.321-2.776l.1-.114.1.1,4.753,5,1.369,1.483a4.151,4.151,0,0,1,.447.542Z" transform="translate(-229.472 -45.707)" fill="#263238"/>
      <path id="Path_4837" data-name="Path 4837" d="M295.353,100a1.36,1.36,0,0,1,0,.447,11.326,11.326,0,0,1-.057,1.264,26.666,26.666,0,0,1-.722,4.344l-.086.361-.171-.333a10.706,10.706,0,0,0-1.9-2.576c-.219-.209-.437-.418-.646-.6l.238-.086a39.672,39.672,0,0,1-1.749,5.76c-.276.7-.513,1.264-.694,1.644a2.578,2.578,0,0,1-.3.58,2.924,2.924,0,0,1,.209-.618l.608-1.682a50.447,50.447,0,0,0,1.644-5.7l.047-.238.19.162c.219.19.447.4.665.627a10.16,10.16,0,0,1,1.9,2.652h-.257a32.193,32.193,0,0,0,.817-4.287C295.277,100.589,295.324,100,295.353,100Z" transform="translate(-230.345 -45.663)" fill="#263238"/>
      <path id="Path_4838" data-name="Path 4838" d="M312.1,180.175l1.711,5.323,9.715-.894-3.032-5.095Z" transform="translate(-231.474 -49.595)" fill="#fdc72d"/>
      <path id="Path_4839" data-name="Path 4839" d="M312.1,180.168a3.564,3.564,0,0,1,.58-.076l1.692-.171c1.473-.143,3.593-.342,6.112-.551h.076v.076l3.042,5.085.114.2h-.732l-9.211.817h-.086v-.086c-.523-1.663-.951-3.023-1.207-3.945-.124-.437-.228-.789-.314-1.065a2.013,2.013,0,0,1-.086-.352,3.288,3.288,0,0,1,.152.39l.371,1.065c.323.951.76,2.253,1.3,3.8l-.124-.086,9.211-.884h.494l-.076.333-3.013-5.1.124.067c-2.452.181-4.534.314-6.017.4l-1.739.1Z" transform="translate(-231.473 -49.588)" fill="#263238"/>
      <g id="Group_89096" data-name="Group 89096" transform="translate(74.276 61.837)" opacity="0.3">
        <path id="Path_4840" data-name="Path 4840" d="M305.971,107.89l1.6,2.205s-.447,33.487-2.148,41.824Z" transform="translate(-305.42 -107.89)"/>
      </g>
      <path id="Path_4841" data-name="Path 4841" d="M235.944,170.614a59.558,59.558,0,0,1-1.074-6.844,38.185,38.185,0,0,1,.342-5.893c.8-6.654,11.673-45.217,11.673-45.217l10.941,30.056-5.7,19.961,6.521,39.923-15.209,3.051S238.13,179.682,235.944,170.614Z" transform="translate(-227.654 -46.289)" fill="#fdc72d"/>
      <path id="Path_4842" data-name="Path 4842" d="M245.41,241.7s1.9-18.773,6.283-20.912,10.456-3.527,12.138-.732a33.175,33.175,0,0,1,4.135,11.492,71.605,71.605,0,0,1,.371,11.34l-5.009-.523s.1-18.688-1.435-21.444-9.23-.475-10.057,2.852-2.557,18.288-2.557,18.288Z" transform="translate(-228.176 -51.524)" fill="#455a64"/>
      <path id="Path_4843" data-name="Path 4843" d="M227.28,268.984c.181-7.737.789-24.8,1.065-32.318a3.8,3.8,0,0,1,3.8-3.669l46.006-.067a3.8,3.8,0,0,1,3.8,3.669l1.141,31.786a3.8,3.8,0,0,1-3.8,3.945l-48.2.551a3.8,3.8,0,0,1-3.812-3.9Z" transform="translate(-227.279 -52.238)" fill="#455a64"/>
      <path id="Path_4844" data-name="Path 4844" d="M279.123,245.169v21.178a2.33,2.33,0,0,1-.257,1.226,2.149,2.149,0,0,1-.951.875,2.852,2.852,0,0,1-1.283.2h-5.256l-11.606.067-12.832.067H235.864a3.745,3.745,0,0,1-.951-.048,2.139,2.139,0,0,1-1.454-1.16,2.243,2.243,0,0,1-.2-.789c0-.276,0-.513,0-.77v-4.5c0-1.977.057-3.935.076-5.855.057-3.8.114-7.6.162-11.112v-.171h.171c13.222.713,24.562.846,32.584.817,4.021,0,7.205-.048,9.382-.086h3.156a.684.684,0,0,1,.209,0h-.874l-2.49.1c-2.177.067-5.361.143-9.372.181-8.032.086-19.381,0-32.613-.694l.171-.162c0,3.555-.1,7.272-.143,11.121,0,1.9-.048,3.869-.076,5.846V266a2.852,2.852,0,0,0,.162,1.416,1.816,1.816,0,0,0,1.217.951,3.872,3.872,0,0,0,.827,0h40.93a2.377,2.377,0,0,0,1.169-.171,1.835,1.835,0,0,0,.827-.76,2.071,2.071,0,0,0,.238-1.093v-1.169c.048-6.16.086-11.15.114-14.61,0-1.73,0-3.07.048-4v-1.046C279.133,245.264,279.123,245.169,279.123,245.169Z" transform="translate(-227.575 -52.804)" fill="#263238"/>
      <path id="Path_4845" data-name="Path 4845" d="M266.562,265.888a4.242,4.242,0,0,0,.808-.114,4.059,4.059,0,0,0,1.977-1.122,4.154,4.154,0,0,0,1.1-3.346V253.55a4.04,4.04,0,0,0-.836-2.852,3.8,3.8,0,0,0-2.747-1.435H247.713a3.8,3.8,0,0,0-3.8,3.669v7.728a15.949,15.949,0,0,0,0,1.8,3.8,3.8,0,0,0,1.816,2.709,3.68,3.68,0,0,0,1.511.523,15.27,15.27,0,0,0,1.616,0h5.941l8.6.076h3.156a.843.843,0,0,1-.209,0H247.209a4.116,4.116,0,0,1-3.612-3.479,14.977,14.977,0,0,1-.048-1.844v-7.69a4.144,4.144,0,0,1,4.144-4.011l15.627.048h3.517a4.1,4.1,0,0,1,2.947,1.559,4.315,4.315,0,0,1,.884,2.985v7.756a9.657,9.657,0,0,1,0,1.055,4.34,4.34,0,0,1-.228.95,4.03,4.03,0,0,1-2.994,2.528A3.125,3.125,0,0,1,266.562,265.888Z" transform="translate(-228.083 -53.02)" fill="#263238"/>
      <g id="Group_89097" data-name="Group 89097" transform="translate(7.187 215.643)" opacity="0.3">
        <path id="Path_4846" data-name="Path 4846" d="M234.84,269.909a73.544,73.544,0,0,0,42.118-.209Z" transform="translate(-234.84 -269.7)"/>
      </g>
      <path id="Path_4847" data-name="Path 4847" d="M261.787,254.22H256.36a1.549,1.549,0,0,1-1.54-1.54h0a1.549,1.549,0,0,1,1.549-1.54H261.8a1.54,1.54,0,0,1,1.54,1.54h0a1.54,1.54,0,0,1-1.549,1.54Z" transform="translate(-228.641 -53.138)" fill="#e0e0e0"/>
      <path id="Path_4848" data-name="Path 4848" d="M263.206,214.35a16.285,16.285,0,0,1,2.338,3,44.675,44.675,0,0,1,1.369,6.293s-.951.779-2.452-1.987a24.526,24.526,0,0,1-1.9-4.125Z" transform="translate(-229.024 -51.319)" fill="#ffbf9d"/>
      <path id="Path_4849" data-name="Path 4849" d="M264.134,223.42l-1.644-9.3-5.542-6.654-10.808,2.186,1.9,11.673s2.623,4.477,3.593,5.228,2.433-.238,2.433-.238c1.122,1.169,3.365.209,3.365.209,1.435,1.141,2.966-.5,2.966-.5s1.854,1.122,2.557.884a1.454,1.454,0,0,0,.665-.637A4.04,4.04,0,0,0,264.134,223.42Z" transform="translate(-228.212 -50.978)" fill="#ffbf9d"/>
      <path id="Path_4850" data-name="Path 4850" d="M253.049,225c.1-.057.466.38.808.951s.551,1.141.456,1.2-.466-.39-.817-.951S252.944,225,253.049,225Z" transform="translate(-228.552 -51.845)" fill="#ff9a6c"/>
      <path id="Path_4851" data-name="Path 4851" d="M256.11,224.19a7.762,7.762,0,0,1,.951,1.606,6.233,6.233,0,0,1,.789,1.673c-.086.067-.675-.551-1.16-1.483A3.374,3.374,0,0,1,256.11,224.19Z" transform="translate(-228.705 -51.805)" fill="#ff9a6c"/>
      <path id="Path_4852" data-name="Path 4852" d="M259.687,223.81a4.984,4.984,0,0,1,.675,1.483c.323.827.637,1.473.542,1.54s-.58-.523-.951-1.388S259.573,223.829,259.687,223.81Z" transform="translate(-228.879 -51.787)" fill="#ff9a6c"/>
      <path id="Path_4853" data-name="Path 4853" d="M263.81,217.55a30.42,30.42,0,0,1,1.312,7.053A30.417,30.417,0,0,1,263.81,217.55Z" transform="translate(-229.086 -51.477)" fill="#ff9a6c"/>
      <path id="Path_4854" data-name="Path 4854" d="M252.38,223a.5.5,0,0,1-.181.342,1.293,1.293,0,0,1-.874.314,1.207,1.207,0,0,1-.856-.333c-.181-.162-.219-.314-.181-.342a3.5,3.5,0,0,0,1.046.257A3.28,3.28,0,0,0,252.38,223Z" transform="translate(-228.416 -51.745)" fill="#ff9a6c"/>
      <path id="Path_4855" data-name="Path 4855" d="M256.076,222.9a.447.447,0,0,1-.238.342,1.626,1.626,0,0,1-.951.285,1.54,1.54,0,0,1-.951-.295c-.209-.152-.276-.3-.238-.342a4.974,4.974,0,0,0,1.179.219C255.524,223.1,256,222.814,256.076,222.9Z" transform="translate(-228.585 -51.741)" fill="#ff9a6c"/>
      <path id="Path_4856" data-name="Path 4856" d="M262.774,220.81c0-.057.314.2.124.646a1.987,1.987,0,0,1-1.245.951,2.4,2.4,0,0,1-1.549,0c-.371-.143-.542-.333-.513-.38a4.658,4.658,0,0,0,1.9,0,2.215,2.215,0,0,0,1.112-.684C262.831,221.057,262.727,220.838,262.774,220.81Z" transform="translate(-228.877 -51.638)" fill="#ff9a6c"/>
      <path id="Path_4857" data-name="Path 4857" d="M261.249,163.818c-.133,0-2.053-9.9-4.287-22.167s-3.945-22.243-3.8-22.262,2.053,9.9,4.287,22.166S261.391,163.79,261.249,163.818Z" transform="translate(-228.559 -46.622)" fill="#263238"/>
      <path id="Path_4858" data-name="Path 4858" d="M252.546,165.28a2.377,2.377,0,0,1,.143.551c.086.428.181.951.3,1.606.266,1.464.618,3.469,1.046,5.912.846,5.057,2,11.929,3.26,19.534.713,4.449,1.4,8.65,1.987,12.357v.219h-.209l-11.017,2.12-3.127.561a6.048,6.048,0,0,1-1.112.152,6.918,6.918,0,0,1,1.084-.285l3.1-.684,10.988-2.3-.171.257c-.608-3.679-1.3-7.87-2.034-12.357-1.217-7.6-2.31-14.486-3.118-19.553-.371-2.462-.665-4.468-.893-5.941-.086-.656-.152-1.188-.209-1.616A2.336,2.336,0,0,1,252.546,165.28Z" transform="translate(-228.097 -48.892)" fill="#263238"/>
    </g>
  </g>
</svg>
