<svg xmlns="http://www.w3.org/2000/svg" version="1.1" xmlns:xlink="http://www.w3.org/1999/xlink" xmlns:svgjs="http://svgjs.com/svgjs" width="512" height="512" x="0" y="0" viewBox="0 0 791.454 791.454" style="enable-background:new 0 0 512 512" xml:space="preserve" class=""><g><path fill="#251D36" fill-rule="evenodd" d="M202.808 0h264.609l224.265 233.758v454.661c0 56.956-46.079 103.035-102.838 103.035H202.808c-56.956 0-103.035-46.079-103.035-103.035V103.035C99.772 46.079 145.851 0 202.808 0z" clip-rule="evenodd" data-original="#251d36" class=""></path><g fill="#FFFFFF"><path fill-rule="evenodd" d="M467.219 0v231.978h224.463z" clip-rule="evenodd" opacity=".302" fill="#FFFFFF" data-original="#ffffff"></path><path d="M249.282 577.868V465.34h-41.135v-31.247h118.857v31.247h-40.937v112.528zm211.411 0h-38.564l-26.303-44.102-26.303 44.102h-38.762l45.684-76.733-39.948-67.042h38.564l20.765 34.807 20.568-34.807h38.762l-39.948 67.24zm44.695 0V465.34H464.45v-31.247h118.857v31.247h-41.135v112.528z" fill="#FFFFFF" data-original="#ffffff"></path></g></g></svg>