<?xml version="1.0" encoding="utf-8"?>
<!-- Generator: Adobe Illustrator 26.2.1, SVG Export Plug-In . SVG Version: 6.00 Build 0)  -->
<svg version="1.1" id="Layer_1" xmlns="http://www.w3.org/2000/svg" xmlns:xlink="http://www.w3.org/1999/xlink" x="0px" y="0px"
	 viewBox="0 0 690 570" style="enable-background:new 0 0 690 570;" xml:space="preserve">
<style type="text/css">
	.st0{opacity:0.7;}
	.st1{fill-rule:evenodd;clip-rule:evenodd;fill:#FFFFFF;}
	.st2{fill-rule:evenodd;clip-rule:evenodd;fill:#FCFBFB;}
	.st3{fill-rule:evenodd;clip-rule:evenodd;fill:#F9F8F7;}
	.st4{fill-rule:evenodd;clip-rule:evenodd;fill:#F6F5F4;}
	.st5{fill-rule:evenodd;clip-rule:evenodd;fill:#F4F3F2;}
	.st6{fill-rule:evenodd;clip-rule:evenodd;fill:#F2F1EF;}
	.st7{fill-rule:evenodd;clip-rule:evenodd;fill:#F0EFED;}
	.st8{fill-rule:evenodd;clip-rule:evenodd;fill:#EEEDEB;}
	.st9{fill-rule:evenodd;clip-rule:evenodd;fill:#ECEBE9;}
	.st10{fill-rule:evenodd;clip-rule:evenodd;fill:#EAE9E6;}
	.st11{fill-rule:evenodd;clip-rule:evenodd;fill:#E9E7E4;}
	.st12{fill-rule:evenodd;clip-rule:evenodd;fill:#E7E5E2;}
	.st13{fill-rule:evenodd;clip-rule:evenodd;fill:#E5E3E0;}
	.st14{fill-rule:evenodd;clip-rule:evenodd;fill:#E3E1DE;}
	.st15{fill-rule:evenodd;clip-rule:evenodd;fill:#E1E0DC;}
	.st16{fill-rule:evenodd;clip-rule:evenodd;fill:#DFDEDA;}
	.st17{fill-rule:evenodd;clip-rule:evenodd;fill:#DDDCD8;}
	.st18{fill-rule:evenodd;clip-rule:evenodd;fill:#DBDAD6;}
	.st19{fill-rule:evenodd;clip-rule:evenodd;fill:#DAD8D4;}
	.st20{fill-rule:evenodd;clip-rule:evenodd;fill:#D8D7D2;}
	.st21{fill-rule:evenodd;clip-rule:evenodd;fill:#D6D5D0;}
	.st22{fill-rule:evenodd;clip-rule:evenodd;fill:#D4D3CE;}
	.st23{fill-rule:evenodd;clip-rule:evenodd;fill:#D2D1CC;}
	.st24{fill-rule:evenodd;clip-rule:evenodd;fill:#D0CECA;}
	.st25{fill-rule:evenodd;clip-rule:evenodd;fill:#CECCC7;}
	.st26{fill-rule:evenodd;clip-rule:evenodd;fill:#CBC9C5;}
	.st27{fill-rule:evenodd;clip-rule:evenodd;fill:#C9C7C3;}
	.st28{fill-rule:evenodd;clip-rule:evenodd;fill:#C7C5C0;}
	.st29{fill-rule:evenodd;clip-rule:evenodd;fill:#C5C3BE;}
	.st30{fill-rule:evenodd;clip-rule:evenodd;fill:#C3C0BC;}
	.st31{fill-rule:evenodd;clip-rule:evenodd;fill:#C0BEBA;}
	.st32{fill-rule:evenodd;clip-rule:evenodd;fill:#BEBCB7;}
	.st33{fill-rule:evenodd;clip-rule:evenodd;fill:#BCBAB5;}
	.st34{fill-rule:evenodd;clip-rule:evenodd;fill:#BAB7B3;}
	.st35{fill-rule:evenodd;clip-rule:evenodd;fill:#B8B5B1;}
	.st36{fill-rule:evenodd;clip-rule:evenodd;fill:#B6B3AF;}
	.st37{fill-rule:evenodd;clip-rule:evenodd;fill:#B4B1AD;}
	.st38{fill-rule:evenodd;clip-rule:evenodd;fill:#B1AFAB;}
	.st39{fill-rule:evenodd;clip-rule:evenodd;fill:#AFACA8;}
	.st40{fill-rule:evenodd;clip-rule:evenodd;fill:#ADAAA6;}
	.st41{fill-rule:evenodd;clip-rule:evenodd;fill:#ABA8A4;}
	.st42{fill-rule:evenodd;clip-rule:evenodd;fill:#A9A6A2;}
	.st43{fill-rule:evenodd;clip-rule:evenodd;fill:#A7A4A0;}
	.st44{fill:#BCBCBC;}
	.st45{fill:#EFEFEF;}
	.st46{fill:#010101;}
	.st47{fill:#2B2C2B;}
	.st48{opacity:0.3;fill:#FFFFFF;}
	.st49{fill:url(#SVGID_1_);}
	.st50{fill:#DCDBDB;}
	.st51{fill:#FFFFFF;}
	.st52{fill:url(#SVGID_00000029744551341652275950000003055253290385610169_);}
	.st53{fill:#DAE46C;}
	.st54{fill:#BEB9B1;}
	.st55{fill:#FFFDF9;}
	.st56{fill:#E6E7E7;}
	.st57{fill:#CFD1D2;}
	.st58{fill:#D2D3D4;}
	.st59{fill:#231F20;}
	.st60{enable-background:new    ;}
	.st61{fill:#C0B19D;}
	.st62{fill:#AB9B88;}
	.st63{fill:#CDBEAE;}
	.st64{fill:#E4DFD8;}
	.st65{fill:url(#SVGID_00000179637153608832405420000016100333273205073816_);}
	.st66{fill:url(#SVGID_00000181805315513898011080000003292327069400445334_);}
	.st67{fill:url(#SVGID_00000075154434355563462720000001565114607536544180_);}
	.st68{fill:url(#SVGID_00000040540928532310633120000009786755640305828001_);}
	.st69{fill:url(#SVGID_00000148640916601654501730000006607622419561614234_);}
	.st70{fill:url(#SVGID_00000000211198519982954980000009697054316591167931_);}
	.st71{fill:url(#SVGID_00000178192286610866332580000002816236302669280146_);}
	.st72{fill:#E5B64C;}
	.st73{fill:url(#SVGID_00000149374908319909714620000006247863598733108918_);}
	.st74{fill:#E2E2E2;}
</style>
<g>
	<g class="st0">
		<path class="st1" d="M491.5,336.8l71.3,40.2c13.1,7.5,18.9,13.5,20,18.5c1.4,6.1-4.2,10.9-12.1,15.5l-124.2,71.7l-90.7-5.1
			L250,416.3l140-79.5H491.5z"/>
		<path class="st2" d="M487.7,336.5c2.2,1.3,70.6,39.8,72.8,41.1c12.5,7.2,18,12.9,19.1,17.7c1.3,5.9-4,10.4-11.6,14.8l-125.4,72.4
			l-86.7-4.9c-2.3-1.3-103.7-60.1-105.9-61.4c2.4-1.4,138.3-78.4,140.7-79.8C390.8,336.5,487.5,336.5,487.7,336.5z"/>
		<path class="st3" d="M483.9,336.1c4.4,2.5,69.9,39.4,74.2,41.9c11.9,6.9,17.2,12.3,18.2,16.9c1.3,5.6-3.8,10-11.1,14.2
			l-126.6,73.2l-82.7-4.6c-4.5-2.6-101.5-58.8-106-61.4c4.8-2.7,136.6-77.4,141.4-80.1C391.6,336.1,483.6,336.1,483.9,336.1z"/>
		<path class="st4" d="M480.1,335.8c6.6,3.8,69.1,38.9,75.7,42.7c11.3,6.5,16.3,11.7,17.3,16.1c1.2,5.3-3.6,9.5-10.5,13.5
			l-127.8,73.9l-78.8-4.4c-6.8-3.9-99.4-57.6-106.1-61.5c7.2-4.1,134.9-76.3,142.1-80.4C392.4,335.8,479.6,335.8,480.1,335.8z"/>
		<path class="st5" d="M476.3,335.5c8.8,5.1,68.4,38.5,77.2,43.6c10.7,6.2,15.5,11.1,16.4,15.3c1.1,5.1-3.4,9.1-10,12.9l-129,74.7
			l-74.8-4.2c-9-5.2-97.2-56.3-106.2-61.5c9.6-5.5,133.2-75.2,142.7-80.7C393.1,335.5,475.7,335.5,476.3,335.5z"/>
		<path class="st6" d="M472.5,335.1c10.9,6.3,67.7,38.1,78.6,44.4c10.1,5.8,14.6,10.5,15.5,14.5c1.1,4.8-3.3,8.6-9.5,12.2
			l-130.2,75.4l-70.8-3.9c-11.3-6.5-95.1-55.1-106.4-61.6c12-6.9,131.4-74.1,143.4-81C393.9,335.1,471.7,335.1,472.5,335.1z"/>
		<path class="st7" d="M468.7,334.8c13.1,7.6,66.9,37.7,80.1,45.3c9.5,5.5,13.8,9.9,14.6,13.7c1,4.6-3.1,8.1-8.9,11.5L423,481.4
			l-66.8-3.7c-13.5-7.8-92.9-53.8-106.5-61.7c14.4-8.2,129.7-73.1,144.1-81.3C394.7,334.8,467.8,334.8,468.7,334.8z"/>
		<path class="st8" d="M464.9,334.5c15.3,8.8,66.2,37.2,81.5,46.1c8.9,5.1,12.9,9.3,13.7,12.9c0.9,4.3-2.9,7.7-8.4,10.9L419,481.2
			l-62.8-3.4c-15.8-9.1-90.8-52.6-106.6-61.7c16.8-9.6,128-72,144.8-81.6C395.4,334.5,463.8,334.5,464.9,334.5z"/>
		<path class="st9" d="M461.1,334.1c17.5,10.1,65.5,36.8,83,46.9c8.3,4.8,12.1,8.7,12.8,12.1c0.9,4.1-2.7,7.2-7.9,10.2L415.1,481
			l-58.8-3.2c-18-10.4-88.6-51.3-106.7-61.8c19.2-11,126.3-70.9,145.4-81.9C396.2,334.1,459.9,334.1,461.1,334.1z"/>
		<path class="st10" d="M457.3,333.8c19.7,11.4,64.7,36.4,84.4,47.8c7.7,4.5,11.2,8.1,11.9,11.3c0.8,3.8-2.5,6.8-7.3,9.6l-135,78.4
			l-54.9-3c-20.3-11.7-86.5-50.1-106.8-61.8c21.5-12.4,124.6-69.8,146.1-82.2C397,333.8,455.9,333.8,457.3,333.8z"/>
		<path class="st11" d="M453.5,333.5c21.9,12.6,64,36,85.9,48.6c7.1,4.1,10.3,7.5,10.9,10.5c0.7,3.5-2.3,6.3-6.8,8.9l-136.2,79.1
			l-50.9-2.7c-22.6-13-84.3-48.8-106.9-61.9c23.9-13.7,122.8-68.8,146.8-82.5C397.8,333.5,452,333.5,453.5,333.5z"/>
		<path class="st12" d="M449.7,333.1c24.1,13.9,63.3,35.5,87.3,49.5c6.5,3.8,9.5,6.9,10,9.7c0.7,3.3-2.2,5.9-6.3,8.2l-137.4,79.9
			l-46.9-2.5c-24.8-14.4-82.2-47.6-107-61.9c26.3-15.1,121.1-67.7,147.5-82.8C398.5,333.1,448,333.1,449.7,333.1z"/>
		<path class="st13" d="M445.9,332.8c26.3,15.2,62.5,35.1,88.8,50.3c5.9,3.4,8.6,6.3,9.1,8.9c0.6,3-2,5.4-5.7,7.6l-138.7,80.6
			l-42.9-2.3c-27.1-15.7-80-46.3-107.1-62c28.7-16.5,119.4-66.6,148.1-83.1C399.3,332.8,444.1,332.8,445.9,332.8z"/>
		<path class="st14" d="M442,332.5c28.5,16.4,61.8,34.7,90.2,51.1c5.3,3.1,7.8,5.7,8.2,8.1c0.5,2.8-1.8,5-5.2,6.9L395.4,480l-38.9-2
			c-29.3-17-77.9-45.1-107.2-62.1c31.1-17.8,117.7-65.6,148.8-83.4C400.1,332.5,440.1,332.5,442,332.5z"/>
		<path class="st15" d="M438.2,332.2c30.6,17.7,61.1,34.3,91.7,52c4.8,2.7,6.9,5.1,7.3,7.3c0.5,2.5-1.6,4.5-4.7,6.3l-141.1,82.1
			l-34.9-1.8c-31.6-18.3-75.7-43.8-107.3-62.1c33.5-19.2,116-64.5,149.5-83.7C400.8,332.2,436.2,332.2,438.2,332.2z"/>
		<path class="st16" d="M434.4,331.8c32.8,19,60.3,33.9,93.2,52.8c4.2,2.4,6.1,4.5,6.4,6.5c0.4,2.2-1.4,4-4.1,5.6l-142.3,82.9
			l-31-1.6c-33.8-19.6-73.6-42.6-107.4-62.2c35.9-20.6,114.2-63.4,150.2-84C401.6,331.8,432.2,331.8,434.4,331.8z"/>
		<path class="st17" d="M430.6,331.5c35,20.2,59.6,33.4,94.6,53.6c3.6,2.1,5.2,3.9,5.5,5.7c0.3,2-1.3,3.6-3.6,4.9l-143.5,83.6
			l-27-1.3c-36.1-20.9-71.4-41.3-107.5-62.2c38.3-22,112.5-62.3,150.8-84.3C402.4,331.5,428.3,331.5,430.6,331.5z"/>
		<path class="st18" d="M426.8,331.2c37.2,21.5,58.8,33,96.1,54.5c3,1.7,4.4,3.3,4.6,4.9c0.3,1.7-1.1,3.1-3.1,4.3l-144.7,84.3
			l-23-1.1c-38.3-22.2-69.2-40.1-107.6-62.3c40.7-23.3,110.8-61.3,151.5-84.6C403.2,331.2,424.3,331.2,426.8,331.2z"/>
		<path class="st19" d="M423,330.8c39.4,22.7,58.1,32.6,97.5,55.3c2.4,1.4,3.5,2.7,3.7,4.1c0.2,1.5-0.9,2.7-2.5,3.6l-145.9,85.1
			l-19-0.9c-40.6-23.5-67.1-38.8-107.7-62.3c43.1-24.7,109.1-60.2,152.2-84.9C403.9,330.8,420.4,330.8,423,330.8z"/>
		<path class="st20" d="M419.2,330.5c41.6,24,57.4,32.2,99,56.2c1.8,1,2.7,2.1,2.8,3.3c0.1,1.2-0.7,2.2-2,3l-147.1,85.8l-15-0.6
			c-42.9-24.8-64.9-37.6-107.8-62.4c45.5-26.1,107.4-59.1,152.8-85.2C404.7,330.5,416.4,330.5,419.2,330.5z"/>
		<path class="st21" d="M415.4,330.2c43.8,25.3,56.6,31.7,100.4,57c1.2,0.7,1.8,1.5,1.9,2.5c0.1,1-0.5,1.8-1.5,2.3l-148.3,86.6
			l-11-0.4c-45.1-26.1-62.8-36.4-107.9-62.4c47.9-27.4,105.6-58,153.5-85.5C405.5,330.2,412.4,330.2,415.4,330.2z"/>
		<path class="st22" d="M411.6,329.8c46,26.5,55.9,31.3,101.9,57.8c0.6,0.3,1,0.9,1,1.6c0,0.7-0.3,1.3-1,1.6L364,478.3l-7.1-0.2
			c-47.4-27.4-60.6-35.1-108-62.5c50.3-28.8,103.9-57,154.2-85.8C406.3,329.8,408.5,329.8,411.6,329.8z"/>
		<path class="st23" d="M411.5,329.8c43.8,25.3,58,32.6,101.8,57.9c0.6,0.3,1,0.9,1,1.6c0,0.7-0.3,1.3-1,1.6l-149.6,87.3l-6.7-0.2
			c-45.1-26.1-62.9-36.4-108-62.5c47.9-27.4,106.4-58.4,154.2-85.8C406.2,329.8,408.5,329.8,411.5,329.8z"/>
		<path class="st24" d="M411.3,329.8c41.6,24,60.1,33.8,101.7,57.9c0.6,0.3,1,0.9,1,1.6c0,0.7-0.3,1.3-1,1.6l-149.7,87.4l-6.4-0.2
			c-42.9-24.8-65.1-37.7-107.9-62.5c45.5-26.1,108.8-59.8,154.3-85.9C406.1,329.8,408.5,329.8,411.3,329.8z"/>
		<path class="st25" d="M411.2,329.8c39.4,22.7,62.2,35.1,101.6,57.9c0.6,0.3,1,0.9,1,1.6c0,0.7-0.3,1.3-1,1.6L363,478.3l-6.1-0.1
			c-40.6-23.5-67.3-39-107.9-62.4c43.1-24.7,111.2-61.2,154.3-85.9C406,329.8,408.5,329.8,411.2,329.8z"/>
		<path class="st26" d="M411.1,329.8c37.2,21.5,64.3,36.4,101.5,57.9c0.6,0.3,1,0.9,1,1.6c0,0.7-0.3,1.3-1,1.6l-149.9,87.4l-5.7-0.1
			c-38.3-22.2-69.5-40.2-107.9-62.4c40.7-23.3,113.7-62.6,154.4-86C406,329.8,408.5,329.8,411.1,329.8z"/>
		<path class="st27" d="M410.9,329.7c35,20.2,66.4,37.6,101.4,57.9c0.6,0.3,1,0.9,1,1.6c0,0.7-0.3,1.3-1,1.6l-150,87.4l-5.4-0.1
			c-36.1-20.9-71.7-41.5-107.8-62.4c38.3-22,116.1-64.1,154.4-86C405.9,329.7,408.5,329.7,410.9,329.7z"/>
		<path class="st28" d="M410.8,329.7c32.8,19,68.5,38.9,101.3,57.9c0.6,0.3,1,0.9,1,1.6c0,0.7-0.3,1.3-1,1.6L362,478.3l-5.1-0.1
			c-33.8-19.6-74-42.8-107.8-62.4c35.9-20.6,118.5-65.5,154.5-86.1C405.8,329.7,408.5,329.7,410.8,329.7z"/>
		<path class="st29" d="M410.6,329.7c30.6,17.7,70.6,40.2,101.2,57.9c0.6,0.3,1,0.9,1,1.6c0,0.7-0.3,1.3-1,1.6l-150.2,87.4l-4.7-0.1
			c-31.6-18.3-76.2-44.1-107.8-62.4c33.5-19.2,121-66.9,154.5-86.1C405.8,329.7,408.5,329.7,410.6,329.7z"/>
		<path class="st30" d="M410.5,329.7c28.5,16.4,72.7,41.4,101.2,57.9c0.6,0.4,1,0.9,1,1.6c0,0.7-0.3,1.3-1,1.6l-150.3,87.4l-4.4-0.1
			c-29.3-17-78.4-45.4-107.7-62.3c31.1-17.8,123.4-68.3,154.5-86.1C405.7,329.7,408.5,329.7,410.5,329.7z"/>
		<path class="st31" d="M410.3,329.7c26.3,15.2,74.8,42.7,101.1,57.9c0.6,0.4,1,0.9,1,1.6c0,0.7-0.3,1.3-1,1.6L361,478.2l-4.1-0.1
			c-27.1-15.7-80.6-46.7-107.7-62.3c28.7-16.5,125.9-69.7,154.6-86.2C405.6,329.7,408.5,329.7,410.3,329.7z"/>
		<path class="st32" d="M410.2,329.6c24.1,13.9,76.9,44,101,57.9c0.6,0.4,1,0.9,1,1.6c0,0.7-0.3,1.3-1,1.6l-150.5,87.4l-3.7-0.1
			c-24.8-14.4-82.8-47.9-107.7-62.3c26.3-15.1,128.3-71.1,154.6-86.2C405.5,329.6,408.5,329.6,410.2,329.6z"/>
		<path class="st33" d="M410,329.6c21.9,12.6,79,45.2,100.9,57.9c0.6,0.4,1,0.9,1,1.6c0,0.7-0.3,1.3-1,1.6l-150.6,87.5l-3.4-0.1
			c-22.6-13-85.1-49.2-107.6-62.3c23.9-13.7,130.7-72.5,154.7-86.3C405.5,329.6,408.5,329.6,410,329.6z"/>
		<path class="st34" d="M409.9,329.6c19.7,11.4,81.1,46.5,100.8,57.9c0.6,0.4,1,0.9,1,1.6c0,0.7-0.3,1.3-1,1.6L360,478.2l-3.1-0.1
			c-20.3-11.7-87.3-50.5-107.6-62.3c21.5-12.4,133.2-74,154.7-86.3C405.4,329.6,408.5,329.6,409.9,329.6z"/>
		<path class="st35" d="M409.7,329.6c17.5,10.1,83.2,47.8,100.7,57.9c0.6,0.4,1,0.9,1,1.6c0,0.7-0.3,1.3-1,1.6l-150.8,87.5l-2.7-0.1
			c-18-10.4-89.5-51.8-107.6-62.2c19.2-11,135.6-75.4,154.8-86.3C405.3,329.6,408.5,329.6,409.7,329.6z"/>
		<path class="st36" d="M409.6,329.5c15.3,8.8,85.3,49,100.6,57.9c0.6,0.4,1,0.9,1,1.6c0,0.7-0.3,1.3-1,1.6l-150.9,87.5l-2.4-0.1
			c-15.8-9.1-91.7-53.1-107.5-62.2c16.8-9.6,138-76.8,154.8-86.4C405.3,329.5,408.5,329.5,409.6,329.5z"/>
		<path class="st37" d="M409.4,329.5c13.1,7.6,87.4,50.3,100.5,57.9c0.6,0.4,1,0.9,1,1.6c0,0.7-0.3,1.3-1,1.6l-151,87.5l-2.1,0
			c-13.5-7.8-94-54.4-107.5-62.2c14.4-8.2,140.5-78.2,154.8-86.4C405.2,329.5,408.5,329.5,409.4,329.5z"/>
		<path class="st38" d="M409.3,329.5c10.9,6.3,89.5,51.6,100.4,57.9c0.6,0.4,1,0.9,1,1.6c0,0.7-0.3,1.3-1,1.6l-151,87.5l-1.7,0
			c-11.3-6.5-96.2-55.6-107.5-62.2c12-6.9,142.9-79.6,154.9-86.5C405.1,329.5,408.5,329.5,409.3,329.5z"/>
		<path class="st39" d="M409.1,329.5c8.8,5.1,91.6,52.8,100.3,57.9c0.6,0.4,1,0.9,1,1.6c0,0.7-0.3,1.3-1,1.6l-151.1,87.5l-1.4,0
			c-9-5.2-98.4-56.9-107.4-62.2c9.6-5.5,145.4-81,154.9-86.5C405,329.5,408.5,329.5,409.1,329.5z"/>
		<path class="st40" d="M409,329.5c6.6,3.8,93.7,54.1,100.2,57.9c0.6,0.4,1,0.9,1,1.6c0,0.7-0.3,1.3-1,1.6L358,478.2l-1.1,0
			c-6.8-3.9-100.6-58.2-107.4-62.1c7.2-4.1,147.8-82.4,155-86.6C405,329.5,408.6,329.5,409,329.5z"/>
		<path class="st41" d="M408.9,329.4c4.4,2.5,95.8,55.4,100.2,57.9c0.6,0.4,1,0.9,1,1.6c0,0.7-0.3,1.3-1,1.6l-151.3,87.5l-0.8,0
			c-4.5-2.6-102.8-59.5-107.3-62.1c4.8-2.7,150.2-83.9,155-86.6C404.9,329.4,408.6,329.4,408.9,329.4z"/>
		<path class="st42" d="M408.7,329.4c2.2,1.3,97.9,56.6,100.1,57.9c0.6,0.4,1,0.9,1,1.6c0,0.7-0.3,1.3-1,1.6l-151.4,87.6l-0.4,0
			c-2.3-1.3-105.1-60.8-107.3-62.1c2.4-1.4,152.7-85.3,155.1-86.6C404.8,329.4,408.6,329.4,408.7,329.4z"/>
		<path class="st43" d="M408.6,329.4l100,57.9c0.6,0.4,1,0.9,1,1.6c0,0.7-0.3,1.3-1,1.6L357,478.1l-0.1,0l-107.3-62.1l155.1-86.7
			H408.6z"/>
	</g>
	<g class="st0">
		<path class="st1" d="M309.7,476.3l28.6,16.1c5.2,3,7.6,5.4,8,7.4c0.6,2.5-1.7,4.4-4.9,6.2l-49.8,28.8l-36.4-2l-42.5-24.6
			l56.2-31.9H309.7z"/>
		<path class="st2" d="M308.1,476.2c0.9,0.5,28.3,16,29.2,16.5c5,2.9,7.2,5.2,7.7,7.1c0.5,2.4-1.6,4.2-4.7,5.9l-50.3,29.1l-34.8-1.9
			c-0.9-0.5-41.6-24.1-42.5-24.6c1-0.6,55.5-31.5,56.5-32C269.3,476.2,308.1,476.2,308.1,476.2z"/>
		<path class="st3" d="M306.6,476.1c1.8,1,28,15.8,29.8,16.8c4.8,2.7,6.9,4.9,7.3,6.8c0.5,2.2-1.5,4-4.4,5.7l-50.8,29.4l-33.2-1.9
			c-1.8-1-40.7-23.6-42.5-24.6c1.9-1.1,54.8-31,56.7-32.1C269.6,476.1,306.5,476.1,306.6,476.1z"/>
		<path class="st4" d="M305.1,476c2.6,1.5,27.7,15.6,30.4,17.1c4.5,2.6,6.6,4.7,6.9,6.5c0.5,2.1-1.5,3.8-4.2,5.4l-51.3,29.7
			l-31.6-1.8c-2.7-1.6-39.9-23.1-42.6-24.7c2.9-1.7,54.1-30.6,57-32.3C269.9,476,304.9,476,305.1,476z"/>
		<path class="st5" d="M303.6,475.8c3.5,2,27.4,15.5,30.9,17.5c4.3,2.5,6.2,4.5,6.6,6.1c0.5,2-1.4,3.6-4,5.2l-51.7,30l-30-1.7
			c-3.6-2.1-39-22.6-42.6-24.7c3.8-2.2,53.4-30.2,57.3-32.4C270.2,475.8,303.3,475.8,303.6,475.8z"/>
		<path class="st6" d="M302,475.7c4.4,2.5,27.1,15.3,31.5,17.8c4,2.3,5.9,4.2,6.2,5.8c0.4,1.9-1.3,3.5-3.8,4.9l-52.2,30.2l-28.4-1.6
			c-4.5-2.6-38.1-22.1-42.7-24.7c4.8-2.8,52.7-29.7,57.5-32.5C270.5,475.7,301.7,475.7,302,475.7z"/>
		<path class="st7" d="M300.5,475.6c5.3,3,26.8,15.1,32.1,18.2c3.8,2.2,5.5,4,5.8,5.5c0.4,1.8-1.2,3.3-3.6,4.6l-52.7,30.5l-26.8-1.5
			c-5.4-3.1-37.3-21.6-42.7-24.7c5.8-3.3,52-29.3,57.8-32.6C270.8,475.6,300.2,475.6,300.5,475.6z"/>
		<path class="st8" d="M299,475.4c6.1,3.5,26.6,14.9,32.7,18.5c3.6,2.1,5.2,3.7,5.5,5.2c0.4,1.7-1.2,3.1-3.4,4.4l-53.2,30.8
			l-25.2-1.4c-6.3-3.7-36.4-21.1-42.7-24.8c6.7-3.9,51.4-28.9,58.1-32.7C271.2,475.4,298.6,475.4,299,475.4z"/>
		<path class="st9" d="M297.5,475.3c7,4.1,26.3,14.8,33.3,18.8c3.3,1.9,4.8,3.5,5.1,4.9c0.3,1.6-1.1,2.9-3.2,4.1L279,534.2
			l-23.6-1.3c-7.2-4.2-35.5-20.6-42.8-24.8c7.7-4.4,50.7-28.4,58.3-32.9C271.5,475.3,297,475.3,297.5,475.3z"/>
		<path class="st10" d="M295.9,475.2c7.9,4.6,26,14.6,33.9,19.2c3.1,1.8,4.5,3.3,4.8,4.5c0.3,1.5-1,2.7-2.9,3.8l-54.2,31.4l-22-1.2
			c-8.1-4.7-34.7-20.1-42.8-24.8c8.6-5,50-28,58.6-33C271.8,475.2,295.4,475.2,295.9,475.2z"/>
		<path class="st11" d="M294.4,475c8.8,5.1,25.7,14.4,34.5,19.5c2.9,1.7,4.2,3,4.4,4.2c0.3,1.4-0.9,2.5-2.7,3.6L275.9,534l-20.4-1.1
			c-9-5.2-33.8-19.6-42.9-24.8c9.6-5.5,49.3-27.6,58.9-33.1C272.1,475,293.8,475,294.4,475z"/>
		<path class="st12" d="M292.9,474.9c9.7,5.6,25.4,14.3,35,19.8c2.6,1.5,3.8,2.8,4,3.9c0.3,1.3-0.9,2.4-2.5,3.3l-55.1,32l-18.8-1
			c-10-5.8-33-19.1-42.9-24.8c10.6-6.1,48.6-27.2,59.2-33.2C272.4,474.9,292.2,474.9,292.9,474.9z"/>
		<path class="st13" d="M291.4,474.8c10.5,6.1,25.1,14.1,35.6,20.2c2.4,1.4,3.5,2.5,3.7,3.6c0.2,1.2-0.8,2.2-2.3,3l-55.6,32.3
			l-17.2-0.9c-10.9-6.3-32.1-18.6-43-24.9c11.5-6.6,47.9-26.7,59.4-33.3C272.7,474.8,290.7,474.8,291.4,474.8z"/>
		<path class="st14" d="M289.8,474.6c11.4,6.6,24.8,13.9,36.2,20.5c2.1,1.2,3.1,2.3,3.3,3.2c0.2,1.1-0.7,2-2.1,2.8l-56.1,32.6
			l-15.6-0.8c-11.8-6.8-31.2-18.1-43-24.9c12.5-7.2,47.2-26.3,59.7-33.5C273,474.6,289.1,474.6,289.8,474.6z"/>
		<path class="st15" d="M288.3,474.5c12.3,7.1,24.5,13.8,36.8,20.8c1.9,1.1,2.8,2.1,2.9,2.9c0.2,1-0.7,1.8-1.9,2.5l-56.6,32.9
			l-14-0.7c-12.7-7.3-30.4-17.6-43-24.9c13.4-7.7,46.5-25.9,60-33.6C273.3,474.5,287.5,474.5,288.3,474.5z"/>
		<path class="st16" d="M286.8,474.4c13.2,7.6,24.2,13.6,37.4,21.2c1.7,1,2.4,1.8,2.6,2.6c0.2,0.9-0.6,1.6-1.7,2.2L268,533.6
			l-12.4-0.6c-13.6-7.9-29.5-17.1-43.1-24.9c14.4-8.3,45.8-25.4,60.2-33.7C273.6,474.4,285.9,474.4,286.8,474.4z"/>
		<path class="st17" d="M285.3,474.2c14.1,8.1,23.9,13.4,38,21.5c1.4,0.8,2.1,1.6,2.2,2.3c0.1,0.8-0.5,1.4-1.5,2l-57.6,33.5
			l-10.8-0.5c-14.5-8.4-28.6-16.6-43.1-25c15.4-8.8,45.1-25,60.5-33.8C273.9,474.2,284.3,474.2,285.3,474.2z"/>
		<path class="st18" d="M283.7,474.1c14.9,8.6,23.6,13.2,38.5,21.9c1.2,0.7,1.8,1.3,1.8,1.9c0.1,0.7-0.4,1.3-1.2,1.7l-58,33.8
			l-9.2-0.4c-15.4-8.9-27.8-16.1-43.2-25c16.3-9.4,44.4-24.6,60.8-33.9C274.3,474.1,282.7,474.1,283.7,474.1z"/>
		<path class="st19" d="M282.2,474c15.8,9.1,23.3,13.1,39.1,22.2c1,0.6,1.4,1.1,1.5,1.6c0.1,0.6-0.4,1.1-1,1.5l-58.5,34.1l-7.6-0.4
			c-16.3-9.4-26.9-15.6-43.2-25c17.3-9.9,43.8-24.1,61-34.1C274.6,474,281.1,474,282.2,474z"/>
		<path class="st20" d="M280.7,473.8c16.7,9.6,23,12.9,39.7,22.5c0.7,0.4,1.1,0.9,1.1,1.3c0.1,0.5-0.3,0.9-0.8,1.2l-59,34.4l-6-0.3
			c-17.2-9.9-26.1-15.1-43.2-25c18.2-10.5,43.1-23.7,61.3-34.2C274.9,473.8,279.6,473.8,280.7,473.8z"/>
		<path class="st21" d="M279.2,473.7c17.6,10.1,22.7,12.7,40.3,22.9c0.5,0.3,0.7,0.6,0.7,1c0,0.4-0.2,0.7-0.6,0.9l-59.5,34.7
			l-4.4-0.2c-18.1-10.5-25.2-14.6-43.3-25.1c19.2-11,42.4-23.3,61.6-34.3C275.2,473.7,278,473.7,279.2,473.7z"/>
		<path class="st22" d="M277.6,473.6c18.4,10.6,22.4,12.6,40.9,23.2c0.2,0.1,0.4,0.4,0.4,0.7s-0.1,0.5-0.4,0.7l-60,35l-2.8-0.1
			c-19-11-24.3-14.1-43.3-25.1c20.2-11.6,41.7-22.9,61.9-34.4C275.5,473.6,276.4,473.6,277.6,473.6z"/>
		<path class="st23" d="M277.6,473.6c17.6,10.1,23.3,13.1,40.8,23.2c0.2,0.1,0.4,0.4,0.4,0.7s-0.1,0.5-0.4,0.7l-60,35l-2.7-0.1
			c-18.1-10.5-25.2-14.6-43.3-25.1c19.2-11,42.7-23.4,61.9-34.4C275.5,473.6,276.4,473.6,277.6,473.6z"/>
		<path class="st24" d="M277.5,473.5c16.7,9.6,24.1,13.6,40.8,23.2c0.2,0.1,0.4,0.4,0.4,0.7s-0.1,0.5-0.4,0.7l-60.1,35l-2.6-0.1
			c-17.2-9.9-26.1-15.1-43.3-25.1c18.2-10.5,43.6-24,61.9-34.5C275.4,473.5,276.4,473.5,277.5,473.5z"/>
		<path class="st25" d="M277.5,473.5c15.8,9.1,25,14.1,40.8,23.2c0.2,0.1,0.4,0.4,0.4,0.7c0,0.3-0.1,0.5-0.4,0.7l-60.1,35l-2.4-0.1
			c-16.3-9.4-27-15.6-43.3-25c17.3-9.9,44.6-24.6,61.9-34.5C275.4,473.5,276.4,473.5,277.5,473.5z"/>
		<path class="st26" d="M277.4,473.5c14.9,8.6,25.8,14.6,40.7,23.2c0.2,0.1,0.4,0.4,0.4,0.7c0,0.3-0.1,0.5-0.4,0.7L258,533.1
			l-2.3-0.1c-15.4-8.9-27.9-16.1-43.3-25c16.3-9.4,45.6-25.1,61.9-34.5C275.4,473.5,276.4,473.5,277.4,473.5z"/>
		<path class="st27" d="M277.4,473.5c14.1,8.1,26.6,15.1,40.7,23.2c0.2,0.1,0.4,0.4,0.4,0.7c0,0.3-0.1,0.5-0.4,0.7l-60.2,35.1
			l-2.2-0.1c-14.5-8.4-28.8-16.7-43.3-25c15.4-8.8,46.6-25.7,61.9-34.5C275.3,473.5,276.4,473.5,277.4,473.5z"/>
		<path class="st28" d="M277.3,473.5c13.2,7.6,27.5,15.6,40.7,23.2c0.2,0.1,0.4,0.4,0.4,0.7c0,0.3-0.1,0.5-0.4,0.7l-60.2,35.1l-2,0
			c-13.6-7.9-29.7-17.2-43.2-25c14.4-8.3,47.6-26.3,62-34.5C275.3,473.5,276.4,473.5,277.3,473.5z"/>
		<path class="st29" d="M277.2,473.5c12.3,7.1,28.3,16.1,40.6,23.2c0.2,0.1,0.4,0.4,0.4,0.7c0,0.3-0.1,0.5-0.4,0.7l-60.3,35.1
			l-1.9,0c-12.7-7.3-30.6-17.7-43.2-25c13.4-7.7,48.5-26.8,62-34.5C275.3,473.5,276.4,473.5,277.2,473.5z"/>
		<path class="st30" d="M277.2,473.5c11.4,6.6,29.2,16.6,40.6,23.2c0.2,0.1,0.4,0.4,0.4,0.7c0,0.3-0.1,0.5-0.4,0.7l-60.3,35.1
			l-1.8,0c-11.8-6.8-31.5-18.2-43.2-25c12.5-7.2,49.5-27.4,62-34.6C275.3,473.5,276.4,473.5,277.2,473.5z"/>
		<path class="st31" d="M277.1,473.5c10.5,6.1,30,17.1,40.5,23.2c0.2,0.1,0.4,0.4,0.4,0.7c0,0.3-0.1,0.5-0.4,0.7l-60.3,35.1l-1.6,0
			c-10.9-6.3-32.3-18.7-43.2-25c11.5-6.6,50.5-28,62-34.6C275.2,473.5,276.4,473.5,277.1,473.5z"/>
		<path class="st32" d="M277.1,473.5c9.7,5.6,30.8,17.6,40.5,23.2c0.2,0.1,0.4,0.4,0.4,0.7s-0.1,0.5-0.4,0.7l-60.4,35.1l-1.5,0
			c-10-5.8-33.2-19.2-43.2-25c10.6-6.1,51.5-28.5,62-34.6C275.2,473.5,276.4,473.5,277.1,473.5z"/>
		<path class="st33" d="M277,473.5c8.8,5.1,31.7,18.1,40.5,23.2c0.2,0.1,0.4,0.4,0.4,0.7s-0.1,0.5-0.4,0.7l-60.4,35.1l-1.4,0
			c-9-5.2-34.1-19.7-43.2-25c9.6-5.5,52.4-29.1,62-34.6C275.2,473.5,276.4,473.5,277,473.5z"/>
		<path class="st34" d="M276.9,473.5c7.9,4.6,32.5,18.7,40.4,23.2c0.2,0.1,0.4,0.4,0.4,0.7c0,0.3-0.1,0.5-0.4,0.7l-60.4,35.1l-1.2,0
			c-8.1-4.7-35-20.3-43.2-25c8.6-5,53.4-29.7,62.1-34.6C275.1,473.5,276.4,473.5,276.9,473.5z"/>
		<path class="st35" d="M276.9,473.5c7,4.1,33.4,19.2,40.4,23.2c0.2,0.1,0.4,0.4,0.4,0.7c0,0.3-0.1,0.5-0.4,0.7l-60.5,35.1l-1.1,0
			c-7.2-4.2-35.9-20.8-43.1-25c7.7-4.4,54.4-30.2,62.1-34.6C275.1,473.5,276.4,473.5,276.9,473.5z"/>
		<path class="st36" d="M276.8,473.4c6.1,3.5,34.2,19.7,40.4,23.2c0.2,0.1,0.4,0.4,0.4,0.7c0,0.3-0.1,0.5-0.4,0.7l-60.5,35.1l-1,0
			c-6.3-3.7-36.8-21.3-43.1-25c6.7-3.9,55.4-30.8,62.1-34.7C275.1,473.4,276.4,473.4,276.8,473.4z"/>
		<path class="st37" d="M276.8,473.4c5.3,3,35.1,20.2,40.3,23.2c0.2,0.1,0.4,0.4,0.4,0.7c0,0.3-0.1,0.5-0.4,0.7l-60.6,35.1l-0.8,0
			c-5.4-3.1-37.7-21.8-43.1-24.9c5.8-3.3,56.4-31.4,62.1-34.7C275.1,473.4,276.4,473.4,276.8,473.4z"/>
		<path class="st38" d="M276.7,473.4c4.4,2.5,35.9,20.7,40.3,23.2c0.2,0.1,0.4,0.4,0.4,0.7c0,0.3-0.1,0.5-0.4,0.7l-60.6,35.1l-0.7,0
			c-4.5-2.6-38.6-22.3-43.1-24.9c4.8-2.8,57.3-31.9,62.1-34.7C275,473.4,276.4,473.4,276.7,473.4z"/>
		<path class="st39" d="M276.6,473.4c3.5,2,36.7,21.2,40.3,23.2c0.2,0.1,0.4,0.4,0.4,0.7c0,0.3-0.1,0.5-0.4,0.7l-60.6,35.1l-0.6,0
			c-3.6-2.1-39.5-22.8-43.1-24.9c3.8-2.2,58.3-32.5,62.2-34.7C275,473.4,276.4,473.4,276.6,473.4z"/>
		<path class="st40" d="M276.6,473.4c2.6,1.5,37.6,21.7,40.2,23.2c0.2,0.1,0.4,0.4,0.4,0.7c0,0.3-0.1,0.5-0.4,0.7l-60.7,35.1l-0.4,0
			c-2.7-1.6-40.4-23.4-43.1-24.9c2.9-1.7,59.3-33.1,62.2-34.7C275,473.4,276.4,473.4,276.6,473.4z"/>
		<path class="st41" d="M276.5,473.4c1.8,1,38.4,22.2,40.2,23.2c0.2,0.1,0.4,0.4,0.4,0.7c0,0.3-0.1,0.5-0.4,0.7L256,533.1l-0.3,0
			c-1.8-1-41.3-23.9-43.1-24.9c1.9-1.1,60.3-33.6,62.2-34.7C274.9,473.4,276.4,473.4,276.5,473.4z"/>
		<path class="st42" d="M276.5,473.4c0.9,0.5,39.3,22.7,40.1,23.2c0.2,0.1,0.4,0.4,0.4,0.7c0,0.3-0.1,0.5-0.4,0.7l-60.7,35.1l-0.2,0
			c-0.9-0.5-42.1-24.4-43-24.9c1-0.6,61.2-34.2,62.2-34.8C274.9,473.4,276.4,473.4,276.5,473.4z"/>
		<path class="st43" d="M276.4,473.4l40.1,23.2c0.2,0.1,0.4,0.4,0.4,0.7c0,0.3-0.1,0.5-0.4,0.7l-60.8,35.1l0,0l-43-24.9l62.2-34.8
			H276.4z"/>
	</g>
	<g class="st0">
		<path class="st1" d="M329.4,317.1l17.2,9.7c3.1,1.8,4.5,3.2,4.8,4.5c0.3,1.5-1,2.6-2.9,3.7l-29.9,17.2l-21.8-1.2l-17.5-9.9
			l32.2-20.2L329.4,317.1z"/>
		<path class="st2" d="M328.8,317.3c0.5,0.3,16.7,9.4,17.2,9.7c3,1.7,4.3,3.1,4.6,4.3c0.3,1.4-1,2.5-2.8,3.6l-30.2,17.4l-20.9-1.2
			c-0.5-0.3-17-9.6-17.6-9.9c0.6-0.3,31.7-19.9,32.3-20.2C311.6,320.9,328.8,317.3,328.8,317.3z"/>
		<path class="st3" d="M328.2,317.4c1.1,0.6,16.2,9.1,17.3,9.7c2.9,1.6,4.1,3,4.4,4.1c0.3,1.3-0.9,2.4-2.7,3.4l-30.5,17.6l-19.9-1.1
			c-1.1-0.6-16.5-9.3-17.6-9.9c1.2-0.7,31.3-19.6,32.5-20.3C311.8,320.8,328.1,317.4,328.2,317.4z"/>
		<path class="st4" d="M327.6,317.5c1.6,0.9,15.7,8.8,17.3,9.7c2.7,1.6,3.9,2.8,4.2,3.9c0.3,1.3-0.9,2.3-2.5,3.3l-30.7,17.8l-19-1.1
			c-1.6-0.9-16-9-17.6-9.9c1.7-1,30.9-19.4,32.6-20.4C311.9,320.7,327.5,317.5,327.6,317.5z"/>
		<path class="st5" d="M327,317.6c2.1,1.2,15.2,8.5,17.3,9.8c2.6,1.5,3.7,2.7,3.9,3.7c0.3,1.2-0.8,2.2-2.4,3.1l-31,18l-18-1
			c-2.2-1.3-15.5-8.7-17.6-9.9c2.3-1.3,30.5-19.1,32.8-20.4C312.1,320.7,326.8,317.6,327,317.6z"/>
		<path class="st6" d="M326.4,317.7c2.6,1.5,14.8,8.3,17.4,9.8c2.4,1.4,3.5,2.5,3.7,3.5c0.3,1.2-0.8,2.1-2.3,2.9L313.9,352l-17-0.9
			c-2.7-1.6-15-8.4-17.7-10c2.9-1.7,30.1-18.9,33-20.5C312.3,320.6,326.2,317.7,326.4,317.7z"/>
		<path class="st7" d="M325.8,317.8c3.2,1.8,14.3,8,17.4,9.8c2.3,1.3,3.3,2.4,3.5,3.3c0.2,1.1-0.7,2-2.2,2.8L312.9,352l-16.1-0.9
			c-3.3-1.9-14.4-8.1-17.7-10c3.5-2,29.7-18.6,33.1-20.6C312.5,320.5,325.5,317.8,325.8,317.8z"/>
		<path class="st8" d="M325.1,317.9c3.7,2.1,13.8,7.7,17.5,9.8c2.1,1.2,3.1,2.2,3.3,3.1c0.2,1-0.7,1.9-2,2.6L312,351.9l-15.1-0.8
			c-3.8-2.2-13.9-7.8-17.7-10c4-2.3,29.3-18.4,33.3-20.7C312.7,320.4,324.9,317.9,325.1,317.9z"/>
		<path class="st9" d="M324.5,318c4.2,2.4,13.3,7.4,17.5,9.8c2,1.2,2.9,2.1,3.1,2.9c0.2,1-0.7,1.7-1.9,2.5L311,351.9l-14.2-0.8
			c-4.3-2.5-13.4-7.5-17.7-10c4.6-2.6,28.8-18.1,33.4-20.7C312.9,320.3,324.2,318,324.5,318z"/>
		<path class="st10" d="M323.9,318.1c4.7,2.7,12.8,7.1,17.6,9.9c1.9,1.1,2.7,2,2.9,2.7c0.2,0.9-0.6,1.6-1.8,2.3l-32.5,18.9
			l-13.2-0.7c-4.9-2.8-12.9-7.2-17.8-10c5.2-3,28.4-17.8,33.6-20.8C313.1,320.3,323.6,318.1,323.9,318.1z"/>
		<path class="st11" d="M323.3,318.2c5.3,3,12.4,6.8,17.6,9.9c1.7,1,2.5,1.8,2.6,2.5c0.2,0.9-0.6,1.5-1.6,2.1l-32.8,19l-12.2-0.7
			c-5.4-3.1-12.4-6.9-17.8-10c5.8-3.3,28-17.6,33.8-20.9C313.2,320.2,322.9,318.2,323.3,318.2z"/>
		<path class="st12" d="M322.7,318.3c5.8,3.3,11.9,6.5,17.7,9.9c1.6,0.9,2.3,1.7,2.4,2.3c0.2,0.8-0.5,1.4-1.5,2l-33.1,19.2
			l-11.3-0.6c-6-3.5-11.9-6.6-17.8-10c6.3-3.6,27.6-17.3,33.9-21C313.4,320.1,322.3,318.3,322.7,318.3z"/>
		<path class="st13" d="M322.1,318.4c6.3,3.6,11.4,6.3,17.7,9.9c1.4,0.8,2.1,1.5,2.2,2.1c0.1,0.7-0.5,1.3-1.4,1.8l-33.4,19.4
			l-10.3-0.5c-6.5-3.8-11.3-6.3-17.8-10c6.9-4,27.2-17.1,34.1-21C313.6,320,321.7,318.4,322.1,318.4z"/>
		<path class="st14" d="M321.5,318.5c6.8,4,10.9,6,17.8,9.9c1.3,0.7,1.9,1.4,2,1.9c0.1,0.7-0.4,1.2-1.3,1.7l-33.7,19.6l-9.4-0.5
			c-7.1-4.1-10.8-6-17.9-10.1c7.5-4.3,26.8-16.8,34.3-21.1C313.8,320,321,318.5,321.5,318.5z"/>
		<path class="st15" d="M320.9,318.6c7.4,4.3,10.4,5.7,17.8,9.9c1.1,0.7,1.7,1.2,1.8,1.7c0.1,0.6-0.4,1.1-1.1,1.5l-33.9,19.8
			l-8.4-0.4c-7.6-4.4-10.3-5.7-17.9-10.1c8.1-4.6,26.4-16.5,34.4-21.2C314,319.9,320.4,318.6,320.9,318.6z"/>
		<path class="st16" d="M320.3,318.7c7.9,4.6,10,5.4,17.9,10c1,0.6,1.5,1.1,1.5,1.6c0.1,0.5-0.3,1-1,1.3l-34.2,19.9l-7.4-0.4
			c-8.1-4.7-9.8-5.4-17.9-10.1c8.6-5,25.9-16.3,34.6-21.2C314.2,319.8,319.7,318.7,320.3,318.7z"/>
		<path class="st17" d="M319.6,318.8c8.4,4.9,9.5,5.1,17.9,10c0.9,0.5,1.3,0.9,1.3,1.4c0.1,0.5-0.3,0.9-0.9,1.2l-34.5,20.1l-6.5-0.3
			c-8.7-5-9.3-5.1-17.9-10.1c9.2-5.3,25.5-16,34.7-21.3C314.4,319.7,319.1,318.8,319.6,318.8z"/>
		<path class="st18" d="M319,318.9c9,5.2,9,4.8,18,10c0.7,0.4,1.1,0.8,1.1,1.2c0.1,0.4-0.3,0.8-0.7,1l-34.8,20.3l-5.5-0.3
			c-9.2-5.3-8.7-4.8-18-10.1c9.8-5.6,25.1-15.8,34.9-21.4C314.5,319.6,318.4,318.9,319,318.9z"/>
		<path class="st19" d="M318.4,319c9.5,5.5,8.5,4.6,18,10c0.6,0.3,0.8,0.7,0.9,1c0,0.4-0.2,0.6-0.6,0.9l-35.1,20.5l-4.6-0.2
			c-9.8-5.7-8.2-4.5-18-10.1c10.4-5.9,24.7-15.5,35.1-21.5C314.7,319.6,317.8,319,318.4,319z"/>
		<path class="st20" d="M317.8,319.1c10,5.8,8,4.3,18,10c0.4,0.2,0.6,0.5,0.7,0.8c0,0.3-0.2,0.5-0.5,0.7l-35.4,20.7l-3.6-0.2
			c-10.3-6-7.7-4.2-18-10.1c10.9-6.3,24.3-15.3,35.2-21.5C314.9,319.5,317.1,319.1,317.8,319.1z"/>
		<path class="st21" d="M317.2,319.2c10.5,6.1,7.6,4,18.1,10.1c0.3,0.2,0.4,0.4,0.4,0.6c0,0.2-0.1,0.4-0.4,0.6l-35.7,20.8l-2.7-0.1
			c-10.9-6.3-7.2-3.9-18-10.2c11.5-6.6,23.9-15,35.4-21.6C315.1,319.4,316.5,319.2,317.2,319.2z"/>
		<path class="st22" d="M316.6,319.3c11.1,6.4,7.1,3.7,18.1,10.1c0.1,0.1,0.2,0.2,0.2,0.4c0,0.2-0.1,0.3-0.2,0.4l-36,21l-1.7,0
			c-11.4-6.6-6.7-3.6-18.1-10.2c12.1-6.9,23.5-14.7,35.6-21.7C315.3,319.3,315.8,319.3,316.6,319.3z"/>
		<path class="st23" d="M316.5,319.3c10.5,6.1,7.6,4,18.1,10.1c0.1,0.1,0.2,0.2,0.2,0.4c0,0.2-0.1,0.3-0.2,0.4l-36,21l-1.6,0
			c-10.9-6.3-7.2-3.9-18.1-10.2c11.5-6.6,24-15.1,35.6-21.7C315.3,319.3,315.8,319.3,316.5,319.3z"/>
		<path class="st24" d="M316.5,319.3c10,5.8,8.1,4.3,18.1,10.1c0.1,0.1,0.2,0.2,0.2,0.4c0,0.2-0.1,0.3-0.2,0.4l-36,21l-1.5,0
			c-10.3-6-7.7-4.2-18.1-10.2c10.9-6.3,24.6-15.4,35.6-21.7C315.3,319.3,315.8,319.3,316.5,319.3z"/>
		<path class="st25" d="M316.5,319.3c9.5,5.5,8.6,4.6,18.1,10.1c0.1,0.1,0.2,0.2,0.2,0.4c0,0.2-0.1,0.3-0.2,0.4l-36,21l-1.5,0
			c-9.8-5.7-8.3-4.5-18-10.2c10.4-5.9,25.2-15.8,35.6-21.7C315.2,319.3,315.8,319.3,316.5,319.3z"/>
		<path class="st26" d="M316.4,319.3c9,5.2,9.1,4.9,18.1,10.1c0.1,0.1,0.2,0.2,0.2,0.4c0,0.2-0.1,0.3-0.2,0.4l-36.1,21l-1.4,0
			c-9.2-5.3-8.8-4.8-18-10.2c9.8-5.6,25.8-16.1,35.6-21.7C315.2,319.3,315.8,319.3,316.4,319.3z"/>
		<path class="st27" d="M316.4,319.3c8.4,4.9,9.6,5.2,18,10.1c0.1,0.1,0.2,0.2,0.2,0.4c0,0.2-0.1,0.3-0.2,0.4l-36.1,21l-1.3,0
			c-8.7-5-9.3-5.1-18-10.1c9.2-5.3,26.4-16.4,35.6-21.7C315.2,319.3,315.8,319.3,316.4,319.3z"/>
		<path class="st28" d="M316.4,319.3c7.9,4.6,10.1,5.5,18,10.1c0.1,0.1,0.2,0.2,0.2,0.4c0,0.2-0.1,0.3-0.2,0.4l-36.1,21l-1.2,0
			c-8.1-4.7-9.9-5.4-18-10.1c8.6-5,27-16.8,35.6-21.7C315.2,319.3,315.8,319.3,316.4,319.3z"/>
		<path class="st29" d="M316.3,319.3c7.4,4.3,10.6,5.8,18,10.1c0.1,0.1,0.2,0.2,0.2,0.4c0,0.2-0.1,0.3-0.2,0.4l-36.1,21l-1.1,0
			c-7.6-4.4-10.4-5.7-18-10.1c8.1-4.6,27.6-17.1,35.6-21.7C315.2,319.3,315.8,319.3,316.3,319.3z"/>
		<path class="st30" d="M316.3,319.3c6.8,4,11.1,6.1,18,10.1c0.1,0.1,0.2,0.2,0.2,0.4c0,0.2-0.1,0.3-0.2,0.4l-36.2,21l-1.1,0
			c-7.1-4.1-10.9-6.1-18-10.1c7.5-4.3,28.2-17.5,35.6-21.8C315.2,319.3,315.8,319.3,316.3,319.3z"/>
		<path class="st31" d="M316.3,319.3c6.3,3.6,11.6,6.4,17.9,10.1c0.1,0.1,0.2,0.2,0.2,0.4c0,0.2-0.1,0.3-0.2,0.4l-36.2,21l-1,0
			c-6.5-3.8-11.5-6.4-18-10.1c6.9-4,28.7-17.8,35.7-21.8C315.1,319.3,315.8,319.3,316.3,319.3z"/>
		<path class="st32" d="M316.2,319.3c5.8,3.3,12.1,6.7,17.9,10.1c0.1,0.1,0.2,0.2,0.2,0.4c0,0.2-0.1,0.3-0.2,0.4l-36.2,21l-0.9,0
			c-6-3.5-12-6.7-18-10.1c6.3-3.6,29.3-18.1,35.7-21.8C315.1,319.3,315.8,319.3,316.2,319.3z"/>
		<path class="st33" d="M316.2,319.3c5.3,3,12.6,7,17.9,10.1c0.1,0.1,0.2,0.2,0.2,0.4c0,0.2-0.1,0.3-0.2,0.4l-36.2,21l-0.8,0
			c-5.4-3.1-12.6-7-18-10.1c5.8-3.3,29.9-18.5,35.7-21.8C315.1,319.3,315.8,319.3,316.2,319.3z"/>
		<path class="st34" d="M316.2,319.3c4.7,2.7,13.1,7.4,17.9,10.1c0.1,0.1,0.2,0.2,0.2,0.4c0,0.2-0.1,0.3-0.2,0.4l-36.3,21l-0.7,0
			c-4.9-2.8-13.1-7.3-18-10.1c5.2-3,30.5-18.8,35.7-21.8C315.1,319.3,315.8,319.3,316.2,319.3z"/>
		<path class="st35" d="M316.1,319.2c4.2,2.4,13.6,7.7,17.9,10.1c0.1,0.1,0.2,0.2,0.2,0.4c0,0.2-0.1,0.3-0.2,0.4l-36.3,21l-0.7,0
			c-4.3-2.5-13.6-7.6-18-10.1c4.6-2.6,31.1-19.2,35.7-21.8C315.1,319.2,315.8,319.2,316.1,319.2z"/>
		<path class="st36" d="M316.1,319.2c3.7,2.1,14.1,8,17.8,10.1c0.1,0.1,0.2,0.2,0.2,0.4c0,0.2-0.1,0.3-0.2,0.4l-36.3,21l-0.6,0
			c-3.8-2.2-14.2-7.9-18-10.1c4-2.3,31.7-19.5,35.7-21.8C315,319.2,315.8,319.2,316.1,319.2z"/>
		<path class="st37" d="M316.1,319.2c3.2,1.8,14.7,8.3,17.8,10.1c0.1,0.1,0.2,0.2,0.2,0.4c0,0.2-0.1,0.3-0.2,0.4l-36.3,21.1l-0.5,0
			c-3.3-1.9-14.7-8.2-17.9-10.1c3.5-2,32.3-19.8,35.7-21.8C315,319.2,315.8,319.2,316.1,319.2z"/>
		<path class="st38" d="M316,319.2c2.6,1.5,15.2,8.6,17.8,10.1c0.1,0.1,0.2,0.2,0.2,0.4s-0.1,0.3-0.2,0.4l-36.3,21.1l-0.4,0
			c-2.7-1.6-15.2-8.5-17.9-10.1c2.9-1.7,32.8-20.2,35.7-21.8C315,319.2,315.8,319.2,316,319.2z"/>
		<path class="st39" d="M316,319.2c2.1,1.2,15.7,8.9,17.8,10.1c0.1,0.1,0.2,0.2,0.2,0.4s-0.1,0.3-0.2,0.4l-36.4,21.1l-0.3,0
			c-2.2-1.3-15.8-8.8-17.9-10.1c2.3-1.3,33.4-20.5,35.7-21.8C315,319.2,315.8,319.2,316,319.2z"/>
		<path class="st40" d="M315.9,319.2c1.6,0.9,16.2,9.2,17.7,10.1c0.1,0.1,0.2,0.2,0.2,0.4s-0.1,0.3-0.2,0.4l-36.4,21.1l-0.3,0
			c-1.6-0.9-16.3-9.1-17.9-10.1c1.7-1,34-20.9,35.7-21.9C315,319.2,315.8,319.2,315.9,319.2z"/>
		<path class="st41" d="M315.9,319.2c1.1,0.6,16.7,9.5,17.7,10.1c0.1,0.1,0.2,0.2,0.2,0.4s-0.1,0.3-0.2,0.4l-36.4,21.1l-0.2,0
			c-1.1-0.6-16.8-9.5-17.9-10.1c1.2-0.7,34.6-21.2,35.8-21.9C315,319.2,315.8,319.2,315.9,319.2z"/>
		<path class="st42" d="M315.9,319.2c0.5,0.3,17.2,9.8,17.7,10.1c0.1,0.1,0.2,0.2,0.2,0.4s-0.1,0.3-0.2,0.4l-36.4,21.1l-0.1,0
			c-0.5-0.3-17.4-9.8-17.9-10.1c0.6-0.3,35.2-21.5,35.8-21.9C314.9,319.2,315.8,319.2,315.9,319.2z"/>
		<path class="st43" d="M315.8,319.2l17.7,10.1c0.1,0.1,0.2,0.2,0.2,0.4s-0.1,0.3-0.2,0.4l-36.5,21.1l0,0l-17.9-10.1l35.8-21.9
			H315.8z"/>
	</g>
	<g>
		<path class="st44" d="M277.4,335.7h3.6l47.8-27.6c2-1.2,5.1-1.3,6.9-0.3l14.4,8.3h3.9v3.3h0c0,0.8-0.6,1.6-1.7,2.2l-49.7,28.7
			c-2,1.2-5.1,1.3-6.9,0.3l-17.1-9.9c-0.8-0.5-1.2-1.1-1.2-1.8h0V335.7z"/>
		<path class="st45" d="M279.1,333.6c-2,1.2-2.3,3-0.5,4l17.1,9.9c1.8,1,4.9,0.9,6.9-0.3l49.7-28.7c2-1.2,2.3-3,0.5-4l-17.1-9.9
			c-1.8-1-4.9-0.9-6.9,0.3L279.1,333.6z"/>
		<path class="st46" d="M296.3,347.1c1.5,0.9,4.1,0.8,5.9-0.2l49.7-28.7c1.7-1,1.9-2.5,0.4-3.4l-17.1-9.9c-1.5-0.9-4.1-0.8-5.9,0.2
			l-49.7,28.7c-1.7,1-1.9,2.5-0.4,3.4L296.3,347.1z"/>
		<polygon class="st47" points="284.4,332.1 305.1,344.1 346.9,320 326.2,308 		"/>
		<path class="st48" d="M286.9,329.7l42.4-24.5c1.7-1,4.4-1.1,5.9-0.2l14.8,8.6L286.9,329.7z"/>
	</g>
	<g>
		<g>
			<g>
				<polygon class="st44" points="255.7,533.1 175.9,487.8 175.5,477.8 255.4,523 				"/>
			</g>
			<g>
				<linearGradient id="SVGID_1_" gradientUnits="userSpaceOnUse" x1="175.5423" y1="484.9567" x2="311.2855" y2="484.9567">
					<stop  offset="0" style="stop-color:#867378"/>
					<stop  offset="0.5" style="stop-color:#5D4B57"/>
					<stop  offset="1" style="stop-color:#433546"/>
				</linearGradient>
				<polygon class="st49" points="255.4,523 175.5,477.8 231.5,446.9 311.3,492.1 				"/>
			</g>
			<g>
				<polygon class="st50" points="311.3,492.1 311.6,502.1 255.7,533.1 255.4,523 				"/>
			</g>
		</g>
		<g>
			<polygon class="st51" points="253.8,515.3 232,502.4 275.9,478.1 297.8,491 			"/>
		</g>
	</g>
	<g>
		<g>
			<g>
				<polygon class="st44" points="265.1,523 185.3,477.8 185,467.7 264.8,513 				"/>
			</g>
			<g>
				
					<linearGradient id="SVGID_00000181808873809494123060000011336088438803839885_" gradientUnits="userSpaceOnUse" x1="184.9817" y1="474.9156" x2="320.7254" y2="474.9156">
					<stop  offset="0" style="stop-color:#AF9674"/>
					<stop  offset="0.5" style="stop-color:#92744A"/>
					<stop  offset="1" style="stop-color:#7F5E2C"/>
				</linearGradient>
				<polygon style="fill:url(#SVGID_00000181808873809494123060000011336088438803839885_);" points="264.8,513 185,467.7 
					240.9,436.8 320.7,482.1 				"/>
			</g>
			<g>
				<polygon class="st50" points="320.7,482.1 321.1,492.1 265.1,523 264.8,513 				"/>
			</g>
		</g>
		<g>
			<polygon class="st51" points="263.3,505.3 241.4,492.4 285.4,468 307.2,481 			"/>
		</g>
	</g>
	<g>
		<g>
			<g>
				<polygon class="st44" points="253.5,512.6 173.7,467.3 173.4,457.3 253.2,502.6 				"/>
			</g>
			<g>
				<polygon class="st53" points="253.2,502.6 173.4,457.3 229.3,426.4 309.1,471.7 				"/>
			</g>
			<g>
				<polygon class="st50" points="309.1,471.7 309.4,481.7 253.5,512.6 253.2,502.6 				"/>
			</g>
		</g>
		<g>
			<polygon class="st51" points="251.6,494.9 229.8,481.9 273.8,457.6 295.6,470.6 			"/>
		</g>
	</g>
	<path class="st54" d="M508.5,390.4v-5.4h-8.7c-32.8-19.2-66.3-38-99.1-57.2c-0.5-0.3-1.2-0.3-1.7-0.1
		c-47.1,27.3-94.2,54.5-141.4,81.8h-9.1v5.6h0c0,0.2,0.2,0.3,0.4,0.4c35.6,20.9,71.1,41.7,107.2,62.3c0.5,0.3,1.2,0.3,1.7,0
		c50.4-28.8,100.3-57.9,150.4-87C508.5,390.8,508.6,390.6,508.5,390.4z"/>
	<path class="st55" d="M357.8,472.6c50.4-28.8,100.3-57.9,150.4-87c0.5-0.3,0.4-0.7,0-1c-35.5-20.9-71.9-41.3-107.5-62.1
		c-0.5-0.3-1.2-0.3-1.7-0.1c-50.1,29-100.1,57.9-150.2,86.9c-0.4,0.2-0.4,0.7,0.1,1c35.6,20.9,71.1,41.7,107.2,62.3
		C356.6,472.8,357.4,472.9,357.8,472.6z"/>
	<path class="st56" d="M344,391.2c10.7-6.2,21.5-12.4,32.2-18.6c0.4-0.2,0.4-0.7-0.1-0.9c-6.1-3.6-20-11.7-26.1-15.3
		c-0.5-0.3-1.2-0.3-1.6-0.1c-10.8,6.3-21.6,12.6-32.3,18.8c-0.4,0.2-0.4,0.7,0.1,0.9c6.2,3.6,20,11.5,26.2,15.1
		C342.9,391.4,343.6,391.5,344,391.2z"/>
	<path class="st57" d="M359.2,459.2c-1.5-0.9-3.9-1-5.2-0.2c-1.4,0.8-1.2,2.2,0.3,3c1.5,0.9,3.9,1,5.2,0.2
		C360.8,461.5,360.7,460.1,359.2,459.2z"/>
	<path class="st51" d="M356.4,460.6C356.4,460.6,356.4,460.6,356.4,460.6c0.1,0,0.1,0,0.1-0.1c0,0,0.1,0,0.1,0c0,0,0,0,0,0
		c0,0,0,0,0,0c0,0,0,0,0,0c-0.3-0.2-0.5-0.3-0.8-0.5c0,0,0,0,0,0c0,0,0,0,0,0c0,0,0,0-0.1,0c0,0-0.1,0-0.1,0c0,0-0.1,0-0.1,0
		c0,0,0,0,0,0c0,0,0,0,0,0c0,0,0,0,0,0C355.9,460.3,356,460.4,356.4,460.6C356.3,460.6,356.4,460.6,356.4,460.6
		C356.4,460.6,356.4,460.6,356.4,460.6z M356.2,460c0,0,0.2,0.2,0.3,0.2c0.2,0,0.4,0,0.5,0.1c0.3,0.1,0.3,0.4,0,0.5
		c-0.2,0.1-0.6,0.1-0.9,0c-0.2-0.1-0.2-0.2-0.2-0.3c0-0.1-0.3-0.2-0.4-0.2c-0.1,0.2,0,0.5,0.3,0.7c0.4,0.3,1.1,0.3,1.5,0.1
		c0.4-0.2,0.3-0.6-0.1-0.9C357,460,356.6,459.9,356.2,460z"/>
	<path class="st58" d="M347.1,454.2c0.5,0.3,1.2,0.3,1.6,0.1c43.5-25.1,86.9-50.2,130.4-75.2c0.4-0.2,0.4-0.7-0.1-0.9
		c-17.1-10-34.4-20-51.7-29.9c-0.5-0.3-1.2-0.3-1.6,0c-43.4,25-86.5,50.3-129.7,75.4c-0.4,0.3-0.4,0.7,0,1
		C313,434.4,330.1,444.3,347.1,454.2z M313.9,424.8c-0.3-0.1-0.3-0.4,0-0.5c2.5-1.5,3.7-2.2,6.2-3.6c0.2-0.1,0.6-0.1,0.9,0
		c2.6,1.6,4,2.3,6.6,3.9c0.2,0.1,0.3,0.4,0,0.5c-2.5,1.4-3.7,2.2-6.2,3.6c-0.2,0.1-0.6,0.1-0.9,0
		C317.9,427.1,316.6,426.3,313.9,424.8z M322.5,429.3c7.2-4.2,14.4-8.3,21.6-12.5c0.2-0.1,0.6-0.1,0.9,0c2.6,1.6,4,2.3,6.6,3.9
		c0.3,0.1,0.3,0.4,0,0.5c-3.9,2.2-7.7,4.5-11.6,6.7c3.2,1.9,4.9,2.9,8.1,4.8c0.3,0.1,0.3,0.4,0,0.5c-3.8,2.2-5.7,3.3-9.5,5.5
		c-0.2,0.1-0.6,0.1-0.9,0c-5.1-3-10.2-5.9-15.2-8.9C322.2,429.6,322.2,429.4,322.5,429.3z M435.8,371.9c0.3,0.1,0.3,0.4,0,0.5
		c-2.4,1.4-3.7,2.1-6.1,3.5c-0.2,0.1-0.6,0.1-0.9,0c-2.7-1.6-4.1-2.3-6.8-3.9c-0.3-0.1-0.3-0.4,0-0.5c2.4-1.4,3.7-2.1,6.1-3.5
		c0.2-0.1,0.6-0.1,0.9,0C431.8,369.6,433.1,370.4,435.8,371.9z M440.3,371c0.2-0.1,0.6-0.1,0.9,0c2.7,1.6,4.1,2.3,6.8,3.9
		c0.3,0.1,0.3,0.4,0,0.5c-2.4,1.4-3.7,2.1-6.1,3.5c-0.2,0.1-0.6,0.1-0.9,0c-2.7-1.6-4.1-2.3-6.8-3.9c-0.3-0.1-0.3-0.4,0-0.5
		C436.7,373.1,437.9,372.4,440.3,371z M433.5,375.5c2.7,1.6,4.1,2.3,6.8,3.9c0.3,0.1,0.3,0.4,0,0.5c-2.4,1.4-3.7,2.1-6.1,3.5
		c-0.2,0.1-0.6,0.1-0.9,0c-2.7-1.6-4.1-2.3-6.8-3.9c-0.3-0.1-0.3-0.4-0.1-0.5c2.4-1.4,3.7-2.1,6.1-3.5
		C432.9,375.3,433.3,375.3,433.5,375.5z M422.8,369.3c0.3,0.1,0.3,0.4,0,0.5c-2.4,1.4-3.7,2.1-6.1,3.5c-0.2,0.1-0.6,0.1-0.9,0
		c-2.7-1.6-4.1-2.3-6.8-3.9c-0.3-0.1-0.3-0.4,0-0.5c2.4-1.4,3.6-2.1,6.1-3.5c0.2-0.1,0.6-0.1,0.9,0
		C418.8,367,420.1,367.8,422.8,369.3z M420.5,372.4c0.2-0.1,0.6-0.1,0.9,0c2.7,1.6,4.1,2.3,6.8,3.9c0.3,0.1,0.3,0.4,0,0.5
		c-2.4,1.4-3.7,2.1-6.1,3.5c-0.2,0.1-0.6,0.1-0.9,0c-2.7-1.6-4.1-2.3-6.8-3.9c-0.3-0.1-0.3-0.4,0-0.5
		C416.8,374.5,418,373.8,420.5,372.4z M425.9,379.9c2.7,1.6,4.1,2.3,6.8,3.9c0.3,0.1,0.3,0.4,0,0.5c-2.4,1.4-3.7,2.1-6.1,3.5
		c-0.2,0.1-0.6,0.1-0.9,0c-2.7-1.6-4.1-2.3-6.8-3.9c-0.3-0.1-0.3-0.4-0.1-0.5c2.4-1.4,3.6-2.1,6.1-3.5
		C425.2,379.8,425.6,379.8,425.9,379.9z M415.2,373.8c0.3,0.1,0.3,0.4,0,0.5c-2.4,1.4-3.6,2.1-6.1,3.5c-0.2,0.1-0.6,0.1-0.9,0
		c-2.7-1.6-4.1-2.3-6.8-3.9c-0.3-0.1-0.3-0.4-0.1-0.5c2.4-1.4,3.6-2.1,6.1-3.5c0.2-0.1,0.6-0.1,0.9,0
		C411.1,371.4,412.5,372.2,415.2,373.8z M412.8,376.9c0.2-0.1,0.6-0.1,0.9,0c2.7,1.6,4.1,2.3,6.8,3.9c0.3,0.1,0.3,0.4,0,0.5
		c-2.4,1.4-3.6,2.1-6.1,3.5c-0.2,0.1-0.6,0.1-0.9,0c-2.7-1.6-4-2.3-6.7-3.9c-0.3-0.1-0.3-0.4-0.1-0.5
		C409.2,379,410.4,378.3,412.8,376.9z M418.2,384.3c2.7,1.6,4.1,2.3,6.8,3.9c0.3,0.1,0.3,0.4,0,0.5c-2.4,1.4-3.6,2.1-6.1,3.5
		c-0.2,0.1-0.6,0.1-0.9,0c-2.7-1.6-4-2.4-6.7-3.9c-0.3-0.1-0.3-0.4,0-0.5c2.4-1.4,3.6-2.1,6.1-3.5
		C417.6,384.2,418,384.2,418.2,384.3z M407.5,378.2c0.3,0.1,0.3,0.4,0,0.5c-2.4,1.4-3.6,2.1-6,3.5c-0.2,0.1-0.6,0.1-0.9,0
		c-2.7-1.6-4-2.3-6.7-3.9c-0.3-0.1-0.3-0.4-0.1-0.5c2.4-1.4,3.6-2.1,6-3.5c0.2-0.1,0.6-0.1,0.9,0
		C403.5,375.9,404.8,376.6,407.5,378.2z M405.2,381.3c0.2-0.1,0.6-0.1,0.9,0c2.7,1.6,4,2.3,6.7,3.9c0.3,0.1,0.3,0.4,0,0.5
		c-2.4,1.4-3.6,2.1-6.1,3.5c-0.2,0.1-0.6,0.1-0.9,0c-2.7-1.6-4-2.3-6.7-3.9c-0.3-0.1-0.3-0.4,0-0.5
		C401.6,383.4,402.8,382.7,405.2,381.3z M410.6,388.8c2.7,1.6,4,2.3,6.7,3.9c0.3,0.1,0.3,0.4,0,0.5c-2.4,1.4-3.6,2.1-6.1,3.5
		c-0.2,0.1-0.6,0.1-0.9,0c-2.7-1.6-4-2.4-6.7-3.9c-0.3-0.1-0.3-0.4,0-0.5c2.4-1.4,3.6-2.1,6.1-3.5
		C409.9,388.6,410.3,388.6,410.6,388.8z M399.9,382.6c0.3,0.1,0.3,0.4,0,0.5c-2.4,1.4-3.6,2.1-6,3.5c-0.2,0.1-0.6,0.1-0.9,0
		c-2.7-1.6-4-2.3-6.7-3.9c-0.3-0.1-0.3-0.4,0-0.5c2.4-1.4,3.6-2.1,6-3.5c0.2-0.1,0.6-0.1,0.9,0C395.9,380.3,397.2,381,399.9,382.6z
		 M397.6,385.7c0.2-0.1,0.6-0.1,0.9,0c2.7,1.6,4,2.3,6.7,3.9c0.3,0.1,0.3,0.4,0,0.5c-2.4,1.4-3.6,2.1-6.1,3.5
		c-0.2,0.1-0.6,0.1-0.9,0c-2.7-1.6-4-2.3-6.7-3.9c-0.3-0.1-0.3-0.4,0-0.5C393.9,387.8,395.2,387.1,397.6,385.7z M402.9,393.2
		c2.7,1.6,4,2.3,6.7,3.9c0.3,0.2,0.3,0.4,0,0.5c-2.4,1.4-3.6,2.1-6.1,3.5c-0.2,0.1-0.6,0.1-0.9,0c-2.7-1.6-4-2.4-6.7-3.9
		c-0.3-0.1-0.3-0.4,0-0.5c2.4-1.4,3.6-2.1,6-3.5C402.3,393,402.7,393,402.9,393.2z M392.3,387c0.3,0.1,0.3,0.4,0,0.5
		c-2.4,1.4-3.6,2.1-6,3.5c-0.2,0.1-0.6,0.1-0.9,0c-2.7-1.6-4-2.3-6.7-3.9c-0.3-0.1-0.3-0.4,0-0.5c2.4-1.4,3.6-2.1,6-3.5
		c0.2-0.1,0.6-0.1,0.9,0C388.3,384.7,389.6,385.4,392.3,387z M390,390.1c0.2-0.1,0.6-0.1,0.9,0c2.7,1.6,4,2.3,6.7,3.9
		c0.3,0.1,0.3,0.4,0,0.5c-2.4,1.4-3.6,2.1-6,3.5c-0.2,0.1-0.6,0.1-0.9,0c-2.7-1.6-4-2.3-6.7-3.9c-0.3-0.1-0.3-0.4,0-0.5
		C386.4,392.2,387.6,391.5,390,390.1z M395.3,397.6c2.7,1.6,4,2.3,6.7,3.9c0.3,0.2,0.3,0.4,0,0.5c-2.4,1.4-3.6,2.1-6.1,3.5
		c-0.2,0.1-0.6,0.1-0.9,0c-2.7-1.6-4-2.4-6.7-3.9c-0.3-0.1-0.3-0.4,0-0.5c2.4-1.4,3.6-2.1,6-3.5
		C394.7,397.4,395.1,397.4,395.3,397.6z M384.7,391.4c0.3,0.1,0.3,0.4,0,0.5c-2.4,1.4-3.6,2.1-6,3.5c-0.2,0.1-0.6,0.1-0.9,0
		c-2.7-1.6-4-2.3-6.7-3.9c-0.3-0.1-0.3-0.4,0-0.5c2.4-1.4,3.6-2.1,6-3.5c0.2-0.1,0.6-0.1,0.9,0C380.7,389.1,382,389.9,384.7,391.4z
		 M382.4,394.5c0.2-0.1,0.6-0.1,0.9,0c2.7,1.6,4,2.3,6.7,3.9c0.3,0.1,0.3,0.4,0,0.5c-2.4,1.4-3.6,2.1-6,3.5c-0.2,0.1-0.6,0.1-0.9,0
		c-2.7-1.6-4-2.3-6.7-3.9c-0.3-0.1-0.3-0.4,0-0.5C378.8,396.6,380,395.9,382.4,394.5z M387.7,402c2.7,1.6,4,2.4,6.7,3.9
		c0.3,0.1,0.3,0.4,0,0.5c-2.4,1.4-3.6,2.1-6.1,3.5c-0.2,0.1-0.6,0.1-0.9,0c-2.7-1.6-4-2.4-6.7-3.9c-0.3-0.1-0.3-0.4,0-0.5
		c2.4-1.4,3.6-2.1,6.1-3.5C387,401.9,387.4,401.9,387.7,402z M377.1,395.8c0.3,0.1,0.3,0.4,0,0.5c-2.4,1.4-3.6,2.1-6,3.5
		c-0.2,0.1-0.6,0.1-0.9,0c-2.7-1.6-4-2.3-6.7-3.9c-0.3-0.1-0.3-0.4,0-0.5c2.4-1.4,3.6-2.1,6-3.5c0.2-0.1,0.6-0.1,0.9,0
		C373.1,393.5,374.4,394.3,377.1,395.8z M374.8,398.9c0.2-0.1,0.6-0.1,0.9,0c2.7,1.6,4,2.3,6.7,3.9c0.3,0.1,0.3,0.4,0,0.5
		c-2.4,1.4-3.6,2.1-6.1,3.5c-0.2,0.1-0.6,0.1-0.9,0c-2.7-1.6-4-2.4-6.7-3.9c-0.3-0.1-0.3-0.4,0-0.5
		C371.1,401,372.4,400.3,374.8,398.9z M380,406.4c2.7,1.6,4,2.4,6.7,3.9c0.3,0.1,0.3,0.4,0,0.5c-2.4,1.4-3.6,2.1-6.1,3.5
		c-0.2,0.1-0.6,0.1-0.9,0c-2.7-1.6-4-2.4-6.7-3.9c-0.3-0.1-0.3-0.4,0-0.5c2.4-1.4,3.6-2.1,6.1-3.5
		C379.4,406.3,379.8,406.3,380,406.4z M369.5,400.2c0.2,0.1,0.3,0.4,0,0.5c-2.4,1.4-3.6,2.1-6,3.5c-0.2,0.1-0.6,0.1-0.9,0
		c-2.7-1.6-4-2.3-6.6-3.9c-0.3-0.1-0.3-0.4,0-0.5c2.4-1.4,3.6-2.1,6-3.5c0.2-0.1,0.6-0.1,0.9,0C365.5,397.9,366.8,398.7,369.5,400.2
		z M367.2,403.3c0.2-0.1,0.6-0.1,0.9,0c2.7,1.6,4,2.3,6.7,3.9c0.3,0.2,0.3,0.4,0,0.5c-2.4,1.4-3.6,2.1-6.1,3.5
		c-0.2,0.1-0.6,0.1-0.9,0c-2.7-1.6-4-2.4-6.6-3.9c-0.3-0.1-0.3-0.4,0-0.5C363.5,405.4,364.7,404.7,367.2,403.3z M372.4,410.9
		c2.7,1.6,4,2.4,6.7,3.9c0.3,0.2,0.3,0.4,0,0.5c-2.4,1.4-3.7,2.1-6.1,3.5c-0.2,0.1-0.6,0.1-0.9,0c-2.7-1.6-4-2.4-6.7-3.9
		c-0.3-0.1-0.3-0.4,0-0.5c2.4-1.4,3.6-2.1,6.1-3.5C371.8,410.7,372.1,410.7,372.4,410.9z M361.9,404.7c0.2,0.1,0.3,0.4,0,0.5
		c-2.4,1.4-3.6,2.1-6.1,3.5c-0.2,0.1-0.6,0.1-0.9,0c-2.7-1.6-4-2.3-6.6-3.9c-0.3-0.1-0.3-0.4,0-0.5c2.4-1.4,3.6-2.1,6.1-3.5
		c0.2-0.1,0.6-0.1,0.9,0C357.9,402.3,359.2,403.1,361.9,404.7z M359.5,407.8c0.2-0.1,0.6-0.1,0.9,0c2.7,1.6,4,2.4,6.6,3.9
		c0.3,0.1,0.3,0.4,0,0.5c-2.4,1.4-3.6,2.1-6.1,3.5c-0.2,0.1-0.6,0.1-0.9,0c-2.7-1.6-4-2.4-6.6-3.9c-0.2-0.1-0.3-0.4,0-0.5
		C355.9,409.9,357.1,409.2,359.5,407.8z M364.7,415.3c2.7,1.6,4,2.4,6.6,3.9c0.2,0.1,0.3,0.4,0,0.5c-2.4,1.4-3.7,2.1-6.1,3.5
		c-0.2,0.1-0.6,0.1-0.9,0c-2.7-1.6-4-2.4-6.6-3.9c-0.2-0.2-0.3-0.4,0-0.5c2.4-1.4,3.7-2.1,6.1-3.5
		C364.1,415.1,364.5,415.2,364.7,415.3z M354.2,409.1c0.3,0.1,0.3,0.4,0,0.5c-2.4,1.4-3.6,2.1-6.1,3.5c-0.2,0.1-0.6,0.1-0.9,0
		c-2.6-1.6-4-2.3-6.6-3.9c-0.3-0.1-0.3-0.4,0-0.5c2.4-1.4,3.6-2.1,6.1-3.5c0.2-0.1,0.6-0.1,0.9,0
		C350.3,406.8,351.6,407.5,354.2,409.1z M351.9,412.2c0.2-0.1,0.6-0.1,0.9,0c2.6,1.6,4,2.3,6.6,3.9c0.3,0.1,0.3,0.4,0,0.5
		c-2.4,1.4-3.7,2.1-6.1,3.5c-0.2,0.1-0.6,0.1-0.9,0c-2.6-1.6-4-2.4-6.6-3.9c-0.3-0.1-0.3-0.4,0-0.5
		C348.2,414.3,349.4,413.6,351.9,412.2z M357.1,419.8c2.7,1.6,4,2.4,6.6,3.9c0.3,0.1,0.3,0.4,0,0.5c-2.4,1.4-3.7,2.1-6.1,3.5
		c-0.2,0.1-0.6,0.1-0.9,0c-2.7-1.6-4-2.4-6.6-3.9c-0.2-0.1-0.3-0.4,0-0.5c2.5-1.4,3.7-2.1,6.1-3.5
		C356.4,419.6,356.8,419.6,357.1,419.8z M346.3,413.7c0.3,0.1,0.3,0.4,0,0.5c-5.6,3.3-11.2,6.5-16.8,9.8c-0.2,0.1-0.6,0.1-0.9,0
		c-2.6-1.6-4-2.3-6.6-3.9c-0.2-0.1-0.3-0.4,0-0.5c5.6-3.3,11.2-6.5,16.8-9.8c0.2-0.1,0.6-0.1,0.9,0
		C342.3,411.4,343.6,412.2,346.3,413.7z M349.3,424.2c2.7,1.6,4,2.4,6.6,3.9c0.3,0.2,0.3,0.4,0,0.5c-2.5,1.4-3.7,2.1-6.1,3.6
		c-0.2,0.1-0.6,0.1-0.9,0c-2.7-1.6-4-2.4-6.6-3.9c-0.3-0.1-0.3-0.4,0-0.5c2.5-1.4,3.7-2.1,6.1-3.6
		C348.7,424.1,349.1,424.1,349.3,424.2z M339.6,439.3c7.1-4.1,14.3-8.3,21.4-12.4c0.2-0.1,0.6-0.1,0.9,0c2.7,1.6,4,2.4,6.7,4
		c0.3,0.1,0.3,0.4,0,0.5c-7.1,4.1-14.3,8.2-21.4,12.4c-0.2,0.1-0.6,0.1-0.9,0c-2.7-1.6-4-2.4-6.7-3.9
		C339.4,439.7,339.4,439.5,339.6,439.3z M362.1,444.9c0.3,0.2,0.3,0.4,0,0.5c-2.5,1.4-3.7,2.1-6.1,3.5c-0.2,0.1-0.6,0.1-0.9,0
		c-2.7-1.6-4.1-2.4-6.7-4c-0.3-0.2-0.3-0.4,0-0.5c2.5-1.4,3.7-2.1,6.2-3.6c0.2-0.1,0.6-0.1,0.9,0C358,442.5,359.4,443.3,362.1,444.9
		z M369.8,440.4c0.3,0.2,0.3,0.4,0,0.5c-2.5,1.4-3.7,2.1-6.1,3.5c-0.2,0.1-0.6,0.1-0.9,0c-2.7-1.6-4.1-2.4-6.7-4
		c-0.3-0.1-0.3-0.4,0-0.5c2.5-1.4,3.7-2.1,6.1-3.5c0.2-0.1,0.6-0.1,0.9,0C365.8,438,367.1,438.8,369.8,440.4z M377.5,435.9
		c0.3,0.2,0.3,0.4,0,0.5c-2.4,1.4-3.7,2.1-6.1,3.5c-0.2,0.1-0.6,0.1-0.9,0c-2.7-1.6-4-2.4-6.7-4c-0.3-0.2-0.3-0.4,0-0.5
		c2.5-1.4,3.7-2.1,6.1-3.5c0.2-0.1,0.6-0.1,0.9,0C373.5,433.5,374.8,434.3,377.5,435.9z M385.2,431.5c0.3,0.2,0.3,0.4,0,0.5
		c-2.4,1.4-3.7,2.1-6.1,3.5c-0.2,0.1-0.6,0.1-0.9,0c-2.7-1.6-4-2.4-6.7-4c-0.3-0.2-0.3-0.4,0-0.5c2.4-1.4,3.7-2.1,6.1-3.5
		c0.2-0.1,0.6-0.1,0.9,0C381.2,429.1,382.5,429.9,385.2,431.5z M376.6,426.3c0.3,0.2,0.3,0.4,0,0.5c-2.4,1.4-3.7,2.1-6.1,3.5
		c-0.2,0.1-0.6,0.1-0.9,0c-2.7-1.6-4-2.4-6.7-4c-0.3-0.1-0.3-0.4,0-0.5c2.4-1.4,3.7-2.1,6.1-3.5c0.2-0.1,0.6-0.1,0.9,0
		C372.5,424,373.9,424.7,376.6,426.3z M392.9,427c0.3,0.2,0.3,0.4,0,0.5c-2.4,1.4-3.7,2.1-6.1,3.5c-0.2,0.1-0.6,0.1-0.9,0
		c-2.7-1.6-4-2.4-6.7-4c-0.3-0.2-0.3-0.4,0-0.5c2.4-1.4,3.7-2.1,6.1-3.5c0.2-0.1,0.6-0.1,0.9,0C388.9,424.6,390.2,425.4,392.9,427z
		 M384.2,421.9c0.3,0.1,0.3,0.4,0,0.5c-2.4,1.4-3.7,2.1-6.1,3.5c-0.2,0.1-0.6,0.1-0.9,0c-2.7-1.6-4-2.4-6.7-4
		c-0.3-0.1-0.3-0.4,0-0.5c2.4-1.4,3.7-2.1,6.1-3.5c0.2-0.1,0.6-0.1,0.9,0C380.2,419.5,381.6,420.3,384.2,421.9z M400.6,422.6
		c0.3,0.2,0.3,0.4,0,0.5c-2.4,1.4-3.7,2.1-6.1,3.5c-0.2,0.1-0.6,0.1-0.9,0c-2.7-1.6-4-2.4-6.7-4c-0.3-0.1-0.3-0.4,0-0.5
		c2.4-1.4,3.7-2.1,6.1-3.5c0.2-0.1,0.6-0.1,0.9,0C396.6,420.2,397.9,421,400.6,422.6z M391.9,417.5c0.3,0.2,0.3,0.4,0,0.5
		c-2.4,1.4-3.7,2.1-6.1,3.5c-0.2,0.1-0.6,0.1-0.9,0c-2.7-1.6-4-2.4-6.7-4c-0.3-0.1-0.3-0.4,0-0.5c2.4-1.4,3.7-2.1,6.1-3.5
		c0.2-0.1,0.6-0.1,0.9,0C387.9,415.1,389.2,415.9,391.9,417.5z M408.3,418.2c0.3,0.2,0.3,0.4,0,0.5c-2.4,1.4-3.7,2.1-6.1,3.5
		c-0.2,0.1-0.6,0.1-0.9,0c-2.7-1.6-4-2.4-6.7-4c-0.3-0.2-0.3-0.4,0-0.5c2.4-1.4,3.7-2.1,6.1-3.5c0.2-0.1,0.6-0.1,0.9,0
		C404.2,415.8,405.6,416.6,408.3,418.2z M399.6,413c0.3,0.2,0.3,0.4,0,0.5c-2.4,1.4-3.7,2.1-6.1,3.5c-0.2,0.1-0.6,0.1-0.9,0
		c-2.7-1.6-4-2.4-6.7-4c-0.3-0.2-0.3-0.4,0-0.5c2.4-1.4,3.6-2.1,6.1-3.5c0.2-0.1,0.6-0.1,0.9,0C395.6,410.6,396.9,411.4,399.6,413z
		 M416,413.7c0.3,0.2,0.3,0.4,0,0.5c-2.4,1.4-3.7,2.1-6.1,3.5c-0.2,0.1-0.6,0.1-0.9,0c-2.7-1.6-4-2.4-6.7-4c-0.3-0.2-0.3-0.4,0-0.5
		c2.4-1.4,3.7-2.1,6.1-3.5c0.2-0.1,0.6-0.1,0.9,0C411.9,411.3,413.3,412.1,416,413.7z M407.3,409.1c-2.4,1.4-3.6,2.1-6.1,3.5
		c-0.2,0.1-0.6,0.1-0.9,0c-2.7-1.6-4-2.4-6.7-4c-0.3-0.2-0.3-0.4,0-0.5c2.4-1.4,3.6-2.1,6.1-3.5c0.2-0.1,0.6-0.1,0.9,0
		c2.7,1.6,4,2.4,6.7,3.9C407.5,408.7,407.5,409,407.3,409.1z M423.7,409.3c0.3,0.2,0.3,0.4,0,0.5c-2.4,1.4-3.7,2.1-6.1,3.5
		c-0.2,0.1-0.6,0.1-0.9,0c-2.7-1.6-4.1-2.4-6.8-4c-0.3-0.1-0.3-0.4,0-0.5c2.4-1.4,3.6-2.1,6.1-3.5c0.2-0.1,0.6-0.1,0.9,0
		C419.6,406.9,421,407.7,423.7,409.3z M415,404.7c-2.4,1.4-3.6,2.1-6.1,3.5c-0.2,0.1-0.6,0.1-0.9,0c-2.7-1.6-4-2.4-6.7-3.9
		c-0.3-0.1-0.3-0.4,0-0.5c2.4-1.4,3.6-2.1,6.1-3.5c0.2-0.1,0.6-0.1,0.9,0c2.7,1.6,4,2.4,6.7,3.9C415.2,404.3,415.2,404.5,415,404.7z
		 M431.4,404.9c0.3,0.2,0.3,0.4,0,0.5c-2.4,1.4-3.7,2.1-6.1,3.5c-0.2,0.1-0.6,0.1-0.9,0c-2.7-1.6-4.1-2.4-6.8-4
		c-0.3-0.2-0.3-0.4,0-0.5c2.4-1.4,3.7-2.1,6.1-3.5c0.2-0.1,0.6-0.1,0.9,0C427.3,402.5,428.6,403.3,431.4,404.9z M422.6,400.3
		c-2.4,1.4-3.6,2.1-6.1,3.5c-0.2,0.1-0.6,0.1-0.9,0c-2.7-1.6-4-2.4-6.7-3.9c-0.3-0.1-0.3-0.4,0-0.5c2.4-1.4,3.6-2.1,6.1-3.5
		c0.2-0.1,0.6-0.1,0.9,0c2.7,1.6,4.1,2.4,6.8,3.9C422.9,399.9,422.9,400.1,422.6,400.3z M439,400.4c0.3,0.2,0.3,0.4,0.1,0.5
		c-2.4,1.4-3.7,2.1-6.1,3.5c-0.2,0.1-0.6,0.1-0.9,0c-2.7-1.6-4.1-2.4-6.8-4c-0.3-0.2-0.3-0.4,0-0.5c2.4-1.4,3.6-2.1,6.1-3.5
		c0.2-0.1,0.6-0.1,0.9,0C434.9,398,436.3,398.8,439,400.4z M430.3,395.8c-2.4,1.4-3.7,2.1-6.1,3.5c-0.2,0.1-0.6,0.1-0.9,0
		c-2.7-1.6-4.1-2.4-6.8-3.9c-0.3-0.1-0.3-0.4,0-0.5c2.4-1.4,3.6-2.1,6.1-3.5c0.2-0.1,0.6-0.1,0.9,0c2.7,1.6,4.1,2.4,6.8,3.9
		C430.5,395.5,430.5,395.7,430.3,395.8z M446.7,396c0.3,0.2,0.3,0.4,0.1,0.5c-2.4,1.4-3.7,2.1-6.1,3.5c-0.2,0.1-0.6,0.1-0.9,0
		c-2.7-1.6-4.1-2.4-6.8-4c-0.3-0.2-0.3-0.4,0-0.5c2.4-1.4,3.7-2.1,6.1-3.5c0.2-0.1,0.6-0.1,0.9,0C442.6,393.6,444,394.4,446.7,396z
		 M438,391.4c-2.4,1.4-3.7,2.1-6.1,3.5c-0.2,0.1-0.6,0.1-0.9,0c-2.7-1.6-4.1-2.4-6.8-3.9c-0.3-0.1-0.3-0.4,0-0.5
		c2.4-1.4,3.6-2.1,6.1-3.5c0.2-0.1,0.6-0.1,0.9,0c2.7,1.6,4.1,2.4,6.8,3.9C438.2,391,438.2,391.3,438,391.4z M454.4,391.6
		c0.3,0.1,0.3,0.4,0.1,0.5c-2.4,1.4-3.7,2.1-6.1,3.5c-0.2,0.1-0.6,0.1-0.9,0c-2.7-1.6-4.1-2.4-6.8-4c-0.3-0.1-0.3-0.4,0-0.5
		c2.4-1.4,3.7-2.1,6.1-3.5c0.2-0.1,0.6-0.1,0.9,0C450.3,389.2,451.7,390,454.4,391.6z M445.7,387c-2.4,1.4-3.7,2.1-6.1,3.5
		c-0.2,0.1-0.6,0.1-0.9,0c-2.7-1.6-4.1-2.4-6.8-3.9c-0.3-0.1-0.3-0.4,0-0.5c2.4-1.4,3.7-2.1,6.1-3.5c0.2-0.1,0.6-0.1,0.9,0
		c2.7,1.6,4.1,2.4,6.8,3.9C445.9,386.6,445.9,386.8,445.7,387z M462.1,387.1c0.3,0.1,0.3,0.4,0,0.5c-2.4,1.4-3.7,2.1-6.1,3.5
		c-0.2,0.1-0.6,0.1-0.9,0c-2.7-1.6-4.1-2.4-6.8-4c-0.3-0.1-0.3-0.4,0-0.5c2.4-1.4,3.7-2.1,6.1-3.5c0.2-0.1,0.6-0.1,0.9,0
		C458,384.7,459.4,385.5,462.1,387.1z M453.4,382.5c-2.4,1.4-3.7,2.1-6.1,3.5c-0.2,0.1-0.6,0.1-0.9,0c-2.7-1.6-4.1-2.4-6.8-3.9
		c-0.3-0.1-0.3-0.4,0-0.5c2.4-1.4,3.7-2.1,6.1-3.5c0.2-0.1,0.6-0.1,0.9,0c2.7,1.6,4.1,2.4,6.8,3.9
		C453.6,382.2,453.6,382.4,453.4,382.5z M469.8,382.7c0.3,0.1,0.3,0.4,0,0.5c-2.4,1.4-3.7,2.1-6.1,3.5c-0.2,0.1-0.6,0.1-0.9,0
		c-2.7-1.6-4.1-2.4-6.8-4c-0.3-0.1-0.3-0.4-0.1-0.5c2.4-1.4,3.7-2.1,6.1-3.5c0.2-0.1,0.6-0.1,0.9,0
		C465.7,380.3,467.1,381.1,469.8,382.7z M461.1,378.1c-2.4,1.4-3.7,2.1-6.1,3.5c-0.2,0.1-0.6,0.1-0.9,0c-2.7-1.6-4.1-2.4-6.8-3.9
		c-0.3-0.1-0.3-0.4,0-0.5c2.4-1.4,3.7-2.1,6.1-3.5c0.2-0.1,0.6-0.1,0.9,0c2.7,1.6,4.1,2.4,6.8,3.9
		C461.3,377.7,461.3,378,461.1,378.1z M477.5,378.2c0.3,0.2,0.3,0.4,0,0.5c-2.4,1.4-3.7,2.1-6.1,3.5c-0.2,0.1-0.6,0.1-0.9,0
		c-2.7-1.6-4.1-2.4-6.8-4c-0.3-0.1-0.3-0.4,0-0.5c2.5-1.4,3.7-2.1,6.1-3.5c0.2-0.1,0.6-0.1,0.9,0
		C473.5,375.9,474.8,376.7,477.5,378.2z M468.8,373.1c0.3,0.1,0.3,0.4,0,0.5c-2.5,1.4-3.7,2.1-6.1,3.5c-0.2,0.1-0.6,0.1-0.9,0
		c-2.7-1.6-4.1-2.4-6.8-3.9c-0.3-0.1-0.3-0.4,0-0.5c2.5-1.4,3.7-2.1,6.1-3.5c0.2-0.1,0.6-0.1,0.9,0
		C464.7,370.8,466,371.6,468.8,373.1z M460,368.1c0.3,0.1,0.3,0.4,0,0.5c-3.5,2-6.9,4-10.4,6c-0.2,0.1-0.6,0.1-0.9,0
		c-2.7-1.6-4.1-2.3-6.8-3.9c-0.3-0.1-0.3-0.4,0-0.5c3.5-2,6.9-4,10.4-6c0.2-0.1,0.6-0.1,0.9,0C456,365.7,457.3,366.5,460,368.1z
		 M451.3,363c0.3,0.1,0.3,0.4,0,0.5c-4.6,2.6-9.2,5.3-13.8,7.9c-0.2,0.1-0.6,0.1-0.9,0c-2.7-1.6-4.1-2.3-6.8-3.9
		c-0.3-0.1-0.3-0.4,0-0.5c4.6-2.6,9.2-5.3,13.8-7.9c0.2-0.1,0.6-0.1,0.9,0C447.2,360.7,448.6,361.4,451.3,363z M442.6,358
		c0.3,0.1,0.3,0.4,0,0.5c-6,3.5-12,6.9-18,10.4c-0.2,0.1-0.6,0.1-0.9,0c-2.7-1.6-4.1-2.3-6.8-3.9c-0.3-0.1-0.3-0.4,0-0.5
		c6-3.5,12-7,18-10.4c0.2-0.1,0.6-0.1,0.9,0C438.5,355.6,439.8,356.4,442.6,358z M420,353.1c-0.3-0.1-0.3-0.4,0-0.5
		c2.5-1.4,3.7-2.1,6.2-3.6c0.2-0.1,0.6-0.1,0.9,0c2.7,1.6,4.1,2.3,6.8,3.9c0.3,0.1,0.3,0.4,0,0.5c-2.5,1.4-3.7,2.1-6.2,3.6
		c-0.2,0.1-0.6,0.1-0.9,0C424.1,355.4,422.7,354.6,420,353.1z M412.3,357.5c-0.3-0.1-0.3-0.4,0-0.5c2.4-1.4,3.7-2.1,6.1-3.5
		c0.2-0.1,0.6-0.1,0.9,0c2.7,1.6,4.1,2.3,6.8,3.9c0.3,0.1,0.3,0.4,0,0.5c-2.5,1.4-3.7,2.1-6.1,3.5c-0.2,0.1-0.6,0.1-0.9,0
		C416.4,359.9,415,359.1,412.3,357.5z M336.4,401.7c-0.3-0.1-0.3-0.4,0-0.5c24.7-14.4,49.4-28.8,74.1-43.1c0.2-0.1,0.6-0.1,0.9,0
		c2.7,1.6,4.1,2.3,6.8,3.9c0.3,0.1,0.3,0.4,0,0.5c-24.8,14.3-49.6,28.8-74.3,43.2c-0.2,0.1-0.6,0.1-0.9,0
		C340.4,404,339.1,403.2,336.4,401.7z M328.7,406.2c-0.3-0.2-0.3-0.4,0-0.5c2.4-1.4,3.7-2.1,6.1-3.5c0.2-0.1,0.6-0.1,0.9,0
		c2.7,1.6,4,2.4,6.6,3.9c0.3,0.2,0.3,0.4,0,0.5c-2.4,1.4-3.7,2.1-6.1,3.5c-0.2,0.1-0.6,0.1-0.9,0
		C332.7,408.5,331.3,407.7,328.7,406.2z M321,410.6c-0.3-0.1-0.3-0.4,0-0.5c2.5-1.4,3.7-2.1,6.1-3.6c0.2-0.1,0.6-0.1,0.9,0
		c2.7,1.6,4,2.4,6.6,3.9c0.3,0.1,0.3,0.4,0,0.5c-2.4,1.4-3.7,2.1-6.1,3.6c-0.2,0.1-0.6,0.1-0.9,0C325,413,323.6,412.2,321,410.6z
		 M313.2,415.2c-0.3-0.1-0.3-0.4,0-0.5c2.5-1.4,3.7-2.2,6.2-3.6c0.2-0.1,0.6-0.1,0.9,0c2.7,1.6,4,2.4,6.6,3.9c0.2,0.1,0.3,0.4,0,0.5
		c-2.5,1.4-3.7,2.1-6.2,3.6c-0.2,0.1-0.6,0.1-0.9,0C317.2,417.5,315.8,416.7,313.2,415.2z M305.3,419.2c2.5-1.5,3.8-2.2,6.2-3.6
		c0.2-0.1,0.6-0.1,0.9,0c2.7,1.6,4,2.3,6.6,3.9c0.2,0.1,0.3,0.4,0,0.5c-2.5,1.4-3.7,2.2-6.2,3.6c-0.2,0.1-0.6,0.1-0.9,0
		c-2.6-1.6-4-2.3-6.6-3.9C305.1,419.6,305.1,419.3,305.3,419.2z M354.3,449.3c0.3,0.2,0.3,0.4,0,0.5c-2.5,1.4-3.7,2.1-6.2,3.6
		c-0.2,0.1-0.6,0.1-0.9,0c-2.7-1.6-4.1-2.4-6.8-4c-0.3-0.1-0.3-0.4,0-0.5c2.5-1.4,3.7-2.1,6.2-3.6c0.2-0.1,0.6-0.1,0.9,0
		C350.3,446.9,351.6,447.7,354.3,449.3z M345.6,444.2c0.3,0.1,0.3,0.4,0,0.5c-2.5,1.4-3.7,2.1-6.2,3.6c-0.2,0.1-0.6,0.1-0.9,0
		c-2.7-1.6-4-2.4-6.7-3.9c-0.3-0.1-0.3-0.4,0-0.5c2.5-1.4,3.7-2.2,6.2-3.6c0.2-0.1,0.6-0.1,0.9,0
		C341.6,441.9,342.9,442.6,345.6,444.2z M337,439.1c0.2,0.1,0.3,0.4,0,0.5c-2.5,1.4-3.7,2.2-6.2,3.6c-0.2,0.1-0.6,0.1-0.9,0
		c-2.7-1.6-4-2.3-6.7-3.9c-0.3-0.1-0.3-0.4,0-0.5c2.5-1.4,3.7-2.2,6.2-3.6c0.2-0.1,0.6-0.1,0.9,0C333,436.8,334.3,437.6,337,439.1z
		 M328.4,434.1c0.3,0.1,0.3,0.4,0,0.5c-2.5,1.4-3.7,2.2-6.2,3.6c-0.2,0.1-0.6,0.1-0.9,0c-2.7-1.5-4-2.3-6.7-3.9
		c-0.3-0.1-0.3-0.4,0-0.5c2.5-1.5,3.8-2.2,6.3-3.6c0.2-0.1,0.6-0.1,0.9,0C324.4,431.8,325.7,432.6,328.4,434.1z M319.8,429.6
		c-2.5,1.4-3.7,2.2-6.2,3.6c-0.2,0.1-0.6,0.1-0.9,0c-2.7-1.5-4-2.3-6.7-3.9c-0.3-0.1-0.3-0.4,0-0.5c2.5-1.5,3.8-2.2,6.3-3.6
		c0.2-0.1,0.6-0.1,0.9,0c2.7,1.6,4,2.3,6.6,3.9C320.1,429.3,320.1,429.5,319.8,429.6z M297.4,423.8c2.5-1.5,3.8-2.2,6.3-3.7
		c0.2-0.1,0.6-0.1,0.9,0c2.7,1.6,4,2.3,6.6,3.9c0.3,0.1,0.3,0.4,0,0.5c-2.5,1.5-3.8,2.2-6.3,3.6c-0.2,0.1-0.6,0.1-0.9,0
		c-2.7-1.5-4-2.3-6.7-3.9C297.2,424.2,297.1,424,297.4,423.8z"/>
	<g>
		<path class="st59" d="M399.9,374.3c-2.4,1.4-3.6,2.1-6,3.5c-0.2,0.1-0.2,0.4,0.1,0.5c2.7,1.6,4,2.3,6.7,3.9c0.3,0.1,0.7,0.2,0.9,0
			c2.4-1.4,3.6-2.1,6-3.5c0.2-0.1,0.2-0.4,0-0.5c-2.7-1.6-4.1-2.3-6.8-3.9C400.5,374.2,400.1,374.1,399.9,374.3z"/>
		<path class="st59" d="M392.3,378.7c-2.4,1.4-3.6,2.1-6,3.5c-0.2,0.1-0.2,0.4,0,0.5c2.7,1.6,4,2.3,6.7,3.9c0.3,0.1,0.6,0.2,0.9,0
			c2.4-1.4,3.6-2.1,6-3.5c0.2-0.1,0.2-0.4,0-0.5c-2.7-1.6-4-2.3-6.7-3.9C392.9,378.6,392.5,378.5,392.3,378.7z"/>
		<path class="st59" d="M407.5,369.9c-2.4,1.4-3.6,2.1-6.1,3.5c-0.2,0.1-0.2,0.4,0.1,0.5c2.7,1.6,4.1,2.3,6.8,3.9
			c0.3,0.1,0.7,0.2,0.9,0c2.4-1.4,3.6-2.1,6.1-3.5c0.2-0.1,0.2-0.4,0-0.5c-2.7-1.6-4.1-2.3-6.8-3.9
			C408.1,369.7,407.7,369.7,407.5,369.9z"/>
		<path class="st59" d="M384.7,383.1c-2.4,1.4-3.6,2.1-6,3.5c-0.2,0.1-0.2,0.4,0,0.5c2.7,1.6,4,2.3,6.7,3.9c0.3,0.1,0.6,0.2,0.9,0
			c2.4-1.4,3.6-2.1,6-3.5c0.2-0.1,0.2-0.4,0-0.5c-2.7-1.6-4-2.3-6.7-3.9C385.3,383,384.9,382.9,384.7,383.1z"/>
		<path class="st59" d="M377.1,387.5c-2.4,1.4-3.6,2.1-6,3.5c-0.2,0.1-0.2,0.4,0,0.5c2.7,1.6,4,2.3,6.7,3.9c0.3,0.1,0.6,0.2,0.9,0
			c2.4-1.4,3.6-2.1,6-3.5c0.2-0.1,0.2-0.4,0-0.5c-2.7-1.6-4-2.3-6.7-3.9C377.7,387.4,377.4,387.4,377.1,387.5z"/>
		<path class="st59" d="M434.3,383.4c2.4-1.4,3.7-2.1,6.1-3.5c0.2-0.1,0.2-0.4,0-0.5c-2.7-1.6-4.1-2.3-6.8-3.9
			c-0.3-0.1-0.7-0.2-0.9,0c-2.4,1.4-3.7,2.1-6.1,3.5c-0.2,0.1-0.2,0.4,0.1,0.5c2.7,1.6,4.1,2.3,6.8,3.9
			C433.6,383.5,434,383.6,434.3,383.4z"/>
		<path class="st59" d="M441.9,379c2.4-1.4,3.7-2.1,6.1-3.5c0.2-0.1,0.2-0.4,0-0.5c-2.7-1.6-4.1-2.3-6.8-3.9c-0.3-0.1-0.7-0.2-0.9,0
			c-2.4,1.4-3.7,2.1-6.1,3.5c-0.2,0.1-0.2,0.4,0,0.5c2.7,1.6,4.1,2.3,6.8,3.9C441.3,379.1,441.7,379.1,441.9,379z"/>
		<path class="st59" d="M416,365.5c-0.3-0.1-0.7-0.2-0.9,0c-2.4,1.4-3.7,2.1-6.1,3.5c-0.2,0.1-0.2,0.4,0,0.5
			c2.7,1.6,4.1,2.3,6.8,3.9c0.3,0.1,0.6,0.2,0.9,0c2.4-1.4,3.6-2.1,6.1-3.5c0.2-0.1,0.2-0.4,0-0.5C420.1,367.8,418.8,367,416,365.5z
			"/>
		<path class="st59" d="M369.6,391.9c-2.4,1.4-3.6,2.1-6,3.5c-0.2,0.1-0.2,0.4,0,0.5c2.7,1.6,4,2.3,6.7,3.9c0.3,0.1,0.6,0.2,0.9,0
			c2.4-1.4,3.6-2.1,6-3.5c0.2-0.1,0.2-0.4,0-0.5c-2.7-1.6-4-2.3-6.7-3.9C370.2,391.8,369.8,391.8,369.6,391.9z"/>
		<path class="st59" d="M429,368c-0.3-0.1-0.7-0.2-0.9,0c-2.4,1.4-3.7,2.1-6.1,3.5c-0.2,0.1-0.2,0.4,0,0.5c2.7,1.6,4.1,2.3,6.8,3.9
			c0.3,0.1,0.7,0.2,0.9,0c2.4-1.4,3.7-2.1,6.1-3.5c0.2-0.1,0.2-0.4,0-0.5C433.1,370.4,431.8,369.6,429,368z"/>
		<path class="st59" d="M370.5,430.4c2.4-1.4,3.7-2.1,6.1-3.5c0.2-0.1,0.2-0.4,0-0.5c-2.7-1.6-4-2.4-6.7-4c-0.3-0.1-0.6-0.2-0.9,0
			c-2.4,1.4-3.7,2.1-6.1,3.5c-0.2,0.1-0.2,0.4,0,0.5c2.7,1.6,4,2.4,6.7,4C369.9,430.5,370.3,430.5,370.5,430.4z"/>
		<path class="st59" d="M346.4,443.8c0.3,0.1,0.7,0.2,0.9,0c7.1-4.1,14.3-8.2,21.4-12.4c0.2-0.1,0.2-0.4,0-0.5c-2.7-1.6-4-2.4-6.7-4
			c-0.3-0.1-0.6-0.2-0.9,0c-7.1,4.1-14.3,8.3-21.4,12.4c-0.2,0.1-0.2,0.4,0,0.5C342.3,441.4,343.7,442.2,346.4,443.8z"/>
		<path class="st59" d="M426.6,387.9c2.4-1.4,3.6-2.1,6.1-3.5c0.2-0.1,0.2-0.4,0-0.5c-2.7-1.6-4.1-2.3-6.8-3.9
			c-0.3-0.1-0.7-0.2-0.9,0c-2.4,1.4-3.6,2.1-6.1,3.5c-0.2,0.1-0.2,0.4,0.1,0.5c2.7,1.6,4.1,2.3,6.8,3.9
			C426,388,426.4,388,426.6,387.9z"/>
		<path class="st59" d="M385.9,421.5c2.4-1.4,3.7-2.1,6.1-3.5c0.2-0.1,0.2-0.4,0-0.5c-2.7-1.6-4-2.4-6.7-4c-0.3-0.1-0.6-0.2-0.9,0
			c-2.4,1.4-3.7,2.1-6.1,3.5c-0.2,0.1-0.2,0.4,0,0.5c2.7,1.6,4,2.4,6.7,4C385.3,421.6,385.6,421.6,385.9,421.5z"/>
		<path class="st59" d="M337.7,438.7c0.3,0.1,0.7,0.2,0.9,0c3.8-2.2,5.7-3.3,9.5-5.5c0.2-0.1,0.2-0.4,0-0.5
			c-3.3-1.9-4.9-2.9-8.1-4.8c3.9-2.2,7.7-4.5,11.6-6.7c0.2-0.1,0.2-0.4,0-0.5c-2.7-1.6-4-2.3-6.6-3.9c-0.3-0.1-0.6-0.2-0.9,0
			c-7.2,4.2-14.4,8.4-21.6,12.5c-0.2,0.1-0.2,0.4,0,0.5C327.6,432.8,332.7,435.7,337.7,438.7z"/>
		<path class="st59" d="M378.2,425.9c2.4-1.4,3.7-2.1,6.1-3.5c0.2-0.1,0.2-0.4,0-0.5c-2.7-1.6-4-2.4-6.7-4c-0.3-0.2-0.6-0.2-0.9,0
			c-2.4,1.4-3.7,2.1-6.1,3.5c-0.2,0.1-0.2,0.4,0,0.5c2.7,1.6,4,2.4,6.7,4C377.6,426.1,378,426.1,378.2,425.9z"/>
		<path class="st59" d="M320.1,420.6c-2.5,1.4-3.7,2.2-6.2,3.6c-0.2,0.1-0.2,0.4,0,0.5c2.7,1.6,4,2.3,6.6,3.9c0.3,0.1,0.7,0.2,0.9,0
			c2.5-1.4,3.7-2.2,6.2-3.6c0.2-0.1,0.2-0.4,0-0.5c-2.6-1.6-4-2.3-6.6-3.9C320.7,420.5,320.3,420.5,320.1,420.6z"/>
		<path class="st59" d="M346.7,405.2c-2.4,1.4-3.6,2.1-6.1,3.5c-0.2,0.1-0.2,0.4,0,0.5c2.7,1.6,4,2.3,6.6,3.9c0.2,0.1,0.6,0.2,0.9,0
			c2.4-1.4,3.7-2.1,6.1-3.5c0.2-0.1,0.2-0.4,0-0.5c-2.7-1.6-4-2.3-6.6-3.9C347.4,405,347,405,346.7,405.2z"/>
		<path class="st59" d="M362,396.3c-2.4,1.4-3.6,2.1-6,3.5c-0.2,0.1-0.2,0.4,0,0.5c2.7,1.6,4,2.3,6.6,3.9c0.3,0.1,0.6,0.2,0.9,0
			c2.4-1.4,3.6-2.1,6-3.5c0.2-0.1,0.2-0.4,0-0.5c-2.7-1.6-4-2.3-6.7-3.9C362.6,396.2,362.2,396.2,362,396.3z"/>
		<path class="st59" d="M354.4,400.7c-2.4,1.4-3.6,2.1-6.1,3.5c-0.2,0.1-0.2,0.4,0,0.5c2.7,1.6,4,2.4,6.6,3.9c0.3,0.1,0.6,0.2,0.9,0
			c2.4-1.4,3.6-2.1,6.1-3.5c0.2-0.1,0.2-0.4,0-0.5c-2.7-1.6-4-2.4-6.6-3.9C355,400.6,354.6,400.6,354.4,400.7z"/>
		<path class="st59" d="M338.8,409.8c-5.6,3.3-11.2,6.5-16.8,9.8c-0.2,0.1-0.2,0.4,0,0.5c2.6,1.6,4,2.3,6.6,3.9
			c0.3,0.1,0.6,0.2,0.9,0c5.6-3.3,11.2-6.5,16.8-9.8c0.2-0.1,0.2-0.4,0-0.5c-2.6-1.6-4-2.3-6.6-3.9
			C339.4,409.7,339,409.7,338.8,409.8z"/>
		<path class="st59" d="M412.8,376.9c-2.4,1.4-3.6,2.1-6.1,3.5c-0.2,0.1-0.2,0.4,0.1,0.5c2.7,1.6,4,2.3,6.7,3.9
			c0.3,0.1,0.7,0.2,0.9,0c2.4-1.4,3.6-2.1,6.1-3.5c0.2-0.1,0.2-0.4,0-0.5c-2.7-1.6-4-2.3-6.8-3.9
			C413.5,376.7,413.1,376.7,412.8,376.9z"/>
		<path class="st59" d="M390,390.1c-2.4,1.4-3.6,2.1-6,3.5c-0.2,0.1-0.2,0.4,0,0.5c2.7,1.6,4,2.3,6.7,3.9c0.3,0.1,0.6,0.2,0.9,0
			c2.4-1.4,3.6-2.1,6-3.5c0.2-0.1,0.2-0.4,0-0.5c-2.7-1.6-4-2.3-6.7-3.9C390.6,390,390.2,390,390,390.1z"/>
		<path class="st59" d="M418.9,392.3c2.4-1.4,3.6-2.1,6.1-3.5c0.2-0.1,0.2-0.4,0-0.5c-2.7-1.6-4.1-2.3-6.8-3.9
			c-0.3-0.1-0.7-0.2-0.9,0c-2.4,1.4-3.6,2.1-6.1,3.5c-0.2,0.1-0.2,0.4,0,0.5c2.7,1.6,4,2.3,6.7,3.9
			C418.3,392.4,418.7,392.4,418.9,392.3z"/>
		<path class="st59" d="M405.2,381.3c-2.4,1.4-3.6,2.1-6,3.5c-0.2,0.1-0.2,0.4,0,0.5c2.7,1.6,4,2.3,6.7,3.9c0.3,0.1,0.6,0.2,0.9,0
			c2.4-1.4,3.6-2.1,6.1-3.5c0.2-0.1,0.2-0.4,0-0.5c-2.7-1.6-4-2.3-6.7-3.9C405.8,381.1,405.4,381.1,405.2,381.3z"/>
		<path class="st59" d="M382.4,394.5c-2.4,1.4-3.6,2.1-6,3.5c-0.2,0.1-0.2,0.4,0,0.5c2.7,1.6,4,2.3,6.7,3.9c0.3,0.1,0.6,0.2,0.9,0
			c2.4-1.4,3.6-2.1,6-3.5c0.2-0.1,0.2-0.4,0-0.5c-2.7-1.6-4-2.3-6.7-3.9C383,394.4,382.6,394.4,382.4,394.5z"/>
		<path class="st59" d="M367.2,403.3c-2.4,1.4-3.6,2.1-6.1,3.5c-0.2,0.1-0.2,0.4,0,0.5c2.7,1.6,4,2.4,6.6,3.9c0.3,0.1,0.6,0.2,0.9,0
			c2.4-1.4,3.6-2.1,6.1-3.5c0.2-0.1,0.2-0.4,0-0.5c-2.7-1.6-4-2.3-6.7-3.9C367.8,403.2,367.4,403.2,367.2,403.3z"/>
		<path class="st59" d="M374.8,398.9c-2.4,1.4-3.6,2.1-6,3.5c-0.2,0.1-0.2,0.4,0,0.5c2.7,1.6,4,2.3,6.7,3.9c0.3,0.1,0.6,0.2,0.9,0
			c2.4-1.4,3.6-2.1,6.1-3.5c0.2-0.1,0.2-0.4,0-0.5c-2.7-1.6-4-2.3-6.7-3.9C375.4,398.8,375,398.8,374.8,398.9z"/>
		<path class="st59" d="M455,373.2c2.7,1.6,4.1,2.4,6.8,3.9c0.3,0.2,0.7,0.2,0.9,0c2.5-1.4,3.7-2.1,6.1-3.5c0.2-0.1,0.2-0.4,0-0.5
			c-2.7-1.6-4.1-2.4-6.8-3.9c-0.3-0.1-0.7-0.2-0.9,0c-2.5,1.4-3.7,2.1-6.1,3.5C454.7,372.8,454.7,373.1,455,373.2z"/>
		<path class="st59" d="M357.6,427.7c2.5-1.4,3.7-2.1,6.1-3.5c0.2-0.1,0.2-0.4,0-0.5c-2.7-1.6-4-2.4-6.6-3.9c-0.3-0.1-0.6-0.2-0.9,0
			c-2.4,1.4-3.7,2.1-6.1,3.5c-0.2,0.1-0.2,0.4,0,0.5c2.7,1.6,4,2.4,6.6,3.9C357,427.9,357.4,427.9,357.6,427.7z"/>
		<path class="st59" d="M348.5,424.2c-2.5,1.4-3.7,2.1-6.1,3.6c-0.2,0.1-0.2,0.4,0,0.5c2.7,1.6,4,2.4,6.6,3.9c0.3,0.1,0.6,0.2,0.9,0
			c2.5-1.4,3.7-2.1,6.1-3.6c0.2-0.1,0.2-0.4,0-0.5c-2.7-1.6-4-2.4-6.6-3.9C349.1,424.1,348.7,424.1,348.5,424.2z"/>
		<path class="st59" d="M393.6,417.1c2.4-1.4,3.7-2.1,6.1-3.5c0.2-0.1,0.2-0.4,0-0.5c-2.7-1.6-4-2.4-6.7-4c-0.3-0.1-0.6-0.2-0.9,0
			c-2.4,1.4-3.6,2.1-6.1,3.5c-0.2,0.1-0.2,0.4,0,0.5c2.7,1.6,4,2.4,6.7,4C392.9,417.2,393.3,417.2,393.6,417.1z"/>
		<path class="st59" d="M397.6,385.7c-2.4,1.4-3.6,2.1-6,3.5c-0.2,0.1-0.2,0.4,0,0.5c2.7,1.6,4,2.3,6.7,3.9c0.3,0.1,0.6,0.2,0.9,0
			c2.4-1.4,3.6-2.1,6.1-3.5c0.2-0.1,0.2-0.4,0-0.5c-2.7-1.6-4-2.3-6.7-3.9C398.2,385.6,397.8,385.5,397.6,385.7z"/>
		<path class="st59" d="M396,405.5c2.4-1.4,3.6-2.1,6.1-3.5c0.2-0.1,0.2-0.4,0-0.5c-2.7-1.6-4-2.4-6.7-3.9c-0.3-0.1-0.6-0.2-0.9,0
			c-2.4,1.4-3.6,2.1-6,3.5c-0.2,0.1-0.2,0.4,0,0.5c2.7,1.6,4,2.4,6.7,3.9C395.4,405.7,395.8,405.7,396,405.5z"/>
		<path class="st59" d="M359.5,407.8c-2.4,1.4-3.6,2.1-6.1,3.5c-0.2,0.1-0.2,0.4,0,0.5c2.6,1.6,4,2.3,6.6,3.9c0.3,0.1,0.6,0.2,0.9,0
			c2.4-1.4,3.7-2.1,6.1-3.5c0.2-0.1,0.2-0.4,0-0.5c-2.7-1.6-4-2.4-6.6-3.9C360.1,407.6,359.7,407.6,359.5,407.8z"/>
		<path class="st59" d="M388.3,410c2.4-1.4,3.6-2.1,6.1-3.5c0.2-0.1,0.2-0.4,0-0.5c-2.7-1.6-4-2.4-6.7-3.9c-0.3-0.1-0.6-0.2-0.9,0
			c-2.4,1.4-3.6,2.1-6.1,3.5c-0.2,0.1-0.2,0.4,0,0.5c2.7,1.6,4,2.4,6.7,3.9C387.7,410.1,388.1,410.1,388.3,410z"/>
		<path class="st59" d="M411.3,396.7c2.4-1.4,3.6-2.1,6.1-3.5c0.2-0.1,0.2-0.4,0-0.5c-2.7-1.6-4-2.4-6.7-3.9c-0.3-0.1-0.7-0.2-0.9,0
			c-2.4,1.4-3.6,2.1-6.1,3.5c-0.2,0.1-0.2,0.4,0,0.5c2.7,1.6,4,2.3,6.7,3.9C410.7,396.8,411.1,396.8,411.3,396.7z"/>
		<path class="st59" d="M403.6,401.1c2.4-1.4,3.6-2.1,6.1-3.5c0.2-0.1,0.2-0.4,0-0.5c-2.7-1.6-4-2.4-6.7-3.9c-0.3-0.1-0.7-0.2-0.9,0
			c-2.4,1.4-3.6,2.1-6,3.5c-0.2,0.1-0.2,0.4,0,0.5c2.7,1.6,4,2.4,6.7,3.9C403,401.2,403.4,401.2,403.6,401.1z"/>
		<path class="st59" d="M351.9,412.2c-2.4,1.4-3.7,2.1-6.1,3.5c-0.2,0.1-0.2,0.4,0,0.5c2.6,1.6,4,2.3,6.6,3.9c0.3,0.1,0.6,0.2,0.9,0
			c2.4-1.4,3.7-2.1,6.1-3.5c0.2-0.1,0.2-0.4,0-0.5c-2.7-1.6-4-2.4-6.6-3.9C352.5,412.1,352.1,412.1,351.9,412.2z"/>
		<path class="st59" d="M365.3,423.3c2.4-1.4,3.7-2.1,6.1-3.5c0.2-0.1,0.2-0.4,0-0.5c-2.7-1.6-4-2.4-6.6-3.9c-0.3-0.1-0.6-0.2-0.9,0
			c-2.4,1.4-3.7,2.1-6.1,3.5c-0.2,0.1-0.2,0.4,0,0.5c2.6,1.6,4,2.4,6.6,3.9C364.7,423.4,365.1,423.4,365.3,423.3z"/>
		<path class="st59" d="M380.7,414.4c2.4-1.4,3.6-2.1,6.1-3.5c0.2-0.1,0.2-0.4,0-0.5c-2.7-1.6-4-2.4-6.7-3.9c-0.3-0.1-0.6-0.2-0.9,0
			c-2.4,1.4-3.6,2.1-6.1,3.5c-0.2,0.1-0.2,0.4,0,0.5c2.7,1.6,4,2.4,6.7,3.9C380.1,414.5,380.5,414.5,380.7,414.4z"/>
		<path class="st59" d="M373,418.8c2.4-1.4,3.7-2.1,6.1-3.5c0.2-0.1,0.2-0.4,0-0.5c-2.7-1.6-4-2.4-6.7-3.9c-0.3-0.1-0.6-0.2-0.9,0
			c-2.4,1.4-3.6,2.1-6.1,3.5c-0.2,0.1-0.2,0.4,0,0.5c2.7,1.6,4,2.4,6.7,3.9C372.4,419,372.8,419,373,418.8z"/>
		<path class="st59" d="M422.1,380.4c2.4-1.4,3.6-2.1,6.1-3.5c0.2-0.1,0.2-0.4,0-0.5c-2.7-1.6-4.1-2.3-6.8-3.9
			c-0.3-0.1-0.7-0.2-0.9,0c-2.4,1.4-3.6,2.1-6.1,3.5c-0.2,0.1-0.2,0.4,0,0.5c2.7,1.6,4.1,2.3,6.8,3.9
			C421.5,380.5,421.9,380.5,422.1,380.4z"/>
		<path class="st59" d="M370.8,431.9c-0.3-0.2-0.6-0.2-0.9,0c-2.4,1.4-3.7,2.1-6.1,3.5c-0.2,0.1-0.2,0.4,0,0.5c2.7,1.6,4,2.4,6.7,4
			c0.3,0.2,0.7,0.2,0.9,0c2.5-1.4,3.7-2.1,6.1-3.5c0.2-0.1,0.2-0.4,0-0.5C374.8,434.3,373.5,433.5,370.8,431.9z"/>
		<path class="st59" d="M386.2,423c-0.3-0.2-0.6-0.2-0.9,0c-2.4,1.4-3.7,2.1-6.1,3.5c-0.2,0.1-0.2,0.4,0,0.5c2.7,1.6,4,2.4,6.7,4
			c0.3,0.2,0.6,0.2,0.9,0c2.4-1.4,3.7-2.1,6.1-3.5c0.2-0.1,0.2-0.4,0-0.5C390.2,425.4,388.9,424.6,386.2,423z"/>
		<path class="st59" d="M378.5,427.5c-0.3-0.2-0.6-0.2-0.9,0c-2.4,1.4-3.7,2.1-6.1,3.5c-0.2,0.1-0.2,0.4,0,0.5c2.7,1.6,4,2.4,6.7,4
			c0.3,0.2,0.7,0.2,0.9,0c2.4-1.4,3.7-2.1,6.1-3.5c0.2-0.1,0.2-0.4,0-0.5C382.5,429.9,381.2,429.1,378.5,427.5z"/>
		<path class="st59" d="M401.6,414.2c-0.3-0.2-0.6-0.2-0.9,0c-2.4,1.4-3.7,2.1-6.1,3.5c-0.2,0.1-0.2,0.4,0,0.5c2.7,1.6,4,2.4,6.7,4
			c0.3,0.2,0.7,0.2,0.9,0c2.4-1.4,3.7-2.1,6.1-3.5c0.2-0.1,0.2-0.4,0-0.5C405.6,416.6,404.2,415.8,401.6,414.2z"/>
		<path class="st59" d="M393.9,418.6c-0.3-0.2-0.6-0.2-0.9,0c-2.4,1.4-3.7,2.1-6.1,3.5c-0.2,0.1-0.2,0.4,0,0.5c2.7,1.6,4,2.4,6.7,4
			c0.3,0.2,0.6,0.2,0.9,0c2.4-1.4,3.7-2.1,6.1-3.5c0.2-0.1,0.2-0.4,0-0.5C397.9,421,396.6,420.2,393.9,418.6z"/>
		<path class="st59" d="M355.3,440.9c-0.3-0.2-0.7-0.2-0.9,0c-2.5,1.4-3.7,2.1-6.2,3.6c-0.2,0.1-0.2,0.4,0,0.5c2.7,1.6,4,2.4,6.7,4
			c0.3,0.2,0.7,0.2,0.9,0c2.5-1.4,3.7-2.1,6.1-3.5c0.2-0.1,0.2-0.4,0-0.5C359.4,443.3,358,442.5,355.3,440.9z"/>
		<path class="st59" d="M345.6,444.2c-2.7-1.6-4-2.4-6.7-3.9c-0.3-0.1-0.6-0.2-0.9,0c-2.5,1.4-3.7,2.1-6.2,3.6
			c-0.2,0.1-0.2,0.4,0,0.5c2.7,1.6,4,2.3,6.7,3.9c0.3,0.1,0.7,0.2,0.9,0c2.5-1.4,3.7-2.1,6.2-3.6
			C345.9,444.6,345.9,444.4,345.6,444.2z"/>
		<path class="st59" d="M347.6,445.4c-0.3-0.2-0.7-0.2-0.9,0c-2.5,1.4-3.7,2.1-6.2,3.6c-0.2,0.1-0.2,0.4,0,0.5
			c2.7,1.6,4.1,2.4,6.8,4c0.3,0.2,0.7,0.2,0.9,0c2.5-1.4,3.7-2.1,6.2-3.6c0.2-0.1,0.2-0.4,0-0.5
			C351.6,447.7,350.3,446.9,347.6,445.4z"/>
		<path class="st59" d="M409.2,409.7c-0.3-0.2-0.7-0.2-0.9,0c-2.4,1.4-3.6,2.1-6.1,3.5c-0.2,0.1-0.2,0.4,0,0.5c2.7,1.6,4,2.4,6.7,4
			c0.3,0.2,0.7,0.2,0.9,0c2.4-1.4,3.7-2.1,6.1-3.5c0.2-0.1,0.2-0.4,0-0.5C413.3,412.1,411.9,411.3,409.2,409.7z"/>
		<path class="st59" d="M363.1,436.4c-0.3-0.2-0.6-0.2-0.9,0c-2.5,1.4-3.7,2.1-6.1,3.5c-0.2,0.1-0.2,0.4,0,0.5c2.7,1.6,4,2.4,6.7,4
			c0.3,0.2,0.7,0.2,0.9,0c2.5-1.4,3.7-2.1,6.1-3.5c0.2-0.1,0.2-0.4,0-0.5C367.1,438.8,365.8,438,363.1,436.4z"/>
		<path class="st59" d="M455.3,383.2c-0.3-0.1-0.7-0.2-0.9,0c-2.4,1.4-3.7,2.1-6.1,3.5c-0.2,0.1-0.2,0.4,0,0.5
			c2.7,1.6,4.1,2.4,6.8,4c0.3,0.2,0.7,0.2,0.9,0c2.4-1.4,3.7-2.1,6.1-3.5c0.2-0.1,0.2-0.4,0-0.5C459.4,385.5,458,384.7,455.3,383.2z
			"/>
		<path class="st59" d="M463,378.7c-0.3-0.1-0.7-0.2-0.9,0c-2.5,1.4-3.7,2.1-6.1,3.5c-0.2,0.1-0.2,0.4,0.1,0.5
			c2.7,1.6,4.1,2.4,6.8,4c0.3,0.2,0.7,0.2,0.9,0c2.4-1.4,3.7-2.1,6.1-3.5c0.2-0.1,0.2-0.4,0-0.5C467.1,381.1,465.7,380.3,463,378.7z
			"/>
		<path class="st59" d="M416.9,405.3c-0.3-0.2-0.7-0.2-0.9,0c-2.4,1.4-3.7,2.1-6.1,3.5c-0.2,0.1-0.2,0.4,0,0.5
			c2.7,1.6,4.1,2.4,6.8,4c0.3,0.2,0.7,0.2,0.9,0c2.4-1.4,3.7-2.1,6.1-3.5c0.2-0.1,0.2-0.4,0-0.5C421,407.7,419.6,406.9,416.9,405.3z
			"/>
		<path class="st59" d="M337,439.1c-2.7-1.6-4-2.3-6.7-3.9c-0.3-0.1-0.6-0.2-0.9,0c-2.5,1.4-3.7,2.2-6.2,3.6c-0.2,0.1-0.2,0.4,0,0.5
			c2.7,1.5,4,2.3,6.7,3.9c0.3,0.1,0.7,0.2,0.9,0c2.5-1.4,3.7-2.2,6.2-3.6C337.2,439.5,337.2,439.3,337,439.1z"/>
		<path class="st59" d="M470.7,374.3c-0.3-0.1-0.7-0.2-0.9,0c-2.5,1.4-3.7,2.1-6.1,3.5c-0.2,0.1-0.2,0.4,0,0.5
			c2.7,1.6,4.1,2.4,6.8,4c0.3,0.1,0.7,0.2,0.9,0c2.4-1.4,3.7-2.1,6.1-3.5c0.2-0.1,0.2-0.4,0-0.5
			C474.8,376.7,473.5,375.9,470.7,374.3z"/>
		<path class="st59" d="M432.2,396.5c-0.3-0.1-0.7-0.2-0.9,0c-2.4,1.4-3.7,2.1-6.1,3.5c-0.2,0.1-0.2,0.4,0,0.5
			c2.7,1.6,4.1,2.4,6.8,4c0.3,0.2,0.7,0.2,0.9,0c2.4-1.4,3.7-2.1,6.1-3.5c0.2-0.1,0.2-0.4-0.1-0.5
			C436.3,398.8,434.9,398,432.2,396.5z"/>
		<path class="st59" d="M447.6,387.6c-0.3-0.2-0.7-0.2-0.9,0c-2.4,1.4-3.7,2.1-6.1,3.5c-0.2,0.1-0.2,0.4,0,0.5
			c2.7,1.6,4.1,2.4,6.8,4c0.3,0.2,0.7,0.2,0.9,0c2.4-1.4,3.7-2.1,6.1-3.5c0.2-0.1,0.2-0.4-0.1-0.5
			C451.7,390,450.3,389.2,447.6,387.6z"/>
		<path class="st59" d="M424.6,400.9c-0.3-0.2-0.7-0.2-0.9,0c-2.4,1.4-3.7,2.1-6.1,3.5c-0.2,0.1-0.2,0.4,0,0.5
			c2.7,1.6,4.1,2.4,6.8,4c0.3,0.2,0.7,0.2,0.9,0c2.4-1.4,3.7-2.1,6.1-3.5c0.2-0.1,0.2-0.4,0-0.5
			C428.6,403.3,427.3,402.5,424.6,400.9z"/>
		<path class="st59" d="M439.9,392c-0.3-0.2-0.7-0.2-0.9,0c-2.4,1.4-3.7,2.1-6.1,3.5c-0.2,0.1-0.2,0.4,0,0.5c2.7,1.6,4.1,2.4,6.8,4
			c0.3,0.1,0.7,0.2,0.9,0c2.4-1.4,3.7-2.1,6.1-3.5c0.2-0.1,0.2-0.4-0.1-0.5C444,394.4,442.6,393.6,439.9,392z"/>
		<path class="st59" d="M319.8,429.1c-2.7-1.6-4-2.3-6.6-3.9c-0.2-0.1-0.6-0.2-0.9,0c-2.5,1.5-3.8,2.2-6.3,3.6
			c-0.2,0.1-0.2,0.4,0,0.5c2.7,1.5,4,2.3,6.7,3.9c0.3,0.1,0.7,0.2,0.9,0c2.5-1.5,3.8-2.2,6.2-3.6
			C320.1,429.5,320.1,429.3,319.8,429.1z"/>
		<path class="st59" d="M455,381.6c2.4-1.4,3.7-2.1,6.1-3.5c0.2-0.1,0.2-0.4,0-0.5c-2.7-1.6-4.1-2.4-6.8-3.9c-0.3-0.1-0.7-0.2-0.9,0
			c-2.5,1.4-3.7,2.1-6.1,3.5c-0.2,0.1-0.2,0.4,0,0.5c2.7,1.6,4.1,2.4,6.8,3.9C454.3,381.7,454.7,381.7,455,381.6z"/>
		<path class="st59" d="M439.6,390.5c2.4-1.4,3.7-2.1,6.1-3.5c0.2-0.1,0.2-0.4,0-0.5c-2.7-1.6-4.1-2.4-6.8-3.9
			c-0.3-0.1-0.7-0.2-0.9,0c-2.4,1.4-3.7,2.1-6.1,3.5c-0.2,0.1-0.2,0.4,0,0.5c2.7,1.6,4.1,2.4,6.8,3.9
			C438.9,390.6,439.3,390.6,439.6,390.5z"/>
		<path class="st59" d="M447.3,386c2.4-1.4,3.7-2.1,6.1-3.5c0.2-0.1,0.2-0.4,0-0.5c-2.7-1.6-4.1-2.4-6.8-3.9c-0.3-0.1-0.7-0.2-0.9,0
			c-2.4,1.4-3.7,2.1-6.1,3.5c-0.2,0.1-0.2,0.4,0,0.5c2.7,1.6,4.1,2.4,6.8,3.9C446.6,386.2,447,386.2,447.3,386z"/>
		<path class="st59" d="M442,370.6c2.7,1.6,4.1,2.3,6.8,3.9c0.3,0.1,0.7,0.2,0.9,0c3.5-2,6.9-4,10.4-6c0.2-0.1,0.2-0.4,0-0.5
			c-2.7-1.6-4.1-2.4-6.8-3.9c-0.3-0.1-0.7-0.2-0.9,0c-3.5,2-6.9,4-10.4,6C441.8,370.2,441.8,370.4,442,370.6z"/>
		<path class="st59" d="M429.9,367.5c2.7,1.6,4.1,2.3,6.8,3.9c0.3,0.1,0.7,0.2,0.9,0c4.6-2.6,9.2-5.3,13.8-7.9
			c0.2-0.1,0.2-0.4,0-0.5c-2.7-1.6-4.1-2.3-6.8-3.9c-0.3-0.1-0.7-0.2-0.9,0c-4.6,2.6-9.2,5.3-13.8,7.9
			C429.6,367.1,429.6,367.4,429.9,367.5z"/>
		<path class="st59" d="M416.6,403.8c2.4-1.4,3.7-2.1,6.1-3.5c0.2-0.1,0.2-0.4,0-0.5c-2.7-1.6-4.1-2.4-6.8-3.9
			c-0.3-0.1-0.6-0.2-0.9,0c-2.4,1.4-3.6,2.1-6.1,3.5c-0.2,0.1-0.2,0.4,0,0.5c2.7,1.6,4,2.4,6.7,3.9
			C415.9,403.9,416.3,403.9,416.6,403.8z"/>
		<path class="st59" d="M431.9,394.9c2.4-1.4,3.6-2.1,6.1-3.5c0.2-0.1,0.2-0.4-0.1-0.5c-2.7-1.6-4.1-2.4-6.8-3.9
			c-0.3-0.1-0.6-0.2-0.9,0c-2.4,1.4-3.7,2.1-6.1,3.5c-0.2,0.1-0.2,0.4,0,0.5c2.7,1.6,4.1,2.4,6.8,3.9
			C431.3,395,431.7,395,431.9,394.9z"/>
		<path class="st59" d="M328.4,434.1c-2.7-1.6-4-2.3-6.6-3.9c-0.3-0.1-0.6-0.2-0.9,0c-2.5,1.4-3.7,2.2-6.3,3.6
			c-0.2,0.1-0.2,0.4,0,0.5c2.7,1.5,4,2.3,6.7,3.9c0.3,0.1,0.7,0.2,0.9,0c2.5-1.4,3.7-2.2,6.2-3.6
			C328.6,434.5,328.6,434.3,328.4,434.1z"/>
		<path class="st59" d="M408.9,408.2c2.4-1.4,3.6-2.1,6.1-3.5c0.2-0.1,0.2-0.4,0-0.5c-2.7-1.6-4-2.4-6.7-3.9c-0.3-0.1-0.6-0.2-0.9,0
			c-2.4,1.4-3.6,2.1-6.1,3.5c-0.2,0.1-0.2,0.4,0,0.5c2.7,1.6,4,2.4,6.7,3.9C408.3,408.3,408.7,408.3,408.9,408.2z"/>
		<path class="st59" d="M424.2,399.3c2.4-1.4,3.6-2.1,6.1-3.5c0.2-0.1,0.2-0.4-0.1-0.5c-2.7-1.6-4.1-2.4-6.8-3.9
			c-0.3-0.1-0.6-0.2-0.9,0c-2.4,1.4-3.6,2.1-6.1,3.5c-0.2,0.1-0.2,0.4,0,0.5c2.7,1.6,4.1,2.4,6.8,3.9
			C423.6,399.5,424,399.5,424.2,399.3z"/>
		<path class="st59" d="M416.9,365c2.7,1.6,4.1,2.3,6.8,3.9c0.3,0.1,0.7,0.2,0.9,0c6-3.5,12-6.9,18-10.4c0.2-0.1,0.2-0.4,0-0.5
			c-2.7-1.6-4.1-2.3-6.8-3.9c-0.3-0.1-0.7-0.2-0.9,0c-6,3.5-12,6.9-18,10.4C416.6,364.6,416.7,364.8,416.9,365z"/>
		<path class="st59" d="M311.2,424.1c-2.7-1.6-4-2.3-6.6-3.9c-0.2-0.1-0.6-0.2-0.9,0c-2.5,1.5-3.8,2.2-6.3,3.7
			c-0.2,0.1-0.2,0.4,0,0.5c2.7,1.5,4,2.3,6.7,3.9c0.3,0.1,0.6,0.2,0.9,0c2.5-1.5,3.8-2.2,6.3-3.6
			C311.5,424.5,311.5,424.2,311.2,424.1z"/>
		<path class="st59" d="M426.8,357c0.3,0.1,0.7,0.2,0.9,0c2.5-1.4,3.7-2.1,6.2-3.6c0.2-0.1,0.2-0.4,0-0.5c-2.7-1.6-4.1-2.3-6.8-3.9
			c-0.3-0.1-0.7-0.2-0.9,0c-2.5,1.4-3.7,2.1-6.2,3.6c-0.2,0.1-0.2,0.4,0,0.5C422.7,354.6,424.1,355.4,426.8,357z"/>
		<path class="st59" d="M319.8,419.1c0.2,0.1,0.6,0.2,0.9,0c2.5-1.4,3.7-2.2,6.2-3.6c0.2-0.1,0.2-0.4,0-0.5c-2.6-1.6-4-2.3-6.6-3.9
			c-0.3-0.1-0.6-0.2-0.9,0c-2.5,1.4-3.7,2.2-6.2,3.6c-0.2,0.1-0.2,0.4,0,0.5C315.8,416.7,317.2,417.5,319.8,419.1z"/>
		<path class="st59" d="M401.2,412.6c2.4-1.4,3.6-2.1,6.1-3.5c0.2-0.1,0.2-0.4,0-0.5c-2.7-1.6-4-2.4-6.7-3.9c-0.3-0.2-0.6-0.2-0.9,0
			c-2.4,1.4-3.6,2.1-6.1,3.5c-0.2,0.1-0.2,0.4,0,0.5c2.7,1.6,4,2.4,6.7,4C400.6,412.7,401,412.8,401.2,412.6z"/>
		<path class="st59" d="M312,423.6c0.3,0.1,0.6,0.2,0.9,0c2.5-1.5,3.7-2.2,6.2-3.6c0.2-0.1,0.2-0.4,0-0.5c-2.6-1.6-4-2.3-6.6-3.9
			c-0.2-0.1-0.6-0.2-0.9,0c-2.5,1.4-3.7,2.2-6.2,3.6c-0.2,0.1-0.2,0.4,0,0.5C308,421.3,309.3,422.1,312,423.6z"/>
		<path class="st59" d="M343,405.6c0.3,0.1,0.6,0.2,0.9,0c24.7-14.4,49.5-28.8,74.3-43.2c0.2-0.1,0.2-0.4,0-0.5
			c-2.7-1.6-4.1-2.3-6.8-3.9c-0.3-0.1-0.7-0.2-0.9,0c-24.8,14.3-49.5,28.7-74.1,43.1c-0.2,0.1-0.2,0.4,0,0.5
			C339.1,403.2,340.4,404,343,405.6z"/>
		<path class="st59" d="M327.6,414.6c0.2,0.1,0.6,0.2,0.9,0c2.5-1.4,3.7-2.1,6.1-3.6c0.2-0.1,0.2-0.4,0-0.5c-2.6-1.6-4-2.4-6.6-3.9
			c-0.3-0.1-0.6-0.2-0.9,0c-2.4,1.4-3.7,2.1-6.1,3.6c-0.2,0.1-0.2,0.4,0,0.5C323.6,412.2,325,413,327.6,414.6z"/>
		<path class="st59" d="M419.1,361.4c0.3,0.1,0.7,0.2,0.9,0c2.4-1.4,3.7-2.1,6.1-3.5c0.2-0.1,0.2-0.4,0-0.5
			c-2.7-1.6-4.1-2.3-6.8-3.9c-0.3-0.1-0.7-0.2-0.9,0c-2.5,1.4-3.7,2.1-6.1,3.5c-0.2,0.1-0.2,0.4,0,0.5
			C415,359.1,416.4,359.9,419.1,361.4z"/>
		<path class="st59" d="M335.3,410.1c0.2,0.1,0.6,0.2,0.9,0c2.4-1.4,3.7-2.1,6.1-3.5c0.2-0.1,0.2-0.4,0-0.5c-2.7-1.6-4-2.4-6.6-3.9
			c-0.2-0.1-0.6-0.2-0.9,0c-2.4,1.4-3.6,2.1-6.1,3.5c-0.2,0.1-0.2,0.4,0,0.5C331.3,407.7,332.7,408.5,335.3,410.1z"/>
	</g>
	<g>
		<g>
			<g>
				<g class="st60">
					<g>
						<polygon class="st61" points="259.7,80.5 260.4,159.6 280.7,147.5 280,68.3 						"/>
					</g>
					<g>
						<polygon class="st62" points="259.7,80.5 246,72.5 246.7,151.7 260.4,159.6 						"/>
					</g>
					<g>
						<polygon class="st63" points="280,68.3 266.3,60.4 246,72.5 259.7,80.5 						"/>
					</g>
				</g>
			</g>
			<g>
				<g class="st60">
					<g>
						<polygon class="st64" points="223.9,323.1 224.6,333.6 361.6,254.3 361,243.8 						"/>
					</g>
					<g>
						<polygon class="st58" points="223.9,323.1 198.8,308.5 199.4,318.9 224.6,333.6 						"/>
					</g>
					<g>
						<polygon class="st55" points="361,243.8 335.9,229.2 198.8,308.5 223.9,323.1 						"/>
					</g>
				</g>
			</g>
			<g>
				<g class="st60">
					<g>
						<polygon class="st64" points="170.5,163.1 171,338.7 384.2,215.6 383.7,40 						"/>
					</g>
					<g>
						<polygon class="st54" points="170.5,163.1 160.3,157.2 160.8,332.8 171,338.7 						"/>
					</g>
					<g>
						<polygon class="st55" points="383.7,40 373.5,34.1 160.3,157.2 170.5,163.1 						"/>
					</g>
				</g>
			</g>
			<g>
				<g class="st60">
					<g>
						<polygon class="st64" points="223.9,140.3 224.6,150.8 361.6,71.5 361,61 						"/>
					</g>
					<g>
						<polygon class="st54" points="223.9,140.3 198.8,125.7 199.4,136.1 224.6,150.8 						"/>
					</g>
					<g>
						<polygon class="st55" points="361,61 335.9,46.4 198.8,125.7 223.9,140.3 						"/>
					</g>
				</g>
			</g>
		</g>
		<g>
			<g>
				
					<linearGradient id="SVGID_00000023267038764261408340000004643196993135281339_" gradientUnits="userSpaceOnUse" x1="1729.7604" y1="141.1206" x2="1729.7604" y2="226.6374" gradientTransform="matrix(-1 0 0 1 2084.707 0)">
					<stop  offset="0" style="stop-color:#F47F7B"/>
					<stop  offset="0.5" style="stop-color:#EE3F58"/>
					<stop  offset="1" style="stop-color:#DC2048"/>
				</linearGradient>
				<polygon style="fill:url(#SVGID_00000023267038764261408340000004643196993135281339_);" points="341.3,142.3 341.5,224.7 
					368.6,209.1 368.4,126.7 				"/>
			</g>
			<g>
				
					<linearGradient id="SVGID_00000014612428501536024110000014702859089302094729_" gradientUnits="userSpaceOnUse" x1="1773.8492" y1="191.3861" x2="1773.8492" y2="246.9085" gradientTransform="matrix(-1 0 0 1 2084.707 0)">
					<stop  offset="0" style="stop-color:#33C4F2"/>
					<stop  offset="0.5" style="stop-color:#27ACE3"/>
					<stop  offset="1" style="stop-color:#1E94D2"/>
				</linearGradient>
				<polygon style="fill:url(#SVGID_00000014612428501536024110000014702859089302094729_);" points="297.2,196.5 297.4,250.2 
					324.5,234.6 324.3,180.9 				"/>
			</g>
			<g>
				
					<linearGradient id="SVGID_00000096778599493214470730000005135830208355888831_" gradientUnits="userSpaceOnUse" x1="1818.0485" y1="169.8438" x2="1818.0485" y2="273.1924" gradientTransform="matrix(-1 0 0 1 2084.707 0)">
					<stop  offset="0" style="stop-color:#64C18B"/>
					<stop  offset="0.5" style="stop-color:#04A54F"/>
					<stop  offset="1" style="stop-color:#04924C"/>
				</linearGradient>
				<polygon style="fill:url(#SVGID_00000096778599493214470730000005135830208355888831_);" points="253,174.3 253.2,275.7 
					280.4,260 280.1,158.6 				"/>
			</g>
			<g>
				
					<linearGradient id="SVGID_00000068648469091299744590000011283300298235995547_" gradientUnits="userSpaceOnUse" x1="1862.2181" y1="170.4966" x2="1862.2181" y2="301.1363" gradientTransform="matrix(-1 0 0 1 2084.707 0)">
					<stop  offset="0" style="stop-color:#F79554"/>
					<stop  offset="0.5" style="stop-color:#F27623"/>
					<stop  offset="1" style="stop-color:#D4632A"/>
				</linearGradient>
				<polygon style="fill:url(#SVGID_00000068648469091299744590000011283300298235995547_);" points="208.7,171.6 209.1,301.2 
					236.2,285.5 235.9,155.9 				"/>
			</g>
		</g>
		<g>
			
				<linearGradient id="SVGID_00000171699463257779026050000017169666974923228341_" gradientUnits="userSpaceOnUse" x1="1705.7643" y1="265.5161" x2="1700.8683" y2="289.0168" gradientTransform="matrix(-1 0 0 1 2084.707 0)">
				<stop  offset="0" style="stop-color:#F4E0CD"/>
				<stop  offset="1" style="stop-color:#E1B996"/>
			</linearGradient>
			<polygon style="fill:url(#SVGID_00000171699463257779026050000017169666974923228341_);" points="399.8,270.1 401.2,283.2 
				365.3,295.7 365.9,265.4 			"/>
			
				<linearGradient id="SVGID_00000155826631939914815190000009157486966340137130_" gradientUnits="userSpaceOnUse" x1="1715.5592" y1="218.249" x2="1716.212" y2="270.1464" gradientTransform="matrix(-1 0 0 1 2084.707 0)">
				<stop  offset="0" style="stop-color:#F9EEE1"/>
				<stop  offset="0.5" style="stop-color:#F5E5D3"/>
				<stop  offset="1" style="stop-color:#E3BFAF"/>
			</linearGradient>
			<path style="fill:url(#SVGID_00000155826631939914815190000009157486966340137130_);" d="M354.9,214.8c0,0-3.9,4.9-2.8,13.8
				c1.1,8.9-3.9,12.9-2.6,23c1.4,10.1,9.2,29.9,27.3,17.3s9.7-46.2,9.7-46.2L354.9,214.8z"/>
			<path class="st59" d="M371.6,192.5c0,0,14-7.3,27,3.2c13.1,10.5,29.8,30.1,16.6,51c-13.2,20.9-8.8,23.4-12.8,25.9
				c-4,2.5-21.5,0.3-26.8-3.6c-5.2-3.9-3.3-11.3-3.3-11.3s12.9-15.4,6.2-17.9c-6.7-2.5-7.3,4.3-7.3,4.3l-3.2,0.1
				c0,0-0.3-7.8-3.2-10.7c-2.9-2.9,0.5-6.6-3.1-9.9c-3.6-3.2-11.8-6.3-7.8-17.3C355.8,201,356.8,192.9,371.6,192.5z"/>
			<g>
				
					<linearGradient id="SVGID_00000057866125361362967150000008240793213562046879_" gradientUnits="userSpaceOnUse" x1="1821.7301" y1="203.6478" x2="1779.6246" y2="297.9771" gradientTransform="matrix(-1 0 0 1 2084.707 0)">
					<stop  offset="0" style="stop-color:#F9EEE1"/>
					<stop  offset="0.5" style="stop-color:#F5E5D3"/>
					<stop  offset="1" style="stop-color:#E3BFAF"/>
				</linearGradient>
				<path style="fill:url(#SVGID_00000057866125361362967150000008240793213562046879_);" d="M274.9,192.4L274.9,192.4
					C274.9,192.4,275,192.4,274.9,192.4c0.7-0.8,1.3-1.3,1.8-1.7c0.1-0.1,0.1-0.1,0.2-0.1c0,0,0,0,0,0c0.5-0.3,0.9-0.5,1.3-0.5
					c0.6,0,1.1,0.2,1.5,0.6c0.4,0.4,0.8,1.1,1.1,1.9c0.1,0.3,0.2,0.7,0.3,1c0.1,0.5,0.3,1,0.3,1.5c0.2,1.3,0.4,2.7,0.4,4
					c0,0.3,0,0.6,0,0.9c-0.2,4.7,4.3,6.2,4.3,6.2s-2-0.9-1.2-6.2c0.7-5.3,5.7,5.6,5.5,13c-0.3,7.5-8.1,16.5-2.9,27.9
					c6,13.4,14,41.2,14,41.2c4.7-0.6,12.6,1.3,12.6,1.3v28.1c0,0-26.8-4.2-34.2-13.1c-7.4-8.9-8.2-61-8.2-61s-0.9-4.4-4.4-18.7
					C264.6,208.1,270.8,197,274.9,192.4z"/>
				<path class="st72" d="M285,203.8c0,0.2,0.2,0.7,0.4,1.5c0,0.1,0.1,0.3,0.1,0.5c-0.3-0.5-0.7-1.3-0.8-2.6L285,203.8z"/>
			</g>
			
				<linearGradient id="SVGID_00000167379450364746626060000016568929976000957063_" gradientUnits="userSpaceOnUse" x1="1716.5857" y1="241.4344" x2="1716.5857" y2="418.434" gradientTransform="matrix(-1 0 0 1 2084.707 0)">
				<stop  offset="0" style="stop-color:#F37E5E"/>
				<stop  offset="0.5" style="stop-color:#EB2127"/>
				<stop  offset="1" style="stop-color:#CF232B"/>
			</linearGradient>
			<path style="fill:url(#SVGID_00000167379450364746626060000016568929976000957063_);" d="M401.2,274.4c0,0-6.9,15.8-35.4,10.9
				l-10,4.9l-42.9-9.5c0,0-7.9,14.4-7.7,33.8l34.4,13c0,0,2.9,15.7,4.5,28c1.6,12.3-7.2,36.1-3.2,42.7c4.1,6.6,22.4,21.2,48.9,10.2
				c26.5-11.1,33-18.4,33-27.5c0-9,1.6-51,5.4-66.6C432.2,298.6,436.8,275.6,401.2,274.4z"/>
		</g>
	</g>
	<path class="st64" d="M363.1,344.3c-3.6,2.1-6.5,6.7-6.5,10.3v118.3c0,3.6,2.9,4.8,6.5,2.8L506,393.1c3.6-2.1,6.5-6.7,6.5-10.3
		V264.6c0-3.6-2.9-4.8-6.5-2.8L363.1,344.3z"/>
	<g>
		<g>
			<polygon class="st45" points="106.7,392.6 174.2,431.6 274.8,373.5 219.2,341.4 193.6,342.5 			"/>
			<polygon class="st74" points="205.5,347.1 193.6,342.5 219.2,341.4 			"/>
		</g>
		<path class="st54" d="M227.3,352.7c-1.2-0.7-3.1-0.7-4.3,0c-0.4,0.2-0.7,0.5-0.8,0.8h-17.9c-0.1-0.3-0.4-0.6-0.8-0.8
			c-1.2-0.7-3.1-0.7-4.3,0c-1.2,0.7-1.2,1.8,0,2.5c0.5,0.3,1.1,0.4,1.7,0.5l0.2,32.6c-0.6,0.1-1.1,0.2-1.5,0.5
			c-0.5,0.3-0.7,0.6-0.8,1l-24.9,0c-0.1-0.4-0.4-0.7-0.9-1c-1.2-0.7-3.1-0.7-4.3,0c-1.2,0.7-1.2,1.8,0,2.5c0.4,0.3,1,0.4,1.6,0.5
			l0.1,23.6c-0.6,0.1-1.1,0.2-1.5,0.5c-1.2,0.7-1.2,1.8,0,2.5c1.2,0.7,3.1,0.7,4.3,0c1.2-0.7,1.2-1.8,0-2.5c-0.4-0.3-1-0.4-1.6-0.5
			l-0.1-23.6c0.6-0.1,1.1-0.2,1.5-0.5c0.4-0.2,0.6-0.5,0.8-0.8h25c0.1,0.3,0.4,0.6,0.8,0.8c1.2,0.7,3.1,0.7,4.3,0
			c1.2-0.7,1.2-1.8,0-2.5c-0.4-0.3-1-0.4-1.6-0.5l-0.2-32.7c0.5-0.1,1-0.2,1.4-0.5c0.5-0.3,0.7-0.6,0.8-1h17.8
			c0.1,0.4,0.4,0.7,0.8,1c1.2,0.7,3.1,0.7,4.3,0C228.5,354.5,228.5,353.4,227.3,352.7z"/>
	</g>
</g>
</svg>
