<svg id="Layer_1" data-name="Layer 1" xmlns="http://www.w3.org/2000/svg" viewBox="0 0 511 512"><defs><style>.cls-1{fill:#e6ecff;}.cls-2{fill:#4294ff;}</style></defs><rect class="cls-1" width="511" height="512"/><path class="cls-2" d="M439.6,382.24A94.94,94.94,0,0,0,400.18,364L330,350a15.87,15.87,0,0,1-12.67-15.68V316c69.92-6.69,80-21,80-35.52,0-43-28.61-143-33.31-159.23-.61-25.12-5.18-39.23-16.67-51.62-8.13-8.8-20.1-10.84-29.73-12.48-3.78-.67-9-1.53-10.91-2.59-17.06-9.21-33.92-13.69-54-14.08C210.52,42.24,158.71,69.06,141,118.08c-1.28,4.58-31.65,112.8-31.65,162.43,0,20.71,23.39,31.62,80,36.61v17.15A15.9,15.9,0,0,1,176.6,350L106.36,364a95.27,95.27,0,0,0-39.3,18.18,16,16,0,0,0-1.89,23.29,254.14,254.14,0,0,0,188.16,83c71.78,0,140.39-30.24,188.16-83a16,16,0,0,0-1.89-23.26Z"/></svg>